M48
INCH,TZ
T1C0.0315
T2C0.0354
T3C0.0394
T4C0.0433
T5C0.2087
%
G90
G05
T1
X44232Y-51942
X47060Y-54770
X47682Y-48492
X48400Y-56950
X50510Y-51320
X50730Y-27680
X51990Y-32380
X52450Y-36100
X52643Y-52707
X53485Y-39964
X54290Y-40950
X54594Y-26645
X55097Y-46414
X55854Y-31345
X56650Y-52210
X56800Y-54200
X56807Y-45964
X57320Y-34800
X58154Y-39915
X58355Y-38664
X58360Y-51760
X58517Y-45504
X60070Y-51300
X60197Y-45044
X61750Y-50840
X65444Y-49297
X66615Y-47014
X67650Y-43150
X71240Y-50850
X71315Y-48274
X72350Y-44410
T2
X41703Y-56583
X42410Y-57290
X50870Y-22400
X51836Y-22141
X76610Y-48130
X76869Y-47164
T3
X53060Y-45980
X53319Y-46946
X53578Y-47912
X53836Y-48878
X54095Y-49844
X54354Y-50810
X54613Y-51776
X54872Y-52741
X61753Y-43651
X62012Y-44617
X62271Y-45582
X62530Y-46548
X62789Y-47514
X63047Y-48480
X63306Y-49446
X63565Y-50412
T4
X43223Y-55777
X44637Y-54363
X46663Y-52327
X48077Y-50913
X49554Y-38949
X51486Y-38431
X51771Y-23844
X52289Y-25776
X53031Y-28544
X53549Y-30476
X54434Y-37639
X56366Y-37121
X59304Y-36339
X61236Y-35821
X68520Y-45450
X70452Y-45968
X73224Y-46711
X75156Y-47229
T5
X49100Y-44300
X64350Y-40250
T0
M30
