G04 #@! TF.GenerationSoftware,KiCad,Pcbnew,5.1.10-88a1d61d58~88~ubuntu18.04.1*
G04 #@! TF.CreationDate,2021-09-12T23:00:54+02:00*
G04 #@! TF.ProjectId,remote_board,72656d6f-7465-45f6-926f-6172642e6b69,rev?*
G04 #@! TF.SameCoordinates,Original*
G04 #@! TF.FileFunction,Copper,L2,Bot*
G04 #@! TF.FilePolarity,Positive*
%FSLAX46Y46*%
G04 Gerber Fmt 4.6, Leading zero omitted, Abs format (unit mm)*
G04 Created by KiCad (PCBNEW 5.1.10-88a1d61d58~88~ubuntu18.04.1) date 2021-09-12 23:00:54*
%MOMM*%
%LPD*%
G01*
G04 APERTURE LIST*
G04 #@! TA.AperFunction,ComponentPad*
%ADD10C,0.100000*%
G04 #@! TD*
G04 #@! TA.AperFunction,ComponentPad*
%ADD11C,2.000000*%
G04 #@! TD*
G04 #@! TA.AperFunction,ComponentPad*
%ADD12C,1.600000*%
G04 #@! TD*
G04 #@! TA.AperFunction,ComponentPad*
%ADD13C,1.800000*%
G04 #@! TD*
G04 #@! TA.AperFunction,ViaPad*
%ADD14C,1.000000*%
G04 #@! TD*
G04 #@! TA.AperFunction,Conductor*
%ADD15C,0.400000*%
G04 #@! TD*
G04 APERTURE END LIST*
G04 #@! TA.AperFunction,ComponentPad*
G36*
G01*
X146937665Y-101590454D02*
X146937665Y-101590454D01*
G75*
G02*
X147503351Y-100610658I772741J207055D01*
G01*
X147503351Y-100610658D01*
G75*
G02*
X148483147Y-101176344I207055J-772741D01*
G01*
X148483147Y-101176344D01*
G75*
G02*
X147917461Y-102156140I-772741J-207055D01*
G01*
X147917461Y-102156140D01*
G75*
G02*
X146937665Y-101590454I-207055J772741D01*
G01*
G37*
G04 #@! TD.AperFunction*
G04 #@! TA.AperFunction,ComponentPad*
D10*
G36*
X137330915Y-104992796D02*
G01*
X136916804Y-103447315D01*
X138462285Y-103033204D01*
X138876396Y-104578685D01*
X137330915Y-104992796D01*
G37*
G04 #@! TD.AperFunction*
G04 #@! TA.AperFunction,ComponentPad*
G36*
G01*
X141095665Y-79822654D02*
X141095665Y-79822654D01*
G75*
G02*
X141661351Y-78842858I772741J207055D01*
G01*
X141661351Y-78842858D01*
G75*
G02*
X142641147Y-79408544I207055J-772741D01*
G01*
X142641147Y-79408544D01*
G75*
G02*
X142075461Y-80388340I-772741J-207055D01*
G01*
X142075461Y-80388340D01*
G75*
G02*
X141095665Y-79822654I-207055J772741D01*
G01*
G37*
G04 #@! TD.AperFunction*
G04 #@! TA.AperFunction,ComponentPad*
G36*
X131488915Y-83224996D02*
G01*
X131074804Y-81679515D01*
X132620285Y-81265404D01*
X133034396Y-82810885D01*
X131488915Y-83224996D01*
G37*
G04 #@! TD.AperFunction*
D11*
X109786149Y-141673851D03*
X113378251Y-138081749D03*
X150632348Y-92300600D03*
X155539252Y-90985800D03*
X138262548Y-95602600D03*
X143169452Y-94287800D03*
X130774252Y-97615200D03*
X125867348Y-98930000D03*
X134699200Y-72501948D03*
X136014000Y-77408852D03*
X178947704Y-116757800D03*
X174040800Y-115443000D03*
X122115851Y-129318749D03*
X118523749Y-132910851D03*
X131498800Y-60563948D03*
X132813600Y-65470852D03*
X190896052Y-119961200D03*
X185989148Y-118646400D03*
G04 #@! TA.AperFunction,ComponentPad*
G36*
G01*
X144497053Y-117522431D02*
X144497053Y-117522431D01*
G75*
G02*
X143517257Y-116956745I-207055J772741D01*
G01*
X143517257Y-116956745D01*
G75*
G02*
X144082943Y-115976949I772741J207055D01*
G01*
X144082943Y-115976949D01*
G75*
G02*
X145062739Y-116542635I207055J-772741D01*
G01*
X145062739Y-116542635D01*
G75*
G02*
X144497053Y-117522431I-772741J-207055D01*
G01*
G37*
G04 #@! TD.AperFunction*
D12*
X148234400Y-131470400D03*
G04 #@! TA.AperFunction,ComponentPad*
G36*
G01*
X148840453Y-116354031D02*
X148840453Y-116354031D01*
G75*
G02*
X147860657Y-115788345I-207055J772741D01*
G01*
X147860657Y-115788345D01*
G75*
G02*
X148426343Y-114808549I772741J207055D01*
G01*
X148426343Y-114808549D01*
G75*
G02*
X149406139Y-115374235I207055J-772741D01*
G01*
X149406139Y-115374235D01*
G75*
G02*
X148840453Y-116354031I-772741J-207055D01*
G01*
G37*
G04 #@! TD.AperFunction*
X152577800Y-130302000D03*
G04 #@! TA.AperFunction,ComponentPad*
G36*
G01*
X140153653Y-118665431D02*
X140153653Y-118665431D01*
G75*
G02*
X139173857Y-118099745I-207055J772741D01*
G01*
X139173857Y-118099745D01*
G75*
G02*
X139739543Y-117119949I772741J207055D01*
G01*
X139739543Y-117119949D01*
G75*
G02*
X140719339Y-117685635I207055J-772741D01*
G01*
X140719339Y-117685635D01*
G75*
G02*
X140153653Y-118665431I-772741J-207055D01*
G01*
G37*
G04 #@! TD.AperFunction*
X143891000Y-132613400D03*
G04 #@! TA.AperFunction,ComponentPad*
G36*
G01*
X167001631Y-125421653D02*
X167001631Y-125421653D01*
G75*
G02*
X166021835Y-125987339I-772741J207055D01*
G01*
X166021835Y-125987339D01*
G75*
G02*
X165456149Y-125007543I207055J772741D01*
G01*
X165456149Y-125007543D01*
G75*
G02*
X166435945Y-124441857I772741J-207055D01*
G01*
X166435945Y-124441857D01*
G75*
G02*
X167001631Y-125421653I-207055J-772741D01*
G01*
G37*
G04 #@! TD.AperFunction*
X180949600Y-129159000D03*
G04 #@! TA.AperFunction,ComponentPad*
G36*
G01*
X153107653Y-115185631D02*
X153107653Y-115185631D01*
G75*
G02*
X152127857Y-114619945I-207055J772741D01*
G01*
X152127857Y-114619945D01*
G75*
G02*
X152693543Y-113640149I772741J207055D01*
G01*
X152693543Y-113640149D01*
G75*
G02*
X153673339Y-114205835I207055J-772741D01*
G01*
X153673339Y-114205835D01*
G75*
G02*
X153107653Y-115185631I-772741J-207055D01*
G01*
G37*
G04 #@! TD.AperFunction*
X156845000Y-129133600D03*
G04 #@! TA.AperFunction,ComponentPad*
G36*
G01*
X133146622Y-134442378D02*
X133146622Y-134442378D01*
G75*
G02*
X133146622Y-133311008I565685J565685D01*
G01*
X133146622Y-133311008D01*
G75*
G02*
X134277992Y-133311008I565685J-565685D01*
G01*
X134277992Y-133311008D01*
G75*
G02*
X134277992Y-134442378I-565685J-565685D01*
G01*
X134277992Y-134442378D01*
G75*
G02*
X133146622Y-134442378I-565685J565685D01*
G01*
G37*
G04 #@! TD.AperFunction*
X122936000Y-144653000D03*
G04 #@! TA.AperFunction,ComponentPad*
G36*
G01*
X148015346Y-97433065D02*
X148015346Y-97433065D01*
G75*
G02*
X148995142Y-97998751I207055J-772741D01*
G01*
X148995142Y-97998751D01*
G75*
G02*
X148429456Y-98978547I-772741J-207055D01*
G01*
X148429456Y-98978547D01*
G75*
G02*
X147449660Y-98412861I-207055J772741D01*
G01*
X147449660Y-98412861D01*
G75*
G02*
X148015346Y-97433065I772741J207055D01*
G01*
G37*
G04 #@! TD.AperFunction*
G04 #@! TA.AperFunction,ComponentPad*
D10*
G36*
X144613004Y-87826315D02*
G01*
X146158485Y-87412204D01*
X146572596Y-88957685D01*
X145027115Y-89371796D01*
X144613004Y-87826315D01*
G37*
G04 #@! TD.AperFunction*
G04 #@! TA.AperFunction,ComponentPad*
G36*
G01*
X135645546Y-100735065D02*
X135645546Y-100735065D01*
G75*
G02*
X136625342Y-101300751I207055J-772741D01*
G01*
X136625342Y-101300751D01*
G75*
G02*
X136059656Y-102280547I-772741J-207055D01*
G01*
X136059656Y-102280547D01*
G75*
G02*
X135079860Y-101714861I-207055J772741D01*
G01*
X135079860Y-101714861D01*
G75*
G02*
X135645546Y-100735065I772741J207055D01*
G01*
G37*
G04 #@! TD.AperFunction*
G04 #@! TA.AperFunction,ComponentPad*
G36*
X132243204Y-91128315D02*
G01*
X133788685Y-90714204D01*
X134202796Y-92259685D01*
X132657315Y-92673796D01*
X132243204Y-91128315D01*
G37*
G04 #@! TD.AperFunction*
G04 #@! TA.AperFunction,ComponentPad*
G36*
G01*
X169408454Y-118642065D02*
X169408454Y-118642065D01*
G75*
G02*
X169974140Y-119621861I-207055J-772741D01*
G01*
X169974140Y-119621861D01*
G75*
G02*
X168994344Y-120187547I-772741J207055D01*
G01*
X168994344Y-120187547D01*
G75*
G02*
X168428658Y-119207751I207055J772741D01*
G01*
X168428658Y-119207751D01*
G75*
G02*
X169408454Y-118642065I772741J-207055D01*
G01*
G37*
G04 #@! TD.AperFunction*
G04 #@! TA.AperFunction,ComponentPad*
G36*
X171265315Y-108621204D02*
G01*
X172810796Y-109035315D01*
X172396685Y-110580796D01*
X170851204Y-110166685D01*
X171265315Y-108621204D01*
G37*
G04 #@! TD.AperFunction*
G04 #@! TA.AperFunction,ComponentPad*
G36*
G01*
X121676880Y-123734280D02*
X121676880Y-123734280D01*
G75*
G02*
X120545510Y-123734280I-565685J565685D01*
G01*
X120545510Y-123734280D01*
G75*
G02*
X120545510Y-122602910I565685J565685D01*
G01*
X120545510Y-122602910D01*
G75*
G02*
X121676880Y-122602910I565685J-565685D01*
G01*
X121676880Y-122602910D01*
G75*
G02*
X121676880Y-123734280I-565685J-565685D01*
G01*
G37*
G04 #@! TD.AperFunction*
G04 #@! TA.AperFunction,ComponentPad*
G36*
X129426771Y-130352800D02*
G01*
X128295400Y-131484171D01*
X127164029Y-130352800D01*
X128295400Y-129221429D01*
X129426771Y-130352800D01*
G37*
G04 #@! TD.AperFunction*
G04 #@! TA.AperFunction,ComponentPad*
G36*
G01*
X137895265Y-67884654D02*
X137895265Y-67884654D01*
G75*
G02*
X138460951Y-66904858I772741J207055D01*
G01*
X138460951Y-66904858D01*
G75*
G02*
X139440747Y-67470544I207055J-772741D01*
G01*
X139440747Y-67470544D01*
G75*
G02*
X138875061Y-68450340I-772741J-207055D01*
G01*
X138875061Y-68450340D01*
G75*
G02*
X137895265Y-67884654I-207055J772741D01*
G01*
G37*
G04 #@! TD.AperFunction*
G04 #@! TA.AperFunction,ComponentPad*
G36*
X128288515Y-71286996D02*
G01*
X127874404Y-69741515D01*
X129419885Y-69327404D01*
X129833996Y-70872885D01*
X128288515Y-71286996D01*
G37*
G04 #@! TD.AperFunction*
G04 #@! TA.AperFunction,ComponentPad*
G36*
G01*
X181346454Y-121842465D02*
X181346454Y-121842465D01*
G75*
G02*
X181912140Y-122822261I-207055J-772741D01*
G01*
X181912140Y-122822261D01*
G75*
G02*
X180932344Y-123387947I-772741J207055D01*
G01*
X180932344Y-123387947D01*
G75*
G02*
X180366658Y-122408151I207055J772741D01*
G01*
X180366658Y-122408151D01*
G75*
G02*
X181346454Y-121842465I772741J-207055D01*
G01*
G37*
G04 #@! TD.AperFunction*
G04 #@! TA.AperFunction,ComponentPad*
G36*
X183203315Y-111821604D02*
G01*
X184748796Y-112235715D01*
X184334685Y-113781196D01*
X182789204Y-113367085D01*
X183203315Y-111821604D01*
G37*
G04 #@! TD.AperFunction*
G04 #@! TA.AperFunction,ComponentPad*
G36*
G01*
X112913880Y-132497280D02*
X112913880Y-132497280D01*
G75*
G02*
X111782510Y-132497280I-565685J565685D01*
G01*
X111782510Y-132497280D01*
G75*
G02*
X111782510Y-131365910I565685J565685D01*
G01*
X111782510Y-131365910D01*
G75*
G02*
X112913880Y-131365910I565685J-565685D01*
G01*
X112913880Y-131365910D01*
G75*
G02*
X112913880Y-132497280I-565685J-565685D01*
G01*
G37*
G04 #@! TD.AperFunction*
G04 #@! TA.AperFunction,ComponentPad*
G36*
X120663771Y-139115800D02*
G01*
X119532400Y-140247171D01*
X118401029Y-139115800D01*
X119532400Y-137984429D01*
X120663771Y-139115800D01*
G37*
G04 #@! TD.AperFunction*
G04 #@! TA.AperFunction,ComponentPad*
G36*
X108994192Y-145516600D02*
G01*
X107721400Y-146789392D01*
X106448608Y-145516600D01*
X107721400Y-144243808D01*
X108994192Y-145516600D01*
G37*
G04 #@! TD.AperFunction*
D13*
X105925349Y-143720549D03*
X194589400Y-122250200D03*
G04 #@! TA.AperFunction,ComponentPad*
D10*
G36*
X194610404Y-118694478D02*
G01*
X196349070Y-119160352D01*
X195883196Y-120899018D01*
X194144530Y-120433144D01*
X194610404Y-118694478D01*
G37*
G04 #@! TD.AperFunction*
D13*
X131663252Y-56238600D03*
G04 #@! TA.AperFunction,ComponentPad*
D10*
G36*
X128573404Y-57998270D02*
G01*
X128107530Y-56259604D01*
X129846196Y-55793730D01*
X130312070Y-57532396D01*
X128573404Y-57998270D01*
G37*
G04 #@! TD.AperFunction*
G04 #@! TA.AperFunction,ComponentPad*
G36*
G01*
X155887538Y-111131416D02*
X155887538Y-111131416D01*
G75*
G02*
X156453224Y-110151620I772741J207055D01*
G01*
X156839594Y-110048092D01*
G75*
G02*
X157819390Y-110613778I207055J-772741D01*
G01*
X157819390Y-110613778D01*
G75*
G02*
X157253704Y-111593574I-772741J-207055D01*
G01*
X156867334Y-111697102D01*
G75*
G02*
X155887538Y-111131416I-207055J772741D01*
G01*
G37*
G04 #@! TD.AperFunction*
G04 #@! TA.AperFunction,ComponentPad*
G36*
G01*
X156544939Y-113584867D02*
X156544939Y-113584867D01*
G75*
G02*
X157110625Y-112605071I772741J207055D01*
G01*
X157496995Y-112501543D01*
G75*
G02*
X158476791Y-113067229I207055J-772741D01*
G01*
X158476791Y-113067229D01*
G75*
G02*
X157911105Y-114047025I-772741J-207055D01*
G01*
X157524735Y-114150553D01*
G75*
G02*
X156544939Y-113584867I-207055J772741D01*
G01*
G37*
G04 #@! TD.AperFunction*
G04 #@! TA.AperFunction,ComponentPad*
G36*
G01*
X157202339Y-116038319D02*
X157202339Y-116038319D01*
G75*
G02*
X157768025Y-115058523I772741J207055D01*
G01*
X158154395Y-114954995D01*
G75*
G02*
X159134191Y-115520681I207055J-772741D01*
G01*
X159134191Y-115520681D01*
G75*
G02*
X158568505Y-116500477I-772741J-207055D01*
G01*
X158182135Y-116604005D01*
G75*
G02*
X157202339Y-116038319I-207055J772741D01*
G01*
G37*
G04 #@! TD.AperFunction*
G04 #@! TA.AperFunction,ComponentPad*
G36*
G01*
X157859740Y-118491770D02*
X157859740Y-118491770D01*
G75*
G02*
X158425426Y-117511974I772741J207055D01*
G01*
X158811796Y-117408446D01*
G75*
G02*
X159791592Y-117974132I207055J-772741D01*
G01*
X159791592Y-117974132D01*
G75*
G02*
X159225906Y-118953928I-772741J-207055D01*
G01*
X158839536Y-119057456D01*
G75*
G02*
X157859740Y-118491770I-207055J772741D01*
G01*
G37*
G04 #@! TD.AperFunction*
G04 #@! TA.AperFunction,ComponentPad*
G36*
G01*
X158517140Y-120945222D02*
X158517140Y-120945222D01*
G75*
G02*
X159082826Y-119965426I772741J207055D01*
G01*
X159469196Y-119861898D01*
G75*
G02*
X160448992Y-120427584I207055J-772741D01*
G01*
X160448992Y-120427584D01*
G75*
G02*
X159883306Y-121407380I-772741J-207055D01*
G01*
X159496936Y-121510908D01*
G75*
G02*
X158517140Y-120945222I-207055J772741D01*
G01*
G37*
G04 #@! TD.AperFunction*
G04 #@! TA.AperFunction,ComponentPad*
G36*
G01*
X159174540Y-123398674D02*
X159174540Y-123398674D01*
G75*
G02*
X159740226Y-122418878I772741J207055D01*
G01*
X160126596Y-122315350D01*
G75*
G02*
X161106392Y-122881036I207055J-772741D01*
G01*
X161106392Y-122881036D01*
G75*
G02*
X160540706Y-123860832I-772741J-207055D01*
G01*
X160154336Y-123964360D01*
G75*
G02*
X159174540Y-123398674I-207055J772741D01*
G01*
G37*
G04 #@! TD.AperFunction*
G04 #@! TA.AperFunction,ComponentPad*
G36*
G01*
X159831941Y-125852125D02*
X159831941Y-125852125D01*
G75*
G02*
X160397627Y-124872329I772741J207055D01*
G01*
X160783997Y-124768801D01*
G75*
G02*
X161763793Y-125334487I207055J-772741D01*
G01*
X161763793Y-125334487D01*
G75*
G02*
X161198107Y-126314283I-772741J-207055D01*
G01*
X160811737Y-126417811D01*
G75*
G02*
X159831941Y-125852125I-207055J772741D01*
G01*
G37*
G04 #@! TD.AperFunction*
G04 #@! TA.AperFunction,ComponentPad*
G36*
G01*
X160489341Y-128305577D02*
X160489341Y-128305577D01*
G75*
G02*
X161055027Y-127325781I772741J207055D01*
G01*
X161441397Y-127222253D01*
G75*
G02*
X162421193Y-127787939I207055J-772741D01*
G01*
X162421193Y-127787939D01*
G75*
G02*
X161855507Y-128767735I-772741J-207055D01*
G01*
X161469137Y-128871263D01*
G75*
G02*
X160489341Y-128305577I-207055J772741D01*
G01*
G37*
G04 #@! TD.AperFunction*
G04 #@! TA.AperFunction,ComponentPad*
G36*
G01*
X138408277Y-134222180D02*
X138408277Y-134222180D01*
G75*
G02*
X138973963Y-133242384I772741J207055D01*
G01*
X139360333Y-133138856D01*
G75*
G02*
X140340129Y-133704542I207055J-772741D01*
G01*
X140340129Y-133704542D01*
G75*
G02*
X139774443Y-134684338I-772741J-207055D01*
G01*
X139388073Y-134787866D01*
G75*
G02*
X138408277Y-134222180I-207055J772741D01*
G01*
G37*
G04 #@! TD.AperFunction*
G04 #@! TA.AperFunction,ComponentPad*
G36*
G01*
X137750876Y-131768729D02*
X137750876Y-131768729D01*
G75*
G02*
X138316562Y-130788933I772741J207055D01*
G01*
X138702932Y-130685405D01*
G75*
G02*
X139682728Y-131251091I207055J-772741D01*
G01*
X139682728Y-131251091D01*
G75*
G02*
X139117042Y-132230887I-772741J-207055D01*
G01*
X138730672Y-132334415D01*
G75*
G02*
X137750876Y-131768729I-207055J772741D01*
G01*
G37*
G04 #@! TD.AperFunction*
G04 #@! TA.AperFunction,ComponentPad*
G36*
G01*
X137093476Y-129315277D02*
X137093476Y-129315277D01*
G75*
G02*
X137659162Y-128335481I772741J207055D01*
G01*
X138045532Y-128231953D01*
G75*
G02*
X139025328Y-128797639I207055J-772741D01*
G01*
X139025328Y-128797639D01*
G75*
G02*
X138459642Y-129777435I-772741J-207055D01*
G01*
X138073272Y-129880963D01*
G75*
G02*
X137093476Y-129315277I-207055J772741D01*
G01*
G37*
G04 #@! TD.AperFunction*
G04 #@! TA.AperFunction,ComponentPad*
G36*
G01*
X136436075Y-126861825D02*
X136436075Y-126861825D01*
G75*
G02*
X137001761Y-125882029I772741J207055D01*
G01*
X137388131Y-125778501D01*
G75*
G02*
X138367927Y-126344187I207055J-772741D01*
G01*
X138367927Y-126344187D01*
G75*
G02*
X137802241Y-127323983I-772741J-207055D01*
G01*
X137415871Y-127427511D01*
G75*
G02*
X136436075Y-126861825I-207055J772741D01*
G01*
G37*
G04 #@! TD.AperFunction*
G04 #@! TA.AperFunction,ComponentPad*
G36*
G01*
X135778675Y-124408374D02*
X135778675Y-124408374D01*
G75*
G02*
X136344361Y-123428578I772741J207055D01*
G01*
X136730731Y-123325050D01*
G75*
G02*
X137710527Y-123890736I207055J-772741D01*
G01*
X137710527Y-123890736D01*
G75*
G02*
X137144841Y-124870532I-772741J-207055D01*
G01*
X136758471Y-124974060D01*
G75*
G02*
X135778675Y-124408374I-207055J772741D01*
G01*
G37*
G04 #@! TD.AperFunction*
G04 #@! TA.AperFunction,ComponentPad*
G36*
G01*
X135121275Y-121954922D02*
X135121275Y-121954922D01*
G75*
G02*
X135686961Y-120975126I772741J207055D01*
G01*
X136073331Y-120871598D01*
G75*
G02*
X137053127Y-121437284I207055J-772741D01*
G01*
X137053127Y-121437284D01*
G75*
G02*
X136487441Y-122417080I-772741J-207055D01*
G01*
X136101071Y-122520608D01*
G75*
G02*
X135121275Y-121954922I-207055J772741D01*
G01*
G37*
G04 #@! TD.AperFunction*
G04 #@! TA.AperFunction,ComponentPad*
G36*
X134065293Y-118013945D02*
G01*
X133547655Y-116082093D01*
X135479507Y-115564455D01*
X135997145Y-117496307D01*
X134065293Y-118013945D01*
G37*
G04 #@! TD.AperFunction*
G04 #@! TA.AperFunction,ComponentPad*
G36*
G01*
X134463874Y-119501471D02*
X134463874Y-119501471D01*
G75*
G02*
X135029560Y-118521675I772741J207055D01*
G01*
X135415930Y-118418147D01*
G75*
G02*
X136395726Y-118983833I207055J-772741D01*
G01*
X136395726Y-118983833D01*
G75*
G02*
X135830040Y-119963629I-772741J-207055D01*
G01*
X135443670Y-120067157D01*
G75*
G02*
X134463874Y-119501471I-207055J772741D01*
G01*
G37*
G04 #@! TD.AperFunction*
D14*
X144272000Y-137668000D03*
D15*
X181139399Y-122615206D02*
X166995594Y-122615206D01*
X125730000Y-95504000D02*
X132867400Y-69240400D01*
X132867400Y-69240400D02*
X138668006Y-67677599D01*
X113973795Y-107260205D02*
X125730000Y-95504000D01*
X113973795Y-130305995D02*
X112348195Y-131931595D01*
X113973795Y-126953195D02*
X113973795Y-130305995D01*
X113973795Y-126953195D02*
X113973795Y-107260205D01*
X162613339Y-118232951D02*
X163706294Y-119325906D01*
X158825666Y-118232951D02*
X162613339Y-118232951D01*
X166995594Y-122615206D02*
X163706294Y-119325906D01*
X145796000Y-129453458D02*
X157016507Y-118232951D01*
X145796000Y-134188200D02*
X145796000Y-129453458D01*
X141808200Y-138176000D02*
X145796000Y-134188200D01*
X125222000Y-138176000D02*
X141808200Y-138176000D01*
X119943248Y-143454752D02*
X125222000Y-138176000D01*
X108912272Y-143454752D02*
X119943248Y-143454752D01*
X157016507Y-118232951D02*
X158825666Y-118232951D01*
X107746800Y-142289280D02*
X108912272Y-143454752D01*
X107746800Y-136532990D02*
X107746800Y-142289280D01*
X112348195Y-131931595D02*
X107746800Y-136532990D01*
X109786149Y-141673851D02*
X119532400Y-139115800D01*
X190896052Y-119928452D02*
X190896052Y-119961200D01*
X183769000Y-112801400D02*
X190896052Y-119928452D01*
X128854200Y-70307200D02*
X131498800Y-60563948D01*
X128295400Y-130352800D02*
X122115851Y-129318749D01*
X169201399Y-119414806D02*
X166709606Y-119414806D01*
X163074300Y-115779500D02*
X164668200Y-117373400D01*
X158168265Y-115779500D02*
X163074300Y-115779500D01*
X166709606Y-119414806D02*
X164668200Y-117373400D01*
X159766000Y-113792000D02*
X158168265Y-115779500D01*
X156718000Y-102616000D02*
X159766000Y-113792000D01*
X144780000Y-91694000D02*
X156718000Y-102616000D01*
X141868406Y-79615599D02*
X144780000Y-91694000D01*
X131749800Y-135102600D02*
X131749800Y-129997200D01*
X132816600Y-136169400D02*
X131749800Y-135102600D01*
X124921195Y-123168595D02*
X121111195Y-123168595D01*
X140182600Y-136169400D02*
X132816600Y-136169400D01*
X131749800Y-129997200D02*
X124921195Y-123168595D01*
X141986000Y-134366000D02*
X140182600Y-136169400D01*
X141986000Y-129794000D02*
X141986000Y-134366000D01*
X156000500Y-115779500D02*
X141986000Y-129794000D01*
X158168265Y-115779500D02*
X156000500Y-115779500D01*
X178947704Y-116717704D02*
X178947704Y-116757800D01*
X171831000Y-109601000D02*
X178947704Y-116717704D01*
X134699200Y-72501948D02*
X132054600Y-82245200D01*
X130774252Y-97615200D02*
X133223000Y-91694000D01*
X148222401Y-98205806D02*
X147710406Y-101383399D01*
X137795000Y-105918000D02*
X135763000Y-105029000D01*
X147710406Y-101383399D02*
X137795000Y-105918000D01*
X135763000Y-105029000D02*
X130972429Y-109565571D01*
X135852601Y-101507806D02*
X135763000Y-105029000D01*
X137315602Y-131509910D02*
X136824346Y-131018654D01*
X138716802Y-131509910D02*
X137315602Y-131509910D01*
X130972429Y-109565571D02*
X136824346Y-131018654D01*
X137896600Y-104013000D02*
X138262548Y-95602600D01*
X145592800Y-88392000D02*
X150632348Y-92300600D01*
X122072400Y-145516600D02*
X122936000Y-144653000D01*
X117627400Y-145516600D02*
X122072400Y-145516600D01*
X107721400Y-145516600D02*
X117627400Y-145516600D01*
X195246800Y-119796748D02*
X195246800Y-119707200D01*
X191711040Y-122908558D02*
X191463766Y-122988233D01*
X194912398Y-119707200D02*
X191711040Y-122908558D01*
X195246800Y-119707200D02*
X194912398Y-119707200D01*
X155727400Y-128016000D02*
X155016200Y-128016000D01*
X156845000Y-129133600D02*
X155727400Y-128016000D01*
X148145410Y-134150010D02*
X146834399Y-132838999D01*
X146834399Y-130798399D02*
X149616798Y-128016000D01*
X191463767Y-122988233D02*
X156822945Y-134150010D01*
X146834399Y-132838999D02*
X146834399Y-130798399D01*
X149616798Y-128016000D02*
X155016200Y-128016000D01*
X156822945Y-134150010D02*
X148145410Y-134150010D01*
X181863346Y-127762654D02*
X180949600Y-129159000D01*
X196132493Y-123361493D02*
X181863346Y-127762654D01*
X196132493Y-123353976D02*
X196132493Y-123361493D01*
X197764400Y-121722069D02*
X196132493Y-123353976D01*
X197764400Y-117754400D02*
X197764400Y-121722069D01*
X134748599Y-54738599D02*
X136093200Y-56083200D01*
X130435453Y-54738599D02*
X134748599Y-54738599D01*
X129209800Y-55964252D02*
X130435453Y-54738599D01*
X129209800Y-56896000D02*
X129209800Y-55964252D01*
X136093200Y-56083200D02*
X197764400Y-117754400D01*
X139946598Y-124058409D02*
X137402001Y-126603006D01*
X139946598Y-122903198D02*
X139946598Y-124058409D01*
X139946598Y-117892690D02*
X139946598Y-122903198D01*
X139717111Y-115349689D02*
X148401797Y-115349689D01*
X137782781Y-117284019D02*
X139717111Y-115349689D01*
X148401797Y-115349689D02*
X148633398Y-115581290D01*
X137782781Y-123111375D02*
X137782781Y-117284019D01*
X136744601Y-124149555D02*
X137782781Y-123111375D01*
X144289998Y-122825862D02*
X138059402Y-129056458D01*
X144289998Y-121379198D02*
X144289998Y-122825862D01*
X144289998Y-116749690D02*
X144289998Y-121379198D01*
X116322974Y-108474374D02*
X125867348Y-98930000D01*
X118523749Y-132936251D02*
X118523749Y-132910851D01*
X113378251Y-138081749D02*
X118523749Y-132936251D01*
X116322974Y-130710076D02*
X118523749Y-132910851D01*
X116322974Y-126000374D02*
X116322974Y-130710076D01*
X116322974Y-126000374D02*
X116322974Y-108474374D01*
X121127249Y-135514351D02*
X118523749Y-132910851D01*
X122883533Y-137270635D02*
X121127249Y-135514351D01*
X140808565Y-137270635D02*
X122883533Y-137270635D01*
X143891000Y-134188200D02*
X140808565Y-137270635D01*
X143891000Y-132613400D02*
X143891000Y-134188200D01*
X177244200Y-118646400D02*
X176225200Y-117627400D01*
X185989148Y-118646400D02*
X177244200Y-118646400D01*
X174040800Y-115443000D02*
X176225200Y-117627400D01*
X139700000Y-80264000D02*
X143169452Y-94287800D01*
X140360400Y-78181200D02*
X139700000Y-80264000D01*
X142113000Y-77724000D02*
X140360400Y-78181200D01*
X152139964Y-87636036D02*
X142113000Y-77724000D01*
X152400000Y-87884000D02*
X152139964Y-87636036D01*
X155956000Y-100711000D02*
X152400000Y-87884000D01*
X170696076Y-115443000D02*
X155956000Y-100711000D01*
X174040800Y-115443000D02*
X170696076Y-115443000D01*
X181008674Y-124675990D02*
X156489400Y-132537200D01*
X181164971Y-124625629D02*
X181008674Y-124675990D01*
X185989148Y-119801452D02*
X181164971Y-124625629D01*
X185989148Y-118646400D02*
X185989148Y-119801452D01*
X154813000Y-132537200D02*
X152577800Y-130302000D01*
X156489400Y-132537200D02*
X154813000Y-132537200D01*
X140638796Y-75868796D02*
X143178796Y-75868796D01*
X139840056Y-75868796D02*
X140638796Y-75868796D01*
X136014000Y-77408852D02*
X139840056Y-75868796D01*
X154686000Y-87376000D02*
X143178796Y-75868796D01*
X154686000Y-87376000D02*
X155539252Y-90985800D01*
X150114000Y-133350000D02*
X148234400Y-131470400D01*
X156692600Y-133350000D02*
X150114000Y-133350000D01*
X181134376Y-125476000D02*
X156692600Y-133350000D01*
X187589149Y-120124385D02*
X182761967Y-124951567D01*
X187589149Y-117878399D02*
X187589149Y-120124385D01*
X185661750Y-115951000D02*
X187589149Y-117878399D01*
X182761967Y-124951567D02*
X181134376Y-125476000D01*
X183896000Y-115951000D02*
X185661750Y-115951000D01*
X158930800Y-90985800D02*
X183896000Y-115951000D01*
X155539252Y-90985800D02*
X158930800Y-90985800D01*
X143764000Y-74930000D02*
X143178796Y-75868796D01*
X143764000Y-70586600D02*
X143764000Y-74930000D01*
X138709400Y-64998600D02*
X143764000Y-70586600D01*
X132813600Y-65470852D02*
X138709400Y-64998600D01*
X156464000Y-135128000D02*
X146812000Y-135128000D01*
X156718000Y-135024338D02*
X156464000Y-135128000D01*
X192372279Y-123536010D02*
X156718000Y-135024338D01*
X146812000Y-135128000D02*
X144272000Y-137668000D01*
X194589400Y-122250200D02*
X192372279Y-123536010D01*
X107969934Y-143643798D02*
X106002100Y-143643798D01*
X106002100Y-143643798D02*
X105925349Y-143720549D01*
X109042726Y-144716590D02*
X107969934Y-143643798D01*
X120800408Y-144716590D02*
X109042726Y-144716590D01*
X126324998Y-139192000D02*
X120800408Y-144716590D01*
X142748000Y-139192000D02*
X126324998Y-139192000D01*
X144272000Y-137668000D02*
X142748000Y-139192000D01*
X132363243Y-55538609D02*
X131663252Y-56238600D01*
X134417225Y-55538609D02*
X132363243Y-55538609D01*
X196949080Y-118070464D02*
X134417225Y-55538609D01*
X196949080Y-121031000D02*
X196949080Y-118070464D01*
X194589400Y-122250200D02*
X196949080Y-121031000D01*
M02*
