G04 #@! TF.GenerationSoftware,KiCad,Pcbnew,5.1.10-88a1d61d58~88~ubuntu18.04.1*
G04 #@! TF.CreationDate,2021-09-12T23:00:54+02:00*
G04 #@! TF.ProjectId,remote_board,72656d6f-7465-45f6-926f-6172642e6b69,rev?*
G04 #@! TF.SameCoordinates,Original*
G04 #@! TF.FileFunction,Soldermask,Top*
G04 #@! TF.FilePolarity,Negative*
%FSLAX46Y46*%
G04 Gerber Fmt 4.6, Leading zero omitted, Abs format (unit mm)*
G04 Created by KiCad (PCBNEW 5.1.10-88a1d61d58~88~ubuntu18.04.1) date 2021-09-12 23:00:54*
%MOMM*%
%LPD*%
G01*
G04 APERTURE LIST*
%ADD10C,0.010000*%
%ADD11C,0.100000*%
%ADD12C,2.000000*%
%ADD13C,1.600000*%
%ADD14C,5.300000*%
%ADD15C,1.800000*%
G04 APERTURE END LIST*
D10*
G36*
X116765249Y-119770368D02*
G01*
X116348895Y-121324221D01*
X113977226Y-120688734D01*
X113473219Y-122569713D01*
X112328274Y-122262926D01*
X112832281Y-120381947D01*
X110705957Y-119812200D01*
X111122310Y-118258347D01*
X116765249Y-119770368D01*
G37*
X116765249Y-119770368D02*
X116348895Y-121324221D01*
X113977226Y-120688734D01*
X113473219Y-122569713D01*
X112328274Y-122262926D01*
X112832281Y-120381947D01*
X110705957Y-119812200D01*
X111122310Y-118258347D01*
X116765249Y-119770368D01*
G36*
X115779149Y-123450545D02*
G01*
X115384708Y-124922616D01*
X109741770Y-123410596D01*
X110136210Y-121938525D01*
X115779149Y-123450545D01*
G37*
X115779149Y-123450545D02*
X115384708Y-124922616D01*
X109741770Y-123410596D01*
X110136210Y-121938525D01*
X115779149Y-123450545D01*
G36*
X116190099Y-99423193D02*
G01*
X116262513Y-99234336D01*
X116383054Y-98981761D01*
X122018581Y-100491796D01*
X121651554Y-101861558D01*
X120037617Y-101505846D01*
X118423679Y-101150132D01*
X119414241Y-101951338D01*
X120404801Y-102752542D01*
X120254782Y-103406265D01*
X120104762Y-104059989D01*
X118984936Y-104219876D01*
X117865108Y-104379761D01*
X116477173Y-103998449D01*
X115089237Y-103617138D01*
X115505369Y-103556268D01*
X116073213Y-103470031D01*
X116643247Y-103377777D01*
X117190304Y-103284165D01*
X117689220Y-103193857D01*
X118114828Y-103111511D01*
X118441964Y-103041787D01*
X118645461Y-102989345D01*
X118701648Y-102964413D01*
X118652819Y-102892477D01*
X118488310Y-102733474D01*
X118226686Y-102503540D01*
X117886518Y-102218808D01*
X117486375Y-101895416D01*
X117319451Y-101763381D01*
X115887623Y-100637520D01*
X116014798Y-100062215D01*
X116098297Y-99727170D01*
X116190099Y-99423193D01*
G37*
X116190099Y-99423193D02*
X116262513Y-99234336D01*
X116383054Y-98981761D01*
X122018581Y-100491796D01*
X121651554Y-101861558D01*
X120037617Y-101505846D01*
X118423679Y-101150132D01*
X119414241Y-101951338D01*
X120404801Y-102752542D01*
X120254782Y-103406265D01*
X120104762Y-104059989D01*
X118984936Y-104219876D01*
X117865108Y-104379761D01*
X116477173Y-103998449D01*
X115089237Y-103617138D01*
X115505369Y-103556268D01*
X116073213Y-103470031D01*
X116643247Y-103377777D01*
X117190304Y-103284165D01*
X117689220Y-103193857D01*
X118114828Y-103111511D01*
X118441964Y-103041787D01*
X118645461Y-102989345D01*
X118701648Y-102964413D01*
X118652819Y-102892477D01*
X118488310Y-102733474D01*
X118226686Y-102503540D01*
X117886518Y-102218808D01*
X117486375Y-101895416D01*
X117319451Y-101763381D01*
X115887623Y-100637520D01*
X116014798Y-100062215D01*
X116098297Y-99727170D01*
X116190099Y-99423193D01*
G36*
X114807228Y-104575230D02*
G01*
X115008993Y-103916612D01*
X117856670Y-104656596D01*
X120704348Y-105396580D01*
X120335815Y-106771964D01*
X119655777Y-106652773D01*
X119387247Y-106595559D01*
X118987272Y-106496901D01*
X118486307Y-106364974D01*
X117914809Y-106207952D01*
X117303231Y-106034010D01*
X116790600Y-105883715D01*
X114605462Y-105233848D01*
X114807228Y-104575230D01*
G37*
X114807228Y-104575230D02*
X115008993Y-103916612D01*
X117856670Y-104656596D01*
X120704348Y-105396580D01*
X120335815Y-106771964D01*
X119655777Y-106652773D01*
X119387247Y-106595559D01*
X118987272Y-106496901D01*
X118486307Y-106364974D01*
X117914809Y-106207952D01*
X117303231Y-106034010D01*
X116790600Y-105883715D01*
X114605462Y-105233848D01*
X114807228Y-104575230D01*
G36*
X116424407Y-106730607D02*
G01*
X117144511Y-106944268D01*
X117720926Y-107123895D01*
X118173595Y-107279028D01*
X118522462Y-107419204D01*
X118787468Y-107553964D01*
X118988555Y-107692846D01*
X119145667Y-107845390D01*
X119278747Y-108021134D01*
X119347485Y-108128791D01*
X119567705Y-108649533D01*
X119640582Y-109249869D01*
X119606868Y-109691600D01*
X119537106Y-110169986D01*
X118464110Y-109882478D01*
X118445946Y-109564040D01*
X118421355Y-109353480D01*
X118361275Y-109180787D01*
X118246332Y-109034596D01*
X118057154Y-108903544D01*
X117774365Y-108776265D01*
X117378592Y-108641397D01*
X116850462Y-108487574D01*
X116402692Y-108365501D01*
X115876247Y-108221237D01*
X115377404Y-108079328D01*
X114940445Y-107949920D01*
X114599646Y-107843158D01*
X114392685Y-107770558D01*
X113977150Y-107603941D01*
X114372187Y-106129643D01*
X116424407Y-106730607D01*
G37*
X116424407Y-106730607D02*
X117144511Y-106944268D01*
X117720926Y-107123895D01*
X118173595Y-107279028D01*
X118522462Y-107419204D01*
X118787468Y-107553964D01*
X118988555Y-107692846D01*
X119145667Y-107845390D01*
X119278747Y-108021134D01*
X119347485Y-108128791D01*
X119567705Y-108649533D01*
X119640582Y-109249869D01*
X119606868Y-109691600D01*
X119537106Y-110169986D01*
X118464110Y-109882478D01*
X118445946Y-109564040D01*
X118421355Y-109353480D01*
X118361275Y-109180787D01*
X118246332Y-109034596D01*
X118057154Y-108903544D01*
X117774365Y-108776265D01*
X117378592Y-108641397D01*
X116850462Y-108487574D01*
X116402692Y-108365501D01*
X115876247Y-108221237D01*
X115377404Y-108079328D01*
X114940445Y-107949920D01*
X114599646Y-107843158D01*
X114392685Y-107770558D01*
X113977150Y-107603941D01*
X114372187Y-106129643D01*
X116424407Y-106730607D01*
G36*
X115430516Y-110112732D02*
G01*
X115996109Y-110259404D01*
X116517399Y-110390078D01*
X116968789Y-110498700D01*
X117324687Y-110579212D01*
X117559497Y-110625559D01*
X117635439Y-110634491D01*
X117834494Y-110578117D01*
X118065289Y-110439050D01*
X118134030Y-110382386D01*
X118293949Y-110248151D01*
X118426882Y-110186431D01*
X118591232Y-110189025D01*
X118845401Y-110247738D01*
X118930968Y-110270532D01*
X119211022Y-110348995D01*
X119360210Y-110410879D01*
X119411490Y-110482471D01*
X119397812Y-110590065D01*
X119385915Y-110633481D01*
X119302575Y-110831279D01*
X119158026Y-111092635D01*
X119056270Y-111252287D01*
X118668198Y-111683021D01*
X118185467Y-111977260D01*
X117687222Y-112115556D01*
X117522997Y-112131024D01*
X117336298Y-112127935D01*
X117102049Y-112102218D01*
X116795173Y-112049805D01*
X116390594Y-111966625D01*
X115863237Y-111848609D01*
X115442683Y-111751277D01*
X114892256Y-111619761D01*
X114381939Y-111492001D01*
X113940405Y-111375634D01*
X113596324Y-111278299D01*
X113378370Y-111207632D01*
X113335991Y-111190042D01*
X113052671Y-111054145D01*
X113445125Y-109589485D01*
X115430516Y-110112732D01*
G37*
X115430516Y-110112732D02*
X115996109Y-110259404D01*
X116517399Y-110390078D01*
X116968789Y-110498700D01*
X117324687Y-110579212D01*
X117559497Y-110625559D01*
X117635439Y-110634491D01*
X117834494Y-110578117D01*
X118065289Y-110439050D01*
X118134030Y-110382386D01*
X118293949Y-110248151D01*
X118426882Y-110186431D01*
X118591232Y-110189025D01*
X118845401Y-110247738D01*
X118930968Y-110270532D01*
X119211022Y-110348995D01*
X119360210Y-110410879D01*
X119411490Y-110482471D01*
X119397812Y-110590065D01*
X119385915Y-110633481D01*
X119302575Y-110831279D01*
X119158026Y-111092635D01*
X119056270Y-111252287D01*
X118668198Y-111683021D01*
X118185467Y-111977260D01*
X117687222Y-112115556D01*
X117522997Y-112131024D01*
X117336298Y-112127935D01*
X117102049Y-112102218D01*
X116795173Y-112049805D01*
X116390594Y-111966625D01*
X115863237Y-111848609D01*
X115442683Y-111751277D01*
X114892256Y-111619761D01*
X114381939Y-111492001D01*
X113940405Y-111375634D01*
X113596324Y-111278299D01*
X113378370Y-111207632D01*
X113335991Y-111190042D01*
X113052671Y-111054145D01*
X113445125Y-109589485D01*
X115430516Y-110112732D01*
G36*
X112261804Y-114005698D02*
G01*
X112875378Y-111715810D01*
X113933506Y-111999334D01*
X113692865Y-112989266D01*
X113452225Y-113979199D01*
X115984115Y-113471725D01*
X116617555Y-113345874D01*
X117197911Y-113232695D01*
X117704277Y-113136098D01*
X118115745Y-113059994D01*
X118411406Y-113008289D01*
X118570354Y-112984894D01*
X118590922Y-112984325D01*
X118596562Y-113068853D01*
X118561024Y-113289885D01*
X118489714Y-113621122D01*
X118388036Y-114036270D01*
X118326182Y-114272015D01*
X117986525Y-115539633D01*
X120031067Y-116087466D01*
X119724281Y-117232410D01*
X117679738Y-116684576D01*
X117559215Y-117134376D01*
X117481469Y-117377577D01*
X117407414Y-117532843D01*
X117367306Y-117565047D01*
X117264738Y-117504533D01*
X117082290Y-117371389D01*
X116962358Y-117277134D01*
X116628796Y-117008348D01*
X116800439Y-116335301D01*
X116905285Y-115898205D01*
X117014394Y-115402326D01*
X117103097Y-114960420D01*
X117234112Y-114258588D01*
X115558899Y-114622284D01*
X115045386Y-114735094D01*
X114586600Y-114838394D01*
X114208973Y-114926027D01*
X113938935Y-114991839D01*
X113802918Y-115029672D01*
X113794261Y-115033266D01*
X113793958Y-115085965D01*
X113883541Y-115202986D01*
X114070085Y-115390741D01*
X114360670Y-115655645D01*
X114762371Y-116004110D01*
X115282267Y-116442551D01*
X115927435Y-116977381D01*
X116060017Y-117086521D01*
X117299002Y-118105504D01*
X117002234Y-119213057D01*
X116057691Y-118403707D01*
X115632617Y-118039165D01*
X115135512Y-117612364D01*
X114622599Y-117171603D01*
X114150107Y-116765182D01*
X114061872Y-116689227D01*
X113707535Y-116385527D01*
X113399199Y-116123865D01*
X113159093Y-115922894D01*
X113009443Y-115801270D01*
X112970560Y-115773370D01*
X112934605Y-115845740D01*
X112866064Y-116050803D01*
X112774697Y-116357302D01*
X112670261Y-116733976D01*
X112667567Y-116744024D01*
X112404606Y-117725404D01*
X111341444Y-117440531D01*
X111955017Y-115150642D01*
X110074038Y-114646635D01*
X110380825Y-113501691D01*
X112261804Y-114005698D01*
G37*
X112261804Y-114005698D02*
X112875378Y-111715810D01*
X113933506Y-111999334D01*
X113692865Y-112989266D01*
X113452225Y-113979199D01*
X115984115Y-113471725D01*
X116617555Y-113345874D01*
X117197911Y-113232695D01*
X117704277Y-113136098D01*
X118115745Y-113059994D01*
X118411406Y-113008289D01*
X118570354Y-112984894D01*
X118590922Y-112984325D01*
X118596562Y-113068853D01*
X118561024Y-113289885D01*
X118489714Y-113621122D01*
X118388036Y-114036270D01*
X118326182Y-114272015D01*
X117986525Y-115539633D01*
X120031067Y-116087466D01*
X119724281Y-117232410D01*
X117679738Y-116684576D01*
X117559215Y-117134376D01*
X117481469Y-117377577D01*
X117407414Y-117532843D01*
X117367306Y-117565047D01*
X117264738Y-117504533D01*
X117082290Y-117371389D01*
X116962358Y-117277134D01*
X116628796Y-117008348D01*
X116800439Y-116335301D01*
X116905285Y-115898205D01*
X117014394Y-115402326D01*
X117103097Y-114960420D01*
X117234112Y-114258588D01*
X115558899Y-114622284D01*
X115045386Y-114735094D01*
X114586600Y-114838394D01*
X114208973Y-114926027D01*
X113938935Y-114991839D01*
X113802918Y-115029672D01*
X113794261Y-115033266D01*
X113793958Y-115085965D01*
X113883541Y-115202986D01*
X114070085Y-115390741D01*
X114360670Y-115655645D01*
X114762371Y-116004110D01*
X115282267Y-116442551D01*
X115927435Y-116977381D01*
X116060017Y-117086521D01*
X117299002Y-118105504D01*
X117002234Y-119213057D01*
X116057691Y-118403707D01*
X115632617Y-118039165D01*
X115135512Y-117612364D01*
X114622599Y-117171603D01*
X114150107Y-116765182D01*
X114061872Y-116689227D01*
X113707535Y-116385527D01*
X113399199Y-116123865D01*
X113159093Y-115922894D01*
X113009443Y-115801270D01*
X112970560Y-115773370D01*
X112934605Y-115845740D01*
X112866064Y-116050803D01*
X112774697Y-116357302D01*
X112670261Y-116733976D01*
X112667567Y-116744024D01*
X112404606Y-117725404D01*
X111341444Y-117440531D01*
X111955017Y-115150642D01*
X110074038Y-114646635D01*
X110380825Y-113501691D01*
X112261804Y-114005698D01*
G36*
G01*
X146937665Y-101590454D02*
X146937665Y-101590454D01*
G75*
G02*
X147503351Y-100610658I772741J207055D01*
G01*
X147503351Y-100610658D01*
G75*
G02*
X148483147Y-101176344I207055J-772741D01*
G01*
X148483147Y-101176344D01*
G75*
G02*
X147917461Y-102156140I-772741J-207055D01*
G01*
X147917461Y-102156140D01*
G75*
G02*
X146937665Y-101590454I-207055J772741D01*
G01*
G37*
D11*
G36*
X137330915Y-104992796D02*
G01*
X136916804Y-103447315D01*
X138462285Y-103033204D01*
X138876396Y-104578685D01*
X137330915Y-104992796D01*
G37*
G36*
G01*
X141095665Y-79822654D02*
X141095665Y-79822654D01*
G75*
G02*
X141661351Y-78842858I772741J207055D01*
G01*
X141661351Y-78842858D01*
G75*
G02*
X142641147Y-79408544I207055J-772741D01*
G01*
X142641147Y-79408544D01*
G75*
G02*
X142075461Y-80388340I-772741J-207055D01*
G01*
X142075461Y-80388340D01*
G75*
G02*
X141095665Y-79822654I-207055J772741D01*
G01*
G37*
G36*
X131488915Y-83224996D02*
G01*
X131074804Y-81679515D01*
X132620285Y-81265404D01*
X133034396Y-82810885D01*
X131488915Y-83224996D01*
G37*
D12*
X109786149Y-141673851D03*
X113378251Y-138081749D03*
X150632348Y-92300600D03*
X155539252Y-90985800D03*
X138262548Y-95602600D03*
X143169452Y-94287800D03*
X130774252Y-97615200D03*
X125867348Y-98930000D03*
X134699200Y-72501948D03*
X136014000Y-77408852D03*
X178947704Y-116757800D03*
X174040800Y-115443000D03*
X122115851Y-129318749D03*
X118523749Y-132910851D03*
X131498800Y-60563948D03*
X132813600Y-65470852D03*
X190896052Y-119961200D03*
X185989148Y-118646400D03*
G36*
G01*
X144497053Y-117522431D02*
X144497053Y-117522431D01*
G75*
G02*
X143517257Y-116956745I-207055J772741D01*
G01*
X143517257Y-116956745D01*
G75*
G02*
X144082943Y-115976949I772741J207055D01*
G01*
X144082943Y-115976949D01*
G75*
G02*
X145062739Y-116542635I207055J-772741D01*
G01*
X145062739Y-116542635D01*
G75*
G02*
X144497053Y-117522431I-772741J-207055D01*
G01*
G37*
D13*
X148234400Y-131470400D03*
G36*
G01*
X148840453Y-116354031D02*
X148840453Y-116354031D01*
G75*
G02*
X147860657Y-115788345I-207055J772741D01*
G01*
X147860657Y-115788345D01*
G75*
G02*
X148426343Y-114808549I772741J207055D01*
G01*
X148426343Y-114808549D01*
G75*
G02*
X149406139Y-115374235I207055J-772741D01*
G01*
X149406139Y-115374235D01*
G75*
G02*
X148840453Y-116354031I-772741J-207055D01*
G01*
G37*
X152577800Y-130302000D03*
G36*
G01*
X140153653Y-118665431D02*
X140153653Y-118665431D01*
G75*
G02*
X139173857Y-118099745I-207055J772741D01*
G01*
X139173857Y-118099745D01*
G75*
G02*
X139739543Y-117119949I772741J207055D01*
G01*
X139739543Y-117119949D01*
G75*
G02*
X140719339Y-117685635I207055J-772741D01*
G01*
X140719339Y-117685635D01*
G75*
G02*
X140153653Y-118665431I-772741J-207055D01*
G01*
G37*
X143891000Y-132613400D03*
G36*
G01*
X167001631Y-125421653D02*
X167001631Y-125421653D01*
G75*
G02*
X166021835Y-125987339I-772741J207055D01*
G01*
X166021835Y-125987339D01*
G75*
G02*
X165456149Y-125007543I207055J772741D01*
G01*
X165456149Y-125007543D01*
G75*
G02*
X166435945Y-124441857I772741J-207055D01*
G01*
X166435945Y-124441857D01*
G75*
G02*
X167001631Y-125421653I-207055J-772741D01*
G01*
G37*
X180949600Y-129159000D03*
G36*
G01*
X153107653Y-115185631D02*
X153107653Y-115185631D01*
G75*
G02*
X152127857Y-114619945I-207055J772741D01*
G01*
X152127857Y-114619945D01*
G75*
G02*
X152693543Y-113640149I772741J207055D01*
G01*
X152693543Y-113640149D01*
G75*
G02*
X153673339Y-114205835I207055J-772741D01*
G01*
X153673339Y-114205835D01*
G75*
G02*
X153107653Y-115185631I-772741J-207055D01*
G01*
G37*
X156845000Y-129133600D03*
G36*
G01*
X133146622Y-134442378D02*
X133146622Y-134442378D01*
G75*
G02*
X133146622Y-133311008I565685J565685D01*
G01*
X133146622Y-133311008D01*
G75*
G02*
X134277992Y-133311008I565685J-565685D01*
G01*
X134277992Y-133311008D01*
G75*
G02*
X134277992Y-134442378I-565685J-565685D01*
G01*
X134277992Y-134442378D01*
G75*
G02*
X133146622Y-134442378I-565685J565685D01*
G01*
G37*
X122936000Y-144653000D03*
D14*
X163449000Y-102235000D03*
X124714000Y-112522000D03*
G36*
G01*
X148015346Y-97433065D02*
X148015346Y-97433065D01*
G75*
G02*
X148995142Y-97998751I207055J-772741D01*
G01*
X148995142Y-97998751D01*
G75*
G02*
X148429456Y-98978547I-772741J-207055D01*
G01*
X148429456Y-98978547D01*
G75*
G02*
X147449660Y-98412861I-207055J772741D01*
G01*
X147449660Y-98412861D01*
G75*
G02*
X148015346Y-97433065I772741J207055D01*
G01*
G37*
D11*
G36*
X144613004Y-87826315D02*
G01*
X146158485Y-87412204D01*
X146572596Y-88957685D01*
X145027115Y-89371796D01*
X144613004Y-87826315D01*
G37*
G36*
G01*
X135645546Y-100735065D02*
X135645546Y-100735065D01*
G75*
G02*
X136625342Y-101300751I207055J-772741D01*
G01*
X136625342Y-101300751D01*
G75*
G02*
X136059656Y-102280547I-772741J-207055D01*
G01*
X136059656Y-102280547D01*
G75*
G02*
X135079860Y-101714861I-207055J772741D01*
G01*
X135079860Y-101714861D01*
G75*
G02*
X135645546Y-100735065I772741J207055D01*
G01*
G37*
G36*
X132243204Y-91128315D02*
G01*
X133788685Y-90714204D01*
X134202796Y-92259685D01*
X132657315Y-92673796D01*
X132243204Y-91128315D01*
G37*
G36*
G01*
X169408454Y-118642065D02*
X169408454Y-118642065D01*
G75*
G02*
X169974140Y-119621861I-207055J-772741D01*
G01*
X169974140Y-119621861D01*
G75*
G02*
X168994344Y-120187547I-772741J207055D01*
G01*
X168994344Y-120187547D01*
G75*
G02*
X168428658Y-119207751I207055J772741D01*
G01*
X168428658Y-119207751D01*
G75*
G02*
X169408454Y-118642065I772741J-207055D01*
G01*
G37*
G36*
X171265315Y-108621204D02*
G01*
X172810796Y-109035315D01*
X172396685Y-110580796D01*
X170851204Y-110166685D01*
X171265315Y-108621204D01*
G37*
G36*
G01*
X121676880Y-123734280D02*
X121676880Y-123734280D01*
G75*
G02*
X120545510Y-123734280I-565685J565685D01*
G01*
X120545510Y-123734280D01*
G75*
G02*
X120545510Y-122602910I565685J565685D01*
G01*
X120545510Y-122602910D01*
G75*
G02*
X121676880Y-122602910I565685J-565685D01*
G01*
X121676880Y-122602910D01*
G75*
G02*
X121676880Y-123734280I-565685J-565685D01*
G01*
G37*
G36*
X129426771Y-130352800D02*
G01*
X128295400Y-131484171D01*
X127164029Y-130352800D01*
X128295400Y-129221429D01*
X129426771Y-130352800D01*
G37*
G36*
G01*
X137895265Y-67884654D02*
X137895265Y-67884654D01*
G75*
G02*
X138460951Y-66904858I772741J207055D01*
G01*
X138460951Y-66904858D01*
G75*
G02*
X139440747Y-67470544I207055J-772741D01*
G01*
X139440747Y-67470544D01*
G75*
G02*
X138875061Y-68450340I-772741J-207055D01*
G01*
X138875061Y-68450340D01*
G75*
G02*
X137895265Y-67884654I-207055J772741D01*
G01*
G37*
G36*
X128288515Y-71286996D02*
G01*
X127874404Y-69741515D01*
X129419885Y-69327404D01*
X129833996Y-70872885D01*
X128288515Y-71286996D01*
G37*
G36*
G01*
X181346454Y-121842465D02*
X181346454Y-121842465D01*
G75*
G02*
X181912140Y-122822261I-207055J-772741D01*
G01*
X181912140Y-122822261D01*
G75*
G02*
X180932344Y-123387947I-772741J207055D01*
G01*
X180932344Y-123387947D01*
G75*
G02*
X180366658Y-122408151I207055J772741D01*
G01*
X180366658Y-122408151D01*
G75*
G02*
X181346454Y-121842465I772741J-207055D01*
G01*
G37*
G36*
X183203315Y-111821604D02*
G01*
X184748796Y-112235715D01*
X184334685Y-113781196D01*
X182789204Y-113367085D01*
X183203315Y-111821604D01*
G37*
G36*
G01*
X112913880Y-132497280D02*
X112913880Y-132497280D01*
G75*
G02*
X111782510Y-132497280I-565685J565685D01*
G01*
X111782510Y-132497280D01*
G75*
G02*
X111782510Y-131365910I565685J565685D01*
G01*
X111782510Y-131365910D01*
G75*
G02*
X112913880Y-131365910I565685J-565685D01*
G01*
X112913880Y-131365910D01*
G75*
G02*
X112913880Y-132497280I-565685J-565685D01*
G01*
G37*
G36*
X120663771Y-139115800D02*
G01*
X119532400Y-140247171D01*
X118401029Y-139115800D01*
X119532400Y-137984429D01*
X120663771Y-139115800D01*
G37*
G36*
X108994192Y-145516600D02*
G01*
X107721400Y-146789392D01*
X106448608Y-145516600D01*
X107721400Y-144243808D01*
X108994192Y-145516600D01*
G37*
D15*
X105925349Y-143720549D03*
X194589400Y-122250200D03*
D11*
G36*
X194610404Y-118694478D02*
G01*
X196349070Y-119160352D01*
X195883196Y-120899018D01*
X194144530Y-120433144D01*
X194610404Y-118694478D01*
G37*
D15*
X131663252Y-56238600D03*
D11*
G36*
X128573404Y-57998270D02*
G01*
X128107530Y-56259604D01*
X129846196Y-55793730D01*
X130312070Y-57532396D01*
X128573404Y-57998270D01*
G37*
G36*
G01*
X155887538Y-111131416D02*
X155887538Y-111131416D01*
G75*
G02*
X156453224Y-110151620I772741J207055D01*
G01*
X156839594Y-110048092D01*
G75*
G02*
X157819390Y-110613778I207055J-772741D01*
G01*
X157819390Y-110613778D01*
G75*
G02*
X157253704Y-111593574I-772741J-207055D01*
G01*
X156867334Y-111697102D01*
G75*
G02*
X155887538Y-111131416I-207055J772741D01*
G01*
G37*
G36*
G01*
X156544939Y-113584867D02*
X156544939Y-113584867D01*
G75*
G02*
X157110625Y-112605071I772741J207055D01*
G01*
X157496995Y-112501543D01*
G75*
G02*
X158476791Y-113067229I207055J-772741D01*
G01*
X158476791Y-113067229D01*
G75*
G02*
X157911105Y-114047025I-772741J-207055D01*
G01*
X157524735Y-114150553D01*
G75*
G02*
X156544939Y-113584867I-207055J772741D01*
G01*
G37*
G36*
G01*
X157202339Y-116038319D02*
X157202339Y-116038319D01*
G75*
G02*
X157768025Y-115058523I772741J207055D01*
G01*
X158154395Y-114954995D01*
G75*
G02*
X159134191Y-115520681I207055J-772741D01*
G01*
X159134191Y-115520681D01*
G75*
G02*
X158568505Y-116500477I-772741J-207055D01*
G01*
X158182135Y-116604005D01*
G75*
G02*
X157202339Y-116038319I-207055J772741D01*
G01*
G37*
G36*
G01*
X157859740Y-118491770D02*
X157859740Y-118491770D01*
G75*
G02*
X158425426Y-117511974I772741J207055D01*
G01*
X158811796Y-117408446D01*
G75*
G02*
X159791592Y-117974132I207055J-772741D01*
G01*
X159791592Y-117974132D01*
G75*
G02*
X159225906Y-118953928I-772741J-207055D01*
G01*
X158839536Y-119057456D01*
G75*
G02*
X157859740Y-118491770I-207055J772741D01*
G01*
G37*
G36*
G01*
X158517140Y-120945222D02*
X158517140Y-120945222D01*
G75*
G02*
X159082826Y-119965426I772741J207055D01*
G01*
X159469196Y-119861898D01*
G75*
G02*
X160448992Y-120427584I207055J-772741D01*
G01*
X160448992Y-120427584D01*
G75*
G02*
X159883306Y-121407380I-772741J-207055D01*
G01*
X159496936Y-121510908D01*
G75*
G02*
X158517140Y-120945222I-207055J772741D01*
G01*
G37*
G36*
G01*
X159174540Y-123398674D02*
X159174540Y-123398674D01*
G75*
G02*
X159740226Y-122418878I772741J207055D01*
G01*
X160126596Y-122315350D01*
G75*
G02*
X161106392Y-122881036I207055J-772741D01*
G01*
X161106392Y-122881036D01*
G75*
G02*
X160540706Y-123860832I-772741J-207055D01*
G01*
X160154336Y-123964360D01*
G75*
G02*
X159174540Y-123398674I-207055J772741D01*
G01*
G37*
G36*
G01*
X159831941Y-125852125D02*
X159831941Y-125852125D01*
G75*
G02*
X160397627Y-124872329I772741J207055D01*
G01*
X160783997Y-124768801D01*
G75*
G02*
X161763793Y-125334487I207055J-772741D01*
G01*
X161763793Y-125334487D01*
G75*
G02*
X161198107Y-126314283I-772741J-207055D01*
G01*
X160811737Y-126417811D01*
G75*
G02*
X159831941Y-125852125I-207055J772741D01*
G01*
G37*
G36*
G01*
X160489341Y-128305577D02*
X160489341Y-128305577D01*
G75*
G02*
X161055027Y-127325781I772741J207055D01*
G01*
X161441397Y-127222253D01*
G75*
G02*
X162421193Y-127787939I207055J-772741D01*
G01*
X162421193Y-127787939D01*
G75*
G02*
X161855507Y-128767735I-772741J-207055D01*
G01*
X161469137Y-128871263D01*
G75*
G02*
X160489341Y-128305577I-207055J772741D01*
G01*
G37*
G36*
G01*
X138408277Y-134222180D02*
X138408277Y-134222180D01*
G75*
G02*
X138973963Y-133242384I772741J207055D01*
G01*
X139360333Y-133138856D01*
G75*
G02*
X140340129Y-133704542I207055J-772741D01*
G01*
X140340129Y-133704542D01*
G75*
G02*
X139774443Y-134684338I-772741J-207055D01*
G01*
X139388073Y-134787866D01*
G75*
G02*
X138408277Y-134222180I-207055J772741D01*
G01*
G37*
G36*
G01*
X137750876Y-131768729D02*
X137750876Y-131768729D01*
G75*
G02*
X138316562Y-130788933I772741J207055D01*
G01*
X138702932Y-130685405D01*
G75*
G02*
X139682728Y-131251091I207055J-772741D01*
G01*
X139682728Y-131251091D01*
G75*
G02*
X139117042Y-132230887I-772741J-207055D01*
G01*
X138730672Y-132334415D01*
G75*
G02*
X137750876Y-131768729I-207055J772741D01*
G01*
G37*
G36*
G01*
X137093476Y-129315277D02*
X137093476Y-129315277D01*
G75*
G02*
X137659162Y-128335481I772741J207055D01*
G01*
X138045532Y-128231953D01*
G75*
G02*
X139025328Y-128797639I207055J-772741D01*
G01*
X139025328Y-128797639D01*
G75*
G02*
X138459642Y-129777435I-772741J-207055D01*
G01*
X138073272Y-129880963D01*
G75*
G02*
X137093476Y-129315277I-207055J772741D01*
G01*
G37*
G36*
G01*
X136436075Y-126861825D02*
X136436075Y-126861825D01*
G75*
G02*
X137001761Y-125882029I772741J207055D01*
G01*
X137388131Y-125778501D01*
G75*
G02*
X138367927Y-126344187I207055J-772741D01*
G01*
X138367927Y-126344187D01*
G75*
G02*
X137802241Y-127323983I-772741J-207055D01*
G01*
X137415871Y-127427511D01*
G75*
G02*
X136436075Y-126861825I-207055J772741D01*
G01*
G37*
G36*
G01*
X135778675Y-124408374D02*
X135778675Y-124408374D01*
G75*
G02*
X136344361Y-123428578I772741J207055D01*
G01*
X136730731Y-123325050D01*
G75*
G02*
X137710527Y-123890736I207055J-772741D01*
G01*
X137710527Y-123890736D01*
G75*
G02*
X137144841Y-124870532I-772741J-207055D01*
G01*
X136758471Y-124974060D01*
G75*
G02*
X135778675Y-124408374I-207055J772741D01*
G01*
G37*
G36*
G01*
X135121275Y-121954922D02*
X135121275Y-121954922D01*
G75*
G02*
X135686961Y-120975126I772741J207055D01*
G01*
X136073331Y-120871598D01*
G75*
G02*
X137053127Y-121437284I207055J-772741D01*
G01*
X137053127Y-121437284D01*
G75*
G02*
X136487441Y-122417080I-772741J-207055D01*
G01*
X136101071Y-122520608D01*
G75*
G02*
X135121275Y-121954922I-207055J772741D01*
G01*
G37*
G36*
X134065293Y-118013945D02*
G01*
X133547655Y-116082093D01*
X135479507Y-115564455D01*
X135997145Y-117496307D01*
X134065293Y-118013945D01*
G37*
G36*
G01*
X134463874Y-119501471D02*
X134463874Y-119501471D01*
G75*
G02*
X135029560Y-118521675I772741J207055D01*
G01*
X135415930Y-118418147D01*
G75*
G02*
X136395726Y-118983833I207055J-772741D01*
G01*
X136395726Y-118983833D01*
G75*
G02*
X135830040Y-119963629I-772741J-207055D01*
G01*
X135443670Y-120067157D01*
G75*
G02*
X134463874Y-119501471I-207055J772741D01*
G01*
G37*
M02*
