G04 #@! TF.GenerationSoftware,KiCad,Pcbnew,5.1.10-88a1d61d58~88~ubuntu18.04.1*
G04 #@! TF.CreationDate,2021-09-12T23:00:54+02:00*
G04 #@! TF.ProjectId,remote_board,72656d6f-7465-45f6-926f-6172642e6b69,rev?*
G04 #@! TF.SameCoordinates,Original*
G04 #@! TF.FileFunction,Legend,Top*
G04 #@! TF.FilePolarity,Positive*
%FSLAX46Y46*%
G04 Gerber Fmt 4.6, Leading zero omitted, Abs format (unit mm)*
G04 Created by KiCad (PCBNEW 5.1.10-88a1d61d58~88~ubuntu18.04.1) date 2021-09-12 23:00:54*
%MOMM*%
%LPD*%
G01*
G04 APERTURE LIST*
%ADD10C,0.150000*%
%ADD11C,0.300000*%
%ADD12C,0.010000*%
%ADD13C,0.120000*%
%ADD14C,0.100000*%
%ADD15C,2.000000*%
%ADD16C,1.600000*%
%ADD17C,5.300000*%
%ADD18C,1.800000*%
G04 APERTURE END LIST*
D10*
X148050608Y-138080538D02*
X148235479Y-138770485D01*
X148226456Y-138920799D01*
X148159113Y-139037441D01*
X148033448Y-139120412D01*
X147941455Y-139145061D01*
X149229356Y-138799969D02*
X148769392Y-138923216D01*
X148510573Y-137957290D01*
X150078640Y-138473807D02*
X150044968Y-138532128D01*
X149919303Y-138615098D01*
X149827310Y-138639748D01*
X149676996Y-138630725D01*
X149560354Y-138563382D01*
X149489708Y-138483714D01*
X149394413Y-138312053D01*
X149357438Y-138174063D01*
X149354136Y-137977753D01*
X149375483Y-137873435D01*
X149442827Y-137756793D01*
X149568491Y-137673822D01*
X149660484Y-137649173D01*
X149810798Y-137658195D01*
X149869120Y-137691867D01*
X150534417Y-137415003D02*
X150719288Y-138104950D01*
X150710266Y-138255264D01*
X150642922Y-138371906D01*
X150517257Y-138454877D01*
X150425264Y-138479526D01*
X151713166Y-138134434D02*
X151253201Y-138257682D01*
X150994382Y-137291756D01*
X152562449Y-137808272D02*
X152528777Y-137866593D01*
X152403113Y-137949564D01*
X152311120Y-137974213D01*
X152160806Y-137965191D01*
X152044163Y-137897847D01*
X151973517Y-137818179D01*
X151878222Y-137646518D01*
X151841248Y-137508529D01*
X151837945Y-137312218D01*
X151859292Y-137207900D01*
X151926636Y-137091258D01*
X152052301Y-137008287D01*
X152144294Y-136983638D01*
X152294608Y-136992660D01*
X152352929Y-137026332D01*
X153018226Y-136749468D02*
X153203097Y-137439415D01*
X153194075Y-137589729D01*
X153126731Y-137706372D01*
X153001067Y-137789342D01*
X152909074Y-137813992D01*
X154196975Y-137468900D02*
X153737010Y-137592147D01*
X153478191Y-136626221D01*
X155046258Y-137142737D02*
X155012587Y-137201058D01*
X154886922Y-137284029D01*
X154794929Y-137308678D01*
X154644615Y-137299656D01*
X154527972Y-137232313D01*
X154457327Y-137152644D01*
X154362031Y-136980983D01*
X154325057Y-136842994D01*
X154321755Y-136646683D01*
X154343102Y-136542366D01*
X154410445Y-136425723D01*
X154536110Y-136342753D01*
X154628103Y-136318103D01*
X154778417Y-136327125D01*
X154836738Y-136360797D01*
X155502036Y-136083934D02*
X155686906Y-136773881D01*
X155677884Y-136924195D01*
X155610541Y-137040837D01*
X155484876Y-137123808D01*
X155392883Y-137148457D01*
X156680784Y-136803365D02*
X156220819Y-136926612D01*
X155962000Y-135960686D01*
X157530068Y-136477203D02*
X157496396Y-136535524D01*
X157370731Y-136618494D01*
X157278738Y-136643144D01*
X157128424Y-136634121D01*
X157011782Y-136566778D01*
X156941136Y-136487110D01*
X156845840Y-136315449D01*
X156808866Y-136177459D01*
X156805564Y-135981149D01*
X156826911Y-135876831D01*
X156894254Y-135760189D01*
X157019919Y-135677218D01*
X157111912Y-135652568D01*
X157262226Y-135661591D01*
X157320547Y-135695263D01*
D11*
X134796892Y-111837977D02*
X134837298Y-111767992D01*
X134932900Y-111683217D01*
X135208879Y-111609268D01*
X135334060Y-111634885D01*
X135404046Y-111675291D01*
X135488821Y-111770893D01*
X135518400Y-111881284D01*
X135507573Y-112061661D01*
X135022700Y-112901486D01*
X135740245Y-112709221D01*
X136147207Y-111357844D02*
X136257598Y-111328265D01*
X136382780Y-111353881D01*
X136452765Y-111394287D01*
X136537540Y-111489889D01*
X136651895Y-111695883D01*
X136725843Y-111971861D01*
X136729806Y-112207434D01*
X136704189Y-112332615D01*
X136663783Y-112402601D01*
X136568181Y-112487376D01*
X136457790Y-112516955D01*
X136332609Y-112491339D01*
X136262623Y-112450933D01*
X136177848Y-112355331D01*
X136063494Y-112149337D01*
X135989545Y-111873359D01*
X135985582Y-111637786D01*
X136011199Y-111512605D01*
X136051605Y-111442619D01*
X136147207Y-111357844D01*
X137004723Y-111246391D02*
X137045129Y-111176405D01*
X137140731Y-111091630D01*
X137416709Y-111017682D01*
X137541891Y-111043298D01*
X137611876Y-111083705D01*
X137696651Y-111179306D01*
X137726230Y-111289698D01*
X137715404Y-111470075D01*
X137230530Y-112309900D01*
X137948075Y-112117634D01*
X139051991Y-111821841D02*
X138389641Y-111999317D01*
X138720816Y-111910579D02*
X138410233Y-110751468D01*
X138344211Y-110946635D01*
X138263398Y-111086606D01*
X138167797Y-111171381D01*
X140313567Y-111010534D02*
X141196699Y-110773899D01*
X143061467Y-109564332D02*
X142936286Y-109538716D01*
X142770698Y-109583085D01*
X142619901Y-109682650D01*
X142539088Y-109822621D01*
X142513472Y-109947802D01*
X142517435Y-110183374D01*
X142561804Y-110348962D01*
X142676158Y-110554955D01*
X142760933Y-110650557D01*
X142900904Y-110731369D01*
X143081281Y-110742196D01*
X143191673Y-110712617D01*
X143342470Y-110613052D01*
X143382876Y-110543067D01*
X143279349Y-110156696D01*
X143058566Y-110215855D01*
X143909218Y-110520351D02*
X143598635Y-109361240D01*
X143746531Y-109913198D02*
X144408880Y-109735722D01*
X144571567Y-110342875D02*
X144260984Y-109183764D01*
X145620286Y-110061872D02*
X145457600Y-109454718D01*
X145372825Y-109359116D01*
X145247644Y-109333500D01*
X145026861Y-109392659D01*
X144931259Y-109477434D01*
X145605497Y-110006676D02*
X145509895Y-110091451D01*
X145233916Y-110165399D01*
X145108735Y-110139783D01*
X145023960Y-110044181D01*
X144994380Y-109933789D01*
X145019997Y-109808608D01*
X145115599Y-109723833D01*
X145391577Y-109649885D01*
X145487179Y-109565110D01*
X146461950Y-109008127D02*
X146669006Y-109780868D01*
X145965189Y-109141234D02*
X146127875Y-109748388D01*
X146212650Y-109843990D01*
X146337831Y-109869606D01*
X146503418Y-109825237D01*
X146599020Y-109740462D01*
X146639426Y-109670477D01*
X147220963Y-109632972D02*
X147013908Y-108860231D01*
X147043487Y-108970622D02*
X147083893Y-108900637D01*
X147179495Y-108815862D01*
X147345083Y-108771493D01*
X147470264Y-108797109D01*
X147555039Y-108892711D01*
X147717725Y-109499865D01*
X147555039Y-108892711D02*
X147580655Y-108767530D01*
X147676257Y-108682755D01*
X147841844Y-108638386D01*
X147967026Y-108664002D01*
X148051801Y-108759604D01*
X148214487Y-109366758D01*
X149399214Y-108930994D02*
X149358808Y-109000979D01*
X149208011Y-109100544D01*
X149097619Y-109130123D01*
X148917242Y-109119296D01*
X148777271Y-109038484D01*
X148692496Y-108942882D01*
X148578142Y-108736889D01*
X148533773Y-108571302D01*
X148529810Y-108335729D01*
X148555426Y-108210548D01*
X148636239Y-108070577D01*
X148787036Y-107971012D01*
X148897428Y-107941433D01*
X149077805Y-107952260D01*
X149147790Y-107992666D01*
X150215262Y-108002431D02*
X150422317Y-108775171D01*
X149718500Y-108135538D02*
X149881187Y-108742691D01*
X149965962Y-108838293D01*
X150091143Y-108863909D01*
X150256730Y-108819540D01*
X150352332Y-108734765D01*
X150392738Y-108664780D01*
X150974275Y-108627275D02*
X150663692Y-107468164D01*
X150782009Y-107909730D02*
X150877611Y-107824955D01*
X151098394Y-107765796D01*
X151223576Y-107791412D01*
X151293561Y-107831819D01*
X151378336Y-107927420D01*
X151467074Y-108258595D01*
X151441458Y-108383776D01*
X151401051Y-108453762D01*
X151305450Y-108538537D01*
X151084667Y-108597695D01*
X150959485Y-108572079D01*
X152449771Y-108172758D02*
X152354169Y-108257533D01*
X152133386Y-108316692D01*
X152008205Y-108291075D01*
X151923430Y-108195474D01*
X151805112Y-107753907D01*
X151830729Y-107628726D01*
X151926331Y-107543951D01*
X152147114Y-107484793D01*
X152272295Y-107510409D01*
X152357070Y-107606011D01*
X152386649Y-107716402D01*
X151864271Y-107974690D01*
X153202697Y-106787839D02*
X152981914Y-106846998D01*
X152886312Y-106931773D01*
X152845906Y-107001758D01*
X152779884Y-107196925D01*
X152783847Y-107432498D01*
X152902164Y-107874064D01*
X152986939Y-107969666D01*
X153056924Y-108010072D01*
X153182105Y-108035688D01*
X153402889Y-107976530D01*
X153498490Y-107891755D01*
X153538897Y-107821769D01*
X153564513Y-107696588D01*
X153490565Y-107420609D01*
X153405790Y-107325007D01*
X153335804Y-107284601D01*
X153210623Y-107258985D01*
X152989840Y-107318143D01*
X152894238Y-107402918D01*
X152853832Y-107472904D01*
X152828216Y-107598085D01*
X154410140Y-106878416D02*
X154617195Y-107651157D01*
X154015844Y-106510799D02*
X153961710Y-107412683D01*
X154679255Y-107220418D01*
X137358101Y-114331480D02*
X137317695Y-114401465D01*
X137166897Y-114501030D01*
X137056506Y-114530610D01*
X136876129Y-114519783D01*
X136736158Y-114438971D01*
X136651383Y-114343369D01*
X136537028Y-114137375D01*
X136492659Y-113971788D01*
X136488696Y-113736215D01*
X136514313Y-113611034D01*
X136595125Y-113471063D01*
X136745923Y-113371499D01*
X136856314Y-113341919D01*
X137036691Y-113352746D01*
X137106677Y-113393152D01*
X138381204Y-114175658D02*
X138218518Y-113568504D01*
X138133742Y-113472902D01*
X138008561Y-113447286D01*
X137787778Y-113506445D01*
X137692176Y-113591220D01*
X138366414Y-114120462D02*
X138270812Y-114205237D01*
X137994833Y-114279185D01*
X137869652Y-114253569D01*
X137784877Y-114157967D01*
X137755298Y-114047575D01*
X137780914Y-113922394D01*
X137876516Y-113837619D01*
X138152495Y-113763671D01*
X138248097Y-113678896D01*
X138933161Y-114027761D02*
X138726106Y-113255020D01*
X138785265Y-113475803D02*
X138810881Y-113350622D01*
X138851287Y-113280637D01*
X138946889Y-113195862D01*
X139057281Y-113166282D01*
X139278064Y-113107124D02*
X139719630Y-112988807D01*
X139340123Y-112676385D02*
X139606337Y-113669908D01*
X139691112Y-113765510D01*
X139816294Y-113791127D01*
X139926685Y-113761547D01*
X140739832Y-113484507D02*
X140644230Y-113569282D01*
X140423447Y-113628440D01*
X140298266Y-113602824D01*
X140213491Y-113507222D01*
X140095173Y-113065656D01*
X140120790Y-112940475D01*
X140216392Y-112855700D01*
X140437175Y-112796541D01*
X140562356Y-112822157D01*
X140647131Y-112917759D01*
X140676710Y-113028151D01*
X140154332Y-113286439D01*
X141817069Y-112426799D02*
X142258635Y-112308482D01*
X141879128Y-111996060D02*
X142145342Y-112989584D01*
X142230117Y-113085186D01*
X142355299Y-113110802D01*
X142465690Y-113081223D01*
X143278837Y-112804182D02*
X143183235Y-112888957D01*
X142962452Y-112948116D01*
X142837271Y-112922499D01*
X142752496Y-112826898D01*
X142634178Y-112385332D01*
X142659795Y-112260150D01*
X142755397Y-112175375D01*
X142976180Y-112116217D01*
X143101361Y-112141833D01*
X143186136Y-112237435D01*
X143215715Y-112347826D01*
X142693337Y-112606115D01*
X142857863Y-111674651D02*
X142736644Y-111884607D01*
X144011171Y-112667112D02*
X143885990Y-112641496D01*
X143801215Y-112545894D01*
X143535001Y-111552370D01*
X144879514Y-112375282D02*
X144783912Y-112460057D01*
X144563129Y-112519216D01*
X144437948Y-112493599D01*
X144353173Y-112397997D01*
X144234856Y-111956431D01*
X144260472Y-111831250D01*
X144356074Y-111746475D01*
X144576857Y-111687316D01*
X144702038Y-111712933D01*
X144786813Y-111808535D01*
X144816392Y-111918926D01*
X144294014Y-112177214D01*
X144458540Y-111245750D02*
X144337321Y-111455707D01*
X145928233Y-112094279D02*
X145832632Y-112179054D01*
X145611849Y-112238212D01*
X145486667Y-112212596D01*
X145416682Y-112172190D01*
X145331907Y-112076588D01*
X145243169Y-111745413D01*
X145268785Y-111620232D01*
X145309191Y-111550247D01*
X145404793Y-111465472D01*
X145625576Y-111406313D01*
X145750758Y-111431929D01*
X146605372Y-111971998D02*
X146480191Y-111946382D01*
X146410206Y-111905976D01*
X146325431Y-111810374D01*
X146236693Y-111479199D01*
X146262309Y-111354018D01*
X146302715Y-111284033D01*
X146398317Y-111199258D01*
X146563904Y-111154889D01*
X146689085Y-111180505D01*
X146759071Y-111220911D01*
X146843846Y-111316513D01*
X146932584Y-111647688D01*
X146906968Y-111772869D01*
X146866561Y-111842854D01*
X146770960Y-111927629D01*
X146605372Y-111971998D01*
X147488504Y-111735364D02*
X147281449Y-110962623D01*
X147311029Y-111073015D02*
X147351435Y-111003029D01*
X147447036Y-110918254D01*
X147612624Y-110873885D01*
X147737805Y-110899502D01*
X147822580Y-110995104D01*
X147985266Y-111602257D01*
X147822580Y-110995104D02*
X147848196Y-110869922D01*
X147943798Y-110785147D01*
X148109386Y-110740778D01*
X148234567Y-110766395D01*
X148319342Y-110861997D01*
X148482028Y-111469150D01*
X149033986Y-111321253D02*
X148826931Y-110548513D01*
X148856510Y-110658904D02*
X148896916Y-110588919D01*
X148992518Y-110504144D01*
X149158105Y-110459775D01*
X149283286Y-110485391D01*
X149368061Y-110580993D01*
X149530748Y-111188146D01*
X149368061Y-110580993D02*
X149393678Y-110455812D01*
X149489280Y-110371037D01*
X149654867Y-110326668D01*
X149780048Y-110352284D01*
X149864823Y-110447886D01*
X150027509Y-111055039D01*
X151076229Y-110774036D02*
X150913543Y-110166883D01*
X150828768Y-110071281D01*
X150703586Y-110045664D01*
X150482803Y-110104823D01*
X150387202Y-110189598D01*
X151061439Y-110718840D02*
X150965837Y-110803615D01*
X150689859Y-110877564D01*
X150564677Y-110851947D01*
X150479902Y-110756345D01*
X150450323Y-110645954D01*
X150475939Y-110520773D01*
X150571541Y-110435997D01*
X150847520Y-110362049D01*
X150943122Y-110277274D01*
X151421131Y-109853399D02*
X151628187Y-110626139D01*
X151450711Y-109963790D02*
X151491117Y-109893805D01*
X151586719Y-109809030D01*
X151752306Y-109764661D01*
X151877487Y-109790277D01*
X151962262Y-109885879D01*
X152124948Y-110493032D01*
X153173668Y-110212029D02*
X152863085Y-109052918D01*
X153158878Y-110156833D02*
X153063276Y-110241608D01*
X152842493Y-110300767D01*
X152717312Y-110275150D01*
X152647327Y-110234744D01*
X152562552Y-110139142D01*
X152473814Y-109807968D01*
X152499430Y-109682787D01*
X152539836Y-109612801D01*
X152635438Y-109528026D01*
X152856221Y-109468868D01*
X152981402Y-109494484D01*
X154152402Y-109890619D02*
X154056800Y-109975394D01*
X153836017Y-110034553D01*
X153710836Y-110008937D01*
X153626061Y-109913335D01*
X153507743Y-109471769D01*
X153533360Y-109346587D01*
X153628962Y-109261812D01*
X153849745Y-109202654D01*
X153974926Y-109228270D01*
X154059701Y-109323872D01*
X154089280Y-109434263D01*
X153566902Y-109692552D01*
D12*
G36*
X139188498Y-88665007D02*
G01*
X139294823Y-88685559D01*
X139640483Y-88827978D01*
X139866187Y-89082588D01*
X139956395Y-89430771D01*
X139957373Y-89479362D01*
X139881790Y-89783152D01*
X139686803Y-90038997D01*
X139416503Y-90208734D01*
X139114984Y-90254198D01*
X139069465Y-90247881D01*
X138878462Y-90162891D01*
X138675031Y-90002987D01*
X138654197Y-89981618D01*
X138513786Y-89811028D01*
X138462039Y-89652516D01*
X138471136Y-89418409D01*
X138472190Y-89408005D01*
X138572679Y-89066111D01*
X138729055Y-88840739D01*
X138880514Y-88700412D01*
X139007318Y-88649060D01*
X139188498Y-88665007D01*
G37*
X139188498Y-88665007D02*
X139294823Y-88685559D01*
X139640483Y-88827978D01*
X139866187Y-89082588D01*
X139956395Y-89430771D01*
X139957373Y-89479362D01*
X139881790Y-89783152D01*
X139686803Y-90038997D01*
X139416503Y-90208734D01*
X139114984Y-90254198D01*
X139069465Y-90247881D01*
X138878462Y-90162891D01*
X138675031Y-90002987D01*
X138654197Y-89981618D01*
X138513786Y-89811028D01*
X138462039Y-89652516D01*
X138471136Y-89418409D01*
X138472190Y-89408005D01*
X138572679Y-89066111D01*
X138729055Y-88840739D01*
X138880514Y-88700412D01*
X139007318Y-88649060D01*
X139188498Y-88665007D01*
G36*
X152587619Y-84656397D02*
G01*
X152621933Y-84683905D01*
X152599668Y-84789382D01*
X152526513Y-85017831D01*
X152415306Y-85335340D01*
X152278883Y-85707996D01*
X152130084Y-86101889D01*
X151981743Y-86483105D01*
X151846701Y-86817733D01*
X151737792Y-87071860D01*
X151667855Y-87211574D01*
X151661847Y-87220148D01*
X151529391Y-87352399D01*
X151402797Y-87348807D01*
X151255435Y-87243803D01*
X151115456Y-87068472D01*
X151015021Y-86841443D01*
X150974921Y-86626588D01*
X151010906Y-86492706D01*
X151133026Y-86466981D01*
X151262865Y-86507675D01*
X151418246Y-86574778D01*
X151485603Y-86588059D01*
X151532430Y-86508189D01*
X151613155Y-86310260D01*
X151708078Y-86043567D01*
X151887994Y-85560297D01*
X152072572Y-85156855D01*
X152248377Y-84858110D01*
X152401971Y-84688935D01*
X152453750Y-84663230D01*
X152587619Y-84656397D01*
G37*
X152587619Y-84656397D02*
X152621933Y-84683905D01*
X152599668Y-84789382D01*
X152526513Y-85017831D01*
X152415306Y-85335340D01*
X152278883Y-85707996D01*
X152130084Y-86101889D01*
X151981743Y-86483105D01*
X151846701Y-86817733D01*
X151737792Y-87071860D01*
X151667855Y-87211574D01*
X151661847Y-87220148D01*
X151529391Y-87352399D01*
X151402797Y-87348807D01*
X151255435Y-87243803D01*
X151115456Y-87068472D01*
X151015021Y-86841443D01*
X150974921Y-86626588D01*
X151010906Y-86492706D01*
X151133026Y-86466981D01*
X151262865Y-86507675D01*
X151418246Y-86574778D01*
X151485603Y-86588059D01*
X151532430Y-86508189D01*
X151613155Y-86310260D01*
X151708078Y-86043567D01*
X151887994Y-85560297D01*
X152072572Y-85156855D01*
X152248377Y-84858110D01*
X152401971Y-84688935D01*
X152453750Y-84663230D01*
X152587619Y-84656397D01*
G36*
X127568263Y-91293424D02*
G01*
X127573728Y-91460971D01*
X127490266Y-91758142D01*
X127424471Y-91924713D01*
X127229718Y-92385267D01*
X127500645Y-92727011D01*
X127674185Y-92975797D01*
X127736942Y-93156834D01*
X127730377Y-93245010D01*
X127693340Y-93346557D01*
X127619759Y-93363822D01*
X127465448Y-93295672D01*
X127355268Y-93235372D01*
X127021355Y-93049479D01*
X126815168Y-93567062D01*
X126655035Y-93913227D01*
X126511161Y-94115307D01*
X126391014Y-94167059D01*
X126302066Y-94062241D01*
X126285307Y-94009826D01*
X126286334Y-93833638D01*
X126339290Y-93555283D01*
X126433166Y-93229796D01*
X126452715Y-93172847D01*
X126675128Y-92541150D01*
X126469318Y-92240953D01*
X126318030Y-91971045D01*
X126272483Y-91777787D01*
X126324693Y-91680860D01*
X126466674Y-91699946D01*
X126642436Y-91814312D01*
X126860869Y-91990745D01*
X127106734Y-91646077D01*
X127325925Y-91378225D01*
X127482715Y-91263259D01*
X127568263Y-91293424D01*
G37*
X127568263Y-91293424D02*
X127573728Y-91460971D01*
X127490266Y-91758142D01*
X127424471Y-91924713D01*
X127229718Y-92385267D01*
X127500645Y-92727011D01*
X127674185Y-92975797D01*
X127736942Y-93156834D01*
X127730377Y-93245010D01*
X127693340Y-93346557D01*
X127619759Y-93363822D01*
X127465448Y-93295672D01*
X127355268Y-93235372D01*
X127021355Y-93049479D01*
X126815168Y-93567062D01*
X126655035Y-93913227D01*
X126511161Y-94115307D01*
X126391014Y-94167059D01*
X126302066Y-94062241D01*
X126285307Y-94009826D01*
X126286334Y-93833638D01*
X126339290Y-93555283D01*
X126433166Y-93229796D01*
X126452715Y-93172847D01*
X126675128Y-92541150D01*
X126469318Y-92240953D01*
X126318030Y-91971045D01*
X126272483Y-91777787D01*
X126324693Y-91680860D01*
X126466674Y-91699946D01*
X126642436Y-91814312D01*
X126860869Y-91990745D01*
X127106734Y-91646077D01*
X127325925Y-91378225D01*
X127482715Y-91263259D01*
X127568263Y-91293424D01*
D13*
X141045419Y-102009767D02*
X141625173Y-104173441D01*
X141277241Y-101947651D02*
X141856995Y-104111325D01*
X141161330Y-101978709D02*
X141741084Y-104142383D01*
X146705844Y-101652570D02*
X144851266Y-102149503D01*
X138901163Y-103743828D02*
X140755740Y-103246896D01*
X144561389Y-101067666D02*
X140465863Y-102165059D01*
X145141143Y-103231340D02*
X144561389Y-101067666D01*
X141045618Y-104328733D02*
X145141143Y-103231340D01*
X140465863Y-102165059D02*
X141045618Y-104328733D01*
X135203419Y-80241967D02*
X135783173Y-82405641D01*
X135435241Y-80179851D02*
X136014995Y-82343525D01*
X135319330Y-80210909D02*
X135899084Y-82374583D01*
X140863844Y-79884770D02*
X139009266Y-80381703D01*
X133059163Y-81976028D02*
X134913740Y-81479096D01*
X138719389Y-79299866D02*
X134623863Y-80397259D01*
X139299143Y-81463540D02*
X138719389Y-79299866D01*
X135203618Y-82560933D02*
X139299143Y-81463540D01*
X134623863Y-80397259D02*
X135203618Y-82560933D01*
X113082200Y-139877800D02*
G75*
G03*
X113082200Y-139877800I-1500000J0D01*
G01*
X111582200Y-136342266D02*
X108046666Y-139877800D01*
X115117734Y-139877800D02*
X111582200Y-136342266D01*
X111582200Y-143413334D02*
X115117734Y-139877800D01*
X108046666Y-139877800D02*
X111582200Y-143413334D01*
X154585800Y-91643200D02*
G75*
G03*
X154585800Y-91643200I-1500000J0D01*
G01*
X154853567Y-88581338D02*
X150023938Y-89875433D01*
X156147662Y-93410967D02*
X154853567Y-88581338D01*
X151318033Y-94705062D02*
X156147662Y-93410967D01*
X150023938Y-89875433D02*
X151318033Y-94705062D01*
X142216000Y-94945200D02*
G75*
G03*
X142216000Y-94945200I-1500000J0D01*
G01*
X142483767Y-91883338D02*
X137654138Y-93177433D01*
X143777862Y-96712967D02*
X142483767Y-91883338D01*
X138948233Y-98007062D02*
X143777862Y-96712967D01*
X137654138Y-93177433D02*
X138948233Y-98007062D01*
X129820800Y-98272600D02*
G75*
G03*
X129820800Y-98272600I-1500000J0D01*
G01*
X126553033Y-101334462D02*
X131382662Y-100040367D01*
X125258938Y-96504833D02*
X126553033Y-101334462D01*
X130088567Y-95210738D02*
X125258938Y-96504833D01*
X131382662Y-100040367D02*
X130088567Y-95210738D01*
X136856600Y-74955400D02*
G75*
G03*
X136856600Y-74955400I-1500000J0D01*
G01*
X138418462Y-76723167D02*
X137124367Y-71893538D01*
X133588833Y-78017262D02*
X138418462Y-76723167D01*
X132294738Y-73187633D02*
X133588833Y-78017262D01*
X137124367Y-71893538D02*
X132294738Y-73187633D01*
X177994252Y-116100400D02*
G75*
G03*
X177994252Y-116100400I-1500000J0D01*
G01*
X173432390Y-117868167D02*
X178262019Y-119162262D01*
X174726485Y-113038538D02*
X173432390Y-117868167D01*
X179556114Y-114332633D02*
X174726485Y-113038538D01*
X178262019Y-119162262D02*
X179556114Y-114332633D01*
X121819800Y-131114800D02*
G75*
G03*
X121819800Y-131114800I-1500000J0D01*
G01*
X120319800Y-134650334D02*
X123855334Y-131114800D01*
X116784266Y-131114800D02*
X120319800Y-134650334D01*
X120319800Y-127579266D02*
X116784266Y-131114800D01*
X123855334Y-131114800D02*
X120319800Y-127579266D01*
X133656200Y-63017400D02*
G75*
G03*
X133656200Y-63017400I-1500000J0D01*
G01*
X135218062Y-64785167D02*
X133923967Y-59955538D01*
X130388433Y-66079262D02*
X135218062Y-64785167D01*
X129094338Y-61249633D02*
X130388433Y-66079262D01*
X133923967Y-59955538D02*
X129094338Y-61249633D01*
X189942600Y-119303800D02*
G75*
G03*
X189942600Y-119303800I-1500000J0D01*
G01*
X185380738Y-121071567D02*
X190210367Y-122365662D01*
X186674833Y-116241938D02*
X185380738Y-121071567D01*
X191504462Y-117536033D02*
X186674833Y-116241938D01*
X190210367Y-122365662D02*
X191504462Y-117536033D01*
X145785219Y-127623205D02*
X148431856Y-126914041D01*
X148431856Y-126914041D02*
X146739179Y-120596886D01*
X146739179Y-120596886D02*
X144092542Y-121306050D01*
X144092542Y-121306050D02*
X145785219Y-127623205D01*
X147965228Y-130465837D02*
X147108537Y-127268623D01*
X144559170Y-117754253D02*
X145415861Y-120951468D01*
X150128619Y-126454805D02*
X152775256Y-125745641D01*
X152775256Y-125745641D02*
X151082579Y-119428486D01*
X151082579Y-119428486D02*
X148435942Y-120137650D01*
X148435942Y-120137650D02*
X150128619Y-126454805D01*
X152308628Y-129297437D02*
X151451937Y-126100223D01*
X148902570Y-116585853D02*
X149759261Y-119783068D01*
X141441819Y-128766205D02*
X144088456Y-128057041D01*
X144088456Y-128057041D02*
X142395779Y-121739886D01*
X142395779Y-121739886D02*
X139749142Y-122449050D01*
X139749142Y-122449050D02*
X141441819Y-128766205D01*
X143621828Y-131608837D02*
X142765137Y-128411623D01*
X140215770Y-118897253D02*
X141072461Y-122094468D01*
X176393241Y-129356456D02*
X177102405Y-126709819D01*
X177102405Y-126709819D02*
X170785250Y-125017142D01*
X170785250Y-125017142D02*
X170076086Y-127663779D01*
X170076086Y-127663779D02*
X176393241Y-129356456D01*
X179945037Y-128889828D02*
X176747823Y-128033137D01*
X167233453Y-125483770D02*
X170430668Y-126340461D01*
X154395819Y-125286405D02*
X157042456Y-124577241D01*
X157042456Y-124577241D02*
X155349779Y-118260086D01*
X155349779Y-118260086D02*
X152703142Y-118969250D01*
X152703142Y-118969250D02*
X154395819Y-125286405D01*
X156575828Y-128129037D02*
X155719137Y-124931823D01*
X153169770Y-115417453D02*
X154026461Y-118614668D01*
X125043178Y-140608349D02*
X126980651Y-142545822D01*
X126980651Y-142545822D02*
X131605129Y-137921343D01*
X131605129Y-137921343D02*
X129667657Y-135983871D01*
X129667657Y-135983871D02*
X125043178Y-140608349D01*
X123671391Y-143917609D02*
X126011914Y-141577086D01*
X132976916Y-134612084D02*
X130636393Y-136952607D01*
X147596033Y-91540819D02*
X145432359Y-92120573D01*
X147658149Y-91772641D02*
X145494475Y-92352395D01*
X147627091Y-91656730D02*
X145463417Y-92236484D01*
X147953230Y-97201244D02*
X147456297Y-95346666D01*
X145861972Y-89396563D02*
X146358904Y-91251140D01*
X148538134Y-95056789D02*
X147440741Y-90961263D01*
X146374460Y-95636543D02*
X148538134Y-95056789D01*
X145277067Y-91541018D02*
X146374460Y-95636543D01*
X147440741Y-90961263D02*
X145277067Y-91541018D01*
X135226233Y-94842819D02*
X133062559Y-95422573D01*
X135288349Y-95074641D02*
X133124675Y-95654395D01*
X135257291Y-94958730D02*
X133093617Y-95538484D01*
X135583430Y-100503244D02*
X135086497Y-98648666D01*
X133492172Y-92698563D02*
X133989104Y-94553140D01*
X136168334Y-98358789D02*
X135070941Y-94263263D01*
X134004660Y-98938543D02*
X136168334Y-98358789D01*
X132907267Y-94843018D02*
X134004660Y-98938543D01*
X135070941Y-94263263D02*
X132907267Y-94843018D01*
X171991441Y-113329573D02*
X169827767Y-112749819D01*
X171929325Y-113561395D02*
X169765651Y-112981641D01*
X171960383Y-113445484D02*
X169796709Y-112865730D01*
X169470570Y-118410244D02*
X169967503Y-116555666D01*
X171561828Y-110605563D02*
X171064896Y-112460140D01*
X171049340Y-116845543D02*
X172146733Y-112750018D01*
X168885666Y-116265789D02*
X171049340Y-116845543D01*
X169983059Y-112170263D02*
X168885666Y-116265789D01*
X172146733Y-112750018D02*
X169983059Y-112170263D01*
X124986140Y-128627459D02*
X126570059Y-127043540D01*
X124816435Y-128457754D02*
X126400354Y-126873835D01*
X124901287Y-128542607D02*
X126485207Y-126958687D01*
X121846586Y-123903986D02*
X123204231Y-125261631D01*
X127560009Y-129617409D02*
X126202364Y-128259764D01*
X122412272Y-126053591D02*
X125410404Y-129051724D01*
X123996191Y-124469672D02*
X122412272Y-126053591D01*
X126994324Y-127467804D02*
X123996191Y-124469672D01*
X125410404Y-129051724D02*
X126994324Y-127467804D01*
X132003019Y-68303967D02*
X132582773Y-70467641D01*
X132234841Y-68241851D02*
X132814595Y-70405525D01*
X132118930Y-68272909D02*
X132698684Y-70436583D01*
X137663444Y-67946770D02*
X135808866Y-68443703D01*
X129858763Y-70038028D02*
X131713340Y-69541096D01*
X135518989Y-67361866D02*
X131423463Y-68459259D01*
X136098743Y-69525540D02*
X135518989Y-67361866D01*
X132003218Y-70622933D02*
X136098743Y-69525540D01*
X131423463Y-68459259D02*
X132003218Y-70622933D01*
X183929441Y-116529973D02*
X181765767Y-115950219D01*
X183867325Y-116761795D02*
X181703651Y-116182041D01*
X183898383Y-116645884D02*
X181734709Y-116066130D01*
X181408570Y-121610644D02*
X181905503Y-119756066D01*
X183499828Y-113805963D02*
X183002896Y-115660540D01*
X182987340Y-120045943D02*
X184084733Y-115950418D01*
X180823666Y-119466189D02*
X182987340Y-120045943D01*
X181921059Y-115370663D02*
X180823666Y-119466189D01*
X184084733Y-115950418D02*
X181921059Y-115370663D01*
X116223140Y-137390459D02*
X117807059Y-135806540D01*
X116053435Y-137220754D02*
X117637354Y-135636835D01*
X116138287Y-137305607D02*
X117722207Y-135721687D01*
X113083586Y-132666986D02*
X114441231Y-134024631D01*
X118797009Y-138380409D02*
X117439364Y-137022764D01*
X113649272Y-134816591D02*
X116647404Y-137814724D01*
X115233191Y-133232672D02*
X113649272Y-134816591D01*
X118231324Y-136230804D02*
X115233191Y-133232672D01*
X116647404Y-137814724D02*
X118231324Y-136230804D01*
X107052477Y-146595645D02*
X107162786Y-146485336D01*
X108690136Y-144957986D02*
X108800445Y-144847677D01*
X104878162Y-144198746D02*
G75*
G03*
X107052819Y-146595303I1945212J-419828D01*
G01*
X106403546Y-142673362D02*
G75*
G02*
X108800103Y-144848019I419828J-1945212D01*
G01*
X105323624Y-144645945D02*
G75*
G03*
X106795770Y-146118320I1499750J27371D01*
G01*
X106850745Y-143118824D02*
G75*
G02*
X108323120Y-144590970I-27371J-1499750D01*
G01*
X194278658Y-119237105D02*
X194127973Y-119196729D01*
X196515742Y-119836530D02*
X196365057Y-119796154D01*
X193605592Y-121749647D02*
G75*
G02*
X194144320Y-119738458I1312508J726173D01*
G01*
X195691679Y-122308610D02*
G75*
G03*
X196230720Y-120297507I-773579J1285136D01*
G01*
X193443412Y-122359661D02*
G75*
G02*
X194128441Y-119196854I1474688J1336187D01*
G01*
X195527123Y-122917989D02*
G75*
G03*
X196515274Y-119836405I-609023J1894515D01*
G01*
X129209206Y-58014257D02*
X129249582Y-58164942D01*
X128609781Y-55777173D02*
X128650157Y-55927858D01*
X131721662Y-57340879D02*
G75*
G02*
X129710559Y-57879920I-1285136J773579D01*
G01*
X131162699Y-55254792D02*
G75*
G03*
X129151510Y-55793520I-726173J-1312508D01*
G01*
X132331041Y-57176323D02*
G75*
G02*
X129249457Y-58164474I-1894515J609023D01*
G01*
X131772713Y-55092612D02*
G75*
G03*
X128609906Y-55777641I-1336187J-1474688D01*
G01*
X140751465Y-135085123D02*
X142537316Y-141750011D01*
X138298013Y-135742523D02*
X140751465Y-135085123D01*
D10*
G36*
X132154598Y-116833237D02*
G01*
X132483298Y-118059963D01*
X132932311Y-117282250D01*
X132154598Y-116833237D01*
G37*
X132154598Y-116833237D02*
X132483298Y-118059963D01*
X132932311Y-117282250D01*
X132154598Y-116833237D01*
D13*
X154096040Y-102977243D02*
X133222382Y-108570323D01*
X165062707Y-135714351D02*
X156695087Y-104485969D01*
X138298013Y-135742523D02*
X131716245Y-111179029D01*
X142537316Y-141750011D02*
X165062707Y-135714351D01*
X154086381Y-102979831D02*
G75*
G02*
X156695087Y-104485969I551284J-2057422D01*
G01*
X131716245Y-111179030D02*
G75*
G02*
X133222382Y-108570323I2057422J551285D01*
G01*
%LPC*%
D12*
G36*
X116765249Y-119770368D02*
G01*
X116348895Y-121324221D01*
X113977226Y-120688734D01*
X113473219Y-122569713D01*
X112328274Y-122262926D01*
X112832281Y-120381947D01*
X110705957Y-119812200D01*
X111122310Y-118258347D01*
X116765249Y-119770368D01*
G37*
X116765249Y-119770368D02*
X116348895Y-121324221D01*
X113977226Y-120688734D01*
X113473219Y-122569713D01*
X112328274Y-122262926D01*
X112832281Y-120381947D01*
X110705957Y-119812200D01*
X111122310Y-118258347D01*
X116765249Y-119770368D01*
G36*
X115779149Y-123450545D02*
G01*
X115384708Y-124922616D01*
X109741770Y-123410596D01*
X110136210Y-121938525D01*
X115779149Y-123450545D01*
G37*
X115779149Y-123450545D02*
X115384708Y-124922616D01*
X109741770Y-123410596D01*
X110136210Y-121938525D01*
X115779149Y-123450545D01*
G36*
X116190099Y-99423193D02*
G01*
X116262513Y-99234336D01*
X116383054Y-98981761D01*
X122018581Y-100491796D01*
X121651554Y-101861558D01*
X120037617Y-101505846D01*
X118423679Y-101150132D01*
X119414241Y-101951338D01*
X120404801Y-102752542D01*
X120254782Y-103406265D01*
X120104762Y-104059989D01*
X118984936Y-104219876D01*
X117865108Y-104379761D01*
X116477173Y-103998449D01*
X115089237Y-103617138D01*
X115505369Y-103556268D01*
X116073213Y-103470031D01*
X116643247Y-103377777D01*
X117190304Y-103284165D01*
X117689220Y-103193857D01*
X118114828Y-103111511D01*
X118441964Y-103041787D01*
X118645461Y-102989345D01*
X118701648Y-102964413D01*
X118652819Y-102892477D01*
X118488310Y-102733474D01*
X118226686Y-102503540D01*
X117886518Y-102218808D01*
X117486375Y-101895416D01*
X117319451Y-101763381D01*
X115887623Y-100637520D01*
X116014798Y-100062215D01*
X116098297Y-99727170D01*
X116190099Y-99423193D01*
G37*
X116190099Y-99423193D02*
X116262513Y-99234336D01*
X116383054Y-98981761D01*
X122018581Y-100491796D01*
X121651554Y-101861558D01*
X120037617Y-101505846D01*
X118423679Y-101150132D01*
X119414241Y-101951338D01*
X120404801Y-102752542D01*
X120254782Y-103406265D01*
X120104762Y-104059989D01*
X118984936Y-104219876D01*
X117865108Y-104379761D01*
X116477173Y-103998449D01*
X115089237Y-103617138D01*
X115505369Y-103556268D01*
X116073213Y-103470031D01*
X116643247Y-103377777D01*
X117190304Y-103284165D01*
X117689220Y-103193857D01*
X118114828Y-103111511D01*
X118441964Y-103041787D01*
X118645461Y-102989345D01*
X118701648Y-102964413D01*
X118652819Y-102892477D01*
X118488310Y-102733474D01*
X118226686Y-102503540D01*
X117886518Y-102218808D01*
X117486375Y-101895416D01*
X117319451Y-101763381D01*
X115887623Y-100637520D01*
X116014798Y-100062215D01*
X116098297Y-99727170D01*
X116190099Y-99423193D01*
G36*
X114807228Y-104575230D02*
G01*
X115008993Y-103916612D01*
X117856670Y-104656596D01*
X120704348Y-105396580D01*
X120335815Y-106771964D01*
X119655777Y-106652773D01*
X119387247Y-106595559D01*
X118987272Y-106496901D01*
X118486307Y-106364974D01*
X117914809Y-106207952D01*
X117303231Y-106034010D01*
X116790600Y-105883715D01*
X114605462Y-105233848D01*
X114807228Y-104575230D01*
G37*
X114807228Y-104575230D02*
X115008993Y-103916612D01*
X117856670Y-104656596D01*
X120704348Y-105396580D01*
X120335815Y-106771964D01*
X119655777Y-106652773D01*
X119387247Y-106595559D01*
X118987272Y-106496901D01*
X118486307Y-106364974D01*
X117914809Y-106207952D01*
X117303231Y-106034010D01*
X116790600Y-105883715D01*
X114605462Y-105233848D01*
X114807228Y-104575230D01*
G36*
X116424407Y-106730607D02*
G01*
X117144511Y-106944268D01*
X117720926Y-107123895D01*
X118173595Y-107279028D01*
X118522462Y-107419204D01*
X118787468Y-107553964D01*
X118988555Y-107692846D01*
X119145667Y-107845390D01*
X119278747Y-108021134D01*
X119347485Y-108128791D01*
X119567705Y-108649533D01*
X119640582Y-109249869D01*
X119606868Y-109691600D01*
X119537106Y-110169986D01*
X118464110Y-109882478D01*
X118445946Y-109564040D01*
X118421355Y-109353480D01*
X118361275Y-109180787D01*
X118246332Y-109034596D01*
X118057154Y-108903544D01*
X117774365Y-108776265D01*
X117378592Y-108641397D01*
X116850462Y-108487574D01*
X116402692Y-108365501D01*
X115876247Y-108221237D01*
X115377404Y-108079328D01*
X114940445Y-107949920D01*
X114599646Y-107843158D01*
X114392685Y-107770558D01*
X113977150Y-107603941D01*
X114372187Y-106129643D01*
X116424407Y-106730607D01*
G37*
X116424407Y-106730607D02*
X117144511Y-106944268D01*
X117720926Y-107123895D01*
X118173595Y-107279028D01*
X118522462Y-107419204D01*
X118787468Y-107553964D01*
X118988555Y-107692846D01*
X119145667Y-107845390D01*
X119278747Y-108021134D01*
X119347485Y-108128791D01*
X119567705Y-108649533D01*
X119640582Y-109249869D01*
X119606868Y-109691600D01*
X119537106Y-110169986D01*
X118464110Y-109882478D01*
X118445946Y-109564040D01*
X118421355Y-109353480D01*
X118361275Y-109180787D01*
X118246332Y-109034596D01*
X118057154Y-108903544D01*
X117774365Y-108776265D01*
X117378592Y-108641397D01*
X116850462Y-108487574D01*
X116402692Y-108365501D01*
X115876247Y-108221237D01*
X115377404Y-108079328D01*
X114940445Y-107949920D01*
X114599646Y-107843158D01*
X114392685Y-107770558D01*
X113977150Y-107603941D01*
X114372187Y-106129643D01*
X116424407Y-106730607D01*
G36*
X115430516Y-110112732D02*
G01*
X115996109Y-110259404D01*
X116517399Y-110390078D01*
X116968789Y-110498700D01*
X117324687Y-110579212D01*
X117559497Y-110625559D01*
X117635439Y-110634491D01*
X117834494Y-110578117D01*
X118065289Y-110439050D01*
X118134030Y-110382386D01*
X118293949Y-110248151D01*
X118426882Y-110186431D01*
X118591232Y-110189025D01*
X118845401Y-110247738D01*
X118930968Y-110270532D01*
X119211022Y-110348995D01*
X119360210Y-110410879D01*
X119411490Y-110482471D01*
X119397812Y-110590065D01*
X119385915Y-110633481D01*
X119302575Y-110831279D01*
X119158026Y-111092635D01*
X119056270Y-111252287D01*
X118668198Y-111683021D01*
X118185467Y-111977260D01*
X117687222Y-112115556D01*
X117522997Y-112131024D01*
X117336298Y-112127935D01*
X117102049Y-112102218D01*
X116795173Y-112049805D01*
X116390594Y-111966625D01*
X115863237Y-111848609D01*
X115442683Y-111751277D01*
X114892256Y-111619761D01*
X114381939Y-111492001D01*
X113940405Y-111375634D01*
X113596324Y-111278299D01*
X113378370Y-111207632D01*
X113335991Y-111190042D01*
X113052671Y-111054145D01*
X113445125Y-109589485D01*
X115430516Y-110112732D01*
G37*
X115430516Y-110112732D02*
X115996109Y-110259404D01*
X116517399Y-110390078D01*
X116968789Y-110498700D01*
X117324687Y-110579212D01*
X117559497Y-110625559D01*
X117635439Y-110634491D01*
X117834494Y-110578117D01*
X118065289Y-110439050D01*
X118134030Y-110382386D01*
X118293949Y-110248151D01*
X118426882Y-110186431D01*
X118591232Y-110189025D01*
X118845401Y-110247738D01*
X118930968Y-110270532D01*
X119211022Y-110348995D01*
X119360210Y-110410879D01*
X119411490Y-110482471D01*
X119397812Y-110590065D01*
X119385915Y-110633481D01*
X119302575Y-110831279D01*
X119158026Y-111092635D01*
X119056270Y-111252287D01*
X118668198Y-111683021D01*
X118185467Y-111977260D01*
X117687222Y-112115556D01*
X117522997Y-112131024D01*
X117336298Y-112127935D01*
X117102049Y-112102218D01*
X116795173Y-112049805D01*
X116390594Y-111966625D01*
X115863237Y-111848609D01*
X115442683Y-111751277D01*
X114892256Y-111619761D01*
X114381939Y-111492001D01*
X113940405Y-111375634D01*
X113596324Y-111278299D01*
X113378370Y-111207632D01*
X113335991Y-111190042D01*
X113052671Y-111054145D01*
X113445125Y-109589485D01*
X115430516Y-110112732D01*
G36*
X112261804Y-114005698D02*
G01*
X112875378Y-111715810D01*
X113933506Y-111999334D01*
X113692865Y-112989266D01*
X113452225Y-113979199D01*
X115984115Y-113471725D01*
X116617555Y-113345874D01*
X117197911Y-113232695D01*
X117704277Y-113136098D01*
X118115745Y-113059994D01*
X118411406Y-113008289D01*
X118570354Y-112984894D01*
X118590922Y-112984325D01*
X118596562Y-113068853D01*
X118561024Y-113289885D01*
X118489714Y-113621122D01*
X118388036Y-114036270D01*
X118326182Y-114272015D01*
X117986525Y-115539633D01*
X120031067Y-116087466D01*
X119724281Y-117232410D01*
X117679738Y-116684576D01*
X117559215Y-117134376D01*
X117481469Y-117377577D01*
X117407414Y-117532843D01*
X117367306Y-117565047D01*
X117264738Y-117504533D01*
X117082290Y-117371389D01*
X116962358Y-117277134D01*
X116628796Y-117008348D01*
X116800439Y-116335301D01*
X116905285Y-115898205D01*
X117014394Y-115402326D01*
X117103097Y-114960420D01*
X117234112Y-114258588D01*
X115558899Y-114622284D01*
X115045386Y-114735094D01*
X114586600Y-114838394D01*
X114208973Y-114926027D01*
X113938935Y-114991839D01*
X113802918Y-115029672D01*
X113794261Y-115033266D01*
X113793958Y-115085965D01*
X113883541Y-115202986D01*
X114070085Y-115390741D01*
X114360670Y-115655645D01*
X114762371Y-116004110D01*
X115282267Y-116442551D01*
X115927435Y-116977381D01*
X116060017Y-117086521D01*
X117299002Y-118105504D01*
X117002234Y-119213057D01*
X116057691Y-118403707D01*
X115632617Y-118039165D01*
X115135512Y-117612364D01*
X114622599Y-117171603D01*
X114150107Y-116765182D01*
X114061872Y-116689227D01*
X113707535Y-116385527D01*
X113399199Y-116123865D01*
X113159093Y-115922894D01*
X113009443Y-115801270D01*
X112970560Y-115773370D01*
X112934605Y-115845740D01*
X112866064Y-116050803D01*
X112774697Y-116357302D01*
X112670261Y-116733976D01*
X112667567Y-116744024D01*
X112404606Y-117725404D01*
X111341444Y-117440531D01*
X111955017Y-115150642D01*
X110074038Y-114646635D01*
X110380825Y-113501691D01*
X112261804Y-114005698D01*
G37*
X112261804Y-114005698D02*
X112875378Y-111715810D01*
X113933506Y-111999334D01*
X113692865Y-112989266D01*
X113452225Y-113979199D01*
X115984115Y-113471725D01*
X116617555Y-113345874D01*
X117197911Y-113232695D01*
X117704277Y-113136098D01*
X118115745Y-113059994D01*
X118411406Y-113008289D01*
X118570354Y-112984894D01*
X118590922Y-112984325D01*
X118596562Y-113068853D01*
X118561024Y-113289885D01*
X118489714Y-113621122D01*
X118388036Y-114036270D01*
X118326182Y-114272015D01*
X117986525Y-115539633D01*
X120031067Y-116087466D01*
X119724281Y-117232410D01*
X117679738Y-116684576D01*
X117559215Y-117134376D01*
X117481469Y-117377577D01*
X117407414Y-117532843D01*
X117367306Y-117565047D01*
X117264738Y-117504533D01*
X117082290Y-117371389D01*
X116962358Y-117277134D01*
X116628796Y-117008348D01*
X116800439Y-116335301D01*
X116905285Y-115898205D01*
X117014394Y-115402326D01*
X117103097Y-114960420D01*
X117234112Y-114258588D01*
X115558899Y-114622284D01*
X115045386Y-114735094D01*
X114586600Y-114838394D01*
X114208973Y-114926027D01*
X113938935Y-114991839D01*
X113802918Y-115029672D01*
X113794261Y-115033266D01*
X113793958Y-115085965D01*
X113883541Y-115202986D01*
X114070085Y-115390741D01*
X114360670Y-115655645D01*
X114762371Y-116004110D01*
X115282267Y-116442551D01*
X115927435Y-116977381D01*
X116060017Y-117086521D01*
X117299002Y-118105504D01*
X117002234Y-119213057D01*
X116057691Y-118403707D01*
X115632617Y-118039165D01*
X115135512Y-117612364D01*
X114622599Y-117171603D01*
X114150107Y-116765182D01*
X114061872Y-116689227D01*
X113707535Y-116385527D01*
X113399199Y-116123865D01*
X113159093Y-115922894D01*
X113009443Y-115801270D01*
X112970560Y-115773370D01*
X112934605Y-115845740D01*
X112866064Y-116050803D01*
X112774697Y-116357302D01*
X112670261Y-116733976D01*
X112667567Y-116744024D01*
X112404606Y-117725404D01*
X111341444Y-117440531D01*
X111955017Y-115150642D01*
X110074038Y-114646635D01*
X110380825Y-113501691D01*
X112261804Y-114005698D01*
G36*
G01*
X146937665Y-101590454D02*
X146937665Y-101590454D01*
G75*
G02*
X147503351Y-100610658I772741J207055D01*
G01*
X147503351Y-100610658D01*
G75*
G02*
X148483147Y-101176344I207055J-772741D01*
G01*
X148483147Y-101176344D01*
G75*
G02*
X147917461Y-102156140I-772741J-207055D01*
G01*
X147917461Y-102156140D01*
G75*
G02*
X146937665Y-101590454I-207055J772741D01*
G01*
G37*
D14*
G36*
X137330915Y-104992796D02*
G01*
X136916804Y-103447315D01*
X138462285Y-103033204D01*
X138876396Y-104578685D01*
X137330915Y-104992796D01*
G37*
G36*
G01*
X141095665Y-79822654D02*
X141095665Y-79822654D01*
G75*
G02*
X141661351Y-78842858I772741J207055D01*
G01*
X141661351Y-78842858D01*
G75*
G02*
X142641147Y-79408544I207055J-772741D01*
G01*
X142641147Y-79408544D01*
G75*
G02*
X142075461Y-80388340I-772741J-207055D01*
G01*
X142075461Y-80388340D01*
G75*
G02*
X141095665Y-79822654I-207055J772741D01*
G01*
G37*
G36*
X131488915Y-83224996D02*
G01*
X131074804Y-81679515D01*
X132620285Y-81265404D01*
X133034396Y-82810885D01*
X131488915Y-83224996D01*
G37*
D15*
X109786149Y-141673851D03*
X113378251Y-138081749D03*
X150632348Y-92300600D03*
X155539252Y-90985800D03*
X138262548Y-95602600D03*
X143169452Y-94287800D03*
X130774252Y-97615200D03*
X125867348Y-98930000D03*
X134699200Y-72501948D03*
X136014000Y-77408852D03*
X178947704Y-116757800D03*
X174040800Y-115443000D03*
X122115851Y-129318749D03*
X118523749Y-132910851D03*
X131498800Y-60563948D03*
X132813600Y-65470852D03*
X190896052Y-119961200D03*
X185989148Y-118646400D03*
G36*
G01*
X144497053Y-117522431D02*
X144497053Y-117522431D01*
G75*
G02*
X143517257Y-116956745I-207055J772741D01*
G01*
X143517257Y-116956745D01*
G75*
G02*
X144082943Y-115976949I772741J207055D01*
G01*
X144082943Y-115976949D01*
G75*
G02*
X145062739Y-116542635I207055J-772741D01*
G01*
X145062739Y-116542635D01*
G75*
G02*
X144497053Y-117522431I-772741J-207055D01*
G01*
G37*
D16*
X148234400Y-131470400D03*
G36*
G01*
X148840453Y-116354031D02*
X148840453Y-116354031D01*
G75*
G02*
X147860657Y-115788345I-207055J772741D01*
G01*
X147860657Y-115788345D01*
G75*
G02*
X148426343Y-114808549I772741J207055D01*
G01*
X148426343Y-114808549D01*
G75*
G02*
X149406139Y-115374235I207055J-772741D01*
G01*
X149406139Y-115374235D01*
G75*
G02*
X148840453Y-116354031I-772741J-207055D01*
G01*
G37*
X152577800Y-130302000D03*
G36*
G01*
X140153653Y-118665431D02*
X140153653Y-118665431D01*
G75*
G02*
X139173857Y-118099745I-207055J772741D01*
G01*
X139173857Y-118099745D01*
G75*
G02*
X139739543Y-117119949I772741J207055D01*
G01*
X139739543Y-117119949D01*
G75*
G02*
X140719339Y-117685635I207055J-772741D01*
G01*
X140719339Y-117685635D01*
G75*
G02*
X140153653Y-118665431I-772741J-207055D01*
G01*
G37*
X143891000Y-132613400D03*
G36*
G01*
X167001631Y-125421653D02*
X167001631Y-125421653D01*
G75*
G02*
X166021835Y-125987339I-772741J207055D01*
G01*
X166021835Y-125987339D01*
G75*
G02*
X165456149Y-125007543I207055J772741D01*
G01*
X165456149Y-125007543D01*
G75*
G02*
X166435945Y-124441857I772741J-207055D01*
G01*
X166435945Y-124441857D01*
G75*
G02*
X167001631Y-125421653I-207055J-772741D01*
G01*
G37*
X180949600Y-129159000D03*
G36*
G01*
X153107653Y-115185631D02*
X153107653Y-115185631D01*
G75*
G02*
X152127857Y-114619945I-207055J772741D01*
G01*
X152127857Y-114619945D01*
G75*
G02*
X152693543Y-113640149I772741J207055D01*
G01*
X152693543Y-113640149D01*
G75*
G02*
X153673339Y-114205835I207055J-772741D01*
G01*
X153673339Y-114205835D01*
G75*
G02*
X153107653Y-115185631I-772741J-207055D01*
G01*
G37*
X156845000Y-129133600D03*
G36*
G01*
X133146622Y-134442378D02*
X133146622Y-134442378D01*
G75*
G02*
X133146622Y-133311008I565685J565685D01*
G01*
X133146622Y-133311008D01*
G75*
G02*
X134277992Y-133311008I565685J-565685D01*
G01*
X134277992Y-133311008D01*
G75*
G02*
X134277992Y-134442378I-565685J-565685D01*
G01*
X134277992Y-134442378D01*
G75*
G02*
X133146622Y-134442378I-565685J565685D01*
G01*
G37*
X122936000Y-144653000D03*
D17*
X163449000Y-102235000D03*
X124714000Y-112522000D03*
G36*
G01*
X148015346Y-97433065D02*
X148015346Y-97433065D01*
G75*
G02*
X148995142Y-97998751I207055J-772741D01*
G01*
X148995142Y-97998751D01*
G75*
G02*
X148429456Y-98978547I-772741J-207055D01*
G01*
X148429456Y-98978547D01*
G75*
G02*
X147449660Y-98412861I-207055J772741D01*
G01*
X147449660Y-98412861D01*
G75*
G02*
X148015346Y-97433065I772741J207055D01*
G01*
G37*
D14*
G36*
X144613004Y-87826315D02*
G01*
X146158485Y-87412204D01*
X146572596Y-88957685D01*
X145027115Y-89371796D01*
X144613004Y-87826315D01*
G37*
G36*
G01*
X135645546Y-100735065D02*
X135645546Y-100735065D01*
G75*
G02*
X136625342Y-101300751I207055J-772741D01*
G01*
X136625342Y-101300751D01*
G75*
G02*
X136059656Y-102280547I-772741J-207055D01*
G01*
X136059656Y-102280547D01*
G75*
G02*
X135079860Y-101714861I-207055J772741D01*
G01*
X135079860Y-101714861D01*
G75*
G02*
X135645546Y-100735065I772741J207055D01*
G01*
G37*
G36*
X132243204Y-91128315D02*
G01*
X133788685Y-90714204D01*
X134202796Y-92259685D01*
X132657315Y-92673796D01*
X132243204Y-91128315D01*
G37*
G36*
G01*
X169408454Y-118642065D02*
X169408454Y-118642065D01*
G75*
G02*
X169974140Y-119621861I-207055J-772741D01*
G01*
X169974140Y-119621861D01*
G75*
G02*
X168994344Y-120187547I-772741J207055D01*
G01*
X168994344Y-120187547D01*
G75*
G02*
X168428658Y-119207751I207055J772741D01*
G01*
X168428658Y-119207751D01*
G75*
G02*
X169408454Y-118642065I772741J-207055D01*
G01*
G37*
G36*
X171265315Y-108621204D02*
G01*
X172810796Y-109035315D01*
X172396685Y-110580796D01*
X170851204Y-110166685D01*
X171265315Y-108621204D01*
G37*
G36*
G01*
X121676880Y-123734280D02*
X121676880Y-123734280D01*
G75*
G02*
X120545510Y-123734280I-565685J565685D01*
G01*
X120545510Y-123734280D01*
G75*
G02*
X120545510Y-122602910I565685J565685D01*
G01*
X120545510Y-122602910D01*
G75*
G02*
X121676880Y-122602910I565685J-565685D01*
G01*
X121676880Y-122602910D01*
G75*
G02*
X121676880Y-123734280I-565685J-565685D01*
G01*
G37*
G36*
X129426771Y-130352800D02*
G01*
X128295400Y-131484171D01*
X127164029Y-130352800D01*
X128295400Y-129221429D01*
X129426771Y-130352800D01*
G37*
G36*
G01*
X137895265Y-67884654D02*
X137895265Y-67884654D01*
G75*
G02*
X138460951Y-66904858I772741J207055D01*
G01*
X138460951Y-66904858D01*
G75*
G02*
X139440747Y-67470544I207055J-772741D01*
G01*
X139440747Y-67470544D01*
G75*
G02*
X138875061Y-68450340I-772741J-207055D01*
G01*
X138875061Y-68450340D01*
G75*
G02*
X137895265Y-67884654I-207055J772741D01*
G01*
G37*
G36*
X128288515Y-71286996D02*
G01*
X127874404Y-69741515D01*
X129419885Y-69327404D01*
X129833996Y-70872885D01*
X128288515Y-71286996D01*
G37*
G36*
G01*
X181346454Y-121842465D02*
X181346454Y-121842465D01*
G75*
G02*
X181912140Y-122822261I-207055J-772741D01*
G01*
X181912140Y-122822261D01*
G75*
G02*
X180932344Y-123387947I-772741J207055D01*
G01*
X180932344Y-123387947D01*
G75*
G02*
X180366658Y-122408151I207055J772741D01*
G01*
X180366658Y-122408151D01*
G75*
G02*
X181346454Y-121842465I772741J-207055D01*
G01*
G37*
G36*
X183203315Y-111821604D02*
G01*
X184748796Y-112235715D01*
X184334685Y-113781196D01*
X182789204Y-113367085D01*
X183203315Y-111821604D01*
G37*
G36*
G01*
X112913880Y-132497280D02*
X112913880Y-132497280D01*
G75*
G02*
X111782510Y-132497280I-565685J565685D01*
G01*
X111782510Y-132497280D01*
G75*
G02*
X111782510Y-131365910I565685J565685D01*
G01*
X111782510Y-131365910D01*
G75*
G02*
X112913880Y-131365910I565685J-565685D01*
G01*
X112913880Y-131365910D01*
G75*
G02*
X112913880Y-132497280I-565685J-565685D01*
G01*
G37*
G36*
X120663771Y-139115800D02*
G01*
X119532400Y-140247171D01*
X118401029Y-139115800D01*
X119532400Y-137984429D01*
X120663771Y-139115800D01*
G37*
G36*
X108994192Y-145516600D02*
G01*
X107721400Y-146789392D01*
X106448608Y-145516600D01*
X107721400Y-144243808D01*
X108994192Y-145516600D01*
G37*
D18*
X105925349Y-143720549D03*
X194589400Y-122250200D03*
D14*
G36*
X194610404Y-118694478D02*
G01*
X196349070Y-119160352D01*
X195883196Y-120899018D01*
X194144530Y-120433144D01*
X194610404Y-118694478D01*
G37*
D18*
X131663252Y-56238600D03*
D14*
G36*
X128573404Y-57998270D02*
G01*
X128107530Y-56259604D01*
X129846196Y-55793730D01*
X130312070Y-57532396D01*
X128573404Y-57998270D01*
G37*
G36*
G01*
X155887538Y-111131416D02*
X155887538Y-111131416D01*
G75*
G02*
X156453224Y-110151620I772741J207055D01*
G01*
X156839594Y-110048092D01*
G75*
G02*
X157819390Y-110613778I207055J-772741D01*
G01*
X157819390Y-110613778D01*
G75*
G02*
X157253704Y-111593574I-772741J-207055D01*
G01*
X156867334Y-111697102D01*
G75*
G02*
X155887538Y-111131416I-207055J772741D01*
G01*
G37*
G36*
G01*
X156544939Y-113584867D02*
X156544939Y-113584867D01*
G75*
G02*
X157110625Y-112605071I772741J207055D01*
G01*
X157496995Y-112501543D01*
G75*
G02*
X158476791Y-113067229I207055J-772741D01*
G01*
X158476791Y-113067229D01*
G75*
G02*
X157911105Y-114047025I-772741J-207055D01*
G01*
X157524735Y-114150553D01*
G75*
G02*
X156544939Y-113584867I-207055J772741D01*
G01*
G37*
G36*
G01*
X157202339Y-116038319D02*
X157202339Y-116038319D01*
G75*
G02*
X157768025Y-115058523I772741J207055D01*
G01*
X158154395Y-114954995D01*
G75*
G02*
X159134191Y-115520681I207055J-772741D01*
G01*
X159134191Y-115520681D01*
G75*
G02*
X158568505Y-116500477I-772741J-207055D01*
G01*
X158182135Y-116604005D01*
G75*
G02*
X157202339Y-116038319I-207055J772741D01*
G01*
G37*
G36*
G01*
X157859740Y-118491770D02*
X157859740Y-118491770D01*
G75*
G02*
X158425426Y-117511974I772741J207055D01*
G01*
X158811796Y-117408446D01*
G75*
G02*
X159791592Y-117974132I207055J-772741D01*
G01*
X159791592Y-117974132D01*
G75*
G02*
X159225906Y-118953928I-772741J-207055D01*
G01*
X158839536Y-119057456D01*
G75*
G02*
X157859740Y-118491770I-207055J772741D01*
G01*
G37*
G36*
G01*
X158517140Y-120945222D02*
X158517140Y-120945222D01*
G75*
G02*
X159082826Y-119965426I772741J207055D01*
G01*
X159469196Y-119861898D01*
G75*
G02*
X160448992Y-120427584I207055J-772741D01*
G01*
X160448992Y-120427584D01*
G75*
G02*
X159883306Y-121407380I-772741J-207055D01*
G01*
X159496936Y-121510908D01*
G75*
G02*
X158517140Y-120945222I-207055J772741D01*
G01*
G37*
G36*
G01*
X159174540Y-123398674D02*
X159174540Y-123398674D01*
G75*
G02*
X159740226Y-122418878I772741J207055D01*
G01*
X160126596Y-122315350D01*
G75*
G02*
X161106392Y-122881036I207055J-772741D01*
G01*
X161106392Y-122881036D01*
G75*
G02*
X160540706Y-123860832I-772741J-207055D01*
G01*
X160154336Y-123964360D01*
G75*
G02*
X159174540Y-123398674I-207055J772741D01*
G01*
G37*
G36*
G01*
X159831941Y-125852125D02*
X159831941Y-125852125D01*
G75*
G02*
X160397627Y-124872329I772741J207055D01*
G01*
X160783997Y-124768801D01*
G75*
G02*
X161763793Y-125334487I207055J-772741D01*
G01*
X161763793Y-125334487D01*
G75*
G02*
X161198107Y-126314283I-772741J-207055D01*
G01*
X160811737Y-126417811D01*
G75*
G02*
X159831941Y-125852125I-207055J772741D01*
G01*
G37*
G36*
G01*
X160489341Y-128305577D02*
X160489341Y-128305577D01*
G75*
G02*
X161055027Y-127325781I772741J207055D01*
G01*
X161441397Y-127222253D01*
G75*
G02*
X162421193Y-127787939I207055J-772741D01*
G01*
X162421193Y-127787939D01*
G75*
G02*
X161855507Y-128767735I-772741J-207055D01*
G01*
X161469137Y-128871263D01*
G75*
G02*
X160489341Y-128305577I-207055J772741D01*
G01*
G37*
G36*
G01*
X138408277Y-134222180D02*
X138408277Y-134222180D01*
G75*
G02*
X138973963Y-133242384I772741J207055D01*
G01*
X139360333Y-133138856D01*
G75*
G02*
X140340129Y-133704542I207055J-772741D01*
G01*
X140340129Y-133704542D01*
G75*
G02*
X139774443Y-134684338I-772741J-207055D01*
G01*
X139388073Y-134787866D01*
G75*
G02*
X138408277Y-134222180I-207055J772741D01*
G01*
G37*
G36*
G01*
X137750876Y-131768729D02*
X137750876Y-131768729D01*
G75*
G02*
X138316562Y-130788933I772741J207055D01*
G01*
X138702932Y-130685405D01*
G75*
G02*
X139682728Y-131251091I207055J-772741D01*
G01*
X139682728Y-131251091D01*
G75*
G02*
X139117042Y-132230887I-772741J-207055D01*
G01*
X138730672Y-132334415D01*
G75*
G02*
X137750876Y-131768729I-207055J772741D01*
G01*
G37*
G36*
G01*
X137093476Y-129315277D02*
X137093476Y-129315277D01*
G75*
G02*
X137659162Y-128335481I772741J207055D01*
G01*
X138045532Y-128231953D01*
G75*
G02*
X139025328Y-128797639I207055J-772741D01*
G01*
X139025328Y-128797639D01*
G75*
G02*
X138459642Y-129777435I-772741J-207055D01*
G01*
X138073272Y-129880963D01*
G75*
G02*
X137093476Y-129315277I-207055J772741D01*
G01*
G37*
G36*
G01*
X136436075Y-126861825D02*
X136436075Y-126861825D01*
G75*
G02*
X137001761Y-125882029I772741J207055D01*
G01*
X137388131Y-125778501D01*
G75*
G02*
X138367927Y-126344187I207055J-772741D01*
G01*
X138367927Y-126344187D01*
G75*
G02*
X137802241Y-127323983I-772741J-207055D01*
G01*
X137415871Y-127427511D01*
G75*
G02*
X136436075Y-126861825I-207055J772741D01*
G01*
G37*
G36*
G01*
X135778675Y-124408374D02*
X135778675Y-124408374D01*
G75*
G02*
X136344361Y-123428578I772741J207055D01*
G01*
X136730731Y-123325050D01*
G75*
G02*
X137710527Y-123890736I207055J-772741D01*
G01*
X137710527Y-123890736D01*
G75*
G02*
X137144841Y-124870532I-772741J-207055D01*
G01*
X136758471Y-124974060D01*
G75*
G02*
X135778675Y-124408374I-207055J772741D01*
G01*
G37*
G36*
G01*
X135121275Y-121954922D02*
X135121275Y-121954922D01*
G75*
G02*
X135686961Y-120975126I772741J207055D01*
G01*
X136073331Y-120871598D01*
G75*
G02*
X137053127Y-121437284I207055J-772741D01*
G01*
X137053127Y-121437284D01*
G75*
G02*
X136487441Y-122417080I-772741J-207055D01*
G01*
X136101071Y-122520608D01*
G75*
G02*
X135121275Y-121954922I-207055J772741D01*
G01*
G37*
G36*
X134065293Y-118013945D02*
G01*
X133547655Y-116082093D01*
X135479507Y-115564455D01*
X135997145Y-117496307D01*
X134065293Y-118013945D01*
G37*
G36*
G01*
X134463874Y-119501471D02*
X134463874Y-119501471D01*
G75*
G02*
X135029560Y-118521675I772741J207055D01*
G01*
X135415930Y-118418147D01*
G75*
G02*
X136395726Y-118983833I207055J-772741D01*
G01*
X136395726Y-118983833D01*
G75*
G02*
X135830040Y-119963629I-772741J-207055D01*
G01*
X135443670Y-120067157D01*
G75*
G02*
X134463874Y-119501471I-207055J772741D01*
G01*
G37*
M02*
