G04 #@! TF.GenerationSoftware,KiCad,Pcbnew,5.1.10-88a1d61d58~88~ubuntu18.04.1*
G04 #@! TF.CreationDate,2021-09-12T23:00:53+02:00*
G04 #@! TF.ProjectId,remote_board,72656d6f-7465-45f6-926f-6172642e6b69,rev?*
G04 #@! TF.SameCoordinates,Original*
G04 #@! TF.FileFunction,Copper,L1,Top*
G04 #@! TF.FilePolarity,Positive*
%FSLAX46Y46*%
G04 Gerber Fmt 4.6, Leading zero omitted, Abs format (unit mm)*
G04 Created by KiCad (PCBNEW 5.1.10-88a1d61d58~88~ubuntu18.04.1) date 2021-09-12 23:00:54*
%MOMM*%
%LPD*%
G01*
G04 APERTURE LIST*
G04 #@! TA.AperFunction,ComponentPad*
%ADD10C,0.100000*%
G04 #@! TD*
G04 #@! TA.AperFunction,ComponentPad*
%ADD11C,2.000000*%
G04 #@! TD*
G04 #@! TA.AperFunction,ComponentPad*
%ADD12C,1.600000*%
G04 #@! TD*
G04 #@! TA.AperFunction,ComponentPad*
%ADD13C,1.800000*%
G04 #@! TD*
G04 #@! TA.AperFunction,ViaPad*
%ADD14C,1.000000*%
G04 #@! TD*
G04 #@! TA.AperFunction,Conductor*
%ADD15C,0.400000*%
G04 #@! TD*
G04 #@! TA.AperFunction,NonConductor*
%ADD16C,0.400000*%
G04 #@! TD*
G04 #@! TA.AperFunction,NonConductor*
%ADD17C,0.100000*%
G04 #@! TD*
G04 APERTURE END LIST*
G04 #@! TA.AperFunction,ComponentPad*
G36*
G01*
X146937665Y-101590454D02*
X146937665Y-101590454D01*
G75*
G02*
X147503351Y-100610658I772741J207055D01*
G01*
X147503351Y-100610658D01*
G75*
G02*
X148483147Y-101176344I207055J-772741D01*
G01*
X148483147Y-101176344D01*
G75*
G02*
X147917461Y-102156140I-772741J-207055D01*
G01*
X147917461Y-102156140D01*
G75*
G02*
X146937665Y-101590454I-207055J772741D01*
G01*
G37*
G04 #@! TD.AperFunction*
G04 #@! TA.AperFunction,ComponentPad*
D10*
G36*
X137330915Y-104992796D02*
G01*
X136916804Y-103447315D01*
X138462285Y-103033204D01*
X138876396Y-104578685D01*
X137330915Y-104992796D01*
G37*
G04 #@! TD.AperFunction*
G04 #@! TA.AperFunction,ComponentPad*
G36*
G01*
X141095665Y-79822654D02*
X141095665Y-79822654D01*
G75*
G02*
X141661351Y-78842858I772741J207055D01*
G01*
X141661351Y-78842858D01*
G75*
G02*
X142641147Y-79408544I207055J-772741D01*
G01*
X142641147Y-79408544D01*
G75*
G02*
X142075461Y-80388340I-772741J-207055D01*
G01*
X142075461Y-80388340D01*
G75*
G02*
X141095665Y-79822654I-207055J772741D01*
G01*
G37*
G04 #@! TD.AperFunction*
G04 #@! TA.AperFunction,ComponentPad*
G36*
X131488915Y-83224996D02*
G01*
X131074804Y-81679515D01*
X132620285Y-81265404D01*
X133034396Y-82810885D01*
X131488915Y-83224996D01*
G37*
G04 #@! TD.AperFunction*
D11*
X109786149Y-141673851D03*
X113378251Y-138081749D03*
X150632348Y-92300600D03*
X155539252Y-90985800D03*
X138262548Y-95602600D03*
X143169452Y-94287800D03*
X130774252Y-97615200D03*
X125867348Y-98930000D03*
X134699200Y-72501948D03*
X136014000Y-77408852D03*
X178947704Y-116757800D03*
X174040800Y-115443000D03*
X122115851Y-129318749D03*
X118523749Y-132910851D03*
X131498800Y-60563948D03*
X132813600Y-65470852D03*
X190896052Y-119961200D03*
X185989148Y-118646400D03*
G04 #@! TA.AperFunction,ComponentPad*
G36*
G01*
X144497053Y-117522431D02*
X144497053Y-117522431D01*
G75*
G02*
X143517257Y-116956745I-207055J772741D01*
G01*
X143517257Y-116956745D01*
G75*
G02*
X144082943Y-115976949I772741J207055D01*
G01*
X144082943Y-115976949D01*
G75*
G02*
X145062739Y-116542635I207055J-772741D01*
G01*
X145062739Y-116542635D01*
G75*
G02*
X144497053Y-117522431I-772741J-207055D01*
G01*
G37*
G04 #@! TD.AperFunction*
D12*
X148234400Y-131470400D03*
G04 #@! TA.AperFunction,ComponentPad*
G36*
G01*
X148840453Y-116354031D02*
X148840453Y-116354031D01*
G75*
G02*
X147860657Y-115788345I-207055J772741D01*
G01*
X147860657Y-115788345D01*
G75*
G02*
X148426343Y-114808549I772741J207055D01*
G01*
X148426343Y-114808549D01*
G75*
G02*
X149406139Y-115374235I207055J-772741D01*
G01*
X149406139Y-115374235D01*
G75*
G02*
X148840453Y-116354031I-772741J-207055D01*
G01*
G37*
G04 #@! TD.AperFunction*
X152577800Y-130302000D03*
G04 #@! TA.AperFunction,ComponentPad*
G36*
G01*
X140153653Y-118665431D02*
X140153653Y-118665431D01*
G75*
G02*
X139173857Y-118099745I-207055J772741D01*
G01*
X139173857Y-118099745D01*
G75*
G02*
X139739543Y-117119949I772741J207055D01*
G01*
X139739543Y-117119949D01*
G75*
G02*
X140719339Y-117685635I207055J-772741D01*
G01*
X140719339Y-117685635D01*
G75*
G02*
X140153653Y-118665431I-772741J-207055D01*
G01*
G37*
G04 #@! TD.AperFunction*
X143891000Y-132613400D03*
G04 #@! TA.AperFunction,ComponentPad*
G36*
G01*
X167001631Y-125421653D02*
X167001631Y-125421653D01*
G75*
G02*
X166021835Y-125987339I-772741J207055D01*
G01*
X166021835Y-125987339D01*
G75*
G02*
X165456149Y-125007543I207055J772741D01*
G01*
X165456149Y-125007543D01*
G75*
G02*
X166435945Y-124441857I772741J-207055D01*
G01*
X166435945Y-124441857D01*
G75*
G02*
X167001631Y-125421653I-207055J-772741D01*
G01*
G37*
G04 #@! TD.AperFunction*
X180949600Y-129159000D03*
G04 #@! TA.AperFunction,ComponentPad*
G36*
G01*
X153107653Y-115185631D02*
X153107653Y-115185631D01*
G75*
G02*
X152127857Y-114619945I-207055J772741D01*
G01*
X152127857Y-114619945D01*
G75*
G02*
X152693543Y-113640149I772741J207055D01*
G01*
X152693543Y-113640149D01*
G75*
G02*
X153673339Y-114205835I207055J-772741D01*
G01*
X153673339Y-114205835D01*
G75*
G02*
X153107653Y-115185631I-772741J-207055D01*
G01*
G37*
G04 #@! TD.AperFunction*
X156845000Y-129133600D03*
G04 #@! TA.AperFunction,ComponentPad*
G36*
G01*
X133146622Y-134442378D02*
X133146622Y-134442378D01*
G75*
G02*
X133146622Y-133311008I565685J565685D01*
G01*
X133146622Y-133311008D01*
G75*
G02*
X134277992Y-133311008I565685J-565685D01*
G01*
X134277992Y-133311008D01*
G75*
G02*
X134277992Y-134442378I-565685J-565685D01*
G01*
X134277992Y-134442378D01*
G75*
G02*
X133146622Y-134442378I-565685J565685D01*
G01*
G37*
G04 #@! TD.AperFunction*
X122936000Y-144653000D03*
G04 #@! TA.AperFunction,ComponentPad*
G36*
G01*
X148015346Y-97433065D02*
X148015346Y-97433065D01*
G75*
G02*
X148995142Y-97998751I207055J-772741D01*
G01*
X148995142Y-97998751D01*
G75*
G02*
X148429456Y-98978547I-772741J-207055D01*
G01*
X148429456Y-98978547D01*
G75*
G02*
X147449660Y-98412861I-207055J772741D01*
G01*
X147449660Y-98412861D01*
G75*
G02*
X148015346Y-97433065I772741J207055D01*
G01*
G37*
G04 #@! TD.AperFunction*
G04 #@! TA.AperFunction,ComponentPad*
D10*
G36*
X144613004Y-87826315D02*
G01*
X146158485Y-87412204D01*
X146572596Y-88957685D01*
X145027115Y-89371796D01*
X144613004Y-87826315D01*
G37*
G04 #@! TD.AperFunction*
G04 #@! TA.AperFunction,ComponentPad*
G36*
G01*
X135645546Y-100735065D02*
X135645546Y-100735065D01*
G75*
G02*
X136625342Y-101300751I207055J-772741D01*
G01*
X136625342Y-101300751D01*
G75*
G02*
X136059656Y-102280547I-772741J-207055D01*
G01*
X136059656Y-102280547D01*
G75*
G02*
X135079860Y-101714861I-207055J772741D01*
G01*
X135079860Y-101714861D01*
G75*
G02*
X135645546Y-100735065I772741J207055D01*
G01*
G37*
G04 #@! TD.AperFunction*
G04 #@! TA.AperFunction,ComponentPad*
G36*
X132243204Y-91128315D02*
G01*
X133788685Y-90714204D01*
X134202796Y-92259685D01*
X132657315Y-92673796D01*
X132243204Y-91128315D01*
G37*
G04 #@! TD.AperFunction*
G04 #@! TA.AperFunction,ComponentPad*
G36*
G01*
X169408454Y-118642065D02*
X169408454Y-118642065D01*
G75*
G02*
X169974140Y-119621861I-207055J-772741D01*
G01*
X169974140Y-119621861D01*
G75*
G02*
X168994344Y-120187547I-772741J207055D01*
G01*
X168994344Y-120187547D01*
G75*
G02*
X168428658Y-119207751I207055J772741D01*
G01*
X168428658Y-119207751D01*
G75*
G02*
X169408454Y-118642065I772741J-207055D01*
G01*
G37*
G04 #@! TD.AperFunction*
G04 #@! TA.AperFunction,ComponentPad*
G36*
X171265315Y-108621204D02*
G01*
X172810796Y-109035315D01*
X172396685Y-110580796D01*
X170851204Y-110166685D01*
X171265315Y-108621204D01*
G37*
G04 #@! TD.AperFunction*
G04 #@! TA.AperFunction,ComponentPad*
G36*
G01*
X121676880Y-123734280D02*
X121676880Y-123734280D01*
G75*
G02*
X120545510Y-123734280I-565685J565685D01*
G01*
X120545510Y-123734280D01*
G75*
G02*
X120545510Y-122602910I565685J565685D01*
G01*
X120545510Y-122602910D01*
G75*
G02*
X121676880Y-122602910I565685J-565685D01*
G01*
X121676880Y-122602910D01*
G75*
G02*
X121676880Y-123734280I-565685J-565685D01*
G01*
G37*
G04 #@! TD.AperFunction*
G04 #@! TA.AperFunction,ComponentPad*
G36*
X129426771Y-130352800D02*
G01*
X128295400Y-131484171D01*
X127164029Y-130352800D01*
X128295400Y-129221429D01*
X129426771Y-130352800D01*
G37*
G04 #@! TD.AperFunction*
G04 #@! TA.AperFunction,ComponentPad*
G36*
G01*
X137895265Y-67884654D02*
X137895265Y-67884654D01*
G75*
G02*
X138460951Y-66904858I772741J207055D01*
G01*
X138460951Y-66904858D01*
G75*
G02*
X139440747Y-67470544I207055J-772741D01*
G01*
X139440747Y-67470544D01*
G75*
G02*
X138875061Y-68450340I-772741J-207055D01*
G01*
X138875061Y-68450340D01*
G75*
G02*
X137895265Y-67884654I-207055J772741D01*
G01*
G37*
G04 #@! TD.AperFunction*
G04 #@! TA.AperFunction,ComponentPad*
G36*
X128288515Y-71286996D02*
G01*
X127874404Y-69741515D01*
X129419885Y-69327404D01*
X129833996Y-70872885D01*
X128288515Y-71286996D01*
G37*
G04 #@! TD.AperFunction*
G04 #@! TA.AperFunction,ComponentPad*
G36*
G01*
X181346454Y-121842465D02*
X181346454Y-121842465D01*
G75*
G02*
X181912140Y-122822261I-207055J-772741D01*
G01*
X181912140Y-122822261D01*
G75*
G02*
X180932344Y-123387947I-772741J207055D01*
G01*
X180932344Y-123387947D01*
G75*
G02*
X180366658Y-122408151I207055J772741D01*
G01*
X180366658Y-122408151D01*
G75*
G02*
X181346454Y-121842465I772741J-207055D01*
G01*
G37*
G04 #@! TD.AperFunction*
G04 #@! TA.AperFunction,ComponentPad*
G36*
X183203315Y-111821604D02*
G01*
X184748796Y-112235715D01*
X184334685Y-113781196D01*
X182789204Y-113367085D01*
X183203315Y-111821604D01*
G37*
G04 #@! TD.AperFunction*
G04 #@! TA.AperFunction,ComponentPad*
G36*
G01*
X112913880Y-132497280D02*
X112913880Y-132497280D01*
G75*
G02*
X111782510Y-132497280I-565685J565685D01*
G01*
X111782510Y-132497280D01*
G75*
G02*
X111782510Y-131365910I565685J565685D01*
G01*
X111782510Y-131365910D01*
G75*
G02*
X112913880Y-131365910I565685J-565685D01*
G01*
X112913880Y-131365910D01*
G75*
G02*
X112913880Y-132497280I-565685J-565685D01*
G01*
G37*
G04 #@! TD.AperFunction*
G04 #@! TA.AperFunction,ComponentPad*
G36*
X120663771Y-139115800D02*
G01*
X119532400Y-140247171D01*
X118401029Y-139115800D01*
X119532400Y-137984429D01*
X120663771Y-139115800D01*
G37*
G04 #@! TD.AperFunction*
G04 #@! TA.AperFunction,ComponentPad*
G36*
X108994192Y-145516600D02*
G01*
X107721400Y-146789392D01*
X106448608Y-145516600D01*
X107721400Y-144243808D01*
X108994192Y-145516600D01*
G37*
G04 #@! TD.AperFunction*
D13*
X105925349Y-143720549D03*
X194589400Y-122250200D03*
G04 #@! TA.AperFunction,ComponentPad*
D10*
G36*
X194610404Y-118694478D02*
G01*
X196349070Y-119160352D01*
X195883196Y-120899018D01*
X194144530Y-120433144D01*
X194610404Y-118694478D01*
G37*
G04 #@! TD.AperFunction*
D13*
X131663252Y-56238600D03*
G04 #@! TA.AperFunction,ComponentPad*
D10*
G36*
X128573404Y-57998270D02*
G01*
X128107530Y-56259604D01*
X129846196Y-55793730D01*
X130312070Y-57532396D01*
X128573404Y-57998270D01*
G37*
G04 #@! TD.AperFunction*
G04 #@! TA.AperFunction,ComponentPad*
G36*
G01*
X155887538Y-111131416D02*
X155887538Y-111131416D01*
G75*
G02*
X156453224Y-110151620I772741J207055D01*
G01*
X156839594Y-110048092D01*
G75*
G02*
X157819390Y-110613778I207055J-772741D01*
G01*
X157819390Y-110613778D01*
G75*
G02*
X157253704Y-111593574I-772741J-207055D01*
G01*
X156867334Y-111697102D01*
G75*
G02*
X155887538Y-111131416I-207055J772741D01*
G01*
G37*
G04 #@! TD.AperFunction*
G04 #@! TA.AperFunction,ComponentPad*
G36*
G01*
X156544939Y-113584867D02*
X156544939Y-113584867D01*
G75*
G02*
X157110625Y-112605071I772741J207055D01*
G01*
X157496995Y-112501543D01*
G75*
G02*
X158476791Y-113067229I207055J-772741D01*
G01*
X158476791Y-113067229D01*
G75*
G02*
X157911105Y-114047025I-772741J-207055D01*
G01*
X157524735Y-114150553D01*
G75*
G02*
X156544939Y-113584867I-207055J772741D01*
G01*
G37*
G04 #@! TD.AperFunction*
G04 #@! TA.AperFunction,ComponentPad*
G36*
G01*
X157202339Y-116038319D02*
X157202339Y-116038319D01*
G75*
G02*
X157768025Y-115058523I772741J207055D01*
G01*
X158154395Y-114954995D01*
G75*
G02*
X159134191Y-115520681I207055J-772741D01*
G01*
X159134191Y-115520681D01*
G75*
G02*
X158568505Y-116500477I-772741J-207055D01*
G01*
X158182135Y-116604005D01*
G75*
G02*
X157202339Y-116038319I-207055J772741D01*
G01*
G37*
G04 #@! TD.AperFunction*
G04 #@! TA.AperFunction,ComponentPad*
G36*
G01*
X157859740Y-118491770D02*
X157859740Y-118491770D01*
G75*
G02*
X158425426Y-117511974I772741J207055D01*
G01*
X158811796Y-117408446D01*
G75*
G02*
X159791592Y-117974132I207055J-772741D01*
G01*
X159791592Y-117974132D01*
G75*
G02*
X159225906Y-118953928I-772741J-207055D01*
G01*
X158839536Y-119057456D01*
G75*
G02*
X157859740Y-118491770I-207055J772741D01*
G01*
G37*
G04 #@! TD.AperFunction*
G04 #@! TA.AperFunction,ComponentPad*
G36*
G01*
X158517140Y-120945222D02*
X158517140Y-120945222D01*
G75*
G02*
X159082826Y-119965426I772741J207055D01*
G01*
X159469196Y-119861898D01*
G75*
G02*
X160448992Y-120427584I207055J-772741D01*
G01*
X160448992Y-120427584D01*
G75*
G02*
X159883306Y-121407380I-772741J-207055D01*
G01*
X159496936Y-121510908D01*
G75*
G02*
X158517140Y-120945222I-207055J772741D01*
G01*
G37*
G04 #@! TD.AperFunction*
G04 #@! TA.AperFunction,ComponentPad*
G36*
G01*
X159174540Y-123398674D02*
X159174540Y-123398674D01*
G75*
G02*
X159740226Y-122418878I772741J207055D01*
G01*
X160126596Y-122315350D01*
G75*
G02*
X161106392Y-122881036I207055J-772741D01*
G01*
X161106392Y-122881036D01*
G75*
G02*
X160540706Y-123860832I-772741J-207055D01*
G01*
X160154336Y-123964360D01*
G75*
G02*
X159174540Y-123398674I-207055J772741D01*
G01*
G37*
G04 #@! TD.AperFunction*
G04 #@! TA.AperFunction,ComponentPad*
G36*
G01*
X159831941Y-125852125D02*
X159831941Y-125852125D01*
G75*
G02*
X160397627Y-124872329I772741J207055D01*
G01*
X160783997Y-124768801D01*
G75*
G02*
X161763793Y-125334487I207055J-772741D01*
G01*
X161763793Y-125334487D01*
G75*
G02*
X161198107Y-126314283I-772741J-207055D01*
G01*
X160811737Y-126417811D01*
G75*
G02*
X159831941Y-125852125I-207055J772741D01*
G01*
G37*
G04 #@! TD.AperFunction*
G04 #@! TA.AperFunction,ComponentPad*
G36*
G01*
X160489341Y-128305577D02*
X160489341Y-128305577D01*
G75*
G02*
X161055027Y-127325781I772741J207055D01*
G01*
X161441397Y-127222253D01*
G75*
G02*
X162421193Y-127787939I207055J-772741D01*
G01*
X162421193Y-127787939D01*
G75*
G02*
X161855507Y-128767735I-772741J-207055D01*
G01*
X161469137Y-128871263D01*
G75*
G02*
X160489341Y-128305577I-207055J772741D01*
G01*
G37*
G04 #@! TD.AperFunction*
G04 #@! TA.AperFunction,ComponentPad*
G36*
G01*
X138408277Y-134222180D02*
X138408277Y-134222180D01*
G75*
G02*
X138973963Y-133242384I772741J207055D01*
G01*
X139360333Y-133138856D01*
G75*
G02*
X140340129Y-133704542I207055J-772741D01*
G01*
X140340129Y-133704542D01*
G75*
G02*
X139774443Y-134684338I-772741J-207055D01*
G01*
X139388073Y-134787866D01*
G75*
G02*
X138408277Y-134222180I-207055J772741D01*
G01*
G37*
G04 #@! TD.AperFunction*
G04 #@! TA.AperFunction,ComponentPad*
G36*
G01*
X137750876Y-131768729D02*
X137750876Y-131768729D01*
G75*
G02*
X138316562Y-130788933I772741J207055D01*
G01*
X138702932Y-130685405D01*
G75*
G02*
X139682728Y-131251091I207055J-772741D01*
G01*
X139682728Y-131251091D01*
G75*
G02*
X139117042Y-132230887I-772741J-207055D01*
G01*
X138730672Y-132334415D01*
G75*
G02*
X137750876Y-131768729I-207055J772741D01*
G01*
G37*
G04 #@! TD.AperFunction*
G04 #@! TA.AperFunction,ComponentPad*
G36*
G01*
X137093476Y-129315277D02*
X137093476Y-129315277D01*
G75*
G02*
X137659162Y-128335481I772741J207055D01*
G01*
X138045532Y-128231953D01*
G75*
G02*
X139025328Y-128797639I207055J-772741D01*
G01*
X139025328Y-128797639D01*
G75*
G02*
X138459642Y-129777435I-772741J-207055D01*
G01*
X138073272Y-129880963D01*
G75*
G02*
X137093476Y-129315277I-207055J772741D01*
G01*
G37*
G04 #@! TD.AperFunction*
G04 #@! TA.AperFunction,ComponentPad*
G36*
G01*
X136436075Y-126861825D02*
X136436075Y-126861825D01*
G75*
G02*
X137001761Y-125882029I772741J207055D01*
G01*
X137388131Y-125778501D01*
G75*
G02*
X138367927Y-126344187I207055J-772741D01*
G01*
X138367927Y-126344187D01*
G75*
G02*
X137802241Y-127323983I-772741J-207055D01*
G01*
X137415871Y-127427511D01*
G75*
G02*
X136436075Y-126861825I-207055J772741D01*
G01*
G37*
G04 #@! TD.AperFunction*
G04 #@! TA.AperFunction,ComponentPad*
G36*
G01*
X135778675Y-124408374D02*
X135778675Y-124408374D01*
G75*
G02*
X136344361Y-123428578I772741J207055D01*
G01*
X136730731Y-123325050D01*
G75*
G02*
X137710527Y-123890736I207055J-772741D01*
G01*
X137710527Y-123890736D01*
G75*
G02*
X137144841Y-124870532I-772741J-207055D01*
G01*
X136758471Y-124974060D01*
G75*
G02*
X135778675Y-124408374I-207055J772741D01*
G01*
G37*
G04 #@! TD.AperFunction*
G04 #@! TA.AperFunction,ComponentPad*
G36*
G01*
X135121275Y-121954922D02*
X135121275Y-121954922D01*
G75*
G02*
X135686961Y-120975126I772741J207055D01*
G01*
X136073331Y-120871598D01*
G75*
G02*
X137053127Y-121437284I207055J-772741D01*
G01*
X137053127Y-121437284D01*
G75*
G02*
X136487441Y-122417080I-772741J-207055D01*
G01*
X136101071Y-122520608D01*
G75*
G02*
X135121275Y-121954922I-207055J772741D01*
G01*
G37*
G04 #@! TD.AperFunction*
G04 #@! TA.AperFunction,ComponentPad*
G36*
X134065293Y-118013945D02*
G01*
X133547655Y-116082093D01*
X135479507Y-115564455D01*
X135997145Y-117496307D01*
X134065293Y-118013945D01*
G37*
G04 #@! TD.AperFunction*
G04 #@! TA.AperFunction,ComponentPad*
G36*
G01*
X134463874Y-119501471D02*
X134463874Y-119501471D01*
G75*
G02*
X135029560Y-118521675I772741J207055D01*
G01*
X135415930Y-118418147D01*
G75*
G02*
X136395726Y-118983833I207055J-772741D01*
G01*
X136395726Y-118983833D01*
G75*
G02*
X135830040Y-119963629I-772741J-207055D01*
G01*
X135443670Y-120067157D01*
G75*
G02*
X134463874Y-119501471I-207055J772741D01*
G01*
G37*
G04 #@! TD.AperFunction*
D14*
X144272000Y-137668000D03*
D15*
X135037731Y-124169269D02*
X136087201Y-121696103D01*
X136823115Y-130816685D02*
X135037731Y-124169269D01*
X133712307Y-133876693D02*
X136823115Y-130816685D01*
X154135957Y-119015643D02*
X159483066Y-120686403D01*
X152900598Y-114412890D02*
X154135957Y-119015643D01*
X160289689Y-123139855D02*
X160903817Y-123753983D01*
X160140466Y-123139855D02*
X160289689Y-123139855D01*
X166228890Y-125214598D02*
X160903817Y-123753983D01*
X144272000Y-137668000D02*
X139374203Y-133963361D01*
D16*
X131217355Y-52048397D02*
X131644535Y-52118896D01*
X132104627Y-52234375D01*
X132603971Y-52400746D01*
X133147829Y-52623861D01*
X133740648Y-52909218D01*
X134386513Y-53261938D01*
X135089239Y-53686728D01*
X135852660Y-54188040D01*
X136680781Y-54770200D01*
X137577555Y-55437323D01*
X138547185Y-56193561D01*
X139593914Y-57042998D01*
X140722111Y-57989741D01*
X141936063Y-59037771D01*
X143240519Y-60191429D01*
X144639790Y-61454644D01*
X146138497Y-62831601D01*
X147741252Y-64326459D01*
X149452628Y-65943331D01*
X151277399Y-67686515D01*
X153220081Y-69560057D01*
X155285318Y-71568119D01*
X157478121Y-73715213D01*
X159803078Y-76005450D01*
X162264384Y-78442537D01*
X164867302Y-81031242D01*
X167614981Y-83774224D01*
X167632711Y-83796960D01*
X167673238Y-83831946D01*
X170397698Y-86560959D01*
X172989186Y-89166556D01*
X175429500Y-91630990D01*
X177721992Y-93958100D01*
X179871389Y-96153106D01*
X181881729Y-98220532D01*
X183757471Y-100165333D01*
X185502475Y-101991840D01*
X187121176Y-103704974D01*
X188617550Y-105309175D01*
X189995952Y-106809272D01*
X191260507Y-108209837D01*
X192415201Y-109515277D01*
X193464331Y-110730310D01*
X194411977Y-111859394D01*
X195262179Y-112906878D01*
X196019071Y-113877161D01*
X196686769Y-114774530D01*
X197269386Y-115603131D01*
X197771111Y-116367024D01*
X198196196Y-117070094D01*
X198549145Y-117716256D01*
X198834674Y-118309339D01*
X199057892Y-118853388D01*
X199224324Y-119352902D01*
X199339823Y-119813132D01*
X199410310Y-120240421D01*
X199441313Y-120642343D01*
X199437447Y-121027250D01*
X199402177Y-121403739D01*
X199338004Y-121779714D01*
X199247391Y-122160273D01*
X199135704Y-122534678D01*
X199003411Y-122891910D01*
X198845829Y-123235204D01*
X198656853Y-123570156D01*
X198429226Y-123902424D01*
X198154782Y-124236948D01*
X197825003Y-124577475D01*
X197431632Y-124926521D01*
X196966974Y-125285729D01*
X196424026Y-125656223D01*
X195796408Y-126038920D01*
X195078109Y-126434794D01*
X194263306Y-126844974D01*
X193346444Y-127270669D01*
X192321751Y-127713357D01*
X191183752Y-128174504D01*
X189926668Y-128655793D01*
X188544935Y-129158892D01*
X187032711Y-129685611D01*
X185384199Y-130237778D01*
X183593664Y-130817220D01*
X181655153Y-131425853D01*
X179563024Y-132065510D01*
X177311086Y-132738198D01*
X174893369Y-133445859D01*
X172304380Y-134190305D01*
X169537748Y-134973605D01*
X166587754Y-135797642D01*
X163448101Y-136664462D01*
X160113334Y-137575881D01*
X156577304Y-138533909D01*
X152832649Y-139540879D01*
X152832454Y-139540952D01*
X152827052Y-139542406D01*
X152704204Y-139576388D01*
X148949930Y-140578981D01*
X145397795Y-141520444D01*
X142044137Y-142401397D01*
X138882793Y-143223133D01*
X135906943Y-143987115D01*
X133111471Y-144694367D01*
X130489710Y-145346314D01*
X128035411Y-145944275D01*
X125742544Y-146489516D01*
X123604999Y-146983331D01*
X121616730Y-147427002D01*
X119771711Y-147821819D01*
X118063639Y-148169137D01*
X116486816Y-148470202D01*
X115035180Y-148726356D01*
X113702864Y-148938938D01*
X112484060Y-149109314D01*
X111373015Y-149238904D01*
X110364032Y-149329204D01*
X109451523Y-149381806D01*
X108630003Y-149398451D01*
X107893854Y-149381080D01*
X107237362Y-149331864D01*
X106654492Y-149253202D01*
X106138592Y-149147631D01*
X105682183Y-149017589D01*
X105276809Y-148865035D01*
X104913185Y-148690984D01*
X104581727Y-148495238D01*
X104273302Y-148276530D01*
X103979768Y-148033038D01*
X103716938Y-147784627D01*
X103699626Y-147763418D01*
X103686806Y-147752840D01*
X103675430Y-147739992D01*
X103664858Y-147731959D01*
X103426235Y-147479546D01*
X103182833Y-147186187D01*
X102964185Y-146877924D01*
X102768491Y-146546655D01*
X102594462Y-146183228D01*
X102441924Y-145778127D01*
X102311869Y-145322037D01*
X102206260Y-144806531D01*
X102127526Y-144224142D01*
X102078203Y-143568236D01*
X102078059Y-143562175D01*
X104317349Y-143562175D01*
X104317349Y-143878923D01*
X104379144Y-144189585D01*
X104500358Y-144482222D01*
X104676334Y-144745589D01*
X104900309Y-144969564D01*
X105163676Y-145145540D01*
X105456313Y-145266754D01*
X105765863Y-145328328D01*
X105750853Y-145377808D01*
X105737183Y-145516600D01*
X105750853Y-145655392D01*
X105791337Y-145788851D01*
X105857080Y-145911847D01*
X105945555Y-146019653D01*
X107218347Y-147292445D01*
X107326153Y-147380920D01*
X107449149Y-147446663D01*
X107582608Y-147487147D01*
X107721400Y-147500817D01*
X107860192Y-147487147D01*
X107993651Y-147446663D01*
X108116647Y-147380920D01*
X108224453Y-147292445D01*
X109497245Y-146019653D01*
X109585720Y-145911847D01*
X109651463Y-145788851D01*
X109691947Y-145655392D01*
X109705617Y-145516600D01*
X109691947Y-145377808D01*
X109651463Y-145244349D01*
X109585720Y-145121353D01*
X109497245Y-145013547D01*
X108988173Y-144504475D01*
X121428000Y-144504475D01*
X121428000Y-144801525D01*
X121485951Y-145092868D01*
X121599627Y-145367306D01*
X121764660Y-145614294D01*
X121974706Y-145824340D01*
X122221694Y-145989373D01*
X122496132Y-146103049D01*
X122787475Y-146161000D01*
X123084525Y-146161000D01*
X123375868Y-146103049D01*
X123650306Y-145989373D01*
X123897294Y-145824340D01*
X124107340Y-145614294D01*
X124272373Y-145367306D01*
X124386049Y-145092868D01*
X124444000Y-144801525D01*
X124444000Y-144504475D01*
X124386049Y-144213132D01*
X124272373Y-143938694D01*
X124107340Y-143691706D01*
X123897294Y-143481660D01*
X123650306Y-143316627D01*
X123375868Y-143202951D01*
X123084525Y-143145000D01*
X122787475Y-143145000D01*
X122496132Y-143202951D01*
X122221694Y-143316627D01*
X121974706Y-143481660D01*
X121764660Y-143691706D01*
X121599627Y-143938694D01*
X121485951Y-144213132D01*
X121428000Y-144504475D01*
X108988173Y-144504475D01*
X108224453Y-143740755D01*
X108116647Y-143652280D01*
X107993651Y-143586537D01*
X107860192Y-143546053D01*
X107721400Y-143532383D01*
X107582608Y-143546053D01*
X107533128Y-143561063D01*
X107471554Y-143251513D01*
X107350340Y-142958876D01*
X107174364Y-142695509D01*
X106950389Y-142471534D01*
X106687022Y-142295558D01*
X106394385Y-142174344D01*
X106083723Y-142112549D01*
X105766975Y-142112549D01*
X105456313Y-142174344D01*
X105163676Y-142295558D01*
X104900309Y-142471534D01*
X104676334Y-142695509D01*
X104500358Y-142958876D01*
X104379144Y-143251513D01*
X104317349Y-143562175D01*
X102078059Y-143562175D01*
X102060685Y-142832773D01*
X102077142Y-142012030D01*
X102106232Y-141505628D01*
X108078149Y-141505628D01*
X108078149Y-141842074D01*
X108143787Y-142172056D01*
X108272539Y-142482892D01*
X108459459Y-142762637D01*
X108697363Y-143000541D01*
X108977108Y-143187461D01*
X109287944Y-143316213D01*
X109617926Y-143381851D01*
X109954372Y-143381851D01*
X110284354Y-143316213D01*
X110595190Y-143187461D01*
X110874935Y-143000541D01*
X111112839Y-142762637D01*
X111299759Y-142482892D01*
X111428511Y-142172056D01*
X111494149Y-141842074D01*
X111494149Y-141505628D01*
X111428511Y-141175646D01*
X111299759Y-140864810D01*
X111112839Y-140585065D01*
X110874935Y-140347161D01*
X110595190Y-140160241D01*
X110284354Y-140031489D01*
X109954372Y-139965851D01*
X109617926Y-139965851D01*
X109287944Y-140031489D01*
X108977108Y-140160241D01*
X108697363Y-140347161D01*
X108459459Y-140585065D01*
X108272539Y-140864810D01*
X108143787Y-141175646D01*
X108078149Y-141505628D01*
X102106232Y-141505628D01*
X102129505Y-141100505D01*
X102219524Y-140092570D01*
X102348779Y-138982762D01*
X102498076Y-137913526D01*
X111670251Y-137913526D01*
X111670251Y-138249972D01*
X111735889Y-138579954D01*
X111864641Y-138890790D01*
X112051561Y-139170535D01*
X112289465Y-139408439D01*
X112569210Y-139595359D01*
X112880046Y-139724111D01*
X113210028Y-139789749D01*
X113546474Y-139789749D01*
X113876456Y-139724111D01*
X114187292Y-139595359D01*
X114467037Y-139408439D01*
X114704941Y-139170535D01*
X114741513Y-139115800D01*
X117689604Y-139115800D01*
X117703274Y-139254592D01*
X117743758Y-139388051D01*
X117809501Y-139511047D01*
X117897976Y-139618853D01*
X119029347Y-140750224D01*
X119137153Y-140838699D01*
X119260149Y-140904442D01*
X119393608Y-140944926D01*
X119532400Y-140958596D01*
X119671192Y-140944926D01*
X119804651Y-140904442D01*
X119927647Y-140838699D01*
X120035453Y-140750224D01*
X121166824Y-139618853D01*
X121255299Y-139511047D01*
X121321042Y-139388051D01*
X121361526Y-139254592D01*
X121375196Y-139115800D01*
X121361526Y-138977008D01*
X121321042Y-138843549D01*
X121255299Y-138720553D01*
X121166824Y-138612747D01*
X120035453Y-137481376D01*
X119927647Y-137392901D01*
X119804651Y-137327158D01*
X119671192Y-137286674D01*
X119532400Y-137273004D01*
X119393608Y-137286674D01*
X119260149Y-137327158D01*
X119137153Y-137392901D01*
X119029347Y-137481376D01*
X117897976Y-138612747D01*
X117809501Y-138720553D01*
X117743758Y-138843549D01*
X117703274Y-138977008D01*
X117689604Y-139115800D01*
X114741513Y-139115800D01*
X114891861Y-138890790D01*
X115020613Y-138579954D01*
X115086251Y-138249972D01*
X115086251Y-137913526D01*
X115020613Y-137583544D01*
X114891861Y-137272708D01*
X114704941Y-136992963D01*
X114467037Y-136755059D01*
X114187292Y-136568139D01*
X113876456Y-136439387D01*
X113546474Y-136373749D01*
X113210028Y-136373749D01*
X112880046Y-136439387D01*
X112569210Y-136568139D01*
X112289465Y-136755059D01*
X112051561Y-136992963D01*
X111864641Y-137272708D01*
X111735889Y-137583544D01*
X111670251Y-137913526D01*
X102498076Y-137913526D01*
X102518778Y-137765269D01*
X102730912Y-136434542D01*
X102986571Y-134984625D01*
X103287075Y-133409739D01*
X103617659Y-131783070D01*
X110840195Y-131783070D01*
X110840195Y-132080120D01*
X110898146Y-132371463D01*
X111011822Y-132645901D01*
X111176855Y-132892889D01*
X111386901Y-133102935D01*
X111633889Y-133267968D01*
X111908327Y-133381644D01*
X112199670Y-133439595D01*
X112496720Y-133439595D01*
X112788063Y-133381644D01*
X113062501Y-133267968D01*
X113309489Y-133102935D01*
X113519535Y-132892889D01*
X113619936Y-132742628D01*
X116815749Y-132742628D01*
X116815749Y-133079074D01*
X116881387Y-133409056D01*
X117010139Y-133719892D01*
X117197059Y-133999637D01*
X117434963Y-134237541D01*
X117714708Y-134424461D01*
X118025544Y-134553213D01*
X118355526Y-134618851D01*
X118691972Y-134618851D01*
X119021954Y-134553213D01*
X119332790Y-134424461D01*
X119612535Y-134237541D01*
X119850439Y-133999637D01*
X120037359Y-133719892D01*
X120166111Y-133409056D01*
X120231749Y-133079074D01*
X120231749Y-132742628D01*
X120166111Y-132412646D01*
X120037359Y-132101810D01*
X119850439Y-131822065D01*
X119612535Y-131584161D01*
X119332790Y-131397241D01*
X119021954Y-131268489D01*
X118691972Y-131202851D01*
X118355526Y-131202851D01*
X118025544Y-131268489D01*
X117714708Y-131397241D01*
X117434963Y-131584161D01*
X117197059Y-131822065D01*
X117010139Y-132101810D01*
X116881387Y-132412646D01*
X116815749Y-132742628D01*
X113619936Y-132742628D01*
X113684568Y-132645901D01*
X113798244Y-132371463D01*
X113856195Y-132080120D01*
X113856195Y-131783070D01*
X113798244Y-131491727D01*
X113684568Y-131217289D01*
X113519535Y-130970301D01*
X113309489Y-130760255D01*
X113062501Y-130595222D01*
X112788063Y-130481546D01*
X112496720Y-130423595D01*
X112199670Y-130423595D01*
X111908327Y-130481546D01*
X111633889Y-130595222D01*
X111386901Y-130760255D01*
X111176855Y-130970301D01*
X111011822Y-131217289D01*
X110898146Y-131491727D01*
X110840195Y-131783070D01*
X103617659Y-131783070D01*
X103633762Y-131703837D01*
X104027909Y-129861078D01*
X104186399Y-129150526D01*
X120407851Y-129150526D01*
X120407851Y-129486972D01*
X120473489Y-129816954D01*
X120602241Y-130127790D01*
X120789161Y-130407535D01*
X121027065Y-130645439D01*
X121306810Y-130832359D01*
X121617646Y-130961111D01*
X121947628Y-131026749D01*
X122284074Y-131026749D01*
X122614056Y-130961111D01*
X122924892Y-130832359D01*
X123204637Y-130645439D01*
X123442541Y-130407535D01*
X123479113Y-130352800D01*
X126452604Y-130352800D01*
X126466274Y-130491592D01*
X126506758Y-130625051D01*
X126572501Y-130748047D01*
X126660976Y-130855853D01*
X127792347Y-131987224D01*
X127900153Y-132075699D01*
X128023149Y-132141442D01*
X128156608Y-132181926D01*
X128295400Y-132195596D01*
X128434192Y-132181926D01*
X128567651Y-132141442D01*
X128690647Y-132075699D01*
X128798453Y-131987224D01*
X129929824Y-130855853D01*
X130018299Y-130748047D01*
X130084042Y-130625051D01*
X130124526Y-130491592D01*
X130138196Y-130352800D01*
X130124526Y-130214008D01*
X130084042Y-130080549D01*
X130018299Y-129957553D01*
X129929824Y-129849747D01*
X128798453Y-128718376D01*
X128690647Y-128629901D01*
X128567651Y-128564158D01*
X128434192Y-128523674D01*
X128295400Y-128510004D01*
X128156608Y-128523674D01*
X128023149Y-128564158D01*
X127900153Y-128629901D01*
X127792347Y-128718376D01*
X126660976Y-129849747D01*
X126572501Y-129957553D01*
X126506758Y-130080549D01*
X126466274Y-130214008D01*
X126452604Y-130352800D01*
X123479113Y-130352800D01*
X123629461Y-130127790D01*
X123758213Y-129816954D01*
X123823851Y-129486972D01*
X123823851Y-129150526D01*
X123758213Y-128820544D01*
X123629461Y-128509708D01*
X123442541Y-128229963D01*
X123204637Y-127992059D01*
X122924892Y-127805139D01*
X122614056Y-127676387D01*
X122284074Y-127610749D01*
X121947628Y-127610749D01*
X121617646Y-127676387D01*
X121306810Y-127805139D01*
X121027065Y-127992059D01*
X120789161Y-128229963D01*
X120602241Y-128509708D01*
X120473489Y-128820544D01*
X120407851Y-129150526D01*
X104186399Y-129150526D01*
X104470802Y-127875484D01*
X104963771Y-125740828D01*
X105508078Y-123451171D01*
X105613080Y-123020070D01*
X119603195Y-123020070D01*
X119603195Y-123317120D01*
X119661146Y-123608463D01*
X119774822Y-123882901D01*
X119939855Y-124129889D01*
X120149901Y-124339935D01*
X120396889Y-124504968D01*
X120671327Y-124618644D01*
X120962670Y-124676595D01*
X121259720Y-124676595D01*
X121551063Y-124618644D01*
X121825501Y-124504968D01*
X122072489Y-124339935D01*
X122282535Y-124129889D01*
X122447568Y-123882901D01*
X122561244Y-123608463D01*
X122619195Y-123317120D01*
X122619195Y-123020070D01*
X122561244Y-122728727D01*
X122447568Y-122454289D01*
X122282535Y-122207301D01*
X122072489Y-121997255D01*
X121825501Y-121832222D01*
X121551063Y-121718546D01*
X121259720Y-121660595D01*
X120962670Y-121660595D01*
X120671327Y-121718546D01*
X120396889Y-121832222D01*
X120149901Y-121997255D01*
X119939855Y-122207301D01*
X119774822Y-122454289D01*
X119661146Y-122728727D01*
X119603195Y-123020070D01*
X105613080Y-123020070D01*
X106105029Y-121000323D01*
X106755981Y-118381913D01*
X107462149Y-115590107D01*
X108224786Y-112618915D01*
X108335926Y-112191266D01*
X121356000Y-112191266D01*
X121356000Y-112852734D01*
X121485046Y-113501492D01*
X121738179Y-114112609D01*
X122105671Y-114662600D01*
X122573400Y-115130329D01*
X123123391Y-115497821D01*
X123734508Y-115750954D01*
X124383266Y-115880000D01*
X125044734Y-115880000D01*
X125693492Y-115750954D01*
X126304609Y-115497821D01*
X126854600Y-115130329D01*
X127322329Y-114662600D01*
X127454947Y-114464122D01*
X133325939Y-118003372D01*
X133378109Y-118198075D01*
X133427235Y-118328600D01*
X133500882Y-118447033D01*
X133596218Y-118548823D01*
X133709580Y-118630057D01*
X133836613Y-118687615D01*
X133854132Y-118691700D01*
X133801735Y-118807343D01*
X133734283Y-119096632D01*
X133724564Y-119393522D01*
X133772952Y-119686605D01*
X133877589Y-119964616D01*
X134034451Y-120216871D01*
X134237512Y-120433676D01*
X134478969Y-120606701D01*
X134749542Y-120729296D01*
X134770359Y-120734150D01*
X134754756Y-120748764D01*
X134581731Y-120990221D01*
X134459136Y-121260794D01*
X134391684Y-121550083D01*
X134381965Y-121846973D01*
X134430353Y-122140056D01*
X134534990Y-122418067D01*
X134689224Y-122666095D01*
X134206027Y-123804790D01*
X134173586Y-123876502D01*
X134161012Y-123930572D01*
X134144436Y-123983568D01*
X134140800Y-124017491D01*
X134133074Y-124050713D01*
X134131290Y-124106201D01*
X134125372Y-124161410D01*
X134128423Y-124195385D01*
X134127327Y-124229480D01*
X134136404Y-124284260D01*
X134141370Y-124339552D01*
X134163568Y-124415064D01*
X135808823Y-130540749D01*
X133935446Y-132383534D01*
X133860832Y-132368693D01*
X133563782Y-132368693D01*
X133272439Y-132426644D01*
X132998001Y-132540320D01*
X132751013Y-132705353D01*
X132540967Y-132915399D01*
X132375934Y-133162387D01*
X132262258Y-133436825D01*
X132204307Y-133728168D01*
X132204307Y-134025218D01*
X132262258Y-134316561D01*
X132375934Y-134590999D01*
X132540967Y-134837987D01*
X132751013Y-135048033D01*
X132998001Y-135213066D01*
X133272439Y-135326742D01*
X133563782Y-135384693D01*
X133860832Y-135384693D01*
X134152175Y-135326742D01*
X134426613Y-135213066D01*
X134673601Y-135048033D01*
X134883647Y-134837987D01*
X135048680Y-134590999D01*
X135162356Y-134316561D01*
X135220307Y-134025218D01*
X135220307Y-133728168D01*
X135210128Y-133676995D01*
X137046250Y-131870858D01*
X137059954Y-131953863D01*
X137164591Y-132231874D01*
X137321453Y-132484129D01*
X137524514Y-132700934D01*
X137765971Y-132873959D01*
X138036544Y-132996554D01*
X138057361Y-133001408D01*
X138041758Y-133016022D01*
X137868733Y-133257479D01*
X137746138Y-133528052D01*
X137678686Y-133817341D01*
X137668967Y-134114231D01*
X137717355Y-134407314D01*
X137821992Y-134685325D01*
X137978854Y-134937580D01*
X138181915Y-135154385D01*
X138423372Y-135327410D01*
X138693945Y-135450005D01*
X138983234Y-135517457D01*
X139280124Y-135527176D01*
X139499764Y-135490913D01*
X139786866Y-135413984D01*
X143088771Y-137911508D01*
X143110423Y-138020361D01*
X143201484Y-138240203D01*
X143333685Y-138438055D01*
X143501945Y-138606315D01*
X143699797Y-138738516D01*
X143919639Y-138829577D01*
X144153022Y-138876000D01*
X144390978Y-138876000D01*
X144624361Y-138829577D01*
X144844203Y-138738516D01*
X145042055Y-138606315D01*
X145210315Y-138438055D01*
X145342516Y-138240203D01*
X145433577Y-138020361D01*
X145480000Y-137786978D01*
X145480000Y-137549022D01*
X145433577Y-137315639D01*
X145342516Y-137095797D01*
X145210315Y-136897945D01*
X145042055Y-136729685D01*
X144844203Y-136597484D01*
X144624361Y-136506423D01*
X144390978Y-136460000D01*
X144180103Y-136460000D01*
X141069785Y-134107391D01*
X141079439Y-133812491D01*
X141031051Y-133519408D01*
X140926415Y-133241397D01*
X140769552Y-132989142D01*
X140566491Y-132772337D01*
X140325034Y-132599312D01*
X140054462Y-132476717D01*
X140033644Y-132471863D01*
X140041104Y-132464875D01*
X142383000Y-132464875D01*
X142383000Y-132761925D01*
X142440951Y-133053268D01*
X142554627Y-133327706D01*
X142719660Y-133574694D01*
X142929706Y-133784740D01*
X143176694Y-133949773D01*
X143451132Y-134063449D01*
X143742475Y-134121400D01*
X144039525Y-134121400D01*
X144330868Y-134063449D01*
X144605306Y-133949773D01*
X144852294Y-133784740D01*
X145062340Y-133574694D01*
X145227373Y-133327706D01*
X145341049Y-133053268D01*
X145399000Y-132761925D01*
X145399000Y-132464875D01*
X145341049Y-132173532D01*
X145227373Y-131899094D01*
X145062340Y-131652106D01*
X144852294Y-131442060D01*
X144672426Y-131321875D01*
X146726400Y-131321875D01*
X146726400Y-131618925D01*
X146784351Y-131910268D01*
X146898027Y-132184706D01*
X147063060Y-132431694D01*
X147273106Y-132641740D01*
X147520094Y-132806773D01*
X147794532Y-132920449D01*
X148085875Y-132978400D01*
X148382925Y-132978400D01*
X148674268Y-132920449D01*
X148948706Y-132806773D01*
X149195694Y-132641740D01*
X149405740Y-132431694D01*
X149570773Y-132184706D01*
X149684449Y-131910268D01*
X149742400Y-131618925D01*
X149742400Y-131321875D01*
X149684449Y-131030532D01*
X149570773Y-130756094D01*
X149405740Y-130509106D01*
X149195694Y-130299060D01*
X148977812Y-130153475D01*
X151069800Y-130153475D01*
X151069800Y-130450525D01*
X151127751Y-130741868D01*
X151241427Y-131016306D01*
X151406460Y-131263294D01*
X151616506Y-131473340D01*
X151863494Y-131638373D01*
X152137932Y-131752049D01*
X152429275Y-131810000D01*
X152726325Y-131810000D01*
X153017668Y-131752049D01*
X153292106Y-131638373D01*
X153539094Y-131473340D01*
X153749140Y-131263294D01*
X153914173Y-131016306D01*
X154027849Y-130741868D01*
X154085800Y-130450525D01*
X154085800Y-130153475D01*
X154027849Y-129862132D01*
X153914173Y-129587694D01*
X153749140Y-129340706D01*
X153539094Y-129130660D01*
X153321212Y-128985075D01*
X155337000Y-128985075D01*
X155337000Y-129282125D01*
X155394951Y-129573468D01*
X155508627Y-129847906D01*
X155673660Y-130094894D01*
X155883706Y-130304940D01*
X156130694Y-130469973D01*
X156405132Y-130583649D01*
X156696475Y-130641600D01*
X156993525Y-130641600D01*
X157284868Y-130583649D01*
X157559306Y-130469973D01*
X157806294Y-130304940D01*
X158016340Y-130094894D01*
X158181373Y-129847906D01*
X158295049Y-129573468D01*
X158353000Y-129282125D01*
X158353000Y-128985075D01*
X158295049Y-128693732D01*
X158181373Y-128419294D01*
X158016340Y-128172306D01*
X157806294Y-127962260D01*
X157559306Y-127797227D01*
X157284868Y-127683551D01*
X156993525Y-127625600D01*
X156696475Y-127625600D01*
X156405132Y-127683551D01*
X156130694Y-127797227D01*
X155883706Y-127962260D01*
X155673660Y-128172306D01*
X155508627Y-128419294D01*
X155394951Y-128693732D01*
X155337000Y-128985075D01*
X153321212Y-128985075D01*
X153292106Y-128965627D01*
X153017668Y-128851951D01*
X152726325Y-128794000D01*
X152429275Y-128794000D01*
X152137932Y-128851951D01*
X151863494Y-128965627D01*
X151616506Y-129130660D01*
X151406460Y-129340706D01*
X151241427Y-129587694D01*
X151127751Y-129862132D01*
X151069800Y-130153475D01*
X148977812Y-130153475D01*
X148948706Y-130134027D01*
X148674268Y-130020351D01*
X148382925Y-129962400D01*
X148085875Y-129962400D01*
X147794532Y-130020351D01*
X147520094Y-130134027D01*
X147273106Y-130299060D01*
X147063060Y-130509106D01*
X146898027Y-130756094D01*
X146784351Y-131030532D01*
X146726400Y-131321875D01*
X144672426Y-131321875D01*
X144605306Y-131277027D01*
X144330868Y-131163351D01*
X144039525Y-131105400D01*
X143742475Y-131105400D01*
X143451132Y-131163351D01*
X143176694Y-131277027D01*
X142929706Y-131442060D01*
X142719660Y-131652106D01*
X142554627Y-131899094D01*
X142440951Y-132173532D01*
X142383000Y-132464875D01*
X140041104Y-132464875D01*
X140049247Y-132457249D01*
X140222272Y-132215792D01*
X140344867Y-131945219D01*
X140412319Y-131655930D01*
X140422038Y-131359040D01*
X140373650Y-131065957D01*
X140269014Y-130787946D01*
X140112151Y-130535691D01*
X139909090Y-130318886D01*
X139667633Y-130145861D01*
X139397061Y-130023266D01*
X139376243Y-130018412D01*
X139391847Y-130003797D01*
X139564872Y-129762340D01*
X139687467Y-129491767D01*
X139754919Y-129202478D01*
X139764638Y-128905588D01*
X139716250Y-128612505D01*
X139611614Y-128334494D01*
X139454751Y-128082239D01*
X139251690Y-127865434D01*
X139010233Y-127692409D01*
X138739661Y-127569814D01*
X138718842Y-127564960D01*
X138734446Y-127550345D01*
X138907471Y-127308888D01*
X139030066Y-127038315D01*
X139097518Y-126749026D01*
X139107237Y-126452136D01*
X139058849Y-126159053D01*
X138954213Y-125881042D01*
X138797350Y-125628787D01*
X138594289Y-125411982D01*
X138352832Y-125238957D01*
X138082260Y-125116362D01*
X138061443Y-125111508D01*
X138077046Y-125096894D01*
X138250071Y-124855437D01*
X138372666Y-124584864D01*
X138440118Y-124295575D01*
X138449837Y-123998685D01*
X138401449Y-123705602D01*
X138296813Y-123427591D01*
X138139950Y-123175336D01*
X137936889Y-122958531D01*
X137695432Y-122785506D01*
X137424860Y-122662911D01*
X137404042Y-122658057D01*
X137419646Y-122643442D01*
X137592671Y-122401985D01*
X137715266Y-122131412D01*
X137782718Y-121842123D01*
X137792437Y-121545233D01*
X137744049Y-121252150D01*
X137639413Y-120974139D01*
X137482550Y-120721884D01*
X137279489Y-120505079D01*
X137038032Y-120332054D01*
X136767460Y-120209459D01*
X136746642Y-120204605D01*
X136762245Y-120189991D01*
X136935270Y-119948534D01*
X137057865Y-119677961D01*
X137125317Y-119388672D01*
X137135036Y-119091782D01*
X137095738Y-118853755D01*
X138552362Y-118467304D01*
X138610225Y-118606996D01*
X138775258Y-118853984D01*
X138985304Y-119064030D01*
X139232292Y-119229063D01*
X139506730Y-119342739D01*
X139798073Y-119400690D01*
X140095123Y-119400690D01*
X140386466Y-119342739D01*
X140660904Y-119229063D01*
X140907892Y-119064030D01*
X141117938Y-118853984D01*
X141282971Y-118606996D01*
X141396647Y-118332558D01*
X141454598Y-118041215D01*
X141454598Y-117744165D01*
X141445748Y-117699671D01*
X142892280Y-117315897D01*
X142953625Y-117463996D01*
X143118658Y-117710984D01*
X143328704Y-117921030D01*
X143575692Y-118086063D01*
X143850130Y-118199739D01*
X144141473Y-118257690D01*
X144438523Y-118257690D01*
X144729866Y-118199739D01*
X145004304Y-118086063D01*
X145251292Y-117921030D01*
X145461338Y-117710984D01*
X145626371Y-117463996D01*
X145740047Y-117189558D01*
X145797998Y-116898215D01*
X145797998Y-116601165D01*
X145787385Y-116547808D01*
X147241677Y-116161975D01*
X147297025Y-116295596D01*
X147462058Y-116542584D01*
X147672104Y-116752630D01*
X147919092Y-116917663D01*
X148193530Y-117031339D01*
X148484873Y-117089290D01*
X148781923Y-117089290D01*
X149073266Y-117031339D01*
X149347704Y-116917663D01*
X149594692Y-116752630D01*
X149804738Y-116542584D01*
X149969771Y-116295596D01*
X150083447Y-116021158D01*
X150141398Y-115729815D01*
X150141398Y-115432765D01*
X150133821Y-115394672D01*
X151522419Y-115026268D01*
X151564225Y-115127196D01*
X151729258Y-115374184D01*
X151939304Y-115584230D01*
X152186292Y-115749263D01*
X152335756Y-115811173D01*
X153250265Y-119218495D01*
X153260678Y-119273219D01*
X153290098Y-119345953D01*
X153317824Y-119419525D01*
X153323634Y-119428859D01*
X153327747Y-119439028D01*
X153370793Y-119504626D01*
X153412338Y-119571374D01*
X153419855Y-119579393D01*
X153425875Y-119588567D01*
X153480922Y-119644539D01*
X153534660Y-119701866D01*
X153543590Y-119708259D01*
X153551290Y-119716089D01*
X153616216Y-119760257D01*
X153680089Y-119805988D01*
X153690098Y-119810518D01*
X153699175Y-119816693D01*
X153771467Y-119847345D01*
X153843038Y-119879737D01*
X153897319Y-119892370D01*
X157824415Y-121119432D01*
X157826218Y-121130356D01*
X157930855Y-121408367D01*
X158087717Y-121660622D01*
X158290778Y-121877427D01*
X158532235Y-122050452D01*
X158802808Y-122173047D01*
X158823625Y-122177901D01*
X158808021Y-122192516D01*
X158634996Y-122433973D01*
X158512401Y-122704546D01*
X158444949Y-122993835D01*
X158435230Y-123290725D01*
X158483618Y-123583808D01*
X158588255Y-123861819D01*
X158745117Y-124114074D01*
X158948178Y-124330879D01*
X159189635Y-124503904D01*
X159460208Y-124626499D01*
X159481025Y-124631353D01*
X159465422Y-124645967D01*
X159292397Y-124887424D01*
X159169802Y-125157997D01*
X159102350Y-125447286D01*
X159092631Y-125744176D01*
X159141019Y-126037259D01*
X159245656Y-126315270D01*
X159402518Y-126567525D01*
X159605579Y-126784330D01*
X159847036Y-126957355D01*
X160117609Y-127079950D01*
X160138426Y-127084804D01*
X160122822Y-127099419D01*
X159949797Y-127340876D01*
X159827202Y-127611449D01*
X159759750Y-127900738D01*
X159750031Y-128197628D01*
X159798419Y-128490711D01*
X159903056Y-128768722D01*
X160059918Y-129020977D01*
X160262979Y-129237782D01*
X160504436Y-129410807D01*
X160775009Y-129533402D01*
X161064298Y-129600854D01*
X161361188Y-129610573D01*
X161580828Y-129574310D01*
X162110306Y-129432436D01*
X162318652Y-129354020D01*
X162570907Y-129197157D01*
X162770225Y-129010475D01*
X179441600Y-129010475D01*
X179441600Y-129307525D01*
X179499551Y-129598868D01*
X179613227Y-129873306D01*
X179778260Y-130120294D01*
X179988306Y-130330340D01*
X180235294Y-130495373D01*
X180509732Y-130609049D01*
X180801075Y-130667000D01*
X181098125Y-130667000D01*
X181389468Y-130609049D01*
X181663906Y-130495373D01*
X181910894Y-130330340D01*
X182120940Y-130120294D01*
X182285973Y-129873306D01*
X182399649Y-129598868D01*
X182457600Y-129307525D01*
X182457600Y-129010475D01*
X182399649Y-128719132D01*
X182285973Y-128444694D01*
X182120940Y-128197706D01*
X181910894Y-127987660D01*
X181663906Y-127822627D01*
X181389468Y-127708951D01*
X181098125Y-127651000D01*
X180801075Y-127651000D01*
X180509732Y-127708951D01*
X180235294Y-127822627D01*
X179988306Y-127987660D01*
X179778260Y-128197706D01*
X179613227Y-128444694D01*
X179499551Y-128719132D01*
X179441600Y-129010475D01*
X162770225Y-129010475D01*
X162787712Y-128994097D01*
X162960737Y-128752640D01*
X163083332Y-128482067D01*
X163150784Y-128192778D01*
X163160503Y-127895888D01*
X163112115Y-127602805D01*
X163007479Y-127324794D01*
X162850616Y-127072539D01*
X162647555Y-126855734D01*
X162406098Y-126682709D01*
X162135526Y-126560114D01*
X162114708Y-126555260D01*
X162130312Y-126540645D01*
X162303337Y-126299188D01*
X162425932Y-126028615D01*
X162493384Y-125739326D01*
X162503103Y-125442436D01*
X162454715Y-125149353D01*
X162442780Y-125117642D01*
X164827410Y-125771722D01*
X164892517Y-125928904D01*
X165057550Y-126175892D01*
X165267596Y-126385938D01*
X165514584Y-126550971D01*
X165789022Y-126664647D01*
X166080365Y-126722598D01*
X166377415Y-126722598D01*
X166668758Y-126664647D01*
X166943196Y-126550971D01*
X167190184Y-126385938D01*
X167400230Y-126175892D01*
X167565263Y-125928904D01*
X167678939Y-125654466D01*
X167736890Y-125363123D01*
X167736890Y-125066073D01*
X167678939Y-124774730D01*
X167565263Y-124500292D01*
X167400230Y-124253304D01*
X167190184Y-124043258D01*
X166943196Y-123878225D01*
X166668758Y-123764549D01*
X166377415Y-123706598D01*
X166080365Y-123706598D01*
X165789022Y-123764549D01*
X165514584Y-123878225D01*
X165303534Y-124019245D01*
X161843048Y-123070068D01*
X161845702Y-122988985D01*
X161797314Y-122695902D01*
X161711042Y-122466681D01*
X179631399Y-122466681D01*
X179631399Y-122763731D01*
X179689350Y-123055074D01*
X179803026Y-123329512D01*
X179968059Y-123576500D01*
X180178105Y-123786546D01*
X180425093Y-123951579D01*
X180699531Y-124065255D01*
X180990874Y-124123206D01*
X181287924Y-124123206D01*
X181579267Y-124065255D01*
X181853705Y-123951579D01*
X182100693Y-123786546D01*
X182310739Y-123576500D01*
X182475772Y-123329512D01*
X182589448Y-123055074D01*
X182647399Y-122763731D01*
X182647399Y-122466681D01*
X182589448Y-122175338D01*
X182554857Y-122091826D01*
X192981400Y-122091826D01*
X192981400Y-122408574D01*
X193043195Y-122719236D01*
X193164409Y-123011873D01*
X193340385Y-123275240D01*
X193564360Y-123499215D01*
X193827727Y-123675191D01*
X194120364Y-123796405D01*
X194431026Y-123858200D01*
X194747774Y-123858200D01*
X195058436Y-123796405D01*
X195351073Y-123675191D01*
X195614440Y-123499215D01*
X195838415Y-123275240D01*
X196014391Y-123011873D01*
X196135605Y-122719236D01*
X196197400Y-122408574D01*
X196197400Y-122091826D01*
X196135605Y-121781164D01*
X196054767Y-121586004D01*
X196111876Y-121572688D01*
X196238909Y-121515130D01*
X196352271Y-121433896D01*
X196447607Y-121332106D01*
X196521254Y-121213673D01*
X196570380Y-121083148D01*
X197036254Y-119344482D01*
X197058972Y-119206881D01*
X197054409Y-119067492D01*
X197022740Y-118931672D01*
X196965182Y-118804639D01*
X196883948Y-118691277D01*
X196782158Y-118595941D01*
X196663725Y-118522294D01*
X196533200Y-118473168D01*
X194794534Y-118007294D01*
X194656933Y-117984576D01*
X194517544Y-117989139D01*
X194381724Y-118020808D01*
X194254691Y-118078366D01*
X194141329Y-118159600D01*
X194045993Y-118261390D01*
X193972346Y-118379823D01*
X193923220Y-118510348D01*
X193457346Y-120249014D01*
X193434628Y-120386615D01*
X193439191Y-120526004D01*
X193470860Y-120661824D01*
X193528418Y-120788857D01*
X193609652Y-120902219D01*
X193652464Y-120942316D01*
X193564360Y-121001185D01*
X193340385Y-121225160D01*
X193164409Y-121488527D01*
X193043195Y-121781164D01*
X192981400Y-122091826D01*
X182554857Y-122091826D01*
X182475772Y-121900900D01*
X182310739Y-121653912D01*
X182100693Y-121443866D01*
X181853705Y-121278833D01*
X181579267Y-121165157D01*
X181287924Y-121107206D01*
X180990874Y-121107206D01*
X180699531Y-121165157D01*
X180425093Y-121278833D01*
X180178105Y-121443866D01*
X179968059Y-121653912D01*
X179803026Y-121900900D01*
X179689350Y-122175338D01*
X179631399Y-122466681D01*
X161711042Y-122466681D01*
X161692678Y-122417891D01*
X161535815Y-122165636D01*
X161332754Y-121948831D01*
X161091297Y-121775806D01*
X160820725Y-121653211D01*
X160799907Y-121648357D01*
X160815511Y-121633742D01*
X160988536Y-121392285D01*
X161111131Y-121121712D01*
X161178583Y-120832423D01*
X161188302Y-120535533D01*
X161139914Y-120242450D01*
X161035278Y-119964439D01*
X160878415Y-119712184D01*
X160675354Y-119495379D01*
X160433897Y-119322354D01*
X160310142Y-119266281D01*
X167693399Y-119266281D01*
X167693399Y-119563331D01*
X167751350Y-119854674D01*
X167865026Y-120129112D01*
X168030059Y-120376100D01*
X168240105Y-120586146D01*
X168487093Y-120751179D01*
X168761531Y-120864855D01*
X169052874Y-120922806D01*
X169349924Y-120922806D01*
X169641267Y-120864855D01*
X169915705Y-120751179D01*
X170162693Y-120586146D01*
X170372739Y-120376100D01*
X170537772Y-120129112D01*
X170651448Y-119854674D01*
X170709399Y-119563331D01*
X170709399Y-119266281D01*
X170651448Y-118974938D01*
X170537772Y-118700500D01*
X170389220Y-118478177D01*
X184281148Y-118478177D01*
X184281148Y-118814623D01*
X184346786Y-119144605D01*
X184475538Y-119455441D01*
X184662458Y-119735186D01*
X184900362Y-119973090D01*
X185180107Y-120160010D01*
X185490943Y-120288762D01*
X185820925Y-120354400D01*
X186157371Y-120354400D01*
X186487353Y-120288762D01*
X186798189Y-120160010D01*
X187077934Y-119973090D01*
X187258047Y-119792977D01*
X189188052Y-119792977D01*
X189188052Y-120129423D01*
X189253690Y-120459405D01*
X189382442Y-120770241D01*
X189569362Y-121049986D01*
X189807266Y-121287890D01*
X190087011Y-121474810D01*
X190397847Y-121603562D01*
X190727829Y-121669200D01*
X191064275Y-121669200D01*
X191394257Y-121603562D01*
X191705093Y-121474810D01*
X191984838Y-121287890D01*
X192222742Y-121049986D01*
X192409662Y-120770241D01*
X192538414Y-120459405D01*
X192604052Y-120129423D01*
X192604052Y-119792977D01*
X192538414Y-119462995D01*
X192409662Y-119152159D01*
X192222742Y-118872414D01*
X191984838Y-118634510D01*
X191705093Y-118447590D01*
X191394257Y-118318838D01*
X191064275Y-118253200D01*
X190727829Y-118253200D01*
X190397847Y-118318838D01*
X190087011Y-118447590D01*
X189807266Y-118634510D01*
X189569362Y-118872414D01*
X189382442Y-119152159D01*
X189253690Y-119462995D01*
X189188052Y-119792977D01*
X187258047Y-119792977D01*
X187315838Y-119735186D01*
X187502758Y-119455441D01*
X187631510Y-119144605D01*
X187697148Y-118814623D01*
X187697148Y-118478177D01*
X187631510Y-118148195D01*
X187502758Y-117837359D01*
X187315838Y-117557614D01*
X187077934Y-117319710D01*
X186798189Y-117132790D01*
X186487353Y-117004038D01*
X186157371Y-116938400D01*
X185820925Y-116938400D01*
X185490943Y-117004038D01*
X185180107Y-117132790D01*
X184900362Y-117319710D01*
X184662458Y-117557614D01*
X184475538Y-117837359D01*
X184346786Y-118148195D01*
X184281148Y-118478177D01*
X170389220Y-118478177D01*
X170372739Y-118453512D01*
X170162693Y-118243466D01*
X169915705Y-118078433D01*
X169641267Y-117964757D01*
X169349924Y-117906806D01*
X169052874Y-117906806D01*
X168761531Y-117964757D01*
X168487093Y-118078433D01*
X168240105Y-118243466D01*
X168030059Y-118453512D01*
X167865026Y-118700500D01*
X167751350Y-118974938D01*
X167693399Y-119266281D01*
X160310142Y-119266281D01*
X160163325Y-119199759D01*
X160142507Y-119194905D01*
X160158111Y-119180290D01*
X160331136Y-118938833D01*
X160453731Y-118668260D01*
X160521183Y-118378971D01*
X160530902Y-118082081D01*
X160482514Y-117788998D01*
X160377878Y-117510987D01*
X160221015Y-117258732D01*
X160017954Y-117041927D01*
X159776497Y-116868902D01*
X159505925Y-116746307D01*
X159485107Y-116741453D01*
X159500710Y-116726839D01*
X159673735Y-116485382D01*
X159796330Y-116214809D01*
X159863782Y-115925520D01*
X159873501Y-115628630D01*
X159825113Y-115335547D01*
X159802241Y-115274777D01*
X172332800Y-115274777D01*
X172332800Y-115611223D01*
X172398438Y-115941205D01*
X172527190Y-116252041D01*
X172714110Y-116531786D01*
X172952014Y-116769690D01*
X173231759Y-116956610D01*
X173542595Y-117085362D01*
X173872577Y-117151000D01*
X174209023Y-117151000D01*
X174539005Y-117085362D01*
X174849841Y-116956610D01*
X175129586Y-116769690D01*
X175309699Y-116589577D01*
X177239704Y-116589577D01*
X177239704Y-116926023D01*
X177305342Y-117256005D01*
X177434094Y-117566841D01*
X177621014Y-117846586D01*
X177858918Y-118084490D01*
X178138663Y-118271410D01*
X178449499Y-118400162D01*
X178779481Y-118465800D01*
X179115927Y-118465800D01*
X179445909Y-118400162D01*
X179756745Y-118271410D01*
X180036490Y-118084490D01*
X180274394Y-117846586D01*
X180461314Y-117566841D01*
X180590066Y-117256005D01*
X180655704Y-116926023D01*
X180655704Y-116589577D01*
X180590066Y-116259595D01*
X180461314Y-115948759D01*
X180274394Y-115669014D01*
X180036490Y-115431110D01*
X179756745Y-115244190D01*
X179445909Y-115115438D01*
X179115927Y-115049800D01*
X178779481Y-115049800D01*
X178449499Y-115115438D01*
X178138663Y-115244190D01*
X177858918Y-115431110D01*
X177621014Y-115669014D01*
X177434094Y-115948759D01*
X177305342Y-116259595D01*
X177239704Y-116589577D01*
X175309699Y-116589577D01*
X175367490Y-116531786D01*
X175554410Y-116252041D01*
X175683162Y-115941205D01*
X175748800Y-115611223D01*
X175748800Y-115274777D01*
X175683162Y-114944795D01*
X175554410Y-114633959D01*
X175367490Y-114354214D01*
X175129586Y-114116310D01*
X174849841Y-113929390D01*
X174539005Y-113800638D01*
X174209023Y-113735000D01*
X173872577Y-113735000D01*
X173542595Y-113800638D01*
X173231759Y-113929390D01*
X172952014Y-114116310D01*
X172714110Y-114354214D01*
X172527190Y-114633959D01*
X172398438Y-114944795D01*
X172332800Y-115274777D01*
X159802241Y-115274777D01*
X159720477Y-115057536D01*
X159563614Y-114805281D01*
X159360553Y-114588476D01*
X159119096Y-114415451D01*
X158848524Y-114292856D01*
X158827706Y-114288002D01*
X158843310Y-114273387D01*
X159016335Y-114031930D01*
X159138930Y-113761357D01*
X159206382Y-113472068D01*
X159211341Y-113320555D01*
X182079302Y-113320555D01*
X182083865Y-113459944D01*
X182115534Y-113595765D01*
X182173092Y-113722797D01*
X182254326Y-113836160D01*
X182356116Y-113931496D01*
X182474549Y-114005143D01*
X182605073Y-114054269D01*
X184150554Y-114468380D01*
X184288155Y-114491098D01*
X184427544Y-114486535D01*
X184563365Y-114454866D01*
X184690397Y-114397308D01*
X184803760Y-114316074D01*
X184899096Y-114214284D01*
X184972743Y-114095851D01*
X185021869Y-113965327D01*
X185435980Y-112419846D01*
X185458698Y-112282245D01*
X185454135Y-112142856D01*
X185422466Y-112007035D01*
X185364908Y-111880003D01*
X185283674Y-111766640D01*
X185181884Y-111671304D01*
X185063451Y-111597657D01*
X184932927Y-111548531D01*
X183387446Y-111134420D01*
X183249845Y-111111702D01*
X183110456Y-111116265D01*
X182974635Y-111147934D01*
X182847603Y-111205492D01*
X182734240Y-111286726D01*
X182638904Y-111388516D01*
X182565257Y-111506949D01*
X182516131Y-111637473D01*
X182102020Y-113182954D01*
X182079302Y-113320555D01*
X159211341Y-113320555D01*
X159216101Y-113175178D01*
X159167713Y-112882095D01*
X159063077Y-112604084D01*
X158906214Y-112351829D01*
X158703153Y-112135024D01*
X158461696Y-111961999D01*
X158404304Y-111935995D01*
X159396851Y-110120155D01*
X170141302Y-110120155D01*
X170145865Y-110259544D01*
X170177534Y-110395365D01*
X170235092Y-110522397D01*
X170316326Y-110635760D01*
X170418116Y-110731096D01*
X170536549Y-110804743D01*
X170667073Y-110853869D01*
X172212554Y-111267980D01*
X172350155Y-111290698D01*
X172489544Y-111286135D01*
X172625365Y-111254466D01*
X172752397Y-111196908D01*
X172865760Y-111115674D01*
X172961096Y-111013884D01*
X173034743Y-110895451D01*
X173083869Y-110764927D01*
X173497980Y-109219446D01*
X173520698Y-109081845D01*
X173516135Y-108942456D01*
X173484466Y-108806635D01*
X173426908Y-108679603D01*
X173345674Y-108566240D01*
X173243884Y-108470904D01*
X173125451Y-108397257D01*
X172994927Y-108348131D01*
X171449446Y-107934020D01*
X171311845Y-107911302D01*
X171172456Y-107915865D01*
X171036635Y-107947534D01*
X170909603Y-108005092D01*
X170796240Y-108086326D01*
X170700904Y-108188116D01*
X170627257Y-108306549D01*
X170578131Y-108437073D01*
X170164020Y-109982554D01*
X170141302Y-110120155D01*
X159396851Y-110120155D01*
X162039349Y-105285776D01*
X162469508Y-105463954D01*
X163118266Y-105593000D01*
X163779734Y-105593000D01*
X164428492Y-105463954D01*
X165039609Y-105210821D01*
X165589600Y-104843329D01*
X166057329Y-104375600D01*
X166424821Y-103825609D01*
X166677954Y-103214492D01*
X166807000Y-102565734D01*
X166807000Y-101904266D01*
X166677954Y-101255508D01*
X166424821Y-100644391D01*
X166057329Y-100094400D01*
X165589600Y-99626671D01*
X165039609Y-99259179D01*
X164428492Y-99006046D01*
X163779734Y-98877000D01*
X163118266Y-98877000D01*
X162469508Y-99006046D01*
X161858391Y-99259179D01*
X161703049Y-99362975D01*
X156695532Y-92244996D01*
X156865942Y-92074586D01*
X157052862Y-91794841D01*
X157181614Y-91484005D01*
X157247252Y-91154023D01*
X157247252Y-90817577D01*
X157181614Y-90487595D01*
X157052862Y-90176759D01*
X156865942Y-89897014D01*
X156628038Y-89659110D01*
X156348293Y-89472190D01*
X156037457Y-89343438D01*
X155707475Y-89277800D01*
X155371029Y-89277800D01*
X155041047Y-89343438D01*
X154730211Y-89472190D01*
X154450466Y-89659110D01*
X154212562Y-89897014D01*
X154025642Y-90176759D01*
X153896890Y-90487595D01*
X153831252Y-90817577D01*
X153831252Y-91154023D01*
X153852737Y-91262033D01*
X152230909Y-91696649D01*
X152145958Y-91491559D01*
X151959038Y-91211814D01*
X151721134Y-90973910D01*
X151441389Y-90786990D01*
X151130553Y-90658238D01*
X150800571Y-90592600D01*
X150464125Y-90592600D01*
X150134143Y-90658238D01*
X149823307Y-90786990D01*
X149543562Y-90973910D01*
X149305658Y-91211814D01*
X149118738Y-91491559D01*
X148989986Y-91802395D01*
X148924348Y-92132377D01*
X148924348Y-92468823D01*
X148945861Y-92576975D01*
X144772749Y-93695283D01*
X144683062Y-93478759D01*
X144496142Y-93199014D01*
X144258238Y-92961110D01*
X143978493Y-92774190D01*
X143667657Y-92645438D01*
X143337675Y-92579800D01*
X143001229Y-92579800D01*
X142671247Y-92645438D01*
X142360411Y-92774190D01*
X142080666Y-92961110D01*
X141842762Y-93199014D01*
X141655842Y-93478759D01*
X141527090Y-93789595D01*
X141461452Y-94119577D01*
X141461452Y-94456023D01*
X141485364Y-94576235D01*
X139865901Y-95010217D01*
X139776158Y-94793559D01*
X139589238Y-94513814D01*
X139351334Y-94275910D01*
X139071589Y-94088990D01*
X138760753Y-93960238D01*
X138430771Y-93894600D01*
X138094325Y-93894600D01*
X137764343Y-93960238D01*
X137453507Y-94088990D01*
X137173762Y-94275910D01*
X136935858Y-94513814D01*
X136748938Y-94793559D01*
X136620186Y-95104395D01*
X136554548Y-95434377D01*
X136554548Y-95770823D01*
X136578488Y-95891176D01*
X132375408Y-97017515D01*
X132287862Y-96806159D01*
X132100942Y-96526414D01*
X131863038Y-96288510D01*
X131583293Y-96101590D01*
X131272457Y-95972838D01*
X130942475Y-95907200D01*
X130606029Y-95907200D01*
X130276047Y-95972838D01*
X129965211Y-96101590D01*
X129685466Y-96288510D01*
X129447562Y-96526414D01*
X129260642Y-96806159D01*
X129131890Y-97116995D01*
X129066252Y-97446977D01*
X129066252Y-97783423D01*
X129089080Y-97898184D01*
X127468560Y-98332450D01*
X127380958Y-98120959D01*
X127194038Y-97841214D01*
X126956134Y-97603310D01*
X126676389Y-97416390D01*
X126365553Y-97287638D01*
X126035571Y-97222000D01*
X125699125Y-97222000D01*
X125369143Y-97287638D01*
X125058307Y-97416390D01*
X124778562Y-97603310D01*
X124540658Y-97841214D01*
X124353738Y-98120959D01*
X124224986Y-98431795D01*
X124159348Y-98761777D01*
X124159348Y-99098223D01*
X124224986Y-99428205D01*
X124353738Y-99739041D01*
X124540658Y-100018786D01*
X124778562Y-100256690D01*
X125058307Y-100443610D01*
X125369143Y-100572362D01*
X125569826Y-100612281D01*
X124837277Y-109164000D01*
X124383266Y-109164000D01*
X123734508Y-109293046D01*
X123123391Y-109546179D01*
X122573400Y-109913671D01*
X122105671Y-110381400D01*
X121738179Y-110931391D01*
X121485046Y-111542508D01*
X121356000Y-112191266D01*
X108335926Y-112191266D01*
X109045259Y-109461878D01*
X109924798Y-106113081D01*
X110864860Y-102565734D01*
X111863861Y-98824449D01*
X111864325Y-98823493D01*
X111892520Y-98715442D01*
X112892598Y-94995533D01*
X113853377Y-91448404D01*
X113928120Y-91174845D01*
X131533302Y-91174845D01*
X131556020Y-91312446D01*
X131970131Y-92857927D01*
X132019257Y-92988451D01*
X132092904Y-93106884D01*
X132188240Y-93208674D01*
X132301603Y-93289908D01*
X132428635Y-93347466D01*
X132564456Y-93379135D01*
X132703845Y-93383698D01*
X132841446Y-93360980D01*
X134386927Y-92946869D01*
X134517451Y-92897743D01*
X134635884Y-92824096D01*
X134737674Y-92728760D01*
X134818908Y-92615397D01*
X134876466Y-92488365D01*
X134908135Y-92352544D01*
X134912698Y-92213155D01*
X134889980Y-92075554D01*
X134475869Y-90530073D01*
X134426743Y-90399549D01*
X134353096Y-90281116D01*
X134257760Y-90179326D01*
X134144397Y-90098092D01*
X134017365Y-90040534D01*
X133881544Y-90008865D01*
X133742155Y-90004302D01*
X133604554Y-90027020D01*
X132059073Y-90441131D01*
X131928549Y-90490257D01*
X131810116Y-90563904D01*
X131708326Y-90659240D01*
X131627092Y-90772603D01*
X131569534Y-90899635D01*
X131537865Y-91035456D01*
X131533302Y-91174845D01*
X113928120Y-91174845D01*
X114767436Y-88102991D01*
X114830955Y-87872845D01*
X143903102Y-87872845D01*
X143925820Y-88010446D01*
X144339931Y-89555927D01*
X144389057Y-89686451D01*
X144462704Y-89804884D01*
X144558040Y-89906674D01*
X144671403Y-89987908D01*
X144798435Y-90045466D01*
X144934256Y-90077135D01*
X145073645Y-90081698D01*
X145211246Y-90058980D01*
X146756727Y-89644869D01*
X146887251Y-89595743D01*
X147005684Y-89522096D01*
X147107474Y-89426760D01*
X147188708Y-89313397D01*
X147246266Y-89186365D01*
X147277935Y-89050544D01*
X147282498Y-88911155D01*
X147259780Y-88773554D01*
X146845669Y-87228073D01*
X146796543Y-87097549D01*
X146722896Y-86979116D01*
X146627560Y-86877326D01*
X146514197Y-86796092D01*
X146387165Y-86738534D01*
X146251344Y-86706865D01*
X146111955Y-86702302D01*
X145974354Y-86725020D01*
X144428873Y-87139131D01*
X144298349Y-87188257D01*
X144179916Y-87261904D01*
X144078126Y-87357240D01*
X143996892Y-87470603D01*
X143939334Y-87597635D01*
X143907665Y-87733456D01*
X143903102Y-87872845D01*
X114830955Y-87872845D01*
X115636508Y-84954145D01*
X116462841Y-81994858D01*
X116538918Y-81726045D01*
X130364902Y-81726045D01*
X130387620Y-81863646D01*
X130801731Y-83409127D01*
X130850857Y-83539651D01*
X130924504Y-83658084D01*
X131019840Y-83759874D01*
X131133203Y-83841108D01*
X131260235Y-83898666D01*
X131396056Y-83930335D01*
X131535445Y-83934898D01*
X131673046Y-83912180D01*
X133218527Y-83498069D01*
X133349051Y-83448943D01*
X133467484Y-83375296D01*
X133569274Y-83279960D01*
X133650508Y-83166597D01*
X133708066Y-83039565D01*
X133739735Y-82903744D01*
X133744298Y-82764355D01*
X133721580Y-82626754D01*
X133307469Y-81081273D01*
X133258343Y-80950749D01*
X133184696Y-80832316D01*
X133089360Y-80730526D01*
X132975997Y-80649292D01*
X132848965Y-80591734D01*
X132713144Y-80560065D01*
X132573755Y-80555502D01*
X132436154Y-80578220D01*
X130890673Y-80992331D01*
X130760149Y-81041457D01*
X130641716Y-81115104D01*
X130539926Y-81210440D01*
X130458692Y-81323803D01*
X130401134Y-81450835D01*
X130369465Y-81586656D01*
X130364902Y-81726045D01*
X116538918Y-81726045D01*
X117178233Y-79467074D01*
X140360406Y-79467074D01*
X140360406Y-79764124D01*
X140418357Y-80055467D01*
X140532033Y-80329905D01*
X140697066Y-80576893D01*
X140907112Y-80786939D01*
X141154100Y-80951972D01*
X141428538Y-81065648D01*
X141719881Y-81123599D01*
X142016931Y-81123599D01*
X142308274Y-81065648D01*
X142582712Y-80951972D01*
X142829700Y-80786939D01*
X143039746Y-80576893D01*
X143204779Y-80329905D01*
X143318455Y-80055467D01*
X143376406Y-79764124D01*
X143376406Y-79467074D01*
X143318455Y-79175731D01*
X143204779Y-78901293D01*
X143039746Y-78654305D01*
X142829700Y-78444259D01*
X142582712Y-78279226D01*
X142308274Y-78165550D01*
X142016931Y-78107599D01*
X141719881Y-78107599D01*
X141428538Y-78165550D01*
X141154100Y-78279226D01*
X140907112Y-78444259D01*
X140697066Y-78654305D01*
X140532033Y-78901293D01*
X140418357Y-79175731D01*
X140360406Y-79467074D01*
X117178233Y-79467074D01*
X117248115Y-79220152D01*
X117817064Y-77240629D01*
X134306000Y-77240629D01*
X134306000Y-77577075D01*
X134371638Y-77907057D01*
X134500390Y-78217893D01*
X134687310Y-78497638D01*
X134925214Y-78735542D01*
X135204959Y-78922462D01*
X135515795Y-79051214D01*
X135845777Y-79116852D01*
X136182223Y-79116852D01*
X136512205Y-79051214D01*
X136823041Y-78922462D01*
X137102786Y-78735542D01*
X137340690Y-78497638D01*
X137527610Y-78217893D01*
X137656362Y-77907057D01*
X137722000Y-77577075D01*
X137722000Y-77240629D01*
X137656362Y-76910647D01*
X137527610Y-76599811D01*
X137340690Y-76320066D01*
X137102786Y-76082162D01*
X136823041Y-75895242D01*
X136512205Y-75766490D01*
X136182223Y-75700852D01*
X135845777Y-75700852D01*
X135515795Y-75766490D01*
X135204959Y-75895242D01*
X134925214Y-76082162D01*
X134687310Y-76320066D01*
X134500390Y-76599811D01*
X134371638Y-76910647D01*
X134306000Y-77240629D01*
X117817064Y-77240629D01*
X117994427Y-76623540D01*
X118703769Y-74198932D01*
X119260646Y-72333725D01*
X132991200Y-72333725D01*
X132991200Y-72670171D01*
X133056838Y-73000153D01*
X133185590Y-73310989D01*
X133372510Y-73590734D01*
X133610414Y-73828638D01*
X133890159Y-74015558D01*
X134200995Y-74144310D01*
X134530977Y-74209948D01*
X134867423Y-74209948D01*
X135197405Y-74144310D01*
X135508241Y-74015558D01*
X135787986Y-73828638D01*
X136025890Y-73590734D01*
X136212810Y-73310989D01*
X136341562Y-73000153D01*
X136407200Y-72670171D01*
X136407200Y-72333725D01*
X136341562Y-72003743D01*
X136212810Y-71692907D01*
X136025890Y-71413162D01*
X135787986Y-71175258D01*
X135508241Y-70988338D01*
X135197405Y-70859586D01*
X134867423Y-70793948D01*
X134530977Y-70793948D01*
X134200995Y-70859586D01*
X133890159Y-70988338D01*
X133610414Y-71175258D01*
X133372510Y-71413162D01*
X133185590Y-71692907D01*
X133056838Y-72003743D01*
X132991200Y-72333725D01*
X119260646Y-72333725D01*
X119378045Y-71940511D01*
X120019139Y-69842512D01*
X120036229Y-69788045D01*
X127164502Y-69788045D01*
X127187220Y-69925646D01*
X127601331Y-71471127D01*
X127650457Y-71601651D01*
X127724104Y-71720084D01*
X127819440Y-71821874D01*
X127932803Y-71903108D01*
X128059835Y-71960666D01*
X128195656Y-71992335D01*
X128335045Y-71996898D01*
X128472646Y-71974180D01*
X130018127Y-71560069D01*
X130148651Y-71510943D01*
X130267084Y-71437296D01*
X130368874Y-71341960D01*
X130450108Y-71228597D01*
X130507666Y-71101565D01*
X130539335Y-70965744D01*
X130543898Y-70826355D01*
X130521180Y-70688754D01*
X130107069Y-69143273D01*
X130057943Y-69012749D01*
X129984296Y-68894316D01*
X129888960Y-68792526D01*
X129775597Y-68711292D01*
X129648565Y-68653734D01*
X129512744Y-68622065D01*
X129373355Y-68617502D01*
X129235754Y-68640220D01*
X127690273Y-69054331D01*
X127559749Y-69103457D01*
X127441316Y-69177104D01*
X127339526Y-69272440D01*
X127258292Y-69385803D01*
X127200734Y-69512835D01*
X127169065Y-69648656D01*
X127164502Y-69788045D01*
X120036229Y-69788045D01*
X120629062Y-67898737D01*
X120748613Y-67529074D01*
X137160006Y-67529074D01*
X137160006Y-67826124D01*
X137217957Y-68117467D01*
X137331633Y-68391905D01*
X137496666Y-68638893D01*
X137706712Y-68848939D01*
X137953700Y-69013972D01*
X138228138Y-69127648D01*
X138519481Y-69185599D01*
X138816531Y-69185599D01*
X139107874Y-69127648D01*
X139382312Y-69013972D01*
X139629300Y-68848939D01*
X139839346Y-68638893D01*
X140004379Y-68391905D01*
X140118055Y-68117467D01*
X140176006Y-67826124D01*
X140176006Y-67529074D01*
X140118055Y-67237731D01*
X140004379Y-66963293D01*
X139839346Y-66716305D01*
X139629300Y-66506259D01*
X139382312Y-66341226D01*
X139107874Y-66227550D01*
X138816531Y-66169599D01*
X138519481Y-66169599D01*
X138228138Y-66227550D01*
X137953700Y-66341226D01*
X137706712Y-66506259D01*
X137496666Y-66716305D01*
X137331633Y-66963293D01*
X137217957Y-67237731D01*
X137160006Y-67529074D01*
X120748613Y-67529074D01*
X121209659Y-66103483D01*
X121477721Y-65302629D01*
X131105600Y-65302629D01*
X131105600Y-65639075D01*
X131171238Y-65969057D01*
X131299990Y-66279893D01*
X131486910Y-66559638D01*
X131724814Y-66797542D01*
X132004559Y-66984462D01*
X132315395Y-67113214D01*
X132645377Y-67178852D01*
X132981823Y-67178852D01*
X133311805Y-67113214D01*
X133622641Y-66984462D01*
X133902386Y-66797542D01*
X134140290Y-66559638D01*
X134327210Y-66279893D01*
X134455962Y-65969057D01*
X134521600Y-65639075D01*
X134521600Y-65302629D01*
X134455962Y-64972647D01*
X134327210Y-64661811D01*
X134140290Y-64382066D01*
X133902386Y-64144162D01*
X133622641Y-63957242D01*
X133311805Y-63828490D01*
X132981823Y-63762852D01*
X132645377Y-63762852D01*
X132315395Y-63828490D01*
X132004559Y-63957242D01*
X131724814Y-64144162D01*
X131486910Y-64382066D01*
X131299990Y-64661811D01*
X131171238Y-64972647D01*
X131105600Y-65302629D01*
X121477721Y-65302629D01*
X121762939Y-64450524D01*
X122290587Y-62934553D01*
X122794599Y-61549278D01*
X123235909Y-60395725D01*
X129790800Y-60395725D01*
X129790800Y-60732171D01*
X129856438Y-61062153D01*
X129985190Y-61372989D01*
X130172110Y-61652734D01*
X130410014Y-61890638D01*
X130689759Y-62077558D01*
X131000595Y-62206310D01*
X131330577Y-62271948D01*
X131667023Y-62271948D01*
X131997005Y-62206310D01*
X132307841Y-62077558D01*
X132587586Y-61890638D01*
X132825490Y-61652734D01*
X133012410Y-61372989D01*
X133141162Y-61062153D01*
X133206800Y-60732171D01*
X133206800Y-60395725D01*
X133141162Y-60065743D01*
X133012410Y-59754907D01*
X132825490Y-59475162D01*
X132587586Y-59237258D01*
X132307841Y-59050338D01*
X131997005Y-58921586D01*
X131667023Y-58855948D01*
X131330577Y-58855948D01*
X131000595Y-58921586D01*
X130689759Y-59050338D01*
X130410014Y-59237258D01*
X130172110Y-59475162D01*
X129985190Y-59754907D01*
X129856438Y-60065743D01*
X129790800Y-60395725D01*
X123235909Y-60395725D01*
X123276650Y-60289233D01*
X123738518Y-59148550D01*
X124181811Y-58121634D01*
X124608085Y-57202790D01*
X125018785Y-56386317D01*
X125062943Y-56306133D01*
X127397628Y-56306133D01*
X127420346Y-56443734D01*
X127886220Y-58182400D01*
X127935346Y-58312925D01*
X128008993Y-58431358D01*
X128104329Y-58533148D01*
X128217691Y-58614382D01*
X128344724Y-58671940D01*
X128480544Y-58703609D01*
X128619933Y-58708172D01*
X128757534Y-58685454D01*
X130496200Y-58219580D01*
X130626725Y-58170454D01*
X130745158Y-58096807D01*
X130846948Y-58001471D01*
X130928182Y-57888109D01*
X130985740Y-57761076D01*
X130999056Y-57703967D01*
X131194216Y-57784805D01*
X131504878Y-57846600D01*
X131821626Y-57846600D01*
X132132288Y-57784805D01*
X132424925Y-57663591D01*
X132688292Y-57487615D01*
X132912267Y-57263640D01*
X133088243Y-57000273D01*
X133209457Y-56707636D01*
X133271252Y-56396974D01*
X133271252Y-56080226D01*
X133209457Y-55769564D01*
X133088243Y-55476927D01*
X132912267Y-55213560D01*
X132688292Y-54989585D01*
X132424925Y-54813609D01*
X132132288Y-54692395D01*
X131821626Y-54630600D01*
X131504878Y-54630600D01*
X131194216Y-54692395D01*
X130901579Y-54813609D01*
X130638212Y-54989585D01*
X130414237Y-55213560D01*
X130355368Y-55301664D01*
X130315271Y-55258852D01*
X130201909Y-55177618D01*
X130074876Y-55120060D01*
X129939056Y-55088391D01*
X129799667Y-55083828D01*
X129662066Y-55106546D01*
X127923400Y-55572420D01*
X127792875Y-55621546D01*
X127674442Y-55695193D01*
X127572652Y-55790529D01*
X127491418Y-55903891D01*
X127433860Y-56030924D01*
X127402191Y-56166744D01*
X127397628Y-56306133D01*
X125062943Y-56306133D01*
X125415121Y-55666643D01*
X125798254Y-55037878D01*
X126169109Y-54494069D01*
X126528678Y-54028706D01*
X126878052Y-53634815D01*
X127218877Y-53304670D01*
X127553686Y-53029973D01*
X127886263Y-52802159D01*
X128221531Y-52613054D01*
X128565215Y-52455351D01*
X128922914Y-52322935D01*
X129269279Y-52219633D01*
X129296057Y-52215306D01*
X129324143Y-52204845D01*
X129678632Y-52120471D01*
X130054426Y-52056377D01*
X130430759Y-52021175D01*
X130815551Y-52017361D01*
X131217355Y-52048397D01*
G04 #@! TA.AperFunction,NonConductor*
D17*
G36*
X131217355Y-52048397D02*
G01*
X131644535Y-52118896D01*
X132104627Y-52234375D01*
X132603971Y-52400746D01*
X133147829Y-52623861D01*
X133740648Y-52909218D01*
X134386513Y-53261938D01*
X135089239Y-53686728D01*
X135852660Y-54188040D01*
X136680781Y-54770200D01*
X137577555Y-55437323D01*
X138547185Y-56193561D01*
X139593914Y-57042998D01*
X140722111Y-57989741D01*
X141936063Y-59037771D01*
X143240519Y-60191429D01*
X144639790Y-61454644D01*
X146138497Y-62831601D01*
X147741252Y-64326459D01*
X149452628Y-65943331D01*
X151277399Y-67686515D01*
X153220081Y-69560057D01*
X155285318Y-71568119D01*
X157478121Y-73715213D01*
X159803078Y-76005450D01*
X162264384Y-78442537D01*
X164867302Y-81031242D01*
X167614981Y-83774224D01*
X167632711Y-83796960D01*
X167673238Y-83831946D01*
X170397698Y-86560959D01*
X172989186Y-89166556D01*
X175429500Y-91630990D01*
X177721992Y-93958100D01*
X179871389Y-96153106D01*
X181881729Y-98220532D01*
X183757471Y-100165333D01*
X185502475Y-101991840D01*
X187121176Y-103704974D01*
X188617550Y-105309175D01*
X189995952Y-106809272D01*
X191260507Y-108209837D01*
X192415201Y-109515277D01*
X193464331Y-110730310D01*
X194411977Y-111859394D01*
X195262179Y-112906878D01*
X196019071Y-113877161D01*
X196686769Y-114774530D01*
X197269386Y-115603131D01*
X197771111Y-116367024D01*
X198196196Y-117070094D01*
X198549145Y-117716256D01*
X198834674Y-118309339D01*
X199057892Y-118853388D01*
X199224324Y-119352902D01*
X199339823Y-119813132D01*
X199410310Y-120240421D01*
X199441313Y-120642343D01*
X199437447Y-121027250D01*
X199402177Y-121403739D01*
X199338004Y-121779714D01*
X199247391Y-122160273D01*
X199135704Y-122534678D01*
X199003411Y-122891910D01*
X198845829Y-123235204D01*
X198656853Y-123570156D01*
X198429226Y-123902424D01*
X198154782Y-124236948D01*
X197825003Y-124577475D01*
X197431632Y-124926521D01*
X196966974Y-125285729D01*
X196424026Y-125656223D01*
X195796408Y-126038920D01*
X195078109Y-126434794D01*
X194263306Y-126844974D01*
X193346444Y-127270669D01*
X192321751Y-127713357D01*
X191183752Y-128174504D01*
X189926668Y-128655793D01*
X188544935Y-129158892D01*
X187032711Y-129685611D01*
X185384199Y-130237778D01*
X183593664Y-130817220D01*
X181655153Y-131425853D01*
X179563024Y-132065510D01*
X177311086Y-132738198D01*
X174893369Y-133445859D01*
X172304380Y-134190305D01*
X169537748Y-134973605D01*
X166587754Y-135797642D01*
X163448101Y-136664462D01*
X160113334Y-137575881D01*
X156577304Y-138533909D01*
X152832649Y-139540879D01*
X152832454Y-139540952D01*
X152827052Y-139542406D01*
X152704204Y-139576388D01*
X148949930Y-140578981D01*
X145397795Y-141520444D01*
X142044137Y-142401397D01*
X138882793Y-143223133D01*
X135906943Y-143987115D01*
X133111471Y-144694367D01*
X130489710Y-145346314D01*
X128035411Y-145944275D01*
X125742544Y-146489516D01*
X123604999Y-146983331D01*
X121616730Y-147427002D01*
X119771711Y-147821819D01*
X118063639Y-148169137D01*
X116486816Y-148470202D01*
X115035180Y-148726356D01*
X113702864Y-148938938D01*
X112484060Y-149109314D01*
X111373015Y-149238904D01*
X110364032Y-149329204D01*
X109451523Y-149381806D01*
X108630003Y-149398451D01*
X107893854Y-149381080D01*
X107237362Y-149331864D01*
X106654492Y-149253202D01*
X106138592Y-149147631D01*
X105682183Y-149017589D01*
X105276809Y-148865035D01*
X104913185Y-148690984D01*
X104581727Y-148495238D01*
X104273302Y-148276530D01*
X103979768Y-148033038D01*
X103716938Y-147784627D01*
X103699626Y-147763418D01*
X103686806Y-147752840D01*
X103675430Y-147739992D01*
X103664858Y-147731959D01*
X103426235Y-147479546D01*
X103182833Y-147186187D01*
X102964185Y-146877924D01*
X102768491Y-146546655D01*
X102594462Y-146183228D01*
X102441924Y-145778127D01*
X102311869Y-145322037D01*
X102206260Y-144806531D01*
X102127526Y-144224142D01*
X102078203Y-143568236D01*
X102078059Y-143562175D01*
X104317349Y-143562175D01*
X104317349Y-143878923D01*
X104379144Y-144189585D01*
X104500358Y-144482222D01*
X104676334Y-144745589D01*
X104900309Y-144969564D01*
X105163676Y-145145540D01*
X105456313Y-145266754D01*
X105765863Y-145328328D01*
X105750853Y-145377808D01*
X105737183Y-145516600D01*
X105750853Y-145655392D01*
X105791337Y-145788851D01*
X105857080Y-145911847D01*
X105945555Y-146019653D01*
X107218347Y-147292445D01*
X107326153Y-147380920D01*
X107449149Y-147446663D01*
X107582608Y-147487147D01*
X107721400Y-147500817D01*
X107860192Y-147487147D01*
X107993651Y-147446663D01*
X108116647Y-147380920D01*
X108224453Y-147292445D01*
X109497245Y-146019653D01*
X109585720Y-145911847D01*
X109651463Y-145788851D01*
X109691947Y-145655392D01*
X109705617Y-145516600D01*
X109691947Y-145377808D01*
X109651463Y-145244349D01*
X109585720Y-145121353D01*
X109497245Y-145013547D01*
X108988173Y-144504475D01*
X121428000Y-144504475D01*
X121428000Y-144801525D01*
X121485951Y-145092868D01*
X121599627Y-145367306D01*
X121764660Y-145614294D01*
X121974706Y-145824340D01*
X122221694Y-145989373D01*
X122496132Y-146103049D01*
X122787475Y-146161000D01*
X123084525Y-146161000D01*
X123375868Y-146103049D01*
X123650306Y-145989373D01*
X123897294Y-145824340D01*
X124107340Y-145614294D01*
X124272373Y-145367306D01*
X124386049Y-145092868D01*
X124444000Y-144801525D01*
X124444000Y-144504475D01*
X124386049Y-144213132D01*
X124272373Y-143938694D01*
X124107340Y-143691706D01*
X123897294Y-143481660D01*
X123650306Y-143316627D01*
X123375868Y-143202951D01*
X123084525Y-143145000D01*
X122787475Y-143145000D01*
X122496132Y-143202951D01*
X122221694Y-143316627D01*
X121974706Y-143481660D01*
X121764660Y-143691706D01*
X121599627Y-143938694D01*
X121485951Y-144213132D01*
X121428000Y-144504475D01*
X108988173Y-144504475D01*
X108224453Y-143740755D01*
X108116647Y-143652280D01*
X107993651Y-143586537D01*
X107860192Y-143546053D01*
X107721400Y-143532383D01*
X107582608Y-143546053D01*
X107533128Y-143561063D01*
X107471554Y-143251513D01*
X107350340Y-142958876D01*
X107174364Y-142695509D01*
X106950389Y-142471534D01*
X106687022Y-142295558D01*
X106394385Y-142174344D01*
X106083723Y-142112549D01*
X105766975Y-142112549D01*
X105456313Y-142174344D01*
X105163676Y-142295558D01*
X104900309Y-142471534D01*
X104676334Y-142695509D01*
X104500358Y-142958876D01*
X104379144Y-143251513D01*
X104317349Y-143562175D01*
X102078059Y-143562175D01*
X102060685Y-142832773D01*
X102077142Y-142012030D01*
X102106232Y-141505628D01*
X108078149Y-141505628D01*
X108078149Y-141842074D01*
X108143787Y-142172056D01*
X108272539Y-142482892D01*
X108459459Y-142762637D01*
X108697363Y-143000541D01*
X108977108Y-143187461D01*
X109287944Y-143316213D01*
X109617926Y-143381851D01*
X109954372Y-143381851D01*
X110284354Y-143316213D01*
X110595190Y-143187461D01*
X110874935Y-143000541D01*
X111112839Y-142762637D01*
X111299759Y-142482892D01*
X111428511Y-142172056D01*
X111494149Y-141842074D01*
X111494149Y-141505628D01*
X111428511Y-141175646D01*
X111299759Y-140864810D01*
X111112839Y-140585065D01*
X110874935Y-140347161D01*
X110595190Y-140160241D01*
X110284354Y-140031489D01*
X109954372Y-139965851D01*
X109617926Y-139965851D01*
X109287944Y-140031489D01*
X108977108Y-140160241D01*
X108697363Y-140347161D01*
X108459459Y-140585065D01*
X108272539Y-140864810D01*
X108143787Y-141175646D01*
X108078149Y-141505628D01*
X102106232Y-141505628D01*
X102129505Y-141100505D01*
X102219524Y-140092570D01*
X102348779Y-138982762D01*
X102498076Y-137913526D01*
X111670251Y-137913526D01*
X111670251Y-138249972D01*
X111735889Y-138579954D01*
X111864641Y-138890790D01*
X112051561Y-139170535D01*
X112289465Y-139408439D01*
X112569210Y-139595359D01*
X112880046Y-139724111D01*
X113210028Y-139789749D01*
X113546474Y-139789749D01*
X113876456Y-139724111D01*
X114187292Y-139595359D01*
X114467037Y-139408439D01*
X114704941Y-139170535D01*
X114741513Y-139115800D01*
X117689604Y-139115800D01*
X117703274Y-139254592D01*
X117743758Y-139388051D01*
X117809501Y-139511047D01*
X117897976Y-139618853D01*
X119029347Y-140750224D01*
X119137153Y-140838699D01*
X119260149Y-140904442D01*
X119393608Y-140944926D01*
X119532400Y-140958596D01*
X119671192Y-140944926D01*
X119804651Y-140904442D01*
X119927647Y-140838699D01*
X120035453Y-140750224D01*
X121166824Y-139618853D01*
X121255299Y-139511047D01*
X121321042Y-139388051D01*
X121361526Y-139254592D01*
X121375196Y-139115800D01*
X121361526Y-138977008D01*
X121321042Y-138843549D01*
X121255299Y-138720553D01*
X121166824Y-138612747D01*
X120035453Y-137481376D01*
X119927647Y-137392901D01*
X119804651Y-137327158D01*
X119671192Y-137286674D01*
X119532400Y-137273004D01*
X119393608Y-137286674D01*
X119260149Y-137327158D01*
X119137153Y-137392901D01*
X119029347Y-137481376D01*
X117897976Y-138612747D01*
X117809501Y-138720553D01*
X117743758Y-138843549D01*
X117703274Y-138977008D01*
X117689604Y-139115800D01*
X114741513Y-139115800D01*
X114891861Y-138890790D01*
X115020613Y-138579954D01*
X115086251Y-138249972D01*
X115086251Y-137913526D01*
X115020613Y-137583544D01*
X114891861Y-137272708D01*
X114704941Y-136992963D01*
X114467037Y-136755059D01*
X114187292Y-136568139D01*
X113876456Y-136439387D01*
X113546474Y-136373749D01*
X113210028Y-136373749D01*
X112880046Y-136439387D01*
X112569210Y-136568139D01*
X112289465Y-136755059D01*
X112051561Y-136992963D01*
X111864641Y-137272708D01*
X111735889Y-137583544D01*
X111670251Y-137913526D01*
X102498076Y-137913526D01*
X102518778Y-137765269D01*
X102730912Y-136434542D01*
X102986571Y-134984625D01*
X103287075Y-133409739D01*
X103617659Y-131783070D01*
X110840195Y-131783070D01*
X110840195Y-132080120D01*
X110898146Y-132371463D01*
X111011822Y-132645901D01*
X111176855Y-132892889D01*
X111386901Y-133102935D01*
X111633889Y-133267968D01*
X111908327Y-133381644D01*
X112199670Y-133439595D01*
X112496720Y-133439595D01*
X112788063Y-133381644D01*
X113062501Y-133267968D01*
X113309489Y-133102935D01*
X113519535Y-132892889D01*
X113619936Y-132742628D01*
X116815749Y-132742628D01*
X116815749Y-133079074D01*
X116881387Y-133409056D01*
X117010139Y-133719892D01*
X117197059Y-133999637D01*
X117434963Y-134237541D01*
X117714708Y-134424461D01*
X118025544Y-134553213D01*
X118355526Y-134618851D01*
X118691972Y-134618851D01*
X119021954Y-134553213D01*
X119332790Y-134424461D01*
X119612535Y-134237541D01*
X119850439Y-133999637D01*
X120037359Y-133719892D01*
X120166111Y-133409056D01*
X120231749Y-133079074D01*
X120231749Y-132742628D01*
X120166111Y-132412646D01*
X120037359Y-132101810D01*
X119850439Y-131822065D01*
X119612535Y-131584161D01*
X119332790Y-131397241D01*
X119021954Y-131268489D01*
X118691972Y-131202851D01*
X118355526Y-131202851D01*
X118025544Y-131268489D01*
X117714708Y-131397241D01*
X117434963Y-131584161D01*
X117197059Y-131822065D01*
X117010139Y-132101810D01*
X116881387Y-132412646D01*
X116815749Y-132742628D01*
X113619936Y-132742628D01*
X113684568Y-132645901D01*
X113798244Y-132371463D01*
X113856195Y-132080120D01*
X113856195Y-131783070D01*
X113798244Y-131491727D01*
X113684568Y-131217289D01*
X113519535Y-130970301D01*
X113309489Y-130760255D01*
X113062501Y-130595222D01*
X112788063Y-130481546D01*
X112496720Y-130423595D01*
X112199670Y-130423595D01*
X111908327Y-130481546D01*
X111633889Y-130595222D01*
X111386901Y-130760255D01*
X111176855Y-130970301D01*
X111011822Y-131217289D01*
X110898146Y-131491727D01*
X110840195Y-131783070D01*
X103617659Y-131783070D01*
X103633762Y-131703837D01*
X104027909Y-129861078D01*
X104186399Y-129150526D01*
X120407851Y-129150526D01*
X120407851Y-129486972D01*
X120473489Y-129816954D01*
X120602241Y-130127790D01*
X120789161Y-130407535D01*
X121027065Y-130645439D01*
X121306810Y-130832359D01*
X121617646Y-130961111D01*
X121947628Y-131026749D01*
X122284074Y-131026749D01*
X122614056Y-130961111D01*
X122924892Y-130832359D01*
X123204637Y-130645439D01*
X123442541Y-130407535D01*
X123479113Y-130352800D01*
X126452604Y-130352800D01*
X126466274Y-130491592D01*
X126506758Y-130625051D01*
X126572501Y-130748047D01*
X126660976Y-130855853D01*
X127792347Y-131987224D01*
X127900153Y-132075699D01*
X128023149Y-132141442D01*
X128156608Y-132181926D01*
X128295400Y-132195596D01*
X128434192Y-132181926D01*
X128567651Y-132141442D01*
X128690647Y-132075699D01*
X128798453Y-131987224D01*
X129929824Y-130855853D01*
X130018299Y-130748047D01*
X130084042Y-130625051D01*
X130124526Y-130491592D01*
X130138196Y-130352800D01*
X130124526Y-130214008D01*
X130084042Y-130080549D01*
X130018299Y-129957553D01*
X129929824Y-129849747D01*
X128798453Y-128718376D01*
X128690647Y-128629901D01*
X128567651Y-128564158D01*
X128434192Y-128523674D01*
X128295400Y-128510004D01*
X128156608Y-128523674D01*
X128023149Y-128564158D01*
X127900153Y-128629901D01*
X127792347Y-128718376D01*
X126660976Y-129849747D01*
X126572501Y-129957553D01*
X126506758Y-130080549D01*
X126466274Y-130214008D01*
X126452604Y-130352800D01*
X123479113Y-130352800D01*
X123629461Y-130127790D01*
X123758213Y-129816954D01*
X123823851Y-129486972D01*
X123823851Y-129150526D01*
X123758213Y-128820544D01*
X123629461Y-128509708D01*
X123442541Y-128229963D01*
X123204637Y-127992059D01*
X122924892Y-127805139D01*
X122614056Y-127676387D01*
X122284074Y-127610749D01*
X121947628Y-127610749D01*
X121617646Y-127676387D01*
X121306810Y-127805139D01*
X121027065Y-127992059D01*
X120789161Y-128229963D01*
X120602241Y-128509708D01*
X120473489Y-128820544D01*
X120407851Y-129150526D01*
X104186399Y-129150526D01*
X104470802Y-127875484D01*
X104963771Y-125740828D01*
X105508078Y-123451171D01*
X105613080Y-123020070D01*
X119603195Y-123020070D01*
X119603195Y-123317120D01*
X119661146Y-123608463D01*
X119774822Y-123882901D01*
X119939855Y-124129889D01*
X120149901Y-124339935D01*
X120396889Y-124504968D01*
X120671327Y-124618644D01*
X120962670Y-124676595D01*
X121259720Y-124676595D01*
X121551063Y-124618644D01*
X121825501Y-124504968D01*
X122072489Y-124339935D01*
X122282535Y-124129889D01*
X122447568Y-123882901D01*
X122561244Y-123608463D01*
X122619195Y-123317120D01*
X122619195Y-123020070D01*
X122561244Y-122728727D01*
X122447568Y-122454289D01*
X122282535Y-122207301D01*
X122072489Y-121997255D01*
X121825501Y-121832222D01*
X121551063Y-121718546D01*
X121259720Y-121660595D01*
X120962670Y-121660595D01*
X120671327Y-121718546D01*
X120396889Y-121832222D01*
X120149901Y-121997255D01*
X119939855Y-122207301D01*
X119774822Y-122454289D01*
X119661146Y-122728727D01*
X119603195Y-123020070D01*
X105613080Y-123020070D01*
X106105029Y-121000323D01*
X106755981Y-118381913D01*
X107462149Y-115590107D01*
X108224786Y-112618915D01*
X108335926Y-112191266D01*
X121356000Y-112191266D01*
X121356000Y-112852734D01*
X121485046Y-113501492D01*
X121738179Y-114112609D01*
X122105671Y-114662600D01*
X122573400Y-115130329D01*
X123123391Y-115497821D01*
X123734508Y-115750954D01*
X124383266Y-115880000D01*
X125044734Y-115880000D01*
X125693492Y-115750954D01*
X126304609Y-115497821D01*
X126854600Y-115130329D01*
X127322329Y-114662600D01*
X127454947Y-114464122D01*
X133325939Y-118003372D01*
X133378109Y-118198075D01*
X133427235Y-118328600D01*
X133500882Y-118447033D01*
X133596218Y-118548823D01*
X133709580Y-118630057D01*
X133836613Y-118687615D01*
X133854132Y-118691700D01*
X133801735Y-118807343D01*
X133734283Y-119096632D01*
X133724564Y-119393522D01*
X133772952Y-119686605D01*
X133877589Y-119964616D01*
X134034451Y-120216871D01*
X134237512Y-120433676D01*
X134478969Y-120606701D01*
X134749542Y-120729296D01*
X134770359Y-120734150D01*
X134754756Y-120748764D01*
X134581731Y-120990221D01*
X134459136Y-121260794D01*
X134391684Y-121550083D01*
X134381965Y-121846973D01*
X134430353Y-122140056D01*
X134534990Y-122418067D01*
X134689224Y-122666095D01*
X134206027Y-123804790D01*
X134173586Y-123876502D01*
X134161012Y-123930572D01*
X134144436Y-123983568D01*
X134140800Y-124017491D01*
X134133074Y-124050713D01*
X134131290Y-124106201D01*
X134125372Y-124161410D01*
X134128423Y-124195385D01*
X134127327Y-124229480D01*
X134136404Y-124284260D01*
X134141370Y-124339552D01*
X134163568Y-124415064D01*
X135808823Y-130540749D01*
X133935446Y-132383534D01*
X133860832Y-132368693D01*
X133563782Y-132368693D01*
X133272439Y-132426644D01*
X132998001Y-132540320D01*
X132751013Y-132705353D01*
X132540967Y-132915399D01*
X132375934Y-133162387D01*
X132262258Y-133436825D01*
X132204307Y-133728168D01*
X132204307Y-134025218D01*
X132262258Y-134316561D01*
X132375934Y-134590999D01*
X132540967Y-134837987D01*
X132751013Y-135048033D01*
X132998001Y-135213066D01*
X133272439Y-135326742D01*
X133563782Y-135384693D01*
X133860832Y-135384693D01*
X134152175Y-135326742D01*
X134426613Y-135213066D01*
X134673601Y-135048033D01*
X134883647Y-134837987D01*
X135048680Y-134590999D01*
X135162356Y-134316561D01*
X135220307Y-134025218D01*
X135220307Y-133728168D01*
X135210128Y-133676995D01*
X137046250Y-131870858D01*
X137059954Y-131953863D01*
X137164591Y-132231874D01*
X137321453Y-132484129D01*
X137524514Y-132700934D01*
X137765971Y-132873959D01*
X138036544Y-132996554D01*
X138057361Y-133001408D01*
X138041758Y-133016022D01*
X137868733Y-133257479D01*
X137746138Y-133528052D01*
X137678686Y-133817341D01*
X137668967Y-134114231D01*
X137717355Y-134407314D01*
X137821992Y-134685325D01*
X137978854Y-134937580D01*
X138181915Y-135154385D01*
X138423372Y-135327410D01*
X138693945Y-135450005D01*
X138983234Y-135517457D01*
X139280124Y-135527176D01*
X139499764Y-135490913D01*
X139786866Y-135413984D01*
X143088771Y-137911508D01*
X143110423Y-138020361D01*
X143201484Y-138240203D01*
X143333685Y-138438055D01*
X143501945Y-138606315D01*
X143699797Y-138738516D01*
X143919639Y-138829577D01*
X144153022Y-138876000D01*
X144390978Y-138876000D01*
X144624361Y-138829577D01*
X144844203Y-138738516D01*
X145042055Y-138606315D01*
X145210315Y-138438055D01*
X145342516Y-138240203D01*
X145433577Y-138020361D01*
X145480000Y-137786978D01*
X145480000Y-137549022D01*
X145433577Y-137315639D01*
X145342516Y-137095797D01*
X145210315Y-136897945D01*
X145042055Y-136729685D01*
X144844203Y-136597484D01*
X144624361Y-136506423D01*
X144390978Y-136460000D01*
X144180103Y-136460000D01*
X141069785Y-134107391D01*
X141079439Y-133812491D01*
X141031051Y-133519408D01*
X140926415Y-133241397D01*
X140769552Y-132989142D01*
X140566491Y-132772337D01*
X140325034Y-132599312D01*
X140054462Y-132476717D01*
X140033644Y-132471863D01*
X140041104Y-132464875D01*
X142383000Y-132464875D01*
X142383000Y-132761925D01*
X142440951Y-133053268D01*
X142554627Y-133327706D01*
X142719660Y-133574694D01*
X142929706Y-133784740D01*
X143176694Y-133949773D01*
X143451132Y-134063449D01*
X143742475Y-134121400D01*
X144039525Y-134121400D01*
X144330868Y-134063449D01*
X144605306Y-133949773D01*
X144852294Y-133784740D01*
X145062340Y-133574694D01*
X145227373Y-133327706D01*
X145341049Y-133053268D01*
X145399000Y-132761925D01*
X145399000Y-132464875D01*
X145341049Y-132173532D01*
X145227373Y-131899094D01*
X145062340Y-131652106D01*
X144852294Y-131442060D01*
X144672426Y-131321875D01*
X146726400Y-131321875D01*
X146726400Y-131618925D01*
X146784351Y-131910268D01*
X146898027Y-132184706D01*
X147063060Y-132431694D01*
X147273106Y-132641740D01*
X147520094Y-132806773D01*
X147794532Y-132920449D01*
X148085875Y-132978400D01*
X148382925Y-132978400D01*
X148674268Y-132920449D01*
X148948706Y-132806773D01*
X149195694Y-132641740D01*
X149405740Y-132431694D01*
X149570773Y-132184706D01*
X149684449Y-131910268D01*
X149742400Y-131618925D01*
X149742400Y-131321875D01*
X149684449Y-131030532D01*
X149570773Y-130756094D01*
X149405740Y-130509106D01*
X149195694Y-130299060D01*
X148977812Y-130153475D01*
X151069800Y-130153475D01*
X151069800Y-130450525D01*
X151127751Y-130741868D01*
X151241427Y-131016306D01*
X151406460Y-131263294D01*
X151616506Y-131473340D01*
X151863494Y-131638373D01*
X152137932Y-131752049D01*
X152429275Y-131810000D01*
X152726325Y-131810000D01*
X153017668Y-131752049D01*
X153292106Y-131638373D01*
X153539094Y-131473340D01*
X153749140Y-131263294D01*
X153914173Y-131016306D01*
X154027849Y-130741868D01*
X154085800Y-130450525D01*
X154085800Y-130153475D01*
X154027849Y-129862132D01*
X153914173Y-129587694D01*
X153749140Y-129340706D01*
X153539094Y-129130660D01*
X153321212Y-128985075D01*
X155337000Y-128985075D01*
X155337000Y-129282125D01*
X155394951Y-129573468D01*
X155508627Y-129847906D01*
X155673660Y-130094894D01*
X155883706Y-130304940D01*
X156130694Y-130469973D01*
X156405132Y-130583649D01*
X156696475Y-130641600D01*
X156993525Y-130641600D01*
X157284868Y-130583649D01*
X157559306Y-130469973D01*
X157806294Y-130304940D01*
X158016340Y-130094894D01*
X158181373Y-129847906D01*
X158295049Y-129573468D01*
X158353000Y-129282125D01*
X158353000Y-128985075D01*
X158295049Y-128693732D01*
X158181373Y-128419294D01*
X158016340Y-128172306D01*
X157806294Y-127962260D01*
X157559306Y-127797227D01*
X157284868Y-127683551D01*
X156993525Y-127625600D01*
X156696475Y-127625600D01*
X156405132Y-127683551D01*
X156130694Y-127797227D01*
X155883706Y-127962260D01*
X155673660Y-128172306D01*
X155508627Y-128419294D01*
X155394951Y-128693732D01*
X155337000Y-128985075D01*
X153321212Y-128985075D01*
X153292106Y-128965627D01*
X153017668Y-128851951D01*
X152726325Y-128794000D01*
X152429275Y-128794000D01*
X152137932Y-128851951D01*
X151863494Y-128965627D01*
X151616506Y-129130660D01*
X151406460Y-129340706D01*
X151241427Y-129587694D01*
X151127751Y-129862132D01*
X151069800Y-130153475D01*
X148977812Y-130153475D01*
X148948706Y-130134027D01*
X148674268Y-130020351D01*
X148382925Y-129962400D01*
X148085875Y-129962400D01*
X147794532Y-130020351D01*
X147520094Y-130134027D01*
X147273106Y-130299060D01*
X147063060Y-130509106D01*
X146898027Y-130756094D01*
X146784351Y-131030532D01*
X146726400Y-131321875D01*
X144672426Y-131321875D01*
X144605306Y-131277027D01*
X144330868Y-131163351D01*
X144039525Y-131105400D01*
X143742475Y-131105400D01*
X143451132Y-131163351D01*
X143176694Y-131277027D01*
X142929706Y-131442060D01*
X142719660Y-131652106D01*
X142554627Y-131899094D01*
X142440951Y-132173532D01*
X142383000Y-132464875D01*
X140041104Y-132464875D01*
X140049247Y-132457249D01*
X140222272Y-132215792D01*
X140344867Y-131945219D01*
X140412319Y-131655930D01*
X140422038Y-131359040D01*
X140373650Y-131065957D01*
X140269014Y-130787946D01*
X140112151Y-130535691D01*
X139909090Y-130318886D01*
X139667633Y-130145861D01*
X139397061Y-130023266D01*
X139376243Y-130018412D01*
X139391847Y-130003797D01*
X139564872Y-129762340D01*
X139687467Y-129491767D01*
X139754919Y-129202478D01*
X139764638Y-128905588D01*
X139716250Y-128612505D01*
X139611614Y-128334494D01*
X139454751Y-128082239D01*
X139251690Y-127865434D01*
X139010233Y-127692409D01*
X138739661Y-127569814D01*
X138718842Y-127564960D01*
X138734446Y-127550345D01*
X138907471Y-127308888D01*
X139030066Y-127038315D01*
X139097518Y-126749026D01*
X139107237Y-126452136D01*
X139058849Y-126159053D01*
X138954213Y-125881042D01*
X138797350Y-125628787D01*
X138594289Y-125411982D01*
X138352832Y-125238957D01*
X138082260Y-125116362D01*
X138061443Y-125111508D01*
X138077046Y-125096894D01*
X138250071Y-124855437D01*
X138372666Y-124584864D01*
X138440118Y-124295575D01*
X138449837Y-123998685D01*
X138401449Y-123705602D01*
X138296813Y-123427591D01*
X138139950Y-123175336D01*
X137936889Y-122958531D01*
X137695432Y-122785506D01*
X137424860Y-122662911D01*
X137404042Y-122658057D01*
X137419646Y-122643442D01*
X137592671Y-122401985D01*
X137715266Y-122131412D01*
X137782718Y-121842123D01*
X137792437Y-121545233D01*
X137744049Y-121252150D01*
X137639413Y-120974139D01*
X137482550Y-120721884D01*
X137279489Y-120505079D01*
X137038032Y-120332054D01*
X136767460Y-120209459D01*
X136746642Y-120204605D01*
X136762245Y-120189991D01*
X136935270Y-119948534D01*
X137057865Y-119677961D01*
X137125317Y-119388672D01*
X137135036Y-119091782D01*
X137095738Y-118853755D01*
X138552362Y-118467304D01*
X138610225Y-118606996D01*
X138775258Y-118853984D01*
X138985304Y-119064030D01*
X139232292Y-119229063D01*
X139506730Y-119342739D01*
X139798073Y-119400690D01*
X140095123Y-119400690D01*
X140386466Y-119342739D01*
X140660904Y-119229063D01*
X140907892Y-119064030D01*
X141117938Y-118853984D01*
X141282971Y-118606996D01*
X141396647Y-118332558D01*
X141454598Y-118041215D01*
X141454598Y-117744165D01*
X141445748Y-117699671D01*
X142892280Y-117315897D01*
X142953625Y-117463996D01*
X143118658Y-117710984D01*
X143328704Y-117921030D01*
X143575692Y-118086063D01*
X143850130Y-118199739D01*
X144141473Y-118257690D01*
X144438523Y-118257690D01*
X144729866Y-118199739D01*
X145004304Y-118086063D01*
X145251292Y-117921030D01*
X145461338Y-117710984D01*
X145626371Y-117463996D01*
X145740047Y-117189558D01*
X145797998Y-116898215D01*
X145797998Y-116601165D01*
X145787385Y-116547808D01*
X147241677Y-116161975D01*
X147297025Y-116295596D01*
X147462058Y-116542584D01*
X147672104Y-116752630D01*
X147919092Y-116917663D01*
X148193530Y-117031339D01*
X148484873Y-117089290D01*
X148781923Y-117089290D01*
X149073266Y-117031339D01*
X149347704Y-116917663D01*
X149594692Y-116752630D01*
X149804738Y-116542584D01*
X149969771Y-116295596D01*
X150083447Y-116021158D01*
X150141398Y-115729815D01*
X150141398Y-115432765D01*
X150133821Y-115394672D01*
X151522419Y-115026268D01*
X151564225Y-115127196D01*
X151729258Y-115374184D01*
X151939304Y-115584230D01*
X152186292Y-115749263D01*
X152335756Y-115811173D01*
X153250265Y-119218495D01*
X153260678Y-119273219D01*
X153290098Y-119345953D01*
X153317824Y-119419525D01*
X153323634Y-119428859D01*
X153327747Y-119439028D01*
X153370793Y-119504626D01*
X153412338Y-119571374D01*
X153419855Y-119579393D01*
X153425875Y-119588567D01*
X153480922Y-119644539D01*
X153534660Y-119701866D01*
X153543590Y-119708259D01*
X153551290Y-119716089D01*
X153616216Y-119760257D01*
X153680089Y-119805988D01*
X153690098Y-119810518D01*
X153699175Y-119816693D01*
X153771467Y-119847345D01*
X153843038Y-119879737D01*
X153897319Y-119892370D01*
X157824415Y-121119432D01*
X157826218Y-121130356D01*
X157930855Y-121408367D01*
X158087717Y-121660622D01*
X158290778Y-121877427D01*
X158532235Y-122050452D01*
X158802808Y-122173047D01*
X158823625Y-122177901D01*
X158808021Y-122192516D01*
X158634996Y-122433973D01*
X158512401Y-122704546D01*
X158444949Y-122993835D01*
X158435230Y-123290725D01*
X158483618Y-123583808D01*
X158588255Y-123861819D01*
X158745117Y-124114074D01*
X158948178Y-124330879D01*
X159189635Y-124503904D01*
X159460208Y-124626499D01*
X159481025Y-124631353D01*
X159465422Y-124645967D01*
X159292397Y-124887424D01*
X159169802Y-125157997D01*
X159102350Y-125447286D01*
X159092631Y-125744176D01*
X159141019Y-126037259D01*
X159245656Y-126315270D01*
X159402518Y-126567525D01*
X159605579Y-126784330D01*
X159847036Y-126957355D01*
X160117609Y-127079950D01*
X160138426Y-127084804D01*
X160122822Y-127099419D01*
X159949797Y-127340876D01*
X159827202Y-127611449D01*
X159759750Y-127900738D01*
X159750031Y-128197628D01*
X159798419Y-128490711D01*
X159903056Y-128768722D01*
X160059918Y-129020977D01*
X160262979Y-129237782D01*
X160504436Y-129410807D01*
X160775009Y-129533402D01*
X161064298Y-129600854D01*
X161361188Y-129610573D01*
X161580828Y-129574310D01*
X162110306Y-129432436D01*
X162318652Y-129354020D01*
X162570907Y-129197157D01*
X162770225Y-129010475D01*
X179441600Y-129010475D01*
X179441600Y-129307525D01*
X179499551Y-129598868D01*
X179613227Y-129873306D01*
X179778260Y-130120294D01*
X179988306Y-130330340D01*
X180235294Y-130495373D01*
X180509732Y-130609049D01*
X180801075Y-130667000D01*
X181098125Y-130667000D01*
X181389468Y-130609049D01*
X181663906Y-130495373D01*
X181910894Y-130330340D01*
X182120940Y-130120294D01*
X182285973Y-129873306D01*
X182399649Y-129598868D01*
X182457600Y-129307525D01*
X182457600Y-129010475D01*
X182399649Y-128719132D01*
X182285973Y-128444694D01*
X182120940Y-128197706D01*
X181910894Y-127987660D01*
X181663906Y-127822627D01*
X181389468Y-127708951D01*
X181098125Y-127651000D01*
X180801075Y-127651000D01*
X180509732Y-127708951D01*
X180235294Y-127822627D01*
X179988306Y-127987660D01*
X179778260Y-128197706D01*
X179613227Y-128444694D01*
X179499551Y-128719132D01*
X179441600Y-129010475D01*
X162770225Y-129010475D01*
X162787712Y-128994097D01*
X162960737Y-128752640D01*
X163083332Y-128482067D01*
X163150784Y-128192778D01*
X163160503Y-127895888D01*
X163112115Y-127602805D01*
X163007479Y-127324794D01*
X162850616Y-127072539D01*
X162647555Y-126855734D01*
X162406098Y-126682709D01*
X162135526Y-126560114D01*
X162114708Y-126555260D01*
X162130312Y-126540645D01*
X162303337Y-126299188D01*
X162425932Y-126028615D01*
X162493384Y-125739326D01*
X162503103Y-125442436D01*
X162454715Y-125149353D01*
X162442780Y-125117642D01*
X164827410Y-125771722D01*
X164892517Y-125928904D01*
X165057550Y-126175892D01*
X165267596Y-126385938D01*
X165514584Y-126550971D01*
X165789022Y-126664647D01*
X166080365Y-126722598D01*
X166377415Y-126722598D01*
X166668758Y-126664647D01*
X166943196Y-126550971D01*
X167190184Y-126385938D01*
X167400230Y-126175892D01*
X167565263Y-125928904D01*
X167678939Y-125654466D01*
X167736890Y-125363123D01*
X167736890Y-125066073D01*
X167678939Y-124774730D01*
X167565263Y-124500292D01*
X167400230Y-124253304D01*
X167190184Y-124043258D01*
X166943196Y-123878225D01*
X166668758Y-123764549D01*
X166377415Y-123706598D01*
X166080365Y-123706598D01*
X165789022Y-123764549D01*
X165514584Y-123878225D01*
X165303534Y-124019245D01*
X161843048Y-123070068D01*
X161845702Y-122988985D01*
X161797314Y-122695902D01*
X161711042Y-122466681D01*
X179631399Y-122466681D01*
X179631399Y-122763731D01*
X179689350Y-123055074D01*
X179803026Y-123329512D01*
X179968059Y-123576500D01*
X180178105Y-123786546D01*
X180425093Y-123951579D01*
X180699531Y-124065255D01*
X180990874Y-124123206D01*
X181287924Y-124123206D01*
X181579267Y-124065255D01*
X181853705Y-123951579D01*
X182100693Y-123786546D01*
X182310739Y-123576500D01*
X182475772Y-123329512D01*
X182589448Y-123055074D01*
X182647399Y-122763731D01*
X182647399Y-122466681D01*
X182589448Y-122175338D01*
X182554857Y-122091826D01*
X192981400Y-122091826D01*
X192981400Y-122408574D01*
X193043195Y-122719236D01*
X193164409Y-123011873D01*
X193340385Y-123275240D01*
X193564360Y-123499215D01*
X193827727Y-123675191D01*
X194120364Y-123796405D01*
X194431026Y-123858200D01*
X194747774Y-123858200D01*
X195058436Y-123796405D01*
X195351073Y-123675191D01*
X195614440Y-123499215D01*
X195838415Y-123275240D01*
X196014391Y-123011873D01*
X196135605Y-122719236D01*
X196197400Y-122408574D01*
X196197400Y-122091826D01*
X196135605Y-121781164D01*
X196054767Y-121586004D01*
X196111876Y-121572688D01*
X196238909Y-121515130D01*
X196352271Y-121433896D01*
X196447607Y-121332106D01*
X196521254Y-121213673D01*
X196570380Y-121083148D01*
X197036254Y-119344482D01*
X197058972Y-119206881D01*
X197054409Y-119067492D01*
X197022740Y-118931672D01*
X196965182Y-118804639D01*
X196883948Y-118691277D01*
X196782158Y-118595941D01*
X196663725Y-118522294D01*
X196533200Y-118473168D01*
X194794534Y-118007294D01*
X194656933Y-117984576D01*
X194517544Y-117989139D01*
X194381724Y-118020808D01*
X194254691Y-118078366D01*
X194141329Y-118159600D01*
X194045993Y-118261390D01*
X193972346Y-118379823D01*
X193923220Y-118510348D01*
X193457346Y-120249014D01*
X193434628Y-120386615D01*
X193439191Y-120526004D01*
X193470860Y-120661824D01*
X193528418Y-120788857D01*
X193609652Y-120902219D01*
X193652464Y-120942316D01*
X193564360Y-121001185D01*
X193340385Y-121225160D01*
X193164409Y-121488527D01*
X193043195Y-121781164D01*
X192981400Y-122091826D01*
X182554857Y-122091826D01*
X182475772Y-121900900D01*
X182310739Y-121653912D01*
X182100693Y-121443866D01*
X181853705Y-121278833D01*
X181579267Y-121165157D01*
X181287924Y-121107206D01*
X180990874Y-121107206D01*
X180699531Y-121165157D01*
X180425093Y-121278833D01*
X180178105Y-121443866D01*
X179968059Y-121653912D01*
X179803026Y-121900900D01*
X179689350Y-122175338D01*
X179631399Y-122466681D01*
X161711042Y-122466681D01*
X161692678Y-122417891D01*
X161535815Y-122165636D01*
X161332754Y-121948831D01*
X161091297Y-121775806D01*
X160820725Y-121653211D01*
X160799907Y-121648357D01*
X160815511Y-121633742D01*
X160988536Y-121392285D01*
X161111131Y-121121712D01*
X161178583Y-120832423D01*
X161188302Y-120535533D01*
X161139914Y-120242450D01*
X161035278Y-119964439D01*
X160878415Y-119712184D01*
X160675354Y-119495379D01*
X160433897Y-119322354D01*
X160310142Y-119266281D01*
X167693399Y-119266281D01*
X167693399Y-119563331D01*
X167751350Y-119854674D01*
X167865026Y-120129112D01*
X168030059Y-120376100D01*
X168240105Y-120586146D01*
X168487093Y-120751179D01*
X168761531Y-120864855D01*
X169052874Y-120922806D01*
X169349924Y-120922806D01*
X169641267Y-120864855D01*
X169915705Y-120751179D01*
X170162693Y-120586146D01*
X170372739Y-120376100D01*
X170537772Y-120129112D01*
X170651448Y-119854674D01*
X170709399Y-119563331D01*
X170709399Y-119266281D01*
X170651448Y-118974938D01*
X170537772Y-118700500D01*
X170389220Y-118478177D01*
X184281148Y-118478177D01*
X184281148Y-118814623D01*
X184346786Y-119144605D01*
X184475538Y-119455441D01*
X184662458Y-119735186D01*
X184900362Y-119973090D01*
X185180107Y-120160010D01*
X185490943Y-120288762D01*
X185820925Y-120354400D01*
X186157371Y-120354400D01*
X186487353Y-120288762D01*
X186798189Y-120160010D01*
X187077934Y-119973090D01*
X187258047Y-119792977D01*
X189188052Y-119792977D01*
X189188052Y-120129423D01*
X189253690Y-120459405D01*
X189382442Y-120770241D01*
X189569362Y-121049986D01*
X189807266Y-121287890D01*
X190087011Y-121474810D01*
X190397847Y-121603562D01*
X190727829Y-121669200D01*
X191064275Y-121669200D01*
X191394257Y-121603562D01*
X191705093Y-121474810D01*
X191984838Y-121287890D01*
X192222742Y-121049986D01*
X192409662Y-120770241D01*
X192538414Y-120459405D01*
X192604052Y-120129423D01*
X192604052Y-119792977D01*
X192538414Y-119462995D01*
X192409662Y-119152159D01*
X192222742Y-118872414D01*
X191984838Y-118634510D01*
X191705093Y-118447590D01*
X191394257Y-118318838D01*
X191064275Y-118253200D01*
X190727829Y-118253200D01*
X190397847Y-118318838D01*
X190087011Y-118447590D01*
X189807266Y-118634510D01*
X189569362Y-118872414D01*
X189382442Y-119152159D01*
X189253690Y-119462995D01*
X189188052Y-119792977D01*
X187258047Y-119792977D01*
X187315838Y-119735186D01*
X187502758Y-119455441D01*
X187631510Y-119144605D01*
X187697148Y-118814623D01*
X187697148Y-118478177D01*
X187631510Y-118148195D01*
X187502758Y-117837359D01*
X187315838Y-117557614D01*
X187077934Y-117319710D01*
X186798189Y-117132790D01*
X186487353Y-117004038D01*
X186157371Y-116938400D01*
X185820925Y-116938400D01*
X185490943Y-117004038D01*
X185180107Y-117132790D01*
X184900362Y-117319710D01*
X184662458Y-117557614D01*
X184475538Y-117837359D01*
X184346786Y-118148195D01*
X184281148Y-118478177D01*
X170389220Y-118478177D01*
X170372739Y-118453512D01*
X170162693Y-118243466D01*
X169915705Y-118078433D01*
X169641267Y-117964757D01*
X169349924Y-117906806D01*
X169052874Y-117906806D01*
X168761531Y-117964757D01*
X168487093Y-118078433D01*
X168240105Y-118243466D01*
X168030059Y-118453512D01*
X167865026Y-118700500D01*
X167751350Y-118974938D01*
X167693399Y-119266281D01*
X160310142Y-119266281D01*
X160163325Y-119199759D01*
X160142507Y-119194905D01*
X160158111Y-119180290D01*
X160331136Y-118938833D01*
X160453731Y-118668260D01*
X160521183Y-118378971D01*
X160530902Y-118082081D01*
X160482514Y-117788998D01*
X160377878Y-117510987D01*
X160221015Y-117258732D01*
X160017954Y-117041927D01*
X159776497Y-116868902D01*
X159505925Y-116746307D01*
X159485107Y-116741453D01*
X159500710Y-116726839D01*
X159673735Y-116485382D01*
X159796330Y-116214809D01*
X159863782Y-115925520D01*
X159873501Y-115628630D01*
X159825113Y-115335547D01*
X159802241Y-115274777D01*
X172332800Y-115274777D01*
X172332800Y-115611223D01*
X172398438Y-115941205D01*
X172527190Y-116252041D01*
X172714110Y-116531786D01*
X172952014Y-116769690D01*
X173231759Y-116956610D01*
X173542595Y-117085362D01*
X173872577Y-117151000D01*
X174209023Y-117151000D01*
X174539005Y-117085362D01*
X174849841Y-116956610D01*
X175129586Y-116769690D01*
X175309699Y-116589577D01*
X177239704Y-116589577D01*
X177239704Y-116926023D01*
X177305342Y-117256005D01*
X177434094Y-117566841D01*
X177621014Y-117846586D01*
X177858918Y-118084490D01*
X178138663Y-118271410D01*
X178449499Y-118400162D01*
X178779481Y-118465800D01*
X179115927Y-118465800D01*
X179445909Y-118400162D01*
X179756745Y-118271410D01*
X180036490Y-118084490D01*
X180274394Y-117846586D01*
X180461314Y-117566841D01*
X180590066Y-117256005D01*
X180655704Y-116926023D01*
X180655704Y-116589577D01*
X180590066Y-116259595D01*
X180461314Y-115948759D01*
X180274394Y-115669014D01*
X180036490Y-115431110D01*
X179756745Y-115244190D01*
X179445909Y-115115438D01*
X179115927Y-115049800D01*
X178779481Y-115049800D01*
X178449499Y-115115438D01*
X178138663Y-115244190D01*
X177858918Y-115431110D01*
X177621014Y-115669014D01*
X177434094Y-115948759D01*
X177305342Y-116259595D01*
X177239704Y-116589577D01*
X175309699Y-116589577D01*
X175367490Y-116531786D01*
X175554410Y-116252041D01*
X175683162Y-115941205D01*
X175748800Y-115611223D01*
X175748800Y-115274777D01*
X175683162Y-114944795D01*
X175554410Y-114633959D01*
X175367490Y-114354214D01*
X175129586Y-114116310D01*
X174849841Y-113929390D01*
X174539005Y-113800638D01*
X174209023Y-113735000D01*
X173872577Y-113735000D01*
X173542595Y-113800638D01*
X173231759Y-113929390D01*
X172952014Y-114116310D01*
X172714110Y-114354214D01*
X172527190Y-114633959D01*
X172398438Y-114944795D01*
X172332800Y-115274777D01*
X159802241Y-115274777D01*
X159720477Y-115057536D01*
X159563614Y-114805281D01*
X159360553Y-114588476D01*
X159119096Y-114415451D01*
X158848524Y-114292856D01*
X158827706Y-114288002D01*
X158843310Y-114273387D01*
X159016335Y-114031930D01*
X159138930Y-113761357D01*
X159206382Y-113472068D01*
X159211341Y-113320555D01*
X182079302Y-113320555D01*
X182083865Y-113459944D01*
X182115534Y-113595765D01*
X182173092Y-113722797D01*
X182254326Y-113836160D01*
X182356116Y-113931496D01*
X182474549Y-114005143D01*
X182605073Y-114054269D01*
X184150554Y-114468380D01*
X184288155Y-114491098D01*
X184427544Y-114486535D01*
X184563365Y-114454866D01*
X184690397Y-114397308D01*
X184803760Y-114316074D01*
X184899096Y-114214284D01*
X184972743Y-114095851D01*
X185021869Y-113965327D01*
X185435980Y-112419846D01*
X185458698Y-112282245D01*
X185454135Y-112142856D01*
X185422466Y-112007035D01*
X185364908Y-111880003D01*
X185283674Y-111766640D01*
X185181884Y-111671304D01*
X185063451Y-111597657D01*
X184932927Y-111548531D01*
X183387446Y-111134420D01*
X183249845Y-111111702D01*
X183110456Y-111116265D01*
X182974635Y-111147934D01*
X182847603Y-111205492D01*
X182734240Y-111286726D01*
X182638904Y-111388516D01*
X182565257Y-111506949D01*
X182516131Y-111637473D01*
X182102020Y-113182954D01*
X182079302Y-113320555D01*
X159211341Y-113320555D01*
X159216101Y-113175178D01*
X159167713Y-112882095D01*
X159063077Y-112604084D01*
X158906214Y-112351829D01*
X158703153Y-112135024D01*
X158461696Y-111961999D01*
X158404304Y-111935995D01*
X159396851Y-110120155D01*
X170141302Y-110120155D01*
X170145865Y-110259544D01*
X170177534Y-110395365D01*
X170235092Y-110522397D01*
X170316326Y-110635760D01*
X170418116Y-110731096D01*
X170536549Y-110804743D01*
X170667073Y-110853869D01*
X172212554Y-111267980D01*
X172350155Y-111290698D01*
X172489544Y-111286135D01*
X172625365Y-111254466D01*
X172752397Y-111196908D01*
X172865760Y-111115674D01*
X172961096Y-111013884D01*
X173034743Y-110895451D01*
X173083869Y-110764927D01*
X173497980Y-109219446D01*
X173520698Y-109081845D01*
X173516135Y-108942456D01*
X173484466Y-108806635D01*
X173426908Y-108679603D01*
X173345674Y-108566240D01*
X173243884Y-108470904D01*
X173125451Y-108397257D01*
X172994927Y-108348131D01*
X171449446Y-107934020D01*
X171311845Y-107911302D01*
X171172456Y-107915865D01*
X171036635Y-107947534D01*
X170909603Y-108005092D01*
X170796240Y-108086326D01*
X170700904Y-108188116D01*
X170627257Y-108306549D01*
X170578131Y-108437073D01*
X170164020Y-109982554D01*
X170141302Y-110120155D01*
X159396851Y-110120155D01*
X162039349Y-105285776D01*
X162469508Y-105463954D01*
X163118266Y-105593000D01*
X163779734Y-105593000D01*
X164428492Y-105463954D01*
X165039609Y-105210821D01*
X165589600Y-104843329D01*
X166057329Y-104375600D01*
X166424821Y-103825609D01*
X166677954Y-103214492D01*
X166807000Y-102565734D01*
X166807000Y-101904266D01*
X166677954Y-101255508D01*
X166424821Y-100644391D01*
X166057329Y-100094400D01*
X165589600Y-99626671D01*
X165039609Y-99259179D01*
X164428492Y-99006046D01*
X163779734Y-98877000D01*
X163118266Y-98877000D01*
X162469508Y-99006046D01*
X161858391Y-99259179D01*
X161703049Y-99362975D01*
X156695532Y-92244996D01*
X156865942Y-92074586D01*
X157052862Y-91794841D01*
X157181614Y-91484005D01*
X157247252Y-91154023D01*
X157247252Y-90817577D01*
X157181614Y-90487595D01*
X157052862Y-90176759D01*
X156865942Y-89897014D01*
X156628038Y-89659110D01*
X156348293Y-89472190D01*
X156037457Y-89343438D01*
X155707475Y-89277800D01*
X155371029Y-89277800D01*
X155041047Y-89343438D01*
X154730211Y-89472190D01*
X154450466Y-89659110D01*
X154212562Y-89897014D01*
X154025642Y-90176759D01*
X153896890Y-90487595D01*
X153831252Y-90817577D01*
X153831252Y-91154023D01*
X153852737Y-91262033D01*
X152230909Y-91696649D01*
X152145958Y-91491559D01*
X151959038Y-91211814D01*
X151721134Y-90973910D01*
X151441389Y-90786990D01*
X151130553Y-90658238D01*
X150800571Y-90592600D01*
X150464125Y-90592600D01*
X150134143Y-90658238D01*
X149823307Y-90786990D01*
X149543562Y-90973910D01*
X149305658Y-91211814D01*
X149118738Y-91491559D01*
X148989986Y-91802395D01*
X148924348Y-92132377D01*
X148924348Y-92468823D01*
X148945861Y-92576975D01*
X144772749Y-93695283D01*
X144683062Y-93478759D01*
X144496142Y-93199014D01*
X144258238Y-92961110D01*
X143978493Y-92774190D01*
X143667657Y-92645438D01*
X143337675Y-92579800D01*
X143001229Y-92579800D01*
X142671247Y-92645438D01*
X142360411Y-92774190D01*
X142080666Y-92961110D01*
X141842762Y-93199014D01*
X141655842Y-93478759D01*
X141527090Y-93789595D01*
X141461452Y-94119577D01*
X141461452Y-94456023D01*
X141485364Y-94576235D01*
X139865901Y-95010217D01*
X139776158Y-94793559D01*
X139589238Y-94513814D01*
X139351334Y-94275910D01*
X139071589Y-94088990D01*
X138760753Y-93960238D01*
X138430771Y-93894600D01*
X138094325Y-93894600D01*
X137764343Y-93960238D01*
X137453507Y-94088990D01*
X137173762Y-94275910D01*
X136935858Y-94513814D01*
X136748938Y-94793559D01*
X136620186Y-95104395D01*
X136554548Y-95434377D01*
X136554548Y-95770823D01*
X136578488Y-95891176D01*
X132375408Y-97017515D01*
X132287862Y-96806159D01*
X132100942Y-96526414D01*
X131863038Y-96288510D01*
X131583293Y-96101590D01*
X131272457Y-95972838D01*
X130942475Y-95907200D01*
X130606029Y-95907200D01*
X130276047Y-95972838D01*
X129965211Y-96101590D01*
X129685466Y-96288510D01*
X129447562Y-96526414D01*
X129260642Y-96806159D01*
X129131890Y-97116995D01*
X129066252Y-97446977D01*
X129066252Y-97783423D01*
X129089080Y-97898184D01*
X127468560Y-98332450D01*
X127380958Y-98120959D01*
X127194038Y-97841214D01*
X126956134Y-97603310D01*
X126676389Y-97416390D01*
X126365553Y-97287638D01*
X126035571Y-97222000D01*
X125699125Y-97222000D01*
X125369143Y-97287638D01*
X125058307Y-97416390D01*
X124778562Y-97603310D01*
X124540658Y-97841214D01*
X124353738Y-98120959D01*
X124224986Y-98431795D01*
X124159348Y-98761777D01*
X124159348Y-99098223D01*
X124224986Y-99428205D01*
X124353738Y-99739041D01*
X124540658Y-100018786D01*
X124778562Y-100256690D01*
X125058307Y-100443610D01*
X125369143Y-100572362D01*
X125569826Y-100612281D01*
X124837277Y-109164000D01*
X124383266Y-109164000D01*
X123734508Y-109293046D01*
X123123391Y-109546179D01*
X122573400Y-109913671D01*
X122105671Y-110381400D01*
X121738179Y-110931391D01*
X121485046Y-111542508D01*
X121356000Y-112191266D01*
X108335926Y-112191266D01*
X109045259Y-109461878D01*
X109924798Y-106113081D01*
X110864860Y-102565734D01*
X111863861Y-98824449D01*
X111864325Y-98823493D01*
X111892520Y-98715442D01*
X112892598Y-94995533D01*
X113853377Y-91448404D01*
X113928120Y-91174845D01*
X131533302Y-91174845D01*
X131556020Y-91312446D01*
X131970131Y-92857927D01*
X132019257Y-92988451D01*
X132092904Y-93106884D01*
X132188240Y-93208674D01*
X132301603Y-93289908D01*
X132428635Y-93347466D01*
X132564456Y-93379135D01*
X132703845Y-93383698D01*
X132841446Y-93360980D01*
X134386927Y-92946869D01*
X134517451Y-92897743D01*
X134635884Y-92824096D01*
X134737674Y-92728760D01*
X134818908Y-92615397D01*
X134876466Y-92488365D01*
X134908135Y-92352544D01*
X134912698Y-92213155D01*
X134889980Y-92075554D01*
X134475869Y-90530073D01*
X134426743Y-90399549D01*
X134353096Y-90281116D01*
X134257760Y-90179326D01*
X134144397Y-90098092D01*
X134017365Y-90040534D01*
X133881544Y-90008865D01*
X133742155Y-90004302D01*
X133604554Y-90027020D01*
X132059073Y-90441131D01*
X131928549Y-90490257D01*
X131810116Y-90563904D01*
X131708326Y-90659240D01*
X131627092Y-90772603D01*
X131569534Y-90899635D01*
X131537865Y-91035456D01*
X131533302Y-91174845D01*
X113928120Y-91174845D01*
X114767436Y-88102991D01*
X114830955Y-87872845D01*
X143903102Y-87872845D01*
X143925820Y-88010446D01*
X144339931Y-89555927D01*
X144389057Y-89686451D01*
X144462704Y-89804884D01*
X144558040Y-89906674D01*
X144671403Y-89987908D01*
X144798435Y-90045466D01*
X144934256Y-90077135D01*
X145073645Y-90081698D01*
X145211246Y-90058980D01*
X146756727Y-89644869D01*
X146887251Y-89595743D01*
X147005684Y-89522096D01*
X147107474Y-89426760D01*
X147188708Y-89313397D01*
X147246266Y-89186365D01*
X147277935Y-89050544D01*
X147282498Y-88911155D01*
X147259780Y-88773554D01*
X146845669Y-87228073D01*
X146796543Y-87097549D01*
X146722896Y-86979116D01*
X146627560Y-86877326D01*
X146514197Y-86796092D01*
X146387165Y-86738534D01*
X146251344Y-86706865D01*
X146111955Y-86702302D01*
X145974354Y-86725020D01*
X144428873Y-87139131D01*
X144298349Y-87188257D01*
X144179916Y-87261904D01*
X144078126Y-87357240D01*
X143996892Y-87470603D01*
X143939334Y-87597635D01*
X143907665Y-87733456D01*
X143903102Y-87872845D01*
X114830955Y-87872845D01*
X115636508Y-84954145D01*
X116462841Y-81994858D01*
X116538918Y-81726045D01*
X130364902Y-81726045D01*
X130387620Y-81863646D01*
X130801731Y-83409127D01*
X130850857Y-83539651D01*
X130924504Y-83658084D01*
X131019840Y-83759874D01*
X131133203Y-83841108D01*
X131260235Y-83898666D01*
X131396056Y-83930335D01*
X131535445Y-83934898D01*
X131673046Y-83912180D01*
X133218527Y-83498069D01*
X133349051Y-83448943D01*
X133467484Y-83375296D01*
X133569274Y-83279960D01*
X133650508Y-83166597D01*
X133708066Y-83039565D01*
X133739735Y-82903744D01*
X133744298Y-82764355D01*
X133721580Y-82626754D01*
X133307469Y-81081273D01*
X133258343Y-80950749D01*
X133184696Y-80832316D01*
X133089360Y-80730526D01*
X132975997Y-80649292D01*
X132848965Y-80591734D01*
X132713144Y-80560065D01*
X132573755Y-80555502D01*
X132436154Y-80578220D01*
X130890673Y-80992331D01*
X130760149Y-81041457D01*
X130641716Y-81115104D01*
X130539926Y-81210440D01*
X130458692Y-81323803D01*
X130401134Y-81450835D01*
X130369465Y-81586656D01*
X130364902Y-81726045D01*
X116538918Y-81726045D01*
X117178233Y-79467074D01*
X140360406Y-79467074D01*
X140360406Y-79764124D01*
X140418357Y-80055467D01*
X140532033Y-80329905D01*
X140697066Y-80576893D01*
X140907112Y-80786939D01*
X141154100Y-80951972D01*
X141428538Y-81065648D01*
X141719881Y-81123599D01*
X142016931Y-81123599D01*
X142308274Y-81065648D01*
X142582712Y-80951972D01*
X142829700Y-80786939D01*
X143039746Y-80576893D01*
X143204779Y-80329905D01*
X143318455Y-80055467D01*
X143376406Y-79764124D01*
X143376406Y-79467074D01*
X143318455Y-79175731D01*
X143204779Y-78901293D01*
X143039746Y-78654305D01*
X142829700Y-78444259D01*
X142582712Y-78279226D01*
X142308274Y-78165550D01*
X142016931Y-78107599D01*
X141719881Y-78107599D01*
X141428538Y-78165550D01*
X141154100Y-78279226D01*
X140907112Y-78444259D01*
X140697066Y-78654305D01*
X140532033Y-78901293D01*
X140418357Y-79175731D01*
X140360406Y-79467074D01*
X117178233Y-79467074D01*
X117248115Y-79220152D01*
X117817064Y-77240629D01*
X134306000Y-77240629D01*
X134306000Y-77577075D01*
X134371638Y-77907057D01*
X134500390Y-78217893D01*
X134687310Y-78497638D01*
X134925214Y-78735542D01*
X135204959Y-78922462D01*
X135515795Y-79051214D01*
X135845777Y-79116852D01*
X136182223Y-79116852D01*
X136512205Y-79051214D01*
X136823041Y-78922462D01*
X137102786Y-78735542D01*
X137340690Y-78497638D01*
X137527610Y-78217893D01*
X137656362Y-77907057D01*
X137722000Y-77577075D01*
X137722000Y-77240629D01*
X137656362Y-76910647D01*
X137527610Y-76599811D01*
X137340690Y-76320066D01*
X137102786Y-76082162D01*
X136823041Y-75895242D01*
X136512205Y-75766490D01*
X136182223Y-75700852D01*
X135845777Y-75700852D01*
X135515795Y-75766490D01*
X135204959Y-75895242D01*
X134925214Y-76082162D01*
X134687310Y-76320066D01*
X134500390Y-76599811D01*
X134371638Y-76910647D01*
X134306000Y-77240629D01*
X117817064Y-77240629D01*
X117994427Y-76623540D01*
X118703769Y-74198932D01*
X119260646Y-72333725D01*
X132991200Y-72333725D01*
X132991200Y-72670171D01*
X133056838Y-73000153D01*
X133185590Y-73310989D01*
X133372510Y-73590734D01*
X133610414Y-73828638D01*
X133890159Y-74015558D01*
X134200995Y-74144310D01*
X134530977Y-74209948D01*
X134867423Y-74209948D01*
X135197405Y-74144310D01*
X135508241Y-74015558D01*
X135787986Y-73828638D01*
X136025890Y-73590734D01*
X136212810Y-73310989D01*
X136341562Y-73000153D01*
X136407200Y-72670171D01*
X136407200Y-72333725D01*
X136341562Y-72003743D01*
X136212810Y-71692907D01*
X136025890Y-71413162D01*
X135787986Y-71175258D01*
X135508241Y-70988338D01*
X135197405Y-70859586D01*
X134867423Y-70793948D01*
X134530977Y-70793948D01*
X134200995Y-70859586D01*
X133890159Y-70988338D01*
X133610414Y-71175258D01*
X133372510Y-71413162D01*
X133185590Y-71692907D01*
X133056838Y-72003743D01*
X132991200Y-72333725D01*
X119260646Y-72333725D01*
X119378045Y-71940511D01*
X120019139Y-69842512D01*
X120036229Y-69788045D01*
X127164502Y-69788045D01*
X127187220Y-69925646D01*
X127601331Y-71471127D01*
X127650457Y-71601651D01*
X127724104Y-71720084D01*
X127819440Y-71821874D01*
X127932803Y-71903108D01*
X128059835Y-71960666D01*
X128195656Y-71992335D01*
X128335045Y-71996898D01*
X128472646Y-71974180D01*
X130018127Y-71560069D01*
X130148651Y-71510943D01*
X130267084Y-71437296D01*
X130368874Y-71341960D01*
X130450108Y-71228597D01*
X130507666Y-71101565D01*
X130539335Y-70965744D01*
X130543898Y-70826355D01*
X130521180Y-70688754D01*
X130107069Y-69143273D01*
X130057943Y-69012749D01*
X129984296Y-68894316D01*
X129888960Y-68792526D01*
X129775597Y-68711292D01*
X129648565Y-68653734D01*
X129512744Y-68622065D01*
X129373355Y-68617502D01*
X129235754Y-68640220D01*
X127690273Y-69054331D01*
X127559749Y-69103457D01*
X127441316Y-69177104D01*
X127339526Y-69272440D01*
X127258292Y-69385803D01*
X127200734Y-69512835D01*
X127169065Y-69648656D01*
X127164502Y-69788045D01*
X120036229Y-69788045D01*
X120629062Y-67898737D01*
X120748613Y-67529074D01*
X137160006Y-67529074D01*
X137160006Y-67826124D01*
X137217957Y-68117467D01*
X137331633Y-68391905D01*
X137496666Y-68638893D01*
X137706712Y-68848939D01*
X137953700Y-69013972D01*
X138228138Y-69127648D01*
X138519481Y-69185599D01*
X138816531Y-69185599D01*
X139107874Y-69127648D01*
X139382312Y-69013972D01*
X139629300Y-68848939D01*
X139839346Y-68638893D01*
X140004379Y-68391905D01*
X140118055Y-68117467D01*
X140176006Y-67826124D01*
X140176006Y-67529074D01*
X140118055Y-67237731D01*
X140004379Y-66963293D01*
X139839346Y-66716305D01*
X139629300Y-66506259D01*
X139382312Y-66341226D01*
X139107874Y-66227550D01*
X138816531Y-66169599D01*
X138519481Y-66169599D01*
X138228138Y-66227550D01*
X137953700Y-66341226D01*
X137706712Y-66506259D01*
X137496666Y-66716305D01*
X137331633Y-66963293D01*
X137217957Y-67237731D01*
X137160006Y-67529074D01*
X120748613Y-67529074D01*
X121209659Y-66103483D01*
X121477721Y-65302629D01*
X131105600Y-65302629D01*
X131105600Y-65639075D01*
X131171238Y-65969057D01*
X131299990Y-66279893D01*
X131486910Y-66559638D01*
X131724814Y-66797542D01*
X132004559Y-66984462D01*
X132315395Y-67113214D01*
X132645377Y-67178852D01*
X132981823Y-67178852D01*
X133311805Y-67113214D01*
X133622641Y-66984462D01*
X133902386Y-66797542D01*
X134140290Y-66559638D01*
X134327210Y-66279893D01*
X134455962Y-65969057D01*
X134521600Y-65639075D01*
X134521600Y-65302629D01*
X134455962Y-64972647D01*
X134327210Y-64661811D01*
X134140290Y-64382066D01*
X133902386Y-64144162D01*
X133622641Y-63957242D01*
X133311805Y-63828490D01*
X132981823Y-63762852D01*
X132645377Y-63762852D01*
X132315395Y-63828490D01*
X132004559Y-63957242D01*
X131724814Y-64144162D01*
X131486910Y-64382066D01*
X131299990Y-64661811D01*
X131171238Y-64972647D01*
X131105600Y-65302629D01*
X121477721Y-65302629D01*
X121762939Y-64450524D01*
X122290587Y-62934553D01*
X122794599Y-61549278D01*
X123235909Y-60395725D01*
X129790800Y-60395725D01*
X129790800Y-60732171D01*
X129856438Y-61062153D01*
X129985190Y-61372989D01*
X130172110Y-61652734D01*
X130410014Y-61890638D01*
X130689759Y-62077558D01*
X131000595Y-62206310D01*
X131330577Y-62271948D01*
X131667023Y-62271948D01*
X131997005Y-62206310D01*
X132307841Y-62077558D01*
X132587586Y-61890638D01*
X132825490Y-61652734D01*
X133012410Y-61372989D01*
X133141162Y-61062153D01*
X133206800Y-60732171D01*
X133206800Y-60395725D01*
X133141162Y-60065743D01*
X133012410Y-59754907D01*
X132825490Y-59475162D01*
X132587586Y-59237258D01*
X132307841Y-59050338D01*
X131997005Y-58921586D01*
X131667023Y-58855948D01*
X131330577Y-58855948D01*
X131000595Y-58921586D01*
X130689759Y-59050338D01*
X130410014Y-59237258D01*
X130172110Y-59475162D01*
X129985190Y-59754907D01*
X129856438Y-60065743D01*
X129790800Y-60395725D01*
X123235909Y-60395725D01*
X123276650Y-60289233D01*
X123738518Y-59148550D01*
X124181811Y-58121634D01*
X124608085Y-57202790D01*
X125018785Y-56386317D01*
X125062943Y-56306133D01*
X127397628Y-56306133D01*
X127420346Y-56443734D01*
X127886220Y-58182400D01*
X127935346Y-58312925D01*
X128008993Y-58431358D01*
X128104329Y-58533148D01*
X128217691Y-58614382D01*
X128344724Y-58671940D01*
X128480544Y-58703609D01*
X128619933Y-58708172D01*
X128757534Y-58685454D01*
X130496200Y-58219580D01*
X130626725Y-58170454D01*
X130745158Y-58096807D01*
X130846948Y-58001471D01*
X130928182Y-57888109D01*
X130985740Y-57761076D01*
X130999056Y-57703967D01*
X131194216Y-57784805D01*
X131504878Y-57846600D01*
X131821626Y-57846600D01*
X132132288Y-57784805D01*
X132424925Y-57663591D01*
X132688292Y-57487615D01*
X132912267Y-57263640D01*
X133088243Y-57000273D01*
X133209457Y-56707636D01*
X133271252Y-56396974D01*
X133271252Y-56080226D01*
X133209457Y-55769564D01*
X133088243Y-55476927D01*
X132912267Y-55213560D01*
X132688292Y-54989585D01*
X132424925Y-54813609D01*
X132132288Y-54692395D01*
X131821626Y-54630600D01*
X131504878Y-54630600D01*
X131194216Y-54692395D01*
X130901579Y-54813609D01*
X130638212Y-54989585D01*
X130414237Y-55213560D01*
X130355368Y-55301664D01*
X130315271Y-55258852D01*
X130201909Y-55177618D01*
X130074876Y-55120060D01*
X129939056Y-55088391D01*
X129799667Y-55083828D01*
X129662066Y-55106546D01*
X127923400Y-55572420D01*
X127792875Y-55621546D01*
X127674442Y-55695193D01*
X127572652Y-55790529D01*
X127491418Y-55903891D01*
X127433860Y-56030924D01*
X127402191Y-56166744D01*
X127397628Y-56306133D01*
X125062943Y-56306133D01*
X125415121Y-55666643D01*
X125798254Y-55037878D01*
X126169109Y-54494069D01*
X126528678Y-54028706D01*
X126878052Y-53634815D01*
X127218877Y-53304670D01*
X127553686Y-53029973D01*
X127886263Y-52802159D01*
X128221531Y-52613054D01*
X128565215Y-52455351D01*
X128922914Y-52322935D01*
X129269279Y-52219633D01*
X129296057Y-52215306D01*
X129324143Y-52204845D01*
X129678632Y-52120471D01*
X130054426Y-52056377D01*
X130430759Y-52021175D01*
X130815551Y-52017361D01*
X131217355Y-52048397D01*
G37*
G04 #@! TD.AperFunction*
M02*
