M48
; DRILL file {KiCad 5.1.10} date Sun Sep 12 20:50:04 2021
; FORMAT={-:-/ absolute / inch / decimal}
; #@! TF.CreationDate,2021-09-12T20:50:04+02:00
; #@! TF.GenerationSoftware,Kicad,Pcbnew,5.1.10
; #@! TF.FileFunction,Plated,1,2,PTH
FMAT,2
INCH
T1C0.0315
T2C0.0354
T3C0.0394
T4C0.0433
%
G90
G05
T1
X4.4232Y-5.1942
X4.706Y-5.477
X4.7682Y-4.8492
X4.84Y-5.695
X5.051Y-5.132
X5.073Y-2.768
X5.199Y-3.238
X5.245Y-3.61
X5.2643Y-5.2707
X5.3485Y-3.9964
X5.429Y-4.095
X5.4594Y-2.6645
X5.5097Y-4.6414
X5.5854Y-3.1345
X5.665Y-5.221
X5.68Y-5.42
X5.6807Y-4.5964
X5.732Y-3.48
X5.8154Y-3.9915
X5.8355Y-3.8664
X5.836Y-5.176
X5.8517Y-4.5504
X6.007Y-5.13
X6.0197Y-4.5044
X6.175Y-5.084
X6.5444Y-4.9297
X6.6615Y-4.7014
X6.765Y-4.315
X7.124Y-5.085
X7.1315Y-4.8274
X7.235Y-4.441
T2
X4.1703Y-5.6583
X4.241Y-5.729
X5.087Y-2.24
X5.1836Y-2.2141
X7.661Y-4.813
X7.6869Y-4.7164
T3
X5.306Y-4.598
X5.3319Y-4.6946
X5.3578Y-4.7912
X5.3836Y-4.8878
X5.4095Y-4.9844
X5.4354Y-5.081
X5.4613Y-5.1776
X5.4872Y-5.2741
X6.1753Y-4.3651
X6.2012Y-4.4617
X6.2271Y-4.5582
X6.253Y-4.6548
X6.2789Y-4.7514
X6.3047Y-4.848
X6.3306Y-4.9446
X6.3565Y-5.0412
T4
X4.3223Y-5.5777
X4.4637Y-5.4363
X4.6663Y-5.2327
X4.8077Y-5.0913
X4.9554Y-3.8949
X5.1486Y-3.8431
X5.1771Y-2.3844
X5.2289Y-2.5776
X5.3031Y-2.8544
X5.3549Y-3.0476
X5.4434Y-3.7639
X5.6366Y-3.7121
X5.9304Y-3.6339
X6.1236Y-3.5821
X6.852Y-4.545
X7.0452Y-4.5968
X7.3224Y-4.6711
X7.5156Y-4.7229
T0
M30
