<?xml version="1.0" encoding="UTF-8"?>
<svg width="9.2267cm" height="10.216cm" version="1.1" viewBox="0 0 92266939 1.0216e8" xmlns="http://www.w3.org/2000/svg">
	<title>SVG Picture created as remote_board-B_Mask.svg date 2022/08/23 23:00:53</title>
	<desc>Picture generated by PCBNEW</desc>
	<g transform="rotate(-15 -1.2467e8 4.9637e8)" fill-opacity="0" stroke="#000" stroke-linecap="round" stroke-linejoin="round" stroke-width="2e5">
		<path d="m1.0312e8 1.4834e8c3.34e6 3339140 8591860 3059690 49792200-7979910"/>
		<path d="m1.0312e8 1.4834e8 640 270"/>
		<path d="m1.0312e8 1.4834e8 130 530"/>
		<path d="m1.1109e8 98605579c-11021910 41139201-11300837 46391551-7962760 4.973e7"/>
		<path d="m1.111e8 98542476c-5930 22172-10690 40992-16600 63103"/>
		<path d="m2.0003e8 1.2237e8c1222520-4562500-1643530-8968900-31806690-39132052"/>
		<path d="m1.2909e8 5.143e7c-4562500 1222519-6945650 5907974-17986130 47111599"/>
		<path d="m1.111e8 98541947 130 529"/>
		<path d="m1.2909e8 5.143e7 40 5"/>
		<path d="m1.5304e8 1.4032e8c41073520-11008080 45764560-13394350 46985690-17951650"/>
		<path d="m1.6819e8 83203917c-30128350-30127212-34537830-32995375-39098260-31773700"/>
		<path d="m1.5292e8 1.4036e8c44420-11910 81920-23040 126270-34930"/>
		<path d="m1.6822e8 83237456-530-119"/>
		<path d="m1.2909e8 5.143e7 -530 126"/>
		<path d="m1.6822e8 83237337c-12490-12488-21090-20955-33580-33420"/>
		<circle cx="1.6345e8" cy="1.0224e8" r="2.65e6" fill-opacity="0" stop-color="#000000" stroke="#000" stroke-linecap="butt" stroke-linejoin="miter" stroke-width="2e5" style="-inkscape-stroke:none;font-variation-settings:normal"/>
		<circle cx="1.2471e8" cy="1.1252e8" r="2.65e6" fill-opacity="0" stop-color="#000000" stroke="#000" stroke-linecap="butt" stroke-linejoin="miter" stroke-width="2e5" style="-inkscape-stroke:none;font-variation-settings:normal"/>
	</g>
</svg>
