  0
SECTION
  2
HEADER
  9
$ACADVER
  1
AC1014
  9
$HANDSEED
  5
FFFF
  9
$MEASUREMENT
 70
     1
  0
ENDSEC
  0
SECTION
  2
TABLES
  0
TABLE
  2
VPORT
  5
8
330
0
100
AcDbSymbolTable
 70
     4
  0
VPORT
  5
2E
330
8
100
AcDbSymbolTableRecord
100
AcDbViewportTableRecord
  2
*ACTIVE
 70
     0
 10
0.0
 20
0.0
 11
1.0
 21
1.0
 12
210.0
 22
148.5
 13
0.0
 23
0.0
 14
10.0
 24
10.0
 15
10.0
 25
10.0
 16
0.0
 26
0.0
 36
1.0
 17
0.0
 27
0.0
 37
0.0
 40
341.0
 41
1.24
 42
50.0
 43
0.0
 44
0.0
 50
0.0
 51
0.0
 71
     0
 72
   100
 73
     1
 74
     3
 75
     0
 76
     0
 77
     0
 78
     0
  0
ENDTAB
  0
TABLE
  2
LTYPE
  5
5
330
0
100
AcDbSymbolTable
 70
     1
  0
LTYPE
  5
14
330
5
100
AcDbSymbolTableRecord
100
AcDbLinetypeTableRecord
  2
BYBLOCK
 70
     0
  3

 72
    65
 73
     0
 40
0.0
  0
LTYPE
  5
15
330
5
100
AcDbSymbolTableRecord
100
AcDbLinetypeTableRecord
  2
BYLAYER
 70
     0
  3

 72
    65
 73
     0
 40
0.0
  0
LTYPE
  5
16
330
5
100
AcDbSymbolTableRecord
100
AcDbLinetypeTableRecord
  2
CONTINUOUS
 70
     0
  3
Solid line
 72
    65
 73
     0
 40
0.0
  0
ENDTAB
  0
TABLE
  2
LAYER
  5
2
100
AcDbSymbolTable
 70
2
  0
LAYER
  5
50
100
AcDbSymbolTableRecord
100
AcDbLayerTableRecord
  2
0
 70
0
  6
CONTINUOUS
  0
LAYER
  5
51
100
AcDbSymbolTableRecord
100
AcDbLayerTableRecord
  2
Calque_1
 70
0
  6
CONTINUOUS
  0
ENDTAB
  0
TABLE
  2
STYLE
  5
3
330
0
100
AcDbSymbolTable
 70
     1
  0
STYLE
  5
11
330
3
100
AcDbSymbolTableRecord
100
AcDbTextStyleTableRecord
  2
STANDARD
 70
     0
 40
0.0
 41
1.0
 50
0.0
 71
     0
 42
2.5
  3
txt
  4

  0
ENDTAB
  0
TABLE
  2
VIEW
  5
6
330
0
100
AcDbSymbolTable
 70
     0
  0
ENDTAB
  0
TABLE
  2
UCS
  5
7
330
0
100
AcDbSymbolTable
 70
     0
  0
ENDTAB
  0
TABLE
  2
APPID
  5
9
330
0
100
AcDbSymbolTable
 70
     2
  0
APPID
  5
12
330
9
100
AcDbSymbolTableRecord
100
AcDbRegAppTableRecord
  2
ACAD
 70
     0
  0
ENDTAB
  0
TABLE
  2
DIMSTYLE
  5
A
330
0
100
AcDbSymbolTable
 70
     1
  0
DIMSTYLE
105
27
330
A
100
AcDbSymbolTableRecord
100
AcDbDimStyleTableRecord
  2
ISO-25
 70
     0
  3

  4

  5

  6

  7

 40
1.0
 41
2.5
 42
0.625
 43
3.75
 44
1.25
 45
0.0
 46
0.0
 47
0.0
 48
0.0
140
2.5
141
2.5
142
0.0
143
0.03937007874016
144
1.0
145
0.0
146
1.0
147
0.625
 71
     0
 72
     0
 73
     0
 74
     0
 75
     0
 76
     0
 77
     1
 78
     8
170
     0
171
     3
172
     1
173
     0
174
     0
175
     0
176
     0
177
     0
178
     0
270
     2
271
     2
272
     2
273
     2
274
     3
340
11
275
     0
280
     0
281
     0
282
     0
283
     0
284
     8
285
     0
286
     0
287
     3
288
     0
  0
ENDTAB
  0
TABLE
  2
BLOCK_RECORD
  5
1
330
0
100
AcDbSymbolTable
 70
     1
  0
BLOCK_RECORD
  5
1F
330
1
100
AcDbSymbolTableRecord
100
AcDbBlockTableRecord
  2
*MODEL_SPACE
  0
BLOCK_RECORD
  5
1B
330
1
100
AcDbSymbolTableRecord
100
AcDbBlockTableRecord
  2
*PAPER_SPACE
  0
ENDTAB
  0
ENDSEC
  0
SECTION
  2
BLOCKS
  0
BLOCK
  5
20
330
1F
100
AcDbEntity
  8
0
100
AcDbBlockBegin
  2
*MODEL_SPACE
 70
     0
 10
0.0
 20
0.0
 30
0.0
  3
*MODEL_SPACE
  1

  0
ENDBLK
  5
21
330
1F
100
AcDbEntity
  8
0
100
AcDbBlockEnd
  0
BLOCK
  5
1C
330
1B
100
AcDbEntity
 67
     1
  8
0
100
AcDbBlockBegin
  2
*PAPER_SPACE
  1

  0
ENDBLK
  5
1D
330
1B
100
AcDbEntity
 67
     1
  8
0
100
AcDbBlockEnd
  0
ENDSEC
  0
SECTION
  2
ENTITIES
  0
SPLINE
  5
100
100
AcDbEntity
  8
Calque_1
 62
7
100
AcDbSpline
 70
8
 71
3
 72
8
 73
4
 74
0
 40
0
 40
0
 40
0
 40
0
 40
1
 40
1
 40
1
 40
1
 10
27.968678
 20
98.908889
 30
0.0
 10
23.406179
 20
97.686366
 30
0.0
 10
21.023031
 20
93.000913
 30
0.0
 10
9.982556
 20
51.797306
 30
0.0
  0
SPLINE
  5
101
100
AcDbEntity
  8
Calque_1
 62
7
100
AcDbSpline
 70
8
 71
3
 72
8
 73
4
 74
0
 40
0
 40
0
 40
0
 40
0
 40
1
 40
1
 40
1
 40
1
 10
9.966081
 20
51.733679
 30
0.0
 10
-1.055816
 20
10.594487
 30
0.0
 10
-1.334739
 20
5.342194
 30
0.0
 10
2.003322
 20
2.004080
 30
0.0
  0
SPLINE
  5
102
100
AcDbEntity
  8
Calque_1
 62
7
100
AcDbSpline
 70
8
 71
3
 72
8
 73
4
 74
0
 40
0
 40
0
 40
0
 40
0
 40
1
 40
1
 40
1
 40
1
 10
2.004100
 20
2.003313
 30
0.0
 10
5.344119
 20
-1.335833
 30
0.0
 10
10.595945
 20
-1.056380
 30
0.0
 10
51.796271
 20
9.983194
 30
0.0
  0
SPLINE
  5
103
100
AcDbEntity
  8
Calque_1
 62
7
100
AcDbSpline
 70
8
 71
3
 72
8
 73
4
 74
0
 40
0
 40
0
 40
0
 40
0
 40
1
 40
1
 40
1
 40
1
 10
51.922528
 20
10.018093
 30
0.0
 10
92.995965
 20
21.026417
 30
0.0
 10
97.687067
 20
23.412479
 30
0.0
 10
98.908177
 20
27.969797
 30
0.0
  0
SPLINE
  5
104
100
AcDbEntity
  8
Calque_1
 62
7
100
AcDbSpline
 70
8
 71
3
 72
8
 73
4
 74
0
 40
0
 40
0
 40
0
 40
0
 40
1
 40
1
 40
1
 40
1
 10
98.908177
 20
27.969797
 30
0.0
 10
100.130718
 20
32.532290
 30
0.0
 10
97.264650
 20
36.938664
 30
0.0
 10
67.101525
 20
67.101794
 30
0.0
  0
SPLINE
  5
105
100
AcDbEntity
  8
Calque_1
 62
7
100
AcDbSpline
 70
8
 71
3
 72
8
 73
4
 74
0
 40
0
 40
0
 40
0
 40
0
 40
1
 40
1
 40
1
 40
1
 10
67.067420
 20
67.135338
 30
0.0
 10
36.939090
 20
97.262533
 30
0.0
 10
32.529607
 20
100.130689
 30
0.0
 10
27.969172
 20
98.909021
 30
0.0
  0
LINE
  5
106
100
AcDbEntity
  8
Calque_1
 62
7
100
AcDbLine
 10
28.002587
 20
98.781767
 30
0.0
 11
51.830162
 21
9.856406
 31
0.0
  0
LINE
  5
107
100
AcDbEntity
  8
Calque_1
 62
7
100
AcDbLine
 10
2.003456
 20
2.003551
 30
0.0
 11
67.101302
 21
67.101802
 31
0.0
  0
LINE
  5
108
100
AcDbEntity
  8
Calque_1
 62
7
100
AcDbLine
 10
9.982566
 20
51.797330
 30
0.0
 11
98.908071
 21
27.969794
 31
0.0
  0
LINE
  5
109
100
AcDbEntity
  8
Calque_1
 62
1
100
AcDbLine
 10
77.179000
 20
31.204397
 30
0.0
 11
72.349372
 21
32.498492
 31
0.0
  0
LINE
  5
10a
100
AcDbEntity
  8
Calque_1
 62
1
100
AcDbLine
 10
72.349372
 20
32.498492
 30
0.0
 11
73.643467
 21
37.328119
 31
0.0
  0
LINE
  5
10b
100
AcDbEntity
  8
Calque_1
 62
1
100
AcDbLine
 10
73.643467
 20
37.328119
 30
0.0
 11
78.473094
 21
36.034025
 31
0.0
  0
LINE
  5
10c
100
AcDbEntity
  8
Calque_1
 62
1
100
AcDbLine
 10
78.473094
 20
36.034025
 30
0.0
 11
77.179000
 21
31.204397
 31
0.0
  0
LINE
  5
10d
100
AcDbEntity
  8
Calque_1
 62
1
100
AcDbLine
 10
69.886425
 20
33.676394
 30
0.0
 11
67.954574
 21
34.194031
 31
0.0
  0
LINE
  5
10e
100
AcDbEntity
  8
Calque_1
 62
1
100
AcDbLine
 10
67.954574
 20
34.194031
 30
0.0
 11
68.989850
 21
38.057733
 31
0.0
  0
LINE
  5
10f
100
AcDbEntity
  8
Calque_1
 62
1
100
AcDbLine
 10
68.989850
 20
38.057733
 30
0.0
 11
70.921701
 21
37.540095
 31
0.0
  0
LINE
  5
110
100
AcDbEntity
  8
Calque_1
 62
1
100
AcDbLine
 10
70.921701
 20
37.540095
 30
0.0
 11
69.886425
 21
33.676394
 31
0.0
  0
LINE
  5
111
100
AcDbEntity
  8
Calque_1
 62
1
100
AcDbLine
 10
89.125349
 20
28.003384
 30
0.0
 11
84.295722
 21
29.297478
 31
0.0
  0
LINE
  5
112
100
AcDbEntity
  8
Calque_1
 62
1
100
AcDbLine
 10
84.295722
 20
29.297478
 30
0.0
 11
85.589816
 21
34.127105
 31
0.0
  0
LINE
  5
113
100
AcDbEntity
  8
Calque_1
 62
1
100
AcDbLine
 10
85.589816
 20
34.127105
 30
0.0
 11
90.419443
 21
32.833011
 31
0.0
  0
LINE
  5
114
100
AcDbEntity
  8
Calque_1
 62
1
100
AcDbLine
 10
90.419443
 20
32.833011
 30
0.0
 11
89.125349
 21
28.003384
 31
0.0
  0
LINE
  5
115
100
AcDbEntity
  8
Calque_1
 62
1
100
AcDbLine
 10
81.832691
 20
30.475068
 30
0.0
 11
79.900840
 21
30.992706
 31
0.0
  0
LINE
  5
116
100
AcDbEntity
  8
Calque_1
 62
1
100
AcDbLine
 10
79.900840
 20
30.992706
 30
0.0
 11
80.936115
 21
34.856408
 31
0.0
  0
LINE
  5
117
100
AcDbEntity
  8
Calque_1
 62
1
100
AcDbLine
 10
80.936115
 20
34.856408
 30
0.0
 11
82.867966
 21
34.338770
 31
0.0
  0
LINE
  5
118
100
AcDbEntity
  8
Calque_1
 62
1
100
AcDbLine
 10
82.867966
 20
34.338770
 30
0.0
 11
81.832691
 21
30.475068
 31
0.0
  0
SPLINE
  5
119
100
AcDbEntity
  8
Calque_1
 62
1
100
AcDbSpline
 70
8
 71
3
 72
8
 73
4
 74
0
 40
0
 40
0
 40
0
 40
0
 40
1
 40
1
 40
1
 40
1
 10
93.425495
 20
27.886431
 30
0.0
 10
94.011515
 20
27.729408
 30
0.0
 10
94.634421
 20
27.940856
 30
0.0
 10
95.003753
 20
28.422178
 30
0.0
  0
SPLINE
  5
11a
100
AcDbEntity
  8
Calque_1
 62
1
100
AcDbSpline
 70
8
 71
3
 72
8
 73
4
 74
0
 40
0
 40
0
 40
0
 40
0
 40
1
 40
1
 40
1
 40
1
 10
95.003753
 20
28.422178
 30
0.0
 10
95.373084
 20
28.903500
 30
0.0
 10
95.416107
 20
29.559908
 30
0.0
 10
95.112760
 20
30.085320
 30
0.0
  0
SPLINE
  5
11b
100
AcDbEntity
  8
Calque_1
 62
1
100
AcDbSpline
 70
8
 71
3
 72
8
 73
4
 74
0
 40
0
 40
0
 40
0
 40
0
 40
1
 40
1
 40
1
 40
1
 10
95.112760
 20
30.085320
 30
0.0
 10
94.809414
 20
30.610731
 30
0.0
 10
94.219436
 20
30.901676
 30
0.0
 10
93.617934
 20
30.822486
 30
0.0
  0
SPLINE
  5
11c
100
AcDbEntity
  8
Calque_1
 62
1
100
AcDbSpline
 70
8
 71
3
 72
8
 73
4
 74
0
 40
0
 40
0
 40
0
 40
0
 40
1
 40
1
 40
1
 40
1
 10
93.617934
 20
30.822486
 30
0.0
 10
93.016431
 20
30.743297
 30
0.0
 10
92.521858
 20
30.309569
 30
0.0
 10
92.364835
 20
29.723548
 30
0.0
  0
SPLINE
  5
11d
100
AcDbEntity
  8
Calque_1
 62
1
100
AcDbSpline
 70
8
 71
3
 72
8
 73
4
 74
0
 40
0
 40
0
 40
0
 40
0
 40
1
 40
1
 40
1
 40
1
 10
92.364835
 20
29.723548
 30
0.0
 10
92.261870
 20
29.339279
 30
0.0
 10
92.315773
 20
28.929846
 30
0.0
 10
92.514685
 20
28.585320
 30
0.0
  0
SPLINE
  5
11e
100
AcDbEntity
  8
Calque_1
 62
1
100
AcDbSpline
 70
8
 71
3
 72
8
 73
4
 74
0
 40
0
 40
0
 40
0
 40
0
 40
1
 40
1
 40
1
 40
1
 10
92.514685
 20
28.585320
 30
0.0
 10
92.713598
 20
28.240794
 30
0.0
 10
93.041226
 20
27.989396
 30
0.0
 10
93.425495
 20
27.886431
 30
0.0
  0
LINE
  5
11f
100
AcDbEntity
  8
Calque_1
 62
1
100
AcDbLine
 10
93.425495
 20
27.886431
 30
0.0
 11
93.425495
 21
27.886431
 31
0.0
  0
LINE
  5
120
100
AcDbEntity
  8
Calque_1
 62
1
100
AcDbLine
 10
36.032346
 20
78.473256
 30
0.0
 11
37.326441
 21
73.643628
 31
0.0
  0
LINE
  5
121
100
AcDbEntity
  8
Calque_1
 62
1
100
AcDbLine
 10
37.326441
 20
73.643628
 30
0.0
 11
32.496813
 21
72.349534
 31
0.0
  0
LINE
  5
122
100
AcDbEntity
  8
Calque_1
 62
1
100
AcDbLine
 10
32.496813
 20
72.349534
 30
0.0
 11
31.202719
 21
77.179161
 31
0.0
  0
LINE
  5
123
100
AcDbEntity
  8
Calque_1
 62
1
100
AcDbLine
 10
31.202719
 20
77.179161
 30
0.0
 11
36.032346
 21
78.473256
 31
0.0
  0
LINE
  5
124
100
AcDbEntity
  8
Calque_1
 62
1
100
AcDbLine
 10
37.537821
 20
70.921703
 30
0.0
 11
38.055459
 21
68.989852
 31
0.0
  0
LINE
  5
125
100
AcDbEntity
  8
Calque_1
 62
1
100
AcDbLine
 10
38.055459
 20
68.989852
 30
0.0
 11
34.191757
 21
67.954576
 31
0.0
  0
LINE
  5
126
100
AcDbEntity
  8
Calque_1
 62
1
100
AcDbLine
 10
34.191757
 20
67.954576
 30
0.0
 11
33.674119
 21
69.886427
 31
0.0
  0
LINE
  5
127
100
AcDbEntity
  8
Calque_1
 62
1
100
AcDbLine
 10
33.674119
 20
69.886427
 30
0.0
 11
37.537821
 21
70.921703
 31
0.0
  0
LINE
  5
128
100
AcDbEntity
  8
Calque_1
 62
1
100
AcDbLine
 10
32.831333
 20
90.419605
 30
0.0
 11
34.125427
 21
85.589978
 31
0.0
  0
LINE
  5
129
100
AcDbEntity
  8
Calque_1
 62
1
100
AcDbLine
 10
34.125427
 20
85.589978
 30
0.0
 11
29.295800
 21
84.295884
 31
0.0
  0
LINE
  5
12a
100
AcDbEntity
  8
Calque_1
 62
1
100
AcDbLine
 10
29.295800
 20
84.295884
 30
0.0
 11
28.001706
 21
89.125511
 31
0.0
  0
LINE
  5
12b
100
AcDbEntity
  8
Calque_1
 62
1
100
AcDbLine
 10
28.001706
 20
89.125511
 30
0.0
 11
32.831333
 21
90.419605
 31
0.0
  0
LINE
  5
12c
100
AcDbEntity
  8
Calque_1
 62
1
100
AcDbLine
 10
34.337119
 20
82.868136
 30
0.0
 11
34.854757
 21
80.936285
 31
0.0
  0
LINE
  5
12d
100
AcDbEntity
  8
Calque_1
 62
1
100
AcDbLine
 10
34.854757
 20
80.936285
 30
0.0
 11
30.991055
 21
79.901009
 31
0.0
  0
LINE
  5
12e
100
AcDbEntity
  8
Calque_1
 62
1
100
AcDbLine
 10
30.991055
 20
79.901009
 30
0.0
 11
30.473417
 21
81.832860
 31
0.0
  0
LINE
  5
12f
100
AcDbEntity
  8
Calque_1
 62
1
100
AcDbLine
 10
30.473417
 20
81.832860
 30
0.0
 11
34.337119
 21
82.868136
 31
0.0
  0
SPLINE
  5
130
100
AcDbEntity
  8
Calque_1
 62
1
100
AcDbSpline
 70
8
 71
3
 72
8
 73
4
 74
0
 40
0
 40
0
 40
0
 40
0
 40
1
 40
1
 40
1
 40
1
 10
30.782544
 20
94.202117
 30
0.0
 10
30.625521
 20
94.788138
 30
0.0
 10
30.130948
 20
95.221866
 30
0.0
 10
29.529445
 20
95.301056
 30
0.0
  0
SPLINE
  5
131
100
AcDbEntity
  8
Calque_1
 62
1
100
AcDbSpline
 70
8
 71
3
 72
8
 73
4
 74
0
 40
0
 40
0
 40
0
 40
0
 40
1
 40
1
 40
1
 40
1
 10
29.529445
 20
95.301056
 30
0.0
 10
28.927943
 20
95.380245
 30
0.0
 10
28.337965
 20
95.089300
 30
0.0
 10
28.034619
 20
94.563889
 30
0.0
  0
SPLINE
  5
132
100
AcDbEntity
  8
Calque_1
 62
1
100
AcDbSpline
 70
8
 71
3
 72
8
 73
4
 74
0
 40
0
 40
0
 40
0
 40
0
 40
1
 40
1
 40
1
 40
1
 10
28.034619
 20
94.563889
 30
0.0
 10
27.731272
 20
94.038477
 30
0.0
 10
27.774295
 20
93.382069
 30
0.0
 10
28.143627
 20
92.900747
 30
0.0
  0
SPLINE
  5
133
100
AcDbEntity
  8
Calque_1
 62
1
100
AcDbSpline
 70
8
 71
3
 72
8
 73
4
 74
0
 40
0
 40
0
 40
0
 40
0
 40
1
 40
1
 40
1
 40
1
 10
28.143627
 20
92.900747
 30
0.0
 10
28.512958
 20
92.419425
 30
0.0
 10
29.135864
 20
92.207977
 30
0.0
 10
29.721884
 20
92.365001
 30
0.0
  0
SPLINE
  5
134
100
AcDbEntity
  8
Calque_1
 62
1
100
AcDbSpline
 70
8
 71
3
 72
8
 73
4
 74
0
 40
0
 40
0
 40
0
 40
0
 40
1
 40
1
 40
1
 40
1
 10
29.721884
 20
92.365001
 30
0.0
 10
30.106153
 20
92.467965
 30
0.0
 10
30.433781
 20
92.719363
 30
0.0
 10
30.632694
 20
93.063889
 30
0.0
  0
SPLINE
  5
135
100
AcDbEntity
  8
Calque_1
 62
1
100
AcDbSpline
 70
8
 71
3
 72
8
 73
4
 74
0
 40
0
 40
0
 40
0
 40
0
 40
1
 40
1
 40
1
 40
1
 10
30.632694
 20
93.063889
 30
0.0
 10
30.831606
 20
93.408415
 30
0.0
 10
30.885509
 20
93.817848
 30
0.0
 10
30.782544
 20
94.202117
 30
0.0
  0
LINE
  5
136
100
AcDbEntity
  8
Calque_1
 62
1
100
AcDbLine
 10
30.782544
 20
94.202117
 30
0.0
 11
30.782544
 21
94.202117
 31
0.0
  0
LINE
  5
137
100
AcDbEntity
  8
Calque_1
 62
1
100
AcDbLine
 10
15.668814
 20
19.204342
 30
0.0
 11
19.204347
 21
22.739875
 31
0.0
  0
LINE
  5
138
100
AcDbEntity
  8
Calque_1
 62
1
100
AcDbLine
 10
19.204347
 20
22.739875
 30
0.0
 11
22.739879
 21
19.204342
 31
0.0
  0
LINE
  5
139
100
AcDbEntity
  8
Calque_1
 62
1
100
AcDbLine
 10
22.739879
 20
19.204342
 30
0.0
 11
19.204347
 21
15.668809
 31
0.0
  0
LINE
  5
13a
100
AcDbEntity
  8
Calque_1
 62
1
100
AcDbLine
 10
19.204347
 20
15.668809
 30
0.0
 11
15.668814
 21
19.204342
 31
0.0
  0
LINE
  5
13b
100
AcDbEntity
  8
Calque_1
 62
1
100
AcDbLine
 10
21.455914
 20
24.283899
 30
0.0
 11
22.870127
 21
25.698113
 31
0.0
  0
LINE
  5
13c
100
AcDbEntity
  8
Calque_1
 62
1
100
AcDbLine
 10
22.870127
 20
25.698113
 30
0.0
 11
25.698553
 21
22.869686
 31
0.0
  0
LINE
  5
13d
100
AcDbEntity
  8
Calque_1
 62
1
100
AcDbLine
 10
25.698553
 20
22.869686
 30
0.0
 11
24.284340
 21
21.455473
 31
0.0
  0
LINE
  5
13e
100
AcDbEntity
  8
Calque_1
 62
1
100
AcDbLine
 10
24.284340
 20
21.455473
 30
0.0
 11
21.455914
 21
24.283899
 31
0.0
  0
LINE
  5
13f
100
AcDbEntity
  8
Calque_1
 62
1
100
AcDbLine
 10
6.923478
 20
10.459007
 30
0.0
 11
10.459011
 21
13.994540
 31
0.0
  0
LINE
  5
140
100
AcDbEntity
  8
Calque_1
 62
1
100
AcDbLine
 10
10.459011
 20
13.994540
 30
0.0
 11
13.994544
 21
10.459007
 31
0.0
  0
LINE
  5
141
100
AcDbEntity
  8
Calque_1
 62
1
100
AcDbLine
 10
13.994544
 20
10.459007
 30
0.0
 11
10.459011
 21
6.923474
 31
0.0
  0
LINE
  5
142
100
AcDbEntity
  8
Calque_1
 62
1
100
AcDbLine
 10
10.459011
 20
6.923474
 30
0.0
 11
6.923478
 21
10.459007
 31
0.0
  0
LINE
  5
143
100
AcDbEntity
  8
Calque_1
 62
1
100
AcDbLine
 10
12.710349
 20
15.538792
 30
0.0
 11
14.124563
 21
16.953005
 31
0.0
  0
LINE
  5
144
100
AcDbEntity
  8
Calque_1
 62
1
100
AcDbLine
 10
14.124563
 20
16.953005
 30
0.0
 11
16.952989
 21
14.124579
 31
0.0
  0
LINE
  5
145
100
AcDbEntity
  8
Calque_1
 62
1
100
AcDbLine
 10
16.952989
 20
14.124579
 30
0.0
 11
15.538776
 21
12.710365
 31
0.0
  0
LINE
  5
146
100
AcDbEntity
  8
Calque_1
 62
1
100
AcDbLine
 10
15.538776
 20
12.710365
 30
0.0
 11
12.710349
 21
15.538792
 31
0.0
  0
SPLINE
  5
147
100
AcDbEntity
  8
Calque_1
 62
1
100
AcDbSpline
 70
8
 71
3
 72
8
 73
4
 74
0
 40
0
 40
0
 40
0
 40
0
 40
1
 40
1
 40
1
 40
1
 10
4.672120
 20
6.793447
 30
0.0
 10
4.243124
 20
6.364450
 30
0.0
 10
4.114790
 20
5.719274
 30
0.0
 10
4.346961
 20
5.158762
 30
0.0
  0
SPLINE
  5
148
100
AcDbEntity
  8
Calque_1
 62
1
100
AcDbSpline
 70
8
 71
3
 72
8
 73
4
 74
0
 40
0
 40
0
 40
0
 40
0
 40
1
 40
1
 40
1
 40
1
 10
4.346961
 20
5.158762
 30
0.0
 10
4.579133
 20
4.598251
 30
0.0
 10
5.126087
 20
4.232787
 30
0.0
 10
5.732780
 20
4.232787
 30
0.0
  0
SPLINE
  5
149
100
AcDbEntity
  8
Calque_1
 62
1
100
AcDbSpline
 70
8
 71
3
 72
8
 73
4
 74
0
 40
0
 40
0
 40
0
 40
0
 40
1
 40
1
 40
1
 40
1
 10
5.732780
 20
4.232787
 30
0.0
 10
6.339474
 20
4.232787
 30
0.0
 10
6.886428
 20
4.598251
 30
0.0
 10
7.118599
 20
5.158762
 30
0.0
  0
SPLINE
  5
14a
100
AcDbEntity
  8
Calque_1
 62
1
100
AcDbSpline
 70
8
 71
3
 72
8
 73
4
 74
0
 40
0
 40
0
 40
0
 40
0
 40
1
 40
1
 40
1
 40
1
 10
7.118599
 20
5.158762
 30
0.0
 10
7.350771
 20
5.719274
 30
0.0
 10
7.222437
 20
6.364450
 30
0.0
 10
6.793440
 20
6.793447
 30
0.0
  0
SPLINE
  5
14b
100
AcDbEntity
  8
Calque_1
 62
1
100
AcDbSpline
 70
8
 71
3
 72
8
 73
4
 74
0
 40
0
 40
0
 40
0
 40
0
 40
1
 40
1
 40
1
 40
1
 10
6.793440
 20
6.793447
 30
0.0
 10
6.512136
 20
7.074751
 30
0.0
 10
6.130605
 20
7.232787
 30
0.0
 10
5.732780
 20
7.232787
 30
0.0
  0
SPLINE
  5
14c
100
AcDbEntity
  8
Calque_1
 62
1
100
AcDbSpline
 70
8
 71
3
 72
8
 73
4
 74
0
 40
0
 40
0
 40
0
 40
0
 40
1
 40
1
 40
1
 40
1
 10
5.732780
 20
7.232787
 30
0.0
 10
5.334956
 20
7.232787
 30
0.0
 10
4.953425
 20
7.074751
 30
0.0
 10
4.672120
 20
6.793447
 30
0.0
  0
LINE
  5
14d
100
AcDbEntity
  8
Calque_1
 62
1
100
AcDbLine
 10
4.672120
 20
6.793447
 30
0.0
 11
4.672120
 21
6.793447
 31
0.0
  0
LINE
  5
14e
100
AcDbEntity
  8
Calque_1
 62
1
100
AcDbLine
 10
33.644310
 20
33.564652
 30
0.0
 11
55.725362
 21
39.481252
 31
0.0
  0
LINE
  5
14f
100
AcDbEntity
  8
Calque_1
 62
1
100
AcDbLine
 10
55.725362
 20
39.481252
 30
0.0
 11
60.327162
 21
22.307100
 31
0.0
  0
LINE
  5
150
100
AcDbEntity
  8
Calque_1
 62
1
100
AcDbLine
 10
60.327162
 20
22.307100
 30
0.0
 11
38.246110
 21
16.390500
 31
0.0
  0
LINE
  5
151
100
AcDbEntity
  8
Calque_1
 62
1
100
AcDbLine
 10
38.246110
 20
16.390500
 30
0.0
 11
33.644310
 21
33.564652
 31
0.0
  0
LINE
  5
152
100
AcDbEntity
  8
Calque_1
 62
1
100
AcDbLine
 10
51.542854
 20
31.369509
 30
0.0
 11
54.247445
 21
32.094202
 31
0.0
  0
LINE
  5
153
100
AcDbEntity
  8
Calque_1
 62
1
100
AcDbLine
 10
54.247445
 20
32.094202
 30
0.0
 11
55.955650
 21
25.719096
 31
0.0
  0
LINE
  5
154
100
AcDbEntity
  8
Calque_1
 62
1
100
AcDbLine
 10
55.955650
 20
25.719096
 30
0.0
 11
53.251059
 21
24.994403
 31
0.0
  0
LINE
  5
155
100
AcDbEntity
  8
Calque_1
 62
1
100
AcDbLine
 10
53.251059
 20
24.994403
 30
0.0
 11
51.542854
 21
31.369509
 31
0.0
  0
LINE
  5
156
100
AcDbEntity
  8
Calque_1
 62
1
100
AcDbLine
 10
38.617748
 20
27.906237
 30
0.0
 11
41.322339
 21
28.630930
 31
0.0
  0
LINE
  5
157
100
AcDbEntity
  8
Calque_1
 62
1
100
AcDbLine
 10
41.322339
 20
28.630930
 30
0.0
 11
43.030543
 21
22.255824
 31
0.0
  0
LINE
  5
158
100
AcDbEntity
  8
Calque_1
 62
1
100
AcDbLine
 10
43.030543
 20
22.255824
 30
0.0
 11
40.325952
 21
21.531131
 31
0.0
  0
LINE
  5
159
100
AcDbEntity
  8
Calque_1
 62
1
100
AcDbLine
 10
40.325952
 20
21.531131
 30
0.0
 11
38.617748
 21
27.906237
 31
0.0
  0
LINE
  5
15a
100
AcDbEntity
  8
Calque_1
 62
1
100
AcDbLine
 10
28.589165
 20
14.420742
 30
0.0
 11
30.569063
 21
12.440845
 31
0.0
  0
LINE
  5
15b
100
AcDbEntity
  8
Calque_1
 62
1
100
AcDbLine
 10
30.569063
 20
12.440845
 30
0.0
 11
25.902161
 21
7.773943
 31
0.0
  0
LINE
  5
15c
100
AcDbEntity
  8
Calque_1
 62
1
100
AcDbLine
 10
25.902161
 20
7.773943
 30
0.0
 11
23.922264
 21
9.753840
 31
0.0
  0
LINE
  5
15d
100
AcDbEntity
  8
Calque_1
 62
1
100
AcDbLine
 10
23.922264
 20
9.753840
 30
0.0
 11
28.589165
 21
14.420742
 31
0.0
  0
LINE
  5
15e
100
AcDbEntity
  8
Calque_1
 62
1
100
AcDbLine
 10
68.950524
 20
22.725119
 30
0.0
 11
69.675217
 21
25.429710
 31
0.0
  0
LINE
  5
15f
100
AcDbEntity
  8
Calque_1
 62
1
100
AcDbLine
 10
69.675217
 20
25.429710
 30
0.0
 11
76.050323
 21
23.721505
 31
0.0
  0
LINE
  5
160
100
AcDbEntity
  8
Calque_1
 62
1
100
AcDbLine
 10
76.050323
 20
23.721505
 30
0.0
 11
75.325630
 21
21.016915
 31
0.0
  0
LINE
  5
161
100
AcDbEntity
  8
Calque_1
 62
1
100
AcDbLine
 10
75.325630
 20
21.016915
 30
0.0
 11
68.950524
 21
22.725119
 31
0.0
  0
LINE
  5
162
100
AcDbEntity
  8
Calque_1
 62
1
100
AcDbLine
 10
42.926116
 20
29.060661
 30
0.0
 11
45.630706
 21
29.785354
 31
0.0
  0
LINE
  5
163
100
AcDbEntity
  8
Calque_1
 62
1
100
AcDbLine
 10
45.630706
 20
29.785354
 30
0.0
 11
47.338911
 21
23.410247
 31
0.0
  0
LINE
  5
164
100
AcDbEntity
  8
Calque_1
 62
1
100
AcDbLine
 10
47.338911
 20
23.410247
 30
0.0
 11
44.634320
 21
22.685555
 31
0.0
  0
LINE
  5
165
100
AcDbEntity
  8
Calque_1
 62
1
100
AcDbLine
 10
44.634320
 20
22.685555
 30
0.0
 11
42.926116
 21
29.060661
 31
0.0
  0
LINE
  5
166
100
AcDbEntity
  8
Calque_1
 62
1
100
AcDbLine
 10
47.234485
 20
30.215085
 30
0.0
 11
49.939075
 21
30.939778
 31
0.0
  0
LINE
  5
167
100
AcDbEntity
  8
Calque_1
 62
1
100
AcDbLine
 10
49.939075
 20
30.939778
 30
0.0
 11
51.647280
 21
24.564671
 31
0.0
  0
LINE
  5
168
100
AcDbEntity
  8
Calque_1
 62
1
100
AcDbLine
 10
51.647280
 20
24.564671
 30
0.0
 11
48.942689
 21
23.839978
 31
0.0
  0
LINE
  5
169
100
AcDbEntity
  8
Calque_1
 62
1
100
AcDbLine
 10
48.942689
 20
23.839978
 30
0.0
 11
47.234485
 21
30.215085
 31
0.0
  0
LINE
  5
16a
100
AcDbEntity
  8
Calque_1
 62
1
100
AcDbLine
 10
24.845173
 20
51.450945
 30
0.0
 11
54.402484
 21
59.370804
 31
0.0
  0
LINE
  5
16b
100
AcDbEntity
  8
Calque_1
 62
1
100
AcDbLine
 10
36.561960
 20
57.178611
 30
0.0
 11
41.391587
 21
58.472705
 31
0.0
  0
LINE
  5
16c
100
AcDbEntity
  8
Calque_1
 62
1
100
AcDbLine
 10
41.391587
 20
58.472705
 30
0.0
 11
42.685681
 21
53.643078
 31
0.0
  0
LINE
  5
16d
100
AcDbEntity
  8
Calque_1
 62
1
100
AcDbLine
 10
42.685681
 20
53.643078
 30
0.0
 11
37.856054
 21
52.348984
 31
0.0
  0
LINE
  5
16e
100
AcDbEntity
  8
Calque_1
 62
1
100
AcDbLine
 10
37.856054
 20
52.348984
 30
0.0
 11
36.561960
 21
57.178611
 31
0.0
  0
LINE
  5
16f
100
AcDbEntity
  8
Calque_1
 62
1
100
AcDbLine
 10
44.327331
 20
58.741695
 30
0.0
 11
46.259181
 21
59.259333
 31
0.0
  0
LINE
  5
170
100
AcDbEntity
  8
Calque_1
 62
1
100
AcDbLine
 10
46.259181
 20
59.259333
 30
0.0
 11
47.294457
 21
55.395631
 31
0.0
  0
LINE
  5
171
100
AcDbEntity
  8
Calque_1
 62
1
100
AcDbLine
 10
47.294457
 20
55.395631
 30
0.0
 11
45.362606
 21
54.877993
 31
0.0
  0
LINE
  5
172
100
AcDbEntity
  8
Calque_1
 62
1
100
AcDbLine
 10
45.362606
 20
54.877993
 30
0.0
 11
44.327331
 21
58.741695
 31
0.0
  0
LINE
  5
173
100
AcDbEntity
  8
Calque_1
 62
1
100
AcDbLine
 10
24.187810
 20
53.862969
 30
0.0
 11
29.017438
 21
55.157063
 31
0.0
  0
LINE
  5
174
100
AcDbEntity
  8
Calque_1
 62
1
100
AcDbLine
 10
29.017438
 20
55.157063
 30
0.0
 11
30.311532
 21
50.327436
 31
0.0
  0
LINE
  5
175
100
AcDbEntity
  8
Calque_1
 62
1
100
AcDbLine
 10
30.311532
 20
50.327436
 30
0.0
 11
25.481905
 21
49.033341
 31
0.0
  0
LINE
  5
176
100
AcDbEntity
  8
Calque_1
 62
1
100
AcDbLine
 10
25.481905
 20
49.033341
 30
0.0
 11
24.187810
 21
53.862969
 31
0.0
  0
LINE
  5
177
100
AcDbEntity
  8
Calque_1
 62
1
100
AcDbLine
 10
31.953180
 20
55.426053
 30
0.0
 11
33.885031
 21
55.943691
 31
0.0
  0
LINE
  5
178
100
AcDbEntity
  8
Calque_1
 62
1
100
AcDbLine
 10
33.885031
 20
55.943691
 30
0.0
 11
34.920307
 21
52.079989
 31
0.0
  0
LINE
  5
179
100
AcDbEntity
  8
Calque_1
 62
1
100
AcDbLine
 10
34.920307
 20
52.079989
 30
0.0
 11
32.988456
 21
51.562351
 31
0.0
  0
LINE
  5
17a
100
AcDbEntity
  8
Calque_1
 62
1
100
AcDbLine
 10
32.988456
 20
51.562351
 30
0.0
 11
31.953180
 21
55.426053
 31
0.0
  0
LINE
  5
17b
100
AcDbEntity
  8
Calque_1
 62
1
100
AcDbLine
 10
48.936110
 20
60.494253
 30
0.0
 11
53.765737
 21
61.788347
 31
0.0
  0
LINE
  5
17c
100
AcDbEntity
  8
Calque_1
 62
1
100
AcDbLine
 10
53.765737
 20
61.788347
 30
0.0
 11
55.059831
 21
56.958720
 31
0.0
  0
LINE
  5
17d
100
AcDbEntity
  8
Calque_1
 62
1
100
AcDbLine
 10
55.059831
 20
56.958720
 30
0.0
 11
50.230204
 21
55.664626
 31
0.0
  0
LINE
  5
17e
100
AcDbEntity
  8
Calque_1
 62
1
100
AcDbLine
 10
50.230204
 20
55.664626
 30
0.0
 11
48.936110
 21
60.494253
 31
0.0
  0
LINE
  5
17f
100
AcDbEntity
  8
Calque_1
 62
1
100
AcDbLine
 10
40.025104
 20
46.185889
 30
0.0
 11
39.507466
 21
48.117740
 31
0.0
  0
LINE
  5
180
100
AcDbEntity
  8
Calque_1
 62
1
100
AcDbLine
 10
39.507466
 20
48.117740
 30
0.0
 11
43.371167
 21
49.153015
 31
0.0
  0
LINE
  5
181
100
AcDbEntity
  8
Calque_1
 62
1
100
AcDbLine
 10
43.371167
 20
49.153015
 30
0.0
 11
43.888805
 21
47.221165
 31
0.0
  0
LINE
  5
182
100
AcDbEntity
  8
Calque_1
 62
1
100
AcDbLine
 10
43.888805
 20
47.221165
 30
0.0
 11
40.025104
 21
46.185889
 31
0.0
  0
LINE
  5
183
100
AcDbEntity
  8
Calque_1
 62
1
100
AcDbLine
 10
23.641168
 20
37.784970
 30
0.0
 11
62.278176
 21
48.137726
 31
0.0
  0
ENDSEC
  0
SECTION
  2
OBJECTS
  0
DICTIONARY
  5
C
330
0
100
AcDbDictionary
  3
ACAD_GROUP
350
D
  3
ACAD_MLINESTYLE
350
17
  0
DICTIONARY
  5
D
330
C
100
AcDbDictionary
  0
DICTIONARY
  5
1A
330
C
100
AcDbDictionary
  0
DICTIONARY
  5
17
330
C
100
AcDbDictionary
  3
STANDARD
350
18
  0
DICTIONARY
  5
19
330
C
100
AcDbDictionary
  0
ENDSEC
  0
EOF
