  0
SECTION
  2
HEADER
  9
$ACADVER
  1
AC1014
  9
$HANDSEED
  5
FFFF
  9
$MEASUREMENT
 70
     1
  0
ENDSEC
  0
SECTION
  2
TABLES
  0
TABLE
  2
VPORT
  5
8
330
0
100
AcDbSymbolTable
 70
     4
  0
VPORT
  5
2E
330
8
100
AcDbSymbolTableRecord
100
AcDbViewportTableRecord
  2
*ACTIVE
 70
     0
 10
0.0
 20
0.0
 11
1.0
 21
1.0
 12
210.0
 22
148.5
 13
0.0
 23
0.0
 14
10.0
 24
10.0
 15
10.0
 25
10.0
 16
0.0
 26
0.0
 36
1.0
 17
0.0
 27
0.0
 37
0.0
 40
341.0
 41
1.24
 42
50.0
 43
0.0
 44
0.0
 50
0.0
 51
0.0
 71
     0
 72
   100
 73
     1
 74
     3
 75
     0
 76
     0
 77
     0
 78
     0
  0
ENDTAB
  0
TABLE
  2
LTYPE
  5
5
330
0
100
AcDbSymbolTable
 70
     1
  0
LTYPE
  5
14
330
5
100
AcDbSymbolTableRecord
100
AcDbLinetypeTableRecord
  2
BYBLOCK
 70
     0
  3

 72
    65
 73
     0
 40
0.0
  0
LTYPE
  5
15
330
5
100
AcDbSymbolTableRecord
100
AcDbLinetypeTableRecord
  2
BYLAYER
 70
     0
  3

 72
    65
 73
     0
 40
0.0
  0
LTYPE
  5
16
330
5
100
AcDbSymbolTableRecord
100
AcDbLinetypeTableRecord
  2
CONTINUOUS
 70
     0
  3
Solid line
 72
    65
 73
     0
 40
0.0
  0
ENDTAB
  0
TABLE
  2
LAYER
  5
2
100
AcDbSymbolTable
 70
2
  0
LAYER
  5
50
100
AcDbSymbolTableRecord
100
AcDbLayerTableRecord
  2
0
 70
0
  6
CONTINUOUS
  0
LAYER
  5
51
100
AcDbSymbolTableRecord
100
AcDbLayerTableRecord
  2
Calque_1
 70
0
  6
CONTINUOUS
  0
ENDTAB
  0
TABLE
  2
STYLE
  5
3
330
0
100
AcDbSymbolTable
 70
     1
  0
STYLE
  5
11
330
3
100
AcDbSymbolTableRecord
100
AcDbTextStyleTableRecord
  2
STANDARD
 70
     0
 40
0.0
 41
1.0
 50
0.0
 71
     0
 42
2.5
  3
txt
  4

  0
ENDTAB
  0
TABLE
  2
VIEW
  5
6
330
0
100
AcDbSymbolTable
 70
     0
  0
ENDTAB
  0
TABLE
  2
UCS
  5
7
330
0
100
AcDbSymbolTable
 70
     0
  0
ENDTAB
  0
TABLE
  2
APPID
  5
9
330
0
100
AcDbSymbolTable
 70
     2
  0
APPID
  5
12
330
9
100
AcDbSymbolTableRecord
100
AcDbRegAppTableRecord
  2
ACAD
 70
     0
  0
ENDTAB
  0
TABLE
  2
DIMSTYLE
  5
A
330
0
100
AcDbSymbolTable
 70
     1
  0
DIMSTYLE
105
27
330
A
100
AcDbSymbolTableRecord
100
AcDbDimStyleTableRecord
  2
ISO-25
 70
     0
  3

  4

  5

  6

  7

 40
1.0
 41
2.5
 42
0.625
 43
3.75
 44
1.25
 45
0.0
 46
0.0
 47
0.0
 48
0.0
140
2.5
141
2.5
142
0.0
143
0.03937007874016
144
1.0
145
0.0
146
1.0
147
0.625
 71
     0
 72
     0
 73
     0
 74
     0
 75
     0
 76
     0
 77
     1
 78
     8
170
     0
171
     3
172
     1
173
     0
174
     0
175
     0
176
     0
177
     0
178
     0
270
     2
271
     2
272
     2
273
     2
274
     3
340
11
275
     0
280
     0
281
     0
282
     0
283
     0
284
     8
285
     0
286
     0
287
     3
288
     0
  0
ENDTAB
  0
TABLE
  2
BLOCK_RECORD
  5
1
330
0
100
AcDbSymbolTable
 70
     1
  0
BLOCK_RECORD
  5
1F
330
1
100
AcDbSymbolTableRecord
100
AcDbBlockTableRecord
  2
*MODEL_SPACE
  0
BLOCK_RECORD
  5
1B
330
1
100
AcDbSymbolTableRecord
100
AcDbBlockTableRecord
  2
*PAPER_SPACE
  0
ENDTAB
  0
ENDSEC
  0
SECTION
  2
BLOCKS
  0
BLOCK
  5
20
330
1F
100
AcDbEntity
  8
0
100
AcDbBlockBegin
  2
*MODEL_SPACE
 70
     0
 10
0.0
 20
0.0
 30
0.0
  3
*MODEL_SPACE
  1

  0
ENDBLK
  5
21
330
1F
100
AcDbEntity
  8
0
100
AcDbBlockEnd
  0
BLOCK
  5
1C
330
1B
100
AcDbEntity
 67
     1
  8
0
100
AcDbBlockBegin
  2
*PAPER_SPACE
  1

  0
ENDBLK
  5
1D
330
1B
100
AcDbEntity
 67
     1
  8
0
100
AcDbBlockEnd
  0
ENDSEC
  0
SECTION
  2
ENTITIES
  0
SPLINE
  5
100
100
AcDbEntity
  8
Calque_1
 62
7
100
AcDbSpline
 70
8
 71
3
 72
8
 73
4
 74
0
 40
0
 40
0
 40
0
 40
0
 40
1
 40
1
 40
1
 40
1
 10
27.836134
 20
98.775881
 30
0.0
 10
23.273632
 20
97.553362
 30
0.0
 10
20.890481
 20
92.867907
 30
0.0
 10
9.850002
 20
51.664282
 30
0.0
  0
LINE
  5
101
100
AcDbEntity
  8
Calque_1
 62
7
100
AcDbLine
 10
9.850002
 20
51.664282
 30
0.0
 11
9.850129
 21
51.663753
 31
0.0
  0
SPLINE
  5
102
100
AcDbEntity
  8
Calque_1
 62
7
100
AcDbSpline
 70
8
 71
3
 72
8
 73
4
 74
0
 40
0
 40
0
 40
0
 40
0
 40
1
 40
1
 40
1
 40
1
 10
9.850129
 20
51.663753
 30
0.0
 10
9.844203
 20
51.641581
 30
0.0
 10
9.839443
 20
51.622761
 30
0.0
 10
9.833524
 20
51.600650
 30
0.0
  0
SPLINE
  5
103
100
AcDbEntity
  8
Calque_1
 62
7
100
AcDbSpline
 70
8
 71
3
 72
8
 73
4
 74
0
 40
0
 40
0
 40
0
 40
0
 40
1
 40
1
 40
1
 40
1
 10
9.833524
 20
51.600650
 30
0.0
 10
-1.188389
 20
10.461446
 30
0.0
 10
-1.467313
 20
5.209104
 30
0.0
 10
1.870768
 20
1.871023
 30
0.0
  0
LINE
  5
104
100
AcDbEntity
  8
Calque_1
 62
7
100
AcDbLine
 10
1.870768
 20
1.871023
 30
0.0
 11
1.870894
 21
1.870494
 31
0.0
  0
LINE
  5
105
100
AcDbEntity
  8
Calque_1
 62
7
100
AcDbLine
 10
1.870894
 20
1.870494
 30
0.0
 11
1.871529
 21
1.870229
 31
0.0
  0
SPLINE
  5
106
100
AcDbEntity
  8
Calque_1
 62
7
100
AcDbSpline
 70
8
 71
3
 72
8
 73
4
 74
0
 40
0
 40
0
 40
0
 40
0
 40
1
 40
1
 40
1
 40
1
 10
1.871529
 20
1.870229
 30
0.0
 10
5.211554
 20
-1.468912
 30
0.0
 10
10.463390
 20
-1.189462
 30
0.0
 10
51.663729
 20
9.850139
 30
0.0
  0
SPLINE
  5
107
100
AcDbEntity
  8
Calque_1
 62
7
100
AcDbSpline
 70
8
 71
3
 72
8
 73
4
 74
0
 40
0
 40
0
 40
0
 40
0
 40
1
 40
1
 40
1
 40
1
 10
51.663729
 20
9.850139
 30
0.0
 10
51.708150
 20
9.862045
 30
0.0
 10
51.745647
 20
9.873184
 30
0.0
 10
51.790002
 20
9.885069
 30
0.0
  0
SPLINE
  5
108
100
AcDbEntity
  8
Calque_1
 62
7
100
AcDbSpline
 70
8
 71
3
 72
8
 73
4
 74
0
 40
0
 40
0
 40
0
 40
0
 40
1
 40
1
 40
1
 40
1
 10
51.790002
 20
9.885069
 30
0.0
 10
92.863520
 20
20.893150
 30
0.0
 10
97.554564
 20
23.279421
 30
0.0
 10
98.775689
 20
27.836721
 30
0.0
  0
SPLINE
  5
109
100
AcDbEntity
  8
Calque_1
 62
7
100
AcDbSpline
 70
8
 71
3
 72
8
 73
4
 74
0
 40
0
 40
0
 40
0
 40
0
 40
1
 40
1
 40
1
 40
1
 10
98.775689
 20
27.836721
 30
0.0
 10
99.998213
 20
32.399225
 30
0.0
 10
97.132157
 20
36.805622
 30
0.0
 10
66.969001
 20
66.968773
 30
0.0
  0
LINE
  5
10a
100
AcDbEntity
  8
Calque_1
 62
7
100
AcDbLine
 10
66.969001
 20
66.968773
 30
0.0
 11
66.968472
 21
66.968892
 31
0.0
  0
SPLINE
  5
10b
100
AcDbEntity
  8
Calque_1
 62
7
100
AcDbSpline
 70
8
 71
3
 72
8
 73
4
 74
0
 40
0
 40
0
 40
0
 40
0
 40
1
 40
1
 40
1
 40
1
 10
66.968472
 20
66.968892
 30
0.0
 10
66.955983
 20
66.981380
 30
0.0
 10
66.947384
 20
66.989847
 30
0.0
 10
66.934891
 20
67.002312
 30
0.0
  0
SPLINE
  5
10c
100
AcDbEntity
  8
Calque_1
 62
7
100
AcDbSpline
 70
8
 71
3
 72
8
 73
4
 74
0
 40
0
 40
0
 40
0
 40
0
 40
1
 40
1
 40
1
 40
1
 10
66.934891
 20
67.002312
 30
0.0
 10
36.806543
 20
97.129524
 30
0.0
 10
32.397064
 20
99.997687
 30
0.0
 10
27.836626
 20
98.776012
 30
0.0
  0
LINE
  5
10d
100
AcDbEntity
  8
Calque_1
 62
7
100
AcDbLine
 10
27.836626
 20
98.776012
 30
0.0
 11
27.836097
 21
98.775886
 31
0.0
  0
LINE
  5
10e
100
AcDbEntity
  8
Calque_1
 62
7
100
AcDbLine
 10
27.836097
 20
98.775886
 30
0.0
 11
27.836134
 21
98.775881
 31
0.0
  0
LINE
  5
10f
100
AcDbEntity
  8
Calque_1
 62
7
100
AcDbLine
 10
27.836134
 20
98.775881
 30
0.0
 11
51.663729
 21
9.850139
 31
0.0
  0
LINE
  5
110
100
AcDbEntity
  8
Calque_1
 62
7
100
AcDbLine
 10
1.870894
 20
1.870494
 30
0.0
 11
66.968593
 21
66.968900
 31
0.0
  0
LINE
  5
111
100
AcDbEntity
  8
Calque_1
 62
7
100
AcDbLine
 10
9.850002
 20
51.664282
 30
0.0
 11
98.775482
 21
27.835948
 31
0.0
  0
SPLINE
  5
112
100
AcDbEntity
  8
Calque_1
 62
7
100
AcDbSpline
 70
8
 71
3
 72
8
 73
4
 74
0
 40
0
 40
0
 40
0
 40
0
 40
1
 40
1
 40
1
 40
1
 10
96.918868
 20
28.333829
 30
0.0
 10
97.001959
 20
28.643932
 30
0.0
 10
96.890068
 20
28.973554
 30
0.0
 10
96.635368
 20
29.168992
 30
0.0
  0
SPLINE
  5
113
100
AcDbEntity
  8
Calque_1
 62
7
100
AcDbSpline
 70
8
 71
3
 72
8
 73
4
 74
0
 40
0
 40
0
 40
0
 40
0
 40
1
 40
1
 40
1
 40
1
 10
96.635368
 20
29.168992
 30
0.0
 10
96.380668
 20
29.364430
 30
0.0
 10
96.033319
 20
29.387196
 30
0.0
 10
95.755288
 20
29.226675
 30
0.0
  0
SPLINE
  5
114
100
AcDbEntity
  8
Calque_1
 62
7
100
AcDbSpline
 70
8
 71
3
 72
8
 73
4
 74
0
 40
0
 40
0
 40
0
 40
0
 40
1
 40
1
 40
1
 40
1
 10
95.755288
 20
29.226675
 30
0.0
 10
95.477257
 20
29.066154
 30
0.0
 10
95.323299
 20
28.753957
 30
0.0
 10
95.365203
 20
28.435662
 30
0.0
  0
SPLINE
  5
115
100
AcDbEntity
  8
Calque_1
 62
7
100
AcDbSpline
 70
8
 71
3
 72
8
 73
4
 74
0
 40
0
 40
0
 40
0
 40
0
 40
1
 40
1
 40
1
 40
1
 10
95.365203
 20
28.435662
 30
0.0
 10
95.407108
 20
28.117366
 30
0.0
 10
95.636623
 20
27.855654
 30
0.0
 10
95.946726
 20
27.772563
 30
0.0
  0
SPLINE
  5
116
100
AcDbEntity
  8
Calque_1
 62
7
100
AcDbSpline
 70
8
 71
3
 72
8
 73
4
 74
0
 40
0
 40
0
 40
0
 40
0
 40
1
 40
1
 40
1
 40
1
 10
95.946726
 20
27.772563
 30
0.0
 10
96.150068
 20
27.718077
 30
0.0
 10
96.366727
 20
27.746601
 30
0.0
 10
96.549039
 20
27.851859
 30
0.0
  0
SPLINE
  5
117
100
AcDbEntity
  8
Calque_1
 62
7
100
AcDbSpline
 70
8
 71
3
 72
8
 73
4
 74
0
 40
0
 40
0
 40
0
 40
0
 40
1
 40
1
 40
1
 40
1
 10
96.549039
 20
27.851859
 30
0.0
 10
96.731351
 20
27.957117
 30
0.0
 10
96.864382
 20
28.130487
 30
0.0
 10
96.918868
 20
28.333829
 30
0.0
  0
LINE
  5
118
100
AcDbEntity
  8
Calque_1
 62
7
100
AcDbLine
 10
96.918868
 20
28.333829
 30
0.0
 11
96.918868
 21
28.333829
 31
0.0
  0
SPLINE
  5
119
100
AcDbEntity
  8
Calque_1
 62
7
100
AcDbSpline
 70
8
 71
3
 72
8
 73
4
 74
0
 40
0
 40
0
 40
0
 40
0
 40
1
 40
1
 40
1
 40
1
 10
89.191873
 20
30.404270
 30
0.0
 10
89.274965
 20
30.714373
 30
0.0
 10
89.163073
 20
31.043995
 30
0.0
 10
88.908373
 20
31.239433
 30
0.0
  0
SPLINE
  5
11a
100
AcDbEntity
  8
Calque_1
 62
7
100
AcDbSpline
 70
8
 71
3
 72
8
 73
4
 74
0
 40
0
 40
0
 40
0
 40
0
 40
1
 40
1
 40
1
 40
1
 10
88.908373
 20
31.239433
 30
0.0
 10
88.653674
 20
31.434871
 30
0.0
 10
88.306324
 20
31.457637
 30
0.0
 10
88.028293
 20
31.297116
 30
0.0
  0
SPLINE
  5
11b
100
AcDbEntity
  8
Calque_1
 62
7
100
AcDbSpline
 70
8
 71
3
 72
8
 73
4
 74
0
 40
0
 40
0
 40
0
 40
0
 40
1
 40
1
 40
1
 40
1
 10
88.028293
 20
31.297116
 30
0.0
 10
87.750263
 20
31.136595
 30
0.0
 10
87.596304
 20
30.824398
 30
0.0
 10
87.638209
 20
30.506103
 30
0.0
  0
SPLINE
  5
11c
100
AcDbEntity
  8
Calque_1
 62
7
100
AcDbSpline
 70
8
 71
3
 72
8
 73
4
 74
0
 40
0
 40
0
 40
0
 40
0
 40
1
 40
1
 40
1
 40
1
 10
87.638209
 20
30.506103
 30
0.0
 10
87.680113
 20
30.187807
 30
0.0
 10
87.909628
 20
29.926096
 30
0.0
 10
88.219731
 20
29.843004
 30
0.0
  0
SPLINE
  5
11d
100
AcDbEntity
  8
Calque_1
 62
7
100
AcDbSpline
 70
8
 71
3
 72
8
 73
4
 74
0
 40
0
 40
0
 40
0
 40
0
 40
1
 40
1
 40
1
 40
1
 10
88.219731
 20
29.843004
 30
0.0
 10
88.423074
 20
29.788518
 30
0.0
 10
88.639732
 20
29.817042
 30
0.0
 10
88.822044
 20
29.922300
 30
0.0
  0
SPLINE
  5
11e
100
AcDbEntity
  8
Calque_1
 62
7
100
AcDbSpline
 70
8
 71
3
 72
8
 73
4
 74
0
 40
0
 40
0
 40
0
 40
0
 40
1
 40
1
 40
1
 40
1
 10
88.822044
 20
29.922300
 30
0.0
 10
89.004356
 20
30.027558
 30
0.0
 10
89.137387
 20
30.200928
 30
0.0
 10
89.191873
 20
30.404270
 30
0.0
  0
LINE
  5
11f
100
AcDbEntity
  8
Calque_1
 62
7
100
AcDbLine
 10
89.191873
 20
30.404270
 30
0.0
 11
89.191873
 21
30.404270
 31
0.0
  0
SPLINE
  5
120
100
AcDbEntity
  8
Calque_1
 62
7
100
AcDbSpline
 70
8
 71
3
 72
8
 73
4
 74
0
 40
0
 40
0
 40
0
 40
0
 40
1
 40
1
 40
1
 40
1
 10
81.464458
 20
32.474824
 30
0.0
 10
81.547550
 20
32.784927
 30
0.0
 10
81.435658
 20
33.114549
 30
0.0
 10
81.180958
 20
33.309987
 30
0.0
  0
SPLINE
  5
121
100
AcDbEntity
  8
Calque_1
 62
7
100
AcDbSpline
 70
8
 71
3
 72
8
 73
4
 74
0
 40
0
 40
0
 40
0
 40
0
 40
1
 40
1
 40
1
 40
1
 10
81.180958
 20
33.309987
 30
0.0
 10
80.926259
 20
33.505425
 30
0.0
 10
80.578909
 20
33.528191
 30
0.0
 10
80.300878
 20
33.367670
 30
0.0
  0
SPLINE
  5
122
100
AcDbEntity
  8
Calque_1
 62
7
100
AcDbSpline
 70
8
 71
3
 72
8
 73
4
 74
0
 40
0
 40
0
 40
0
 40
0
 40
1
 40
1
 40
1
 40
1
 10
80.300878
 20
33.367670
 30
0.0
 10
80.022848
 20
33.207149
 30
0.0
 10
79.868889
 20
32.894952
 30
0.0
 10
79.910794
 20
32.576657
 30
0.0
  0
SPLINE
  5
123
100
AcDbEntity
  8
Calque_1
 62
7
100
AcDbSpline
 70
8
 71
3
 72
8
 73
4
 74
0
 40
0
 40
0
 40
0
 40
0
 40
1
 40
1
 40
1
 40
1
 10
79.910794
 20
32.576657
 30
0.0
 10
79.952698
 20
32.258361
 30
0.0
 10
80.182213
 20
31.996650
 30
0.0
 10
80.492316
 20
31.913558
 30
0.0
  0
SPLINE
  5
124
100
AcDbEntity
  8
Calque_1
 62
7
100
AcDbSpline
 70
8
 71
3
 72
8
 73
4
 74
0
 40
0
 40
0
 40
0
 40
0
 40
1
 40
1
 40
1
 40
1
 10
80.492316
 20
31.913558
 30
0.0
 10
80.695659
 20
31.859072
 30
0.0
 10
80.912317
 20
31.887596
 30
0.0
 10
81.094629
 20
31.992854
 30
0.0
  0
SPLINE
  5
125
100
AcDbEntity
  8
Calque_1
 62
7
100
AcDbSpline
 70
8
 71
3
 72
8
 73
4
 74
0
 40
0
 40
0
 40
0
 40
0
 40
1
 40
1
 40
1
 40
1
 10
81.094629
 20
31.992854
 30
0.0
 10
81.276941
 20
32.098112
 30
0.0
 10
81.409973
 20
32.271482
 30
0.0
 10
81.464458
 20
32.474824
 30
0.0
  0
LINE
  5
126
100
AcDbEntity
  8
Calque_1
 62
7
100
AcDbLine
 10
81.464458
 20
32.474824
 30
0.0
 11
81.464458
 21
32.474824
 31
0.0
  0
SPLINE
  5
127
100
AcDbEntity
  8
Calque_1
 62
7
100
AcDbSpline
 70
8
 71
3
 72
8
 73
4
 74
0
 40
0
 40
0
 40
0
 40
0
 40
1
 40
1
 40
1
 40
1
 10
73.737044
 20
34.545378
 30
0.0
 10
73.820136
 20
34.855481
 30
0.0
 10
73.708244
 20
35.185102
 30
0.0
 10
73.453544
 20
35.380540
 30
0.0
  0
SPLINE
  5
128
100
AcDbEntity
  8
Calque_1
 62
7
100
AcDbSpline
 70
8
 71
3
 72
8
 73
4
 74
0
 40
0
 40
0
 40
0
 40
0
 40
1
 40
1
 40
1
 40
1
 10
73.453544
 20
35.380540
 30
0.0
 10
73.198844
 20
35.575978
 30
0.0
 10
72.851495
 20
35.598745
 30
0.0
 10
72.573464
 20
35.438224
 30
0.0
  0
SPLINE
  5
129
100
AcDbEntity
  8
Calque_1
 62
7
100
AcDbSpline
 70
8
 71
3
 72
8
 73
4
 74
0
 40
0
 40
0
 40
0
 40
0
 40
1
 40
1
 40
1
 40
1
 10
72.573464
 20
35.438224
 30
0.0
 10
72.295434
 20
35.277703
 30
0.0
 10
72.141475
 20
34.965506
 30
0.0
 10
72.183380
 20
34.647210
 30
0.0
  0
SPLINE
  5
12a
100
AcDbEntity
  8
Calque_1
 62
7
100
AcDbSpline
 70
8
 71
3
 72
8
 73
4
 74
0
 40
0
 40
0
 40
0
 40
0
 40
1
 40
1
 40
1
 40
1
 10
72.183380
 20
34.647210
 30
0.0
 10
72.225284
 20
34.328915
 30
0.0
 10
72.454799
 20
34.067203
 30
0.0
 10
72.764902
 20
33.984111
 30
0.0
  0
SPLINE
  5
12b
100
AcDbEntity
  8
Calque_1
 62
7
100
AcDbSpline
 70
8
 71
3
 72
8
 73
4
 74
0
 40
0
 40
0
 40
0
 40
0
 40
1
 40
1
 40
1
 40
1
 10
72.764902
 20
33.984111
 30
0.0
 10
72.968245
 20
33.929626
 30
0.0
 10
73.184903
 20
33.958150
 30
0.0
 10
73.367215
 20
34.063407
 30
0.0
  0
SPLINE
  5
12c
100
AcDbEntity
  8
Calque_1
 62
7
100
AcDbSpline
 70
8
 71
3
 72
8
 73
4
 74
0
 40
0
 40
0
 40
0
 40
0
 40
1
 40
1
 40
1
 40
1
 10
73.367215
 20
34.063407
 30
0.0
 10
73.549527
 20
34.168665
 30
0.0
 10
73.682558
 20
34.342035
 30
0.0
 10
73.737044
 20
34.545378
 30
0.0
  0
LINE
  5
12d
100
AcDbEntity
  8
Calque_1
 62
7
100
AcDbLine
 10
73.737044
 20
34.545378
 30
0.0
 11
73.737044
 21
34.545378
 31
0.0
  0
SPLINE
  5
12e
100
AcDbEntity
  8
Calque_1
 62
7
100
AcDbSpline
 70
8
 71
3
 72
8
 73
4
 74
0
 40
0
 40
0
 40
0
 40
0
 40
1
 40
1
 40
1
 40
1
 10
66.010048
 20
36.615820
 30
0.0
 10
66.093140
 20
36.925922
 30
0.0
 10
65.981248
 20
37.255544
 30
0.0
 10
65.726548
 20
37.450982
 30
0.0
  0
SPLINE
  5
12f
100
AcDbEntity
  8
Calque_1
 62
7
100
AcDbSpline
 70
8
 71
3
 72
8
 73
4
 74
0
 40
0
 40
0
 40
0
 40
0
 40
1
 40
1
 40
1
 40
1
 10
65.726548
 20
37.450982
 30
0.0
 10
65.471848
 20
37.646420
 30
0.0
 10
65.124499
 20
37.669186
 30
0.0
 10
64.846468
 20
37.508665
 30
0.0
  0
SPLINE
  5
130
100
AcDbEntity
  8
Calque_1
 62
7
100
AcDbSpline
 70
8
 71
3
 72
8
 73
4
 74
0
 40
0
 40
0
 40
0
 40
0
 40
1
 40
1
 40
1
 40
1
 10
64.846468
 20
37.508665
 30
0.0
 10
64.568438
 20
37.348144
 30
0.0
 10
64.414479
 20
37.035947
 30
0.0
 10
64.456384
 20
36.717652
 30
0.0
  0
SPLINE
  5
131
100
AcDbEntity
  8
Calque_1
 62
7
100
AcDbSpline
 70
8
 71
3
 72
8
 73
4
 74
0
 40
0
 40
0
 40
0
 40
0
 40
1
 40
1
 40
1
 40
1
 10
64.456384
 20
36.717652
 30
0.0
 10
64.498288
 20
36.399356
 30
0.0
 10
64.727803
 20
36.137645
 30
0.0
 10
65.037906
 20
36.054553
 30
0.0
  0
SPLINE
  5
132
100
AcDbEntity
  8
Calque_1
 62
7
100
AcDbSpline
 70
8
 71
3
 72
8
 73
4
 74
0
 40
0
 40
0
 40
0
 40
0
 40
1
 40
1
 40
1
 40
1
 10
65.037906
 20
36.054553
 30
0.0
 10
65.241249
 20
36.000068
 30
0.0
 10
65.457907
 20
36.028591
 30
0.0
 10
65.640219
 20
36.133849
 30
0.0
  0
SPLINE
  5
133
100
AcDbEntity
  8
Calque_1
 62
7
100
AcDbSpline
 70
8
 71
3
 72
8
 73
4
 74
0
 40
0
 40
0
 40
0
 40
0
 40
1
 40
1
 40
1
 40
1
 10
65.640219
 20
36.133849
 30
0.0
 10
65.822531
 20
36.239107
 30
0.0
 10
65.955562
 20
36.412477
 30
0.0
 10
66.010048
 20
36.615820
 30
0.0
  0
LINE
  5
134
100
AcDbEntity
  8
Calque_1
 62
7
100
AcDbLine
 10
66.010048
 20
36.615820
 30
0.0
 11
66.010048
 21
36.615820
 31
0.0
  0
SPLINE
  5
135
100
AcDbEntity
  8
Calque_1
 62
7
100
AcDbSpline
 70
8
 71
3
 72
8
 73
4
 74
0
 40
0
 40
0
 40
0
 40
0
 40
1
 40
1
 40
1
 40
1
 10
58.282635
 20
38.686373
 30
0.0
 10
58.365727
 20
38.996476
 30
0.0
 10
58.253836
 20
39.326097
 30
0.0
 10
57.999136
 20
39.521535
 30
0.0
  0
SPLINE
  5
136
100
AcDbEntity
  8
Calque_1
 62
7
100
AcDbSpline
 70
8
 71
3
 72
8
 73
4
 74
0
 40
0
 40
0
 40
0
 40
0
 40
1
 40
1
 40
1
 40
1
 10
57.999136
 20
39.521535
 30
0.0
 10
57.744436
 20
39.716973
 30
0.0
 10
57.397086
 20
39.739740
 30
0.0
 10
57.119056
 20
39.579219
 30
0.0
  0
SPLINE
  5
137
100
AcDbEntity
  8
Calque_1
 62
7
100
AcDbSpline
 70
8
 71
3
 72
8
 73
4
 74
0
 40
0
 40
0
 40
0
 40
0
 40
1
 40
1
 40
1
 40
1
 10
57.119056
 20
39.579219
 30
0.0
 10
56.841025
 20
39.418698
 30
0.0
 10
56.687067
 20
39.106501
 30
0.0
 10
56.728971
 20
38.788205
 30
0.0
  0
SPLINE
  5
138
100
AcDbEntity
  8
Calque_1
 62
7
100
AcDbSpline
 70
8
 71
3
 72
8
 73
4
 74
0
 40
0
 40
0
 40
0
 40
0
 40
1
 40
1
 40
1
 40
1
 10
56.728971
 20
38.788205
 30
0.0
 10
56.770876
 20
38.469910
 30
0.0
 10
57.000390
 20
38.208198
 30
0.0
 10
57.310493
 20
38.125106
 30
0.0
  0
SPLINE
  5
139
100
AcDbEntity
  8
Calque_1
 62
7
100
AcDbSpline
 70
8
 71
3
 72
8
 73
4
 74
0
 40
0
 40
0
 40
0
 40
0
 40
1
 40
1
 40
1
 40
1
 10
57.310493
 20
38.125106
 30
0.0
 10
57.513836
 20
38.070621
 30
0.0
 10
57.730494
 20
38.099144
 30
0.0
 10
57.912806
 20
38.204402
 30
0.0
  0
SPLINE
  5
13a
100
AcDbEntity
  8
Calque_1
 62
7
100
AcDbSpline
 70
8
 71
3
 72
8
 73
4
 74
0
 40
0
 40
0
 40
0
 40
0
 40
1
 40
1
 40
1
 40
1
 10
57.912806
 20
38.204402
 30
0.0
 10
58.095118
 20
38.309660
 30
0.0
 10
58.228150
 20
38.483030
 30
0.0
 10
58.282635
 20
38.686373
 30
0.0
  0
LINE
  5
13b
100
AcDbEntity
  8
Calque_1
 62
7
100
AcDbLine
 10
58.282635
 20
38.686373
 30
0.0
 11
58.282635
 21
38.686373
 31
0.0
  0
SPLINE
  5
13c
100
AcDbEntity
  8
Calque_1
 62
7
100
AcDbSpline
 70
8
 71
3
 72
8
 73
4
 74
0
 40
0
 40
0
 40
0
 40
0
 40
1
 40
1
 40
1
 40
1
 10
50.554809
 20
40.757037
 30
0.0
 10
50.637900
 20
41.067140
 30
0.0
 10
50.526009
 20
41.396761
 30
0.0
 10
50.271309
 20
41.592199
 30
0.0
  0
SPLINE
  5
13d
100
AcDbEntity
  8
Calque_1
 62
7
100
AcDbSpline
 70
8
 71
3
 72
8
 73
4
 74
0
 40
0
 40
0
 40
0
 40
0
 40
1
 40
1
 40
1
 40
1
 10
50.271309
 20
41.592199
 30
0.0
 10
50.016609
 20
41.787637
 30
0.0
 10
49.669260
 20
41.810404
 30
0.0
 10
49.391229
 20
41.649883
 30
0.0
  0
SPLINE
  5
13e
100
AcDbEntity
  8
Calque_1
 62
7
100
AcDbSpline
 70
8
 71
3
 72
8
 73
4
 74
0
 40
0
 40
0
 40
0
 40
0
 40
1
 40
1
 40
1
 40
1
 10
49.391229
 20
41.649883
 30
0.0
 10
49.113198
 20
41.489362
 30
0.0
 10
48.959240
 20
41.177165
 30
0.0
 10
49.001144
 20
40.858869
 30
0.0
  0
SPLINE
  5
13f
100
AcDbEntity
  8
Calque_1
 62
7
100
AcDbSpline
 70
8
 71
3
 72
8
 73
4
 74
0
 40
0
 40
0
 40
0
 40
0
 40
1
 40
1
 40
1
 40
1
 10
49.001144
 20
40.858869
 30
0.0
 10
49.043049
 20
40.540574
 30
0.0
 10
49.272564
 20
40.278862
 30
0.0
 10
49.582667
 20
40.195770
 30
0.0
  0
SPLINE
  5
140
100
AcDbEntity
  8
Calque_1
 62
7
100
AcDbSpline
 70
8
 71
3
 72
8
 73
4
 74
0
 40
0
 40
0
 40
0
 40
0
 40
1
 40
1
 40
1
 40
1
 10
49.582667
 20
40.195770
 30
0.0
 10
49.786009
 20
40.141285
 30
0.0
 10
50.002668
 20
40.169809
 30
0.0
 10
50.184980
 20
40.275066
 30
0.0
  0
SPLINE
  5
141
100
AcDbEntity
  8
Calque_1
 62
7
100
AcDbSpline
 70
8
 71
3
 72
8
 73
4
 74
0
 40
0
 40
0
 40
0
 40
0
 40
1
 40
1
 40
1
 40
1
 10
50.184980
 20
40.275066
 30
0.0
 10
50.367292
 20
40.380324
 30
0.0
 10
50.500323
 20
40.553694
 30
0.0
 10
50.554809
 20
40.757037
 30
0.0
  0
LINE
  5
142
100
AcDbEntity
  8
Calque_1
 62
7
100
AcDbLine
 10
50.554809
 20
40.757037
 30
0.0
 11
50.554809
 21
40.757037
 31
0.0
  0
SPLINE
  5
143
100
AcDbEntity
  8
Calque_1
 62
7
100
AcDbSpline
 70
8
 71
3
 72
8
 73
4
 74
0
 40
0
 40
0
 40
0
 40
0
 40
1
 40
1
 40
1
 40
1
 10
42.827813
 20
42.827479
 30
0.0
 10
42.910904
 20
43.137581
 30
0.0
 10
42.799013
 20
43.467203
 30
0.0
 10
42.544313
 20
43.662641
 30
0.0
  0
SPLINE
  5
144
100
AcDbEntity
  8
Calque_1
 62
7
100
AcDbSpline
 70
8
 71
3
 72
8
 73
4
 74
0
 40
0
 40
0
 40
0
 40
0
 40
1
 40
1
 40
1
 40
1
 10
42.544313
 20
43.662641
 30
0.0
 10
42.289613
 20
43.858079
 30
0.0
 10
41.942264
 20
43.880845
 30
0.0
 10
41.664233
 20
43.720324
 30
0.0
  0
SPLINE
  5
145
100
AcDbEntity
  8
Calque_1
 62
7
100
AcDbSpline
 70
8
 71
3
 72
8
 73
4
 74
0
 40
0
 40
0
 40
0
 40
0
 40
1
 40
1
 40
1
 40
1
 10
41.664233
 20
43.720324
 30
0.0
 10
41.386202
 20
43.559803
 30
0.0
 10
41.232244
 20
43.247606
 30
0.0
 10
41.274148
 20
42.929311
 30
0.0
  0
SPLINE
  5
146
100
AcDbEntity
  8
Calque_1
 62
7
100
AcDbSpline
 70
8
 71
3
 72
8
 73
4
 74
0
 40
0
 40
0
 40
0
 40
0
 40
1
 40
1
 40
1
 40
1
 10
41.274148
 20
42.929311
 30
0.0
 10
41.316053
 20
42.611015
 30
0.0
 10
41.545568
 20
42.349304
 30
0.0
 10
41.855671
 20
42.266212
 30
0.0
  0
SPLINE
  5
147
100
AcDbEntity
  8
Calque_1
 62
7
100
AcDbSpline
 70
8
 71
3
 72
8
 73
4
 74
0
 40
0
 40
0
 40
0
 40
0
 40
1
 40
1
 40
1
 40
1
 10
41.855671
 20
42.266212
 30
0.0
 10
42.059013
 20
42.211727
 30
0.0
 10
42.275672
 20
42.240250
 30
0.0
 10
42.457984
 20
42.345508
 30
0.0
  0
SPLINE
  5
148
100
AcDbEntity
  8
Calque_1
 62
7
100
AcDbSpline
 70
8
 71
3
 72
8
 73
4
 74
0
 40
0
 40
0
 40
0
 40
0
 40
1
 40
1
 40
1
 40
1
 10
42.457984
 20
42.345508
 30
0.0
 10
42.640296
 20
42.450766
 30
0.0
 10
42.773327
 20
42.624136
 30
0.0
 10
42.827813
 20
42.827479
 30
0.0
  0
LINE
  5
149
100
AcDbEntity
  8
Calque_1
 62
7
100
AcDbLine
 10
42.827813
 20
42.827479
 30
0.0
 11
42.827813
 21
42.827479
 31
0.0
  0
SPLINE
  5
14a
100
AcDbEntity
  8
Calque_1
 62
7
100
AcDbSpline
 70
8
 71
3
 72
8
 73
4
 74
0
 40
0
 40
0
 40
0
 40
0
 40
1
 40
1
 40
1
 40
1
 10
35.100395
 20
44.898033
 30
0.0
 10
35.183487
 20
45.208136
 30
0.0
 10
35.071595
 20
45.537758
 30
0.0
 10
34.816895
 20
45.733196
 30
0.0
  0
SPLINE
  5
14b
100
AcDbEntity
  8
Calque_1
 62
7
100
AcDbSpline
 70
8
 71
3
 72
8
 73
4
 74
0
 40
0
 40
0
 40
0
 40
0
 40
1
 40
1
 40
1
 40
1
 10
34.816895
 20
45.733196
 30
0.0
 10
34.562196
 20
45.928634
 30
0.0
 10
34.214846
 20
45.951400
 30
0.0
 10
33.936815
 20
45.790879
 30
0.0
  0
SPLINE
  5
14c
100
AcDbEntity
  8
Calque_1
 62
7
100
AcDbSpline
 70
8
 71
3
 72
8
 73
4
 74
0
 40
0
 40
0
 40
0
 40
0
 40
1
 40
1
 40
1
 40
1
 10
33.936815
 20
45.790879
 30
0.0
 10
33.658785
 20
45.630358
 30
0.0
 10
33.504826
 20
45.318161
 30
0.0
 10
33.546731
 20
44.999866
 30
0.0
  0
SPLINE
  5
14d
100
AcDbEntity
  8
Calque_1
 62
7
100
AcDbSpline
 70
8
 71
3
 72
8
 73
4
 74
0
 40
0
 40
0
 40
0
 40
0
 40
1
 40
1
 40
1
 40
1
 10
33.546731
 20
44.999866
 30
0.0
 10
33.588635
 20
44.681570
 30
0.0
 10
33.818150
 20
44.419858
 30
0.0
 10
34.128253
 20
44.336767
 30
0.0
  0
SPLINE
  5
14e
100
AcDbEntity
  8
Calque_1
 62
7
100
AcDbSpline
 70
8
 71
3
 72
8
 73
4
 74
0
 40
0
 40
0
 40
0
 40
0
 40
1
 40
1
 40
1
 40
1
 10
34.128253
 20
44.336767
 30
0.0
 10
34.331596
 20
44.282281
 30
0.0
 10
34.548254
 20
44.310805
 30
0.0
 10
34.730566
 20
44.416063
 30
0.0
  0
SPLINE
  5
14f
100
AcDbEntity
  8
Calque_1
 62
7
100
AcDbSpline
 70
8
 71
3
 72
8
 73
4
 74
0
 40
0
 40
0
 40
0
 40
0
 40
1
 40
1
 40
1
 40
1
 10
34.730566
 20
44.416063
 30
0.0
 10
34.912878
 20
44.521321
 30
0.0
 10
35.045909
 20
44.694691
 30
0.0
 10
35.100395
 20
44.898033
 30
0.0
  0
LINE
  5
150
100
AcDbEntity
  8
Calque_1
 62
7
100
AcDbLine
 10
35.100395
 20
44.898033
 30
0.0
 11
35.100395
 21
44.898033
 31
0.0
  0
SPLINE
  5
151
100
AcDbEntity
  8
Calque_1
 62
7
100
AcDbSpline
 70
8
 71
3
 72
8
 73
4
 74
0
 40
0
 40
0
 40
0
 40
0
 40
1
 40
1
 40
1
 40
1
 10
27.372410
 20
46.968740
 30
0.0
 10
27.455502
 20
47.278843
 30
0.0
 10
27.343610
 20
47.608464
 30
0.0
 10
27.088910
 20
47.803902
 30
0.0
  0
SPLINE
  5
152
100
AcDbEntity
  8
Calque_1
 62
7
100
AcDbSpline
 70
8
 71
3
 72
8
 73
4
 74
0
 40
0
 40
0
 40
0
 40
0
 40
1
 40
1
 40
1
 40
1
 10
27.088910
 20
47.803902
 30
0.0
 10
26.834210
 20
47.999340
 30
0.0
 10
26.486861
 20
48.022107
 30
0.0
 10
26.208830
 20
47.861586
 30
0.0
  0
SPLINE
  5
153
100
AcDbEntity
  8
Calque_1
 62
7
100
AcDbSpline
 70
8
 71
3
 72
8
 73
4
 74
0
 40
0
 40
0
 40
0
 40
0
 40
1
 40
1
 40
1
 40
1
 10
26.208830
 20
47.861586
 30
0.0
 10
25.930800
 20
47.701065
 30
0.0
 10
25.776841
 20
47.388868
 30
0.0
 10
25.818746
 20
47.070572
 30
0.0
  0
SPLINE
  5
154
100
AcDbEntity
  8
Calque_1
 62
7
100
AcDbSpline
 70
8
 71
3
 72
8
 73
4
 74
0
 40
0
 40
0
 40
0
 40
0
 40
1
 40
1
 40
1
 40
1
 10
25.818746
 20
47.070572
 30
0.0
 10
25.860650
 20
46.752277
 30
0.0
 10
26.090165
 20
46.490565
 30
0.0
 10
26.400268
 20
46.407473
 30
0.0
  0
SPLINE
  5
155
100
AcDbEntity
  8
Calque_1
 62
7
100
AcDbSpline
 70
8
 71
3
 72
8
 73
4
 74
0
 40
0
 40
0
 40
0
 40
0
 40
1
 40
1
 40
1
 40
1
 10
26.400268
 20
46.407473
 30
0.0
 10
26.603611
 20
46.352988
 30
0.0
 10
26.820269
 20
46.381511
 30
0.0
 10
27.002581
 20
46.486769
 30
0.0
  0
SPLINE
  5
156
100
AcDbEntity
  8
Calque_1
 62
7
100
AcDbSpline
 70
8
 71
3
 72
8
 73
4
 74
0
 40
0
 40
0
 40
0
 40
0
 40
1
 40
1
 40
1
 40
1
 10
27.002581
 20
46.486769
 30
0.0
 10
27.184893
 20
46.592027
 30
0.0
 10
27.317924
 20
46.765397
 30
0.0
 10
27.372410
 20
46.968740
 30
0.0
  0
LINE
  5
157
100
AcDbEntity
  8
Calque_1
 62
7
100
AcDbLine
 10
27.372410
 20
46.968740
 30
0.0
 11
27.372410
 21
46.968740
 31
0.0
  0
SPLINE
  5
158
100
AcDbEntity
  8
Calque_1
 62
7
100
AcDbSpline
 70
8
 71
3
 72
8
 73
4
 74
0
 40
0
 40
0
 40
0
 40
0
 40
1
 40
1
 40
1
 40
1
 10
19.645414
 20
49.039181
 30
0.0
 10
19.728506
 20
49.349284
 30
0.0
 10
19.616614
 20
49.678906
 30
0.0
 10
19.361914
 20
49.874344
 30
0.0
  0
SPLINE
  5
159
100
AcDbEntity
  8
Calque_1
 62
7
100
AcDbSpline
 70
8
 71
3
 72
8
 73
4
 74
0
 40
0
 40
0
 40
0
 40
0
 40
1
 40
1
 40
1
 40
1
 10
19.361914
 20
49.874344
 30
0.0
 10
19.107214
 20
50.069782
 30
0.0
 10
18.759865
 20
50.092548
 30
0.0
 10
18.481834
 20
49.932027
 30
0.0
  0
SPLINE
  5
15a
100
AcDbEntity
  8
Calque_1
 62
7
100
AcDbSpline
 70
8
 71
3
 72
8
 73
4
 74
0
 40
0
 40
0
 40
0
 40
0
 40
1
 40
1
 40
1
 40
1
 10
18.481834
 20
49.932027
 30
0.0
 10
18.203804
 20
49.771506
 30
0.0
 10
18.049845
 20
49.459309
 30
0.0
 10
18.091750
 20
49.141014
 30
0.0
  0
SPLINE
  5
15b
100
AcDbEntity
  8
Calque_1
 62
7
100
AcDbSpline
 70
8
 71
3
 72
8
 73
4
 74
0
 40
0
 40
0
 40
0
 40
0
 40
1
 40
1
 40
1
 40
1
 10
18.091750
 20
49.141014
 30
0.0
 10
18.133654
 20
48.822718
 30
0.0
 10
18.363169
 20
48.561007
 30
0.0
 10
18.673272
 20
48.477915
 30
0.0
  0
SPLINE
  5
15c
100
AcDbEntity
  8
Calque_1
 62
7
100
AcDbSpline
 70
8
 71
3
 72
8
 73
4
 74
0
 40
0
 40
0
 40
0
 40
0
 40
1
 40
1
 40
1
 40
1
 10
18.673272
 20
48.477915
 30
0.0
 10
18.876615
 20
48.423429
 30
0.0
 10
19.093273
 20
48.451953
 30
0.0
 10
19.275585
 20
48.557211
 30
0.0
  0
SPLINE
  5
15d
100
AcDbEntity
  8
Calque_1
 62
7
100
AcDbSpline
 70
8
 71
3
 72
8
 73
4
 74
0
 40
0
 40
0
 40
0
 40
0
 40
1
 40
1
 40
1
 40
1
 10
19.275585
 20
48.557211
 30
0.0
 10
19.457897
 20
48.662469
 30
0.0
 10
19.590928
 20
48.835839
 30
0.0
 10
19.645414
 20
49.039181
 30
0.0
  0
LINE
  5
15e
100
AcDbEntity
  8
Calque_1
 62
7
100
AcDbLine
 10
19.645414
 20
49.039181
 30
0.0
 11
19.645414
 21
49.039181
 31
0.0
  0
SPLINE
  5
15f
100
AcDbEntity
  8
Calque_1
 62
7
100
AcDbSpline
 70
8
 71
3
 72
8
 73
4
 74
0
 40
0
 40
0
 40
0
 40
0
 40
1
 40
1
 40
1
 40
1
 10
11.917996
 20
51.109736
 30
0.0
 10
12.001088
 20
51.419839
 30
0.0
 10
11.889197
 20
51.749460
 30
0.0
 10
11.634497
 20
51.944898
 30
0.0
  0
SPLINE
  5
160
100
AcDbEntity
  8
Calque_1
 62
7
100
AcDbSpline
 70
8
 71
3
 72
8
 73
4
 74
0
 40
0
 40
0
 40
0
 40
0
 40
1
 40
1
 40
1
 40
1
 10
11.634497
 20
51.944898
 30
0.0
 10
11.379797
 20
52.140336
 30
0.0
 10
11.032447
 20
52.163103
 30
0.0
 10
10.754417
 20
52.002582
 30
0.0
  0
SPLINE
  5
161
100
AcDbEntity
  8
Calque_1
 62
7
100
AcDbSpline
 70
8
 71
3
 72
8
 73
4
 74
0
 40
0
 40
0
 40
0
 40
0
 40
1
 40
1
 40
1
 40
1
 10
10.754417
 20
52.002582
 30
0.0
 10
10.476386
 20
51.842061
 30
0.0
 10
10.322428
 20
51.529864
 30
0.0
 10
10.364332
 20
51.211568
 30
0.0
  0
SPLINE
  5
162
100
AcDbEntity
  8
Calque_1
 62
7
100
AcDbSpline
 70
8
 71
3
 72
8
 73
4
 74
0
 40
0
 40
0
 40
0
 40
0
 40
1
 40
1
 40
1
 40
1
 10
10.364332
 20
51.211568
 30
0.0
 10
10.406236
 20
50.893273
 30
0.0
 10
10.635751
 20
50.631561
 30
0.0
 10
10.945854
 20
50.548469
 30
0.0
  0
SPLINE
  5
163
100
AcDbEntity
  8
Calque_1
 62
7
100
AcDbSpline
 70
8
 71
3
 72
8
 73
4
 74
0
 40
0
 40
0
 40
0
 40
0
 40
1
 40
1
 40
1
 40
1
 10
10.945854
 20
50.548469
 30
0.0
 10
11.149197
 20
50.493984
 30
0.0
 10
11.365855
 20
50.522508
 30
0.0
 10
11.548167
 20
50.627766
 30
0.0
  0
SPLINE
  5
164
100
AcDbEntity
  8
Calque_1
 62
7
100
AcDbSpline
 70
8
 71
3
 72
8
 73
4
 74
0
 40
0
 40
0
 40
0
 40
0
 40
1
 40
1
 40
1
 40
1
 10
11.548167
 20
50.627766
 30
0.0
 10
11.730479
 20
50.733023
 30
0.0
 10
11.863511
 20
50.906393
 30
0.0
 10
11.917996
 20
51.109736
 30
0.0
  0
LINE
  5
165
100
AcDbEntity
  8
Calque_1
 62
7
100
AcDbLine
 10
11.917996
 20
51.109736
 30
0.0
 11
11.917996
 21
51.109736
 31
0.0
  0
SPLINE
  5
166
100
AcDbEntity
  8
Calque_1
 62
7
100
AcDbSpline
 70
8
 71
3
 72
8
 73
4
 74
0
 40
0
 40
0
 40
0
 40
0
 40
1
 40
1
 40
1
 40
1
 10
66.577245
 20
66.577073
 30
0.0
 10
66.350234
 20
66.804084
 30
0.0
 10
66.008828
 20
66.871994
 30
0.0
 10
65.712224
 20
66.749136
 30
0.0
  0
SPLINE
  5
167
100
AcDbEntity
  8
Calque_1
 62
7
100
AcDbSpline
 70
8
 71
3
 72
8
 73
4
 74
0
 40
0
 40
0
 40
0
 40
0
 40
1
 40
1
 40
1
 40
1
 10
65.712224
 20
66.749136
 30
0.0
 10
65.415619
 20
66.626279
 30
0.0
 10
65.222228
 20
66.336848
 30
0.0
 10
65.222228
 20
66.015806
 30
0.0
  0
SPLINE
  5
168
100
AcDbEntity
  8
Calque_1
 62
7
100
AcDbSpline
 70
8
 71
3
 72
8
 73
4
 74
0
 40
0
 40
0
 40
0
 40
0
 40
1
 40
1
 40
1
 40
1
 10
65.222228
 20
66.015806
 30
0.0
 10
65.222228
 20
65.694764
 30
0.0
 10
65.415619
 20
65.405334
 30
0.0
 10
65.712224
 20
65.282476
 30
0.0
  0
SPLINE
  5
169
100
AcDbEntity
  8
Calque_1
 62
7
100
AcDbSpline
 70
8
 71
3
 72
8
 73
4
 74
0
 40
0
 40
0
 40
0
 40
0
 40
1
 40
1
 40
1
 40
1
 10
65.712224
 20
65.282476
 30
0.0
 10
66.008828
 20
65.159619
 30
0.0
 10
66.350234
 20
65.227529
 30
0.0
 10
66.577245
 20
65.454540
 30
0.0
  0
SPLINE
  5
16a
100
AcDbEntity
  8
Calque_1
 62
7
100
AcDbSpline
 70
8
 71
3
 72
8
 73
4
 74
0
 40
0
 40
0
 40
0
 40
0
 40
1
 40
1
 40
1
 40
1
 10
66.577245
 20
65.454540
 30
0.0
 10
66.726102
 20
65.603397
 30
0.0
 10
66.809730
 20
65.805290
 30
0.0
 10
66.809730
 20
66.015806
 30
0.0
  0
SPLINE
  5
16b
100
AcDbEntity
  8
Calque_1
 62
7
100
AcDbSpline
 70
8
 71
3
 72
8
 73
4
 74
0
 40
0
 40
0
 40
0
 40
0
 40
1
 40
1
 40
1
 40
1
 10
66.809730
 20
66.015806
 30
0.0
 10
66.809730
 20
66.226322
 30
0.0
 10
66.726102
 20
66.428216
 30
0.0
 10
66.577245
 20
66.577073
 30
0.0
  0
LINE
  5
16c
100
AcDbEntity
  8
Calque_1
 62
7
100
AcDbLine
 10
66.577245
 20
66.577073
 30
0.0
 11
66.577245
 21
66.577073
 31
0.0
  0
SPLINE
  5
16d
100
AcDbEntity
  8
Calque_1
 62
7
100
AcDbSpline
 70
8
 71
3
 72
8
 73
4
 74
0
 40
0
 40
0
 40
0
 40
0
 40
1
 40
1
 40
1
 40
1
 10
60.920692
 20
60.920519
 30
0.0
 10
60.693681
 20
61.147530
 30
0.0
 10
60.352274
 20
61.215440
 30
0.0
 10
60.055670
 20
61.092583
 30
0.0
  0
SPLINE
  5
16e
100
AcDbEntity
  8
Calque_1
 62
7
100
AcDbSpline
 70
8
 71
3
 72
8
 73
4
 74
0
 40
0
 40
0
 40
0
 40
0
 40
1
 40
1
 40
1
 40
1
 10
60.055670
 20
61.092583
 30
0.0
 10
59.759066
 20
60.969725
 30
0.0
 10
59.565675
 20
60.680295
 30
0.0
 10
59.565675
 20
60.359253
 30
0.0
  0
SPLINE
  5
16f
100
AcDbEntity
  8
Calque_1
 62
7
100
AcDbSpline
 70
8
 71
3
 72
8
 73
4
 74
0
 40
0
 40
0
 40
0
 40
0
 40
1
 40
1
 40
1
 40
1
 10
59.565675
 20
60.359253
 30
0.0
 10
59.565675
 20
60.038211
 30
0.0
 10
59.759066
 20
59.748780
 30
0.0
 10
60.055670
 20
59.625923
 30
0.0
  0
SPLINE
  5
170
100
AcDbEntity
  8
Calque_1
 62
7
100
AcDbSpline
 70
8
 71
3
 72
8
 73
4
 74
0
 40
0
 40
0
 40
0
 40
0
 40
1
 40
1
 40
1
 40
1
 10
60.055670
 20
59.625923
 30
0.0
 10
60.352274
 20
59.503065
 30
0.0
 10
60.693681
 20
59.570975
 30
0.0
 10
60.920692
 20
59.797986
 30
0.0
  0
SPLINE
  5
171
100
AcDbEntity
  8
Calque_1
 62
7
100
AcDbSpline
 70
8
 71
3
 72
8
 73
4
 74
0
 40
0
 40
0
 40
0
 40
0
 40
1
 40
1
 40
1
 40
1
 10
60.920692
 20
59.797986
 30
0.0
 10
61.069549
 20
59.946843
 30
0.0
 10
61.153176
 20
60.148737
 30
0.0
 10
61.153176
 20
60.359253
 30
0.0
  0
SPLINE
  5
172
100
AcDbEntity
  8
Calque_1
 62
7
100
AcDbSpline
 70
8
 71
3
 72
8
 73
4
 74
0
 40
0
 40
0
 40
0
 40
0
 40
1
 40
1
 40
1
 40
1
 10
61.153176
 20
60.359253
 30
0.0
 10
61.153176
 20
60.569769
 30
0.0
 10
61.069549
 20
60.771662
 30
0.0
 10
60.920692
 20
60.920519
 30
0.0
  0
LINE
  5
173
100
AcDbEntity
  8
Calque_1
 62
7
100
AcDbLine
 10
60.920692
 20
60.920519
 30
0.0
 11
60.920692
 21
60.920519
 31
0.0
  0
SPLINE
  5
174
100
AcDbEntity
  8
Calque_1
 62
7
100
AcDbSpline
 70
8
 71
3
 72
8
 73
4
 74
0
 40
0
 40
0
 40
0
 40
0
 40
1
 40
1
 40
1
 40
1
 10
55.263831
 20
55.263658
 30
0.0
 10
55.036820
 20
55.490669
 30
0.0
 10
54.695413
 20
55.558579
 30
0.0
 10
54.398809
 20
55.435722
 30
0.0
  0
SPLINE
  5
175
100
AcDbEntity
  8
Calque_1
 62
7
100
AcDbSpline
 70
8
 71
3
 72
8
 73
4
 74
0
 40
0
 40
0
 40
0
 40
0
 40
1
 40
1
 40
1
 40
1
 10
54.398809
 20
55.435722
 30
0.0
 10
54.102205
 20
55.312864
 30
0.0
 10
53.908814
 20
55.023434
 30
0.0
 10
53.908814
 20
54.702392
 30
0.0
  0
SPLINE
  5
176
100
AcDbEntity
  8
Calque_1
 62
7
100
AcDbSpline
 70
8
 71
3
 72
8
 73
4
 74
0
 40
0
 40
0
 40
0
 40
0
 40
1
 40
1
 40
1
 40
1
 10
53.908814
 20
54.702392
 30
0.0
 10
53.908814
 20
54.381350
 30
0.0
 10
54.102205
 20
54.091919
 30
0.0
 10
54.398809
 20
53.969062
 30
0.0
  0
SPLINE
  5
177
100
AcDbEntity
  8
Calque_1
 62
7
100
AcDbSpline
 70
8
 71
3
 72
8
 73
4
 74
0
 40
0
 40
0
 40
0
 40
0
 40
1
 40
1
 40
1
 40
1
 10
54.398809
 20
53.969062
 30
0.0
 10
54.695413
 20
53.846204
 30
0.0
 10
55.036820
 20
53.914114
 30
0.0
 10
55.263831
 20
54.141125
 30
0.0
  0
SPLINE
  5
178
100
AcDbEntity
  8
Calque_1
 62
7
100
AcDbSpline
 70
8
 71
3
 72
8
 73
4
 74
0
 40
0
 40
0
 40
0
 40
0
 40
1
 40
1
 40
1
 40
1
 10
55.263831
 20
54.141125
 30
0.0
 10
55.412688
 20
54.289982
 30
0.0
 10
55.496315
 20
54.491876
 30
0.0
 10
55.496315
 20
54.702392
 30
0.0
  0
SPLINE
  5
179
100
AcDbEntity
  8
Calque_1
 62
7
100
AcDbSpline
 70
8
 71
3
 72
8
 73
4
 74
0
 40
0
 40
0
 40
0
 40
0
 40
1
 40
1
 40
1
 40
1
 10
55.496315
 20
54.702392
 30
0.0
 10
55.496315
 20
54.912907
 30
0.0
 10
55.412688
 20
55.114801
 30
0.0
 10
55.263831
 20
55.263658
 30
0.0
  0
LINE
  5
17a
100
AcDbEntity
  8
Calque_1
 62
7
100
AcDbLine
 10
55.263831
 20
55.263658
 30
0.0
 11
55.263831
 21
55.263658
 31
0.0
  0
SPLINE
  5
17b
100
AcDbEntity
  8
Calque_1
 62
7
100
AcDbSpline
 70
8
 71
3
 72
8
 73
4
 74
0
 40
0
 40
0
 40
0
 40
0
 40
1
 40
1
 40
1
 40
1
 10
49.606970
 20
49.606798
 30
0.0
 10
49.379959
 20
49.833809
 30
0.0
 10
49.038553
 20
49.901719
 30
0.0
 10
48.741949
 20
49.778861
 30
0.0
  0
SPLINE
  5
17c
100
AcDbEntity
  8
Calque_1
 62
7
100
AcDbSpline
 70
8
 71
3
 72
8
 73
4
 74
0
 40
0
 40
0
 40
0
 40
0
 40
1
 40
1
 40
1
 40
1
 10
48.741949
 20
49.778861
 30
0.0
 10
48.445344
 20
49.656004
 30
0.0
 10
48.251953
 20
49.366573
 30
0.0
 10
48.251953
 20
49.045531
 30
0.0
  0
SPLINE
  5
17d
100
AcDbEntity
  8
Calque_1
 62
7
100
AcDbSpline
 70
8
 71
3
 72
8
 73
4
 74
0
 40
0
 40
0
 40
0
 40
0
 40
1
 40
1
 40
1
 40
1
 10
48.251953
 20
49.045531
 30
0.0
 10
48.251953
 20
48.724489
 30
0.0
 10
48.445344
 20
48.435059
 30
0.0
 10
48.741949
 20
48.312201
 30
0.0
  0
SPLINE
  5
17e
100
AcDbEntity
  8
Calque_1
 62
7
100
AcDbSpline
 70
8
 71
3
 72
8
 73
4
 74
0
 40
0
 40
0
 40
0
 40
0
 40
1
 40
1
 40
1
 40
1
 10
48.741949
 20
48.312201
 30
0.0
 10
49.038553
 20
48.189344
 30
0.0
 10
49.379959
 20
48.257254
 30
0.0
 10
49.606970
 20
48.484265
 30
0.0
  0
SPLINE
  5
17f
100
AcDbEntity
  8
Calque_1
 62
7
100
AcDbSpline
 70
8
 71
3
 72
8
 73
4
 74
0
 40
0
 40
0
 40
0
 40
0
 40
1
 40
1
 40
1
 40
1
 10
49.606970
 20
48.484265
 30
0.0
 10
49.755827
 20
48.633122
 30
0.0
 10
49.839455
 20
48.835015
 30
0.0
 10
49.839455
 20
49.045531
 30
0.0
  0
SPLINE
  5
180
100
AcDbEntity
  8
Calque_1
 62
7
100
AcDbSpline
 70
8
 71
3
 72
8
 73
4
 74
0
 40
0
 40
0
 40
0
 40
0
 40
1
 40
1
 40
1
 40
1
 10
49.839455
 20
49.045531
 30
0.0
 10
49.839455
 20
49.256047
 30
0.0
 10
49.755827
 20
49.457941
 30
0.0
 10
49.606970
 20
49.606798
 30
0.0
  0
LINE
  5
181
100
AcDbEntity
  8
Calque_1
 62
7
100
AcDbLine
 10
49.606970
 20
49.606798
 30
0.0
 11
49.606970
 21
49.606798
 31
0.0
  0
SPLINE
  5
182
100
AcDbEntity
  8
Calque_1
 62
7
100
AcDbSpline
 70
8
 71
3
 72
8
 73
4
 74
0
 40
0
 40
0
 40
0
 40
0
 40
1
 40
1
 40
1
 40
1
 10
43.950416
 20
43.950243
 30
0.0
 10
43.723405
 20
44.177254
 30
0.0
 10
43.381998
 20
44.245164
 30
0.0
 10
43.085394
 20
44.122307
 30
0.0
  0
SPLINE
  5
183
100
AcDbEntity
  8
Calque_1
 62
7
100
AcDbSpline
 70
8
 71
3
 72
8
 73
4
 74
0
 40
0
 40
0
 40
0
 40
0
 40
1
 40
1
 40
1
 40
1
 10
43.085394
 20
44.122307
 30
0.0
 10
42.788790
 20
43.999449
 30
0.0
 10
42.595399
 20
43.710019
 30
0.0
 10
42.595399
 20
43.388977
 30
0.0
  0
SPLINE
  5
184
100
AcDbEntity
  8
Calque_1
 62
7
100
AcDbSpline
 70
8
 71
3
 72
8
 73
4
 74
0
 40
0
 40
0
 40
0
 40
0
 40
1
 40
1
 40
1
 40
1
 10
42.595399
 20
43.388977
 30
0.0
 10
42.595399
 20
43.067935
 30
0.0
 10
42.788790
 20
42.778504
 30
0.0
 10
43.085394
 20
42.655647
 30
0.0
  0
SPLINE
  5
185
100
AcDbEntity
  8
Calque_1
 62
7
100
AcDbSpline
 70
8
 71
3
 72
8
 73
4
 74
0
 40
0
 40
0
 40
0
 40
0
 40
1
 40
1
 40
1
 40
1
 10
43.085394
 20
42.655647
 30
0.0
 10
43.381998
 20
42.532789
 30
0.0
 10
43.723405
 20
42.600699
 30
0.0
 10
43.950416
 20
42.827710
 30
0.0
  0
SPLINE
  5
186
100
AcDbEntity
  8
Calque_1
 62
7
100
AcDbSpline
 70
8
 71
3
 72
8
 73
4
 74
0
 40
0
 40
0
 40
0
 40
0
 40
1
 40
1
 40
1
 40
1
 10
43.950416
 20
42.827710
 30
0.0
 10
44.099273
 20
42.976567
 30
0.0
 10
44.182900
 20
43.178461
 30
0.0
 10
44.182900
 20
43.388977
 30
0.0
  0
SPLINE
  5
187
100
AcDbEntity
  8
Calque_1
 62
7
100
AcDbSpline
 70
8
 71
3
 72
8
 73
4
 74
0
 40
0
 40
0
 40
0
 40
0
 40
1
 40
1
 40
1
 40
1
 10
44.182900
 20
43.388977
 30
0.0
 10
44.182900
 20
43.599493
 30
0.0
 10
44.099273
 20
43.801386
 30
0.0
 10
43.950416
 20
43.950243
 30
0.0
  0
LINE
  5
188
100
AcDbEntity
  8
Calque_1
 62
7
100
AcDbLine
 10
43.950416
 20
43.950243
 30
0.0
 11
43.950416
 21
43.950243
 31
0.0
  0
SPLINE
  5
189
100
AcDbEntity
  8
Calque_1
 62
7
100
AcDbSpline
 70
8
 71
3
 72
8
 73
4
 74
0
 40
0
 40
0
 40
0
 40
0
 40
1
 40
1
 40
1
 40
1
 10
38.293557
 20
38.293384
 30
0.0
 10
38.066545
 20
38.520395
 30
0.0
 10
37.725139
 20
38.588305
 30
0.0
 10
37.428535
 20
38.465448
 30
0.0
  0
SPLINE
  5
18a
100
AcDbEntity
  8
Calque_1
 62
7
100
AcDbSpline
 70
8
 71
3
 72
8
 73
4
 74
0
 40
0
 40
0
 40
0
 40
0
 40
1
 40
1
 40
1
 40
1
 10
37.428535
 20
38.465448
 30
0.0
 10
37.131930
 20
38.342590
 30
0.0
 10
36.938539
 20
38.053160
 30
0.0
 10
36.938539
 20
37.732117
 30
0.0
  0
SPLINE
  5
18b
100
AcDbEntity
  8
Calque_1
 62
7
100
AcDbSpline
 70
8
 71
3
 72
8
 73
4
 74
0
 40
0
 40
0
 40
0
 40
0
 40
1
 40
1
 40
1
 40
1
 10
36.938539
 20
37.732117
 30
0.0
 10
36.938539
 20
37.411075
 30
0.0
 10
37.131930
 20
37.121645
 30
0.0
 10
37.428535
 20
36.998787
 30
0.0
  0
SPLINE
  5
18c
100
AcDbEntity
  8
Calque_1
 62
7
100
AcDbSpline
 70
8
 71
3
 72
8
 73
4
 74
0
 40
0
 40
0
 40
0
 40
0
 40
1
 40
1
 40
1
 40
1
 10
37.428535
 20
36.998787
 30
0.0
 10
37.725139
 20
36.875930
 30
0.0
 10
38.066545
 20
36.943840
 30
0.0
 10
38.293557
 20
37.170851
 30
0.0
  0
SPLINE
  5
18d
100
AcDbEntity
  8
Calque_1
 62
7
100
AcDbSpline
 70
8
 71
3
 72
8
 73
4
 74
0
 40
0
 40
0
 40
0
 40
0
 40
1
 40
1
 40
1
 40
1
 10
38.293557
 20
37.170851
 30
0.0
 10
38.442414
 20
37.319708
 30
0.0
 10
38.526041
 20
37.521602
 30
0.0
 10
38.526041
 20
37.732117
 30
0.0
  0
SPLINE
  5
18e
100
AcDbEntity
  8
Calque_1
 62
7
100
AcDbSpline
 70
8
 71
3
 72
8
 73
4
 74
0
 40
0
 40
0
 40
0
 40
0
 40
1
 40
1
 40
1
 40
1
 10
38.526041
 20
37.732117
 30
0.0
 10
38.526041
 20
37.942633
 30
0.0
 10
38.442414
 20
38.144527
 30
0.0
 10
38.293557
 20
38.293384
 30
0.0
  0
LINE
  5
18f
100
AcDbEntity
  8
Calque_1
 62
7
100
AcDbLine
 10
38.293557
 20
38.293384
 30
0.0
 11
38.293557
 21
38.293384
 31
0.0
  0
SPLINE
  5
190
100
AcDbEntity
  8
Calque_1
 62
7
100
AcDbSpline
 70
8
 71
3
 72
8
 73
4
 74
0
 40
0
 40
0
 40
0
 40
0
 40
1
 40
1
 40
1
 40
1
 10
32.636394
 20
32.636222
 30
0.0
 10
32.409383
 20
32.863233
 30
0.0
 10
32.067977
 20
32.931143
 30
0.0
 10
31.771372
 20
32.808285
 30
0.0
  0
SPLINE
  5
191
100
AcDbEntity
  8
Calque_1
 62
7
100
AcDbSpline
 70
8
 71
3
 72
8
 73
4
 74
0
 40
0
 40
0
 40
0
 40
0
 40
1
 40
1
 40
1
 40
1
 10
31.771372
 20
32.808285
 30
0.0
 10
31.474768
 20
32.685428
 30
0.0
 10
31.281377
 20
32.395997
 30
0.0
 10
31.281377
 20
32.074955
 30
0.0
  0
SPLINE
  5
192
100
AcDbEntity
  8
Calque_1
 62
7
100
AcDbSpline
 70
8
 71
3
 72
8
 73
4
 74
0
 40
0
 40
0
 40
0
 40
0
 40
1
 40
1
 40
1
 40
1
 10
31.281377
 20
32.074955
 30
0.0
 10
31.281377
 20
31.753913
 30
0.0
 10
31.474768
 20
31.464482
 30
0.0
 10
31.771372
 20
31.341625
 30
0.0
  0
SPLINE
  5
193
100
AcDbEntity
  8
Calque_1
 62
7
100
AcDbSpline
 70
8
 71
3
 72
8
 73
4
 74
0
 40
0
 40
0
 40
0
 40
0
 40
1
 40
1
 40
1
 40
1
 10
31.771372
 20
31.341625
 30
0.0
 10
32.067977
 20
31.218767
 30
0.0
 10
32.409383
 20
31.286677
 30
0.0
 10
32.636394
 20
31.513688
 30
0.0
  0
SPLINE
  5
194
100
AcDbEntity
  8
Calque_1
 62
7
100
AcDbSpline
 70
8
 71
3
 72
8
 73
4
 74
0
 40
0
 40
0
 40
0
 40
0
 40
1
 40
1
 40
1
 40
1
 10
32.636394
 20
31.513688
 30
0.0
 10
32.785251
 20
31.662546
 30
0.0
 10
32.868878
 20
31.864439
 30
0.0
 10
32.868878
 20
32.074955
 30
0.0
  0
SPLINE
  5
195
100
AcDbEntity
  8
Calque_1
 62
7
100
AcDbSpline
 70
8
 71
3
 72
8
 73
4
 74
0
 40
0
 40
0
 40
0
 40
0
 40
1
 40
1
 40
1
 40
1
 10
32.868878
 20
32.074955
 30
0.0
 10
32.868878
 20
32.285471
 30
0.0
 10
32.785251
 20
32.487364
 30
0.0
 10
32.636394
 20
32.636222
 30
0.0
  0
LINE
  5
196
100
AcDbEntity
  8
Calque_1
 62
7
100
AcDbLine
 10
32.636394
 20
32.636222
 30
0.0
 11
32.636394
 21
32.636222
 31
0.0
  0
SPLINE
  5
197
100
AcDbEntity
  8
Calque_1
 62
7
100
AcDbSpline
 70
8
 71
3
 72
8
 73
4
 74
0
 40
0
 40
0
 40
0
 40
0
 40
1
 40
1
 40
1
 40
1
 10
26.979840
 20
26.979667
 30
0.0
 10
26.752829
 20
27.206678
 30
0.0
 10
26.411422
 20
27.274588
 30
0.0
 10
26.114818
 20
27.151731
 30
0.0
  0
SPLINE
  5
198
100
AcDbEntity
  8
Calque_1
 62
7
100
AcDbSpline
 70
8
 71
3
 72
8
 73
4
 74
0
 40
0
 40
0
 40
0
 40
0
 40
1
 40
1
 40
1
 40
1
 10
26.114818
 20
27.151731
 30
0.0
 10
25.818214
 20
27.028873
 30
0.0
 10
25.624822
 20
26.739443
 30
0.0
 10
25.624822
 20
26.418401
 30
0.0
  0
SPLINE
  5
199
100
AcDbEntity
  8
Calque_1
 62
7
100
AcDbSpline
 70
8
 71
3
 72
8
 73
4
 74
0
 40
0
 40
0
 40
0
 40
0
 40
1
 40
1
 40
1
 40
1
 10
25.624822
 20
26.418401
 30
0.0
 10
25.624822
 20
26.097358
 30
0.0
 10
25.818214
 20
25.807928
 30
0.0
 10
26.114818
 20
25.685071
 30
0.0
  0
SPLINE
  5
19a
100
AcDbEntity
  8
Calque_1
 62
7
100
AcDbSpline
 70
8
 71
3
 72
8
 73
4
 74
0
 40
0
 40
0
 40
0
 40
0
 40
1
 40
1
 40
1
 40
1
 10
26.114818
 20
25.685071
 30
0.0
 10
26.411422
 20
25.562213
 30
0.0
 10
26.752829
 20
25.630123
 30
0.0
 10
26.979840
 20
25.857134
 30
0.0
  0
SPLINE
  5
19b
100
AcDbEntity
  8
Calque_1
 62
7
100
AcDbSpline
 70
8
 71
3
 72
8
 73
4
 74
0
 40
0
 40
0
 40
0
 40
0
 40
1
 40
1
 40
1
 40
1
 10
26.979840
 20
25.857134
 30
0.0
 10
27.128697
 20
26.005991
 30
0.0
 10
27.212324
 20
26.207885
 30
0.0
 10
27.212324
 20
26.418401
 30
0.0
  0
SPLINE
  5
19c
100
AcDbEntity
  8
Calque_1
 62
7
100
AcDbSpline
 70
8
 71
3
 72
8
 73
4
 74
0
 40
0
 40
0
 40
0
 40
0
 40
1
 40
1
 40
1
 40
1
 10
27.212324
 20
26.418401
 30
0.0
 10
27.212324
 20
26.628916
 30
0.0
 10
27.128697
 20
26.830810
 30
0.0
 10
26.979840
 20
26.979667
 30
0.0
  0
LINE
  5
19d
100
AcDbEntity
  8
Calque_1
 62
7
100
AcDbLine
 10
26.979840
 20
26.979667
 30
0.0
 11
26.979840
 21
26.979667
 31
0.0
  0
SPLINE
  5
19e
100
AcDbEntity
  8
Calque_1
 62
7
100
AcDbSpline
 70
8
 71
3
 72
8
 73
4
 74
0
 40
0
 40
0
 40
0
 40
0
 40
1
 40
1
 40
1
 40
1
 10
21.322977
 20
21.322804
 30
0.0
 10
21.095965
 20
21.549815
 30
0.0
 10
20.754559
 20
21.617725
 30
0.0
 10
20.457955
 20
21.494868
 30
0.0
  0
SPLINE
  5
19f
100
AcDbEntity
  8
Calque_1
 62
7
100
AcDbSpline
 70
8
 71
3
 72
8
 73
4
 74
0
 40
0
 40
0
 40
0
 40
0
 40
1
 40
1
 40
1
 40
1
 10
20.457955
 20
21.494868
 30
0.0
 10
20.161350
 20
21.372010
 30
0.0
 10
19.967959
 20
21.082580
 30
0.0
 10
19.967959
 20
20.761537
 30
0.0
  0
SPLINE
  5
1a0
100
AcDbEntity
  8
Calque_1
 62
7
100
AcDbSpline
 70
8
 71
3
 72
8
 73
4
 74
0
 40
0
 40
0
 40
0
 40
0
 40
1
 40
1
 40
1
 40
1
 10
19.967959
 20
20.761537
 30
0.0
 10
19.967959
 20
20.440495
 30
0.0
 10
20.161350
 20
20.151065
 30
0.0
 10
20.457955
 20
20.028207
 30
0.0
  0
SPLINE
  5
1a1
100
AcDbEntity
  8
Calque_1
 62
7
100
AcDbSpline
 70
8
 71
3
 72
8
 73
4
 74
0
 40
0
 40
0
 40
0
 40
0
 40
1
 40
1
 40
1
 40
1
 10
20.457955
 20
20.028207
 30
0.0
 10
20.754559
 20
19.905350
 30
0.0
 10
21.095965
 20
19.973260
 30
0.0
 10
21.322977
 20
20.200271
 30
0.0
  0
SPLINE
  5
1a2
100
AcDbEntity
  8
Calque_1
 62
7
100
AcDbSpline
 70
8
 71
3
 72
8
 73
4
 74
0
 40
0
 40
0
 40
0
 40
0
 40
1
 40
1
 40
1
 40
1
 10
21.322977
 20
20.200271
 30
0.0
 10
21.471834
 20
20.349128
 30
0.0
 10
21.555461
 20
20.551022
 30
0.0
 10
21.555461
 20
20.761537
 30
0.0
  0
SPLINE
  5
1a3
100
AcDbEntity
  8
Calque_1
 62
7
100
AcDbSpline
 70
8
 71
3
 72
8
 73
4
 74
0
 40
0
 40
0
 40
0
 40
0
 40
1
 40
1
 40
1
 40
1
 10
21.555461
 20
20.761537
 30
0.0
 10
21.555461
 20
20.972053
 30
0.0
 10
21.471834
 20
21.173947
 30
0.0
 10
21.322977
 20
21.322804
 30
0.0
  0
LINE
  5
1a4
100
AcDbEntity
  8
Calque_1
 62
7
100
AcDbLine
 10
21.322977
 20
21.322804
 30
0.0
 11
21.322977
 21
21.322804
 31
0.0
  0
SPLINE
  5
1a5
100
AcDbEntity
  8
Calque_1
 62
7
100
AcDbSpline
 70
8
 71
3
 72
8
 73
4
 74
0
 40
0
 40
0
 40
0
 40
0
 40
1
 40
1
 40
1
 40
1
 10
15.665698
 20
15.665526
 30
0.0
 10
15.438687
 20
15.892537
 30
0.0
 10
15.097281
 20
15.960447
 30
0.0
 10
14.800676
 20
15.837589
 30
0.0
  0
SPLINE
  5
1a6
100
AcDbEntity
  8
Calque_1
 62
7
100
AcDbSpline
 70
8
 71
3
 72
8
 73
4
 74
0
 40
0
 40
0
 40
0
 40
0
 40
1
 40
1
 40
1
 40
1
 10
14.800676
 20
15.837589
 30
0.0
 10
14.504072
 20
15.714732
 30
0.0
 10
14.310681
 20
15.425301
 30
0.0
 10
14.310681
 20
15.104259
 30
0.0
  0
SPLINE
  5
1a7
100
AcDbEntity
  8
Calque_1
 62
7
100
AcDbSpline
 70
8
 71
3
 72
8
 73
4
 74
0
 40
0
 40
0
 40
0
 40
0
 40
1
 40
1
 40
1
 40
1
 10
14.310681
 20
15.104259
 30
0.0
 10
14.310681
 20
14.783217
 30
0.0
 10
14.504072
 20
14.493787
 30
0.0
 10
14.800676
 20
14.370929
 30
0.0
  0
SPLINE
  5
1a8
100
AcDbEntity
  8
Calque_1
 62
7
100
AcDbSpline
 70
8
 71
3
 72
8
 73
4
 74
0
 40
0
 40
0
 40
0
 40
0
 40
1
 40
1
 40
1
 40
1
 10
14.800676
 20
14.370929
 30
0.0
 10
15.097281
 20
14.248071
 30
0.0
 10
15.438687
 20
14.315981
 30
0.0
 10
15.665698
 20
14.542993
 30
0.0
  0
SPLINE
  5
1a9
100
AcDbEntity
  8
Calque_1
 62
7
100
AcDbSpline
 70
8
 71
3
 72
8
 73
4
 74
0
 40
0
 40
0
 40
0
 40
0
 40
1
 40
1
 40
1
 40
1
 10
15.665698
 20
14.542993
 30
0.0
 10
15.814555
 20
14.691850
 30
0.0
 10
15.898182
 20
14.893743
 30
0.0
 10
15.898182
 20
15.104259
 30
0.0
  0
SPLINE
  5
1aa
100
AcDbEntity
  8
Calque_1
 62
7
100
AcDbSpline
 70
8
 71
3
 72
8
 73
4
 74
0
 40
0
 40
0
 40
0
 40
0
 40
1
 40
1
 40
1
 40
1
 10
15.898182
 20
15.104259
 30
0.0
 10
15.898182
 20
15.314775
 30
0.0
 10
15.814555
 20
15.516668
 30
0.0
 10
15.665698
 20
15.665526
 30
0.0
  0
LINE
  5
1ab
100
AcDbEntity
  8
Calque_1
 62
7
100
AcDbLine
 10
15.665698
 20
15.665526
 30
0.0
 11
15.665698
 21
15.665526
 31
0.0
  0
SPLINE
  5
1ac
100
AcDbEntity
  8
Calque_1
 62
7
100
AcDbSpline
 70
8
 71
3
 72
8
 73
4
 74
0
 40
0
 40
0
 40
0
 40
0
 40
1
 40
1
 40
1
 40
1
 10
10.009144
 20
10.008971
 30
0.0
 10
9.782133
 20
10.235982
 30
0.0
 10
9.440726
 20
10.303892
 30
0.0
 10
9.144122
 20
10.181035
 30
0.0
  0
SPLINE
  5
1ad
100
AcDbEntity
  8
Calque_1
 62
7
100
AcDbSpline
 70
8
 71
3
 72
8
 73
4
 74
0
 40
0
 40
0
 40
0
 40
0
 40
1
 40
1
 40
1
 40
1
 10
9.144122
 20
10.181035
 30
0.0
 10
8.847518
 20
10.058177
 30
0.0
 10
8.654126
 20
9.768747
 30
0.0
 10
8.654126
 20
9.447705
 30
0.0
  0
SPLINE
  5
1ae
100
AcDbEntity
  8
Calque_1
 62
7
100
AcDbSpline
 70
8
 71
3
 72
8
 73
4
 74
0
 40
0
 40
0
 40
0
 40
0
 40
1
 40
1
 40
1
 40
1
 10
8.654126
 20
9.447705
 30
0.0
 10
8.654126
 20
9.126662
 30
0.0
 10
8.847518
 20
8.837232
 30
0.0
 10
9.144122
 20
8.714375
 30
0.0
  0
SPLINE
  5
1af
100
AcDbEntity
  8
Calque_1
 62
7
100
AcDbSpline
 70
8
 71
3
 72
8
 73
4
 74
0
 40
0
 40
0
 40
0
 40
0
 40
1
 40
1
 40
1
 40
1
 10
9.144122
 20
8.714375
 30
0.0
 10
9.440726
 20
8.591517
 30
0.0
 10
9.782133
 20
8.659427
 30
0.0
 10
10.009144
 20
8.886438
 30
0.0
  0
SPLINE
  5
1b0
100
AcDbEntity
  8
Calque_1
 62
7
100
AcDbSpline
 70
8
 71
3
 72
8
 73
4
 74
0
 40
0
 40
0
 40
0
 40
0
 40
1
 40
1
 40
1
 40
1
 10
10.009144
 20
8.886438
 30
0.0
 10
10.158001
 20
9.035295
 30
0.0
 10
10.241628
 20
9.237189
 30
0.0
 10
10.241628
 20
9.447705
 30
0.0
  0
SPLINE
  5
1b1
100
AcDbEntity
  8
Calque_1
 62
7
100
AcDbSpline
 70
8
 71
3
 72
8
 73
4
 74
0
 40
0
 40
0
 40
0
 40
0
 40
1
 40
1
 40
1
 40
1
 10
10.241628
 20
9.447705
 30
0.0
 10
10.241628
 20
9.658220
 30
0.0
 10
10.158001
 20
9.860114
 30
0.0
 10
10.009144
 20
10.008971
 30
0.0
  0
LINE
  5
1b2
100
AcDbEntity
  8
Calque_1
 62
7
100
AcDbLine
 10
10.009144
 20
10.008971
 30
0.0
 11
10.009144
 21
10.008971
 31
0.0
  0
SPLINE
  5
1b3
100
AcDbEntity
  8
Calque_1
 62
7
100
AcDbSpline
 70
8
 71
3
 72
8
 73
4
 74
0
 40
0
 40
0
 40
0
 40
0
 40
1
 40
1
 40
1
 40
1
 10
4.352281
 20
4.352108
 30
0.0
 10
4.125270
 20
4.579119
 30
0.0
 10
3.783863
 20
4.647029
 30
0.0
 10
3.487259
 20
4.524172
 30
0.0
  0
SPLINE
  5
1b4
100
AcDbEntity
  8
Calque_1
 62
7
100
AcDbSpline
 70
8
 71
3
 72
8
 73
4
 74
0
 40
0
 40
0
 40
0
 40
0
 40
1
 40
1
 40
1
 40
1
 10
3.487259
 20
4.524172
 30
0.0
 10
3.190655
 20
4.401314
 30
0.0
 10
2.997263
 20
4.111884
 30
0.0
 10
2.997263
 20
3.790842
 30
0.0
  0
SPLINE
  5
1b5
100
AcDbEntity
  8
Calque_1
 62
7
100
AcDbSpline
 70
8
 71
3
 72
8
 73
4
 74
0
 40
0
 40
0
 40
0
 40
0
 40
1
 40
1
 40
1
 40
1
 10
2.997263
 20
3.790842
 30
0.0
 10
2.997263
 20
3.469799
 30
0.0
 10
3.190655
 20
3.180369
 30
0.0
 10
3.487259
 20
3.057511
 30
0.0
  0
SPLINE
  5
1b6
100
AcDbEntity
  8
Calque_1
 62
7
100
AcDbSpline
 70
8
 71
3
 72
8
 73
4
 74
0
 40
0
 40
0
 40
0
 40
0
 40
1
 40
1
 40
1
 40
1
 10
3.487259
 20
3.057511
 30
0.0
 10
3.783863
 20
2.934654
 30
0.0
 10
4.125270
 20
3.002564
 30
0.0
 10
4.352281
 20
3.229575
 30
0.0
  0
SPLINE
  5
1b7
100
AcDbEntity
  8
Calque_1
 62
7
100
AcDbSpline
 70
8
 71
3
 72
8
 73
4
 74
0
 40
0
 40
0
 40
0
 40
0
 40
1
 40
1
 40
1
 40
1
 10
4.352281
 20
3.229575
 30
0.0
 10
4.501138
 20
3.378432
 30
0.0
 10
4.584765
 20
3.580326
 30
0.0
 10
4.584765
 20
3.790842
 30
0.0
  0
SPLINE
  5
1b8
100
AcDbEntity
  8
Calque_1
 62
7
100
AcDbSpline
 70
8
 71
3
 72
8
 73
4
 74
0
 40
0
 40
0
 40
0
 40
0
 40
1
 40
1
 40
1
 40
1
 10
4.584765
 20
3.790842
 30
0.0
 10
4.584765
 20
4.001357
 30
0.0
 10
4.501138
 20
4.203251
 30
0.0
 10
4.352281
 20
4.352108
 30
0.0
  0
LINE
  5
1b9
100
AcDbEntity
  8
Calque_1
 62
7
100
AcDbLine
 10
4.352281
 20
4.352108
 30
0.0
 11
4.352281
 21
4.352108
 31
0.0
  0
SPLINE
  5
1ba
100
AcDbEntity
  8
Calque_1
 62
7
100
AcDbSpline
 70
8
 71
3
 72
8
 73
4
 74
0
 40
0
 40
0
 40
0
 40
0
 40
1
 40
1
 40
1
 40
1
 10
28.333869
 20
96.918565
 30
0.0
 10
28.023766
 20
96.835473
 30
0.0
 10
27.794251
 20
96.573762
 30
0.0
 10
27.752346
 20
96.255466
 30
0.0
  0
SPLINE
  5
1bb
100
AcDbEntity
  8
Calque_1
 62
7
100
AcDbSpline
 70
8
 71
3
 72
8
 73
4
 74
0
 40
0
 40
0
 40
0
 40
0
 40
1
 40
1
 40
1
 40
1
 10
27.752346
 20
96.255466
 30
0.0
 10
27.710442
 20
95.937170
 30
0.0
 10
27.864400
 20
95.624974
 30
0.0
 10
28.142431
 20
95.464452
 30
0.0
  0
SPLINE
  5
1bc
100
AcDbEntity
  8
Calque_1
 62
7
100
AcDbSpline
 70
8
 71
3
 72
8
 73
4
 74
0
 40
0
 40
0
 40
0
 40
0
 40
1
 40
1
 40
1
 40
1
 10
28.142431
 20
95.464452
 30
0.0
 10
28.420462
 20
95.303931
 30
0.0
 10
28.767811
 20
95.326698
 30
0.0
 10
29.022511
 20
95.522136
 30
0.0
  0
SPLINE
  5
1bd
100
AcDbEntity
  8
Calque_1
 62
7
100
AcDbSpline
 70
8
 71
3
 72
8
 73
4
 74
0
 40
0
 40
0
 40
0
 40
0
 40
1
 40
1
 40
1
 40
1
 10
29.022511
 20
95.522136
 30
0.0
 10
29.277211
 20
95.717574
 30
0.0
 10
29.389102
 20
96.047195
 30
0.0
 10
29.306011
 20
96.357298
 30
0.0
  0
SPLINE
  5
1be
100
AcDbEntity
  8
Calque_1
 62
7
100
AcDbSpline
 70
8
 71
3
 72
8
 73
4
 74
0
 40
0
 40
0
 40
0
 40
0
 40
1
 40
1
 40
1
 40
1
 10
29.306011
 20
96.357298
 30
0.0
 10
29.251525
 20
96.560641
 30
0.0
 10
29.118494
 20
96.734011
 30
0.0
 10
28.936182
 20
96.839269
 30
0.0
  0
SPLINE
  5
1bf
100
AcDbEntity
  8
Calque_1
 62
7
100
AcDbSpline
 70
8
 71
3
 72
8
 73
4
 74
0
 40
0
 40
0
 40
0
 40
0
 40
1
 40
1
 40
1
 40
1
 10
28.936182
 20
96.839269
 30
0.0
 10
28.753870
 20
96.944527
 30
0.0
 10
28.537211
 20
96.973050
 30
0.0
 10
28.333869
 20
96.918565
 30
0.0
  0
LINE
  5
1c0
100
AcDbEntity
  8
Calque_1
 62
7
100
AcDbLine
 10
28.333869
 20
96.918565
 30
0.0
 11
28.333869
 21
96.918565
 31
0.0
  0
SPLINE
  5
1c1
100
AcDbEntity
  8
Calque_1
 62
7
100
AcDbSpline
 70
8
 71
3
 72
8
 73
4
 74
0
 40
0
 40
0
 40
0
 40
0
 40
1
 40
1
 40
1
 40
1
 10
30.404310
 20
89.191570
 30
0.0
 10
30.094207
 20
89.108478
 30
0.0
 10
29.864692
 20
88.846767
 30
0.0
 10
29.822788
 20
88.528471
 30
0.0
  0
SPLINE
  5
1c2
100
AcDbEntity
  8
Calque_1
 62
7
100
AcDbSpline
 70
8
 71
3
 72
8
 73
4
 74
0
 40
0
 40
0
 40
0
 40
0
 40
1
 40
1
 40
1
 40
1
 10
29.822788
 20
88.528471
 30
0.0
 10
29.780883
 20
88.210176
 30
0.0
 10
29.934842
 20
87.897979
 30
0.0
 10
30.212872
 20
87.737458
 30
0.0
  0
SPLINE
  5
1c3
100
AcDbEntity
  8
Calque_1
 62
7
100
AcDbSpline
 70
8
 71
3
 72
8
 73
4
 74
0
 40
0
 40
0
 40
0
 40
0
 40
1
 40
1
 40
1
 40
1
 10
30.212872
 20
87.737458
 30
0.0
 10
30.490903
 20
87.576937
 30
0.0
 10
30.838252
 20
87.599703
 30
0.0
 10
31.092952
 20
87.795141
 30
0.0
  0
SPLINE
  5
1c4
100
AcDbEntity
  8
Calque_1
 62
7
100
AcDbSpline
 70
8
 71
3
 72
8
 73
4
 74
0
 40
0
 40
0
 40
0
 40
0
 40
1
 40
1
 40
1
 40
1
 10
31.092952
 20
87.795141
 30
0.0
 10
31.347652
 20
87.990579
 30
0.0
 10
31.459544
 20
88.320201
 30
0.0
 10
31.376452
 20
88.630304
 30
0.0
  0
SPLINE
  5
1c5
100
AcDbEntity
  8
Calque_1
 62
7
100
AcDbSpline
 70
8
 71
3
 72
8
 73
4
 74
0
 40
0
 40
0
 40
0
 40
0
 40
1
 40
1
 40
1
 40
1
 10
31.376452
 20
88.630304
 30
0.0
 10
31.321966
 20
88.833646
 30
0.0
 10
31.188935
 20
89.007016
 30
0.0
 10
31.006623
 20
89.112274
 30
0.0
  0
SPLINE
  5
1c6
100
AcDbEntity
  8
Calque_1
 62
7
100
AcDbSpline
 70
8
 71
3
 72
8
 73
4
 74
0
 40
0
 40
0
 40
0
 40
0
 40
1
 40
1
 40
1
 40
1
 10
31.006623
 20
89.112274
 30
0.0
 10
30.824311
 20
89.217532
 30
0.0
 10
30.607653
 20
89.246056
 30
0.0
 10
30.404310
 20
89.191570
 30
0.0
  0
LINE
  5
1c7
100
AcDbEntity
  8
Calque_1
 62
7
100
AcDbLine
 10
30.404310
 20
89.191570
 30
0.0
 11
30.404310
 21
89.191570
 31
0.0
  0
SPLINE
  5
1c8
100
AcDbEntity
  8
Calque_1
 62
7
100
AcDbSpline
 70
8
 71
3
 72
8
 73
4
 74
0
 40
0
 40
0
 40
0
 40
0
 40
1
 40
1
 40
1
 40
1
 10
32.474864
 20
81.464155
 30
0.0
 10
32.164761
 20
81.381063
 30
0.0
 10
31.935246
 20
81.119352
 30
0.0
 10
31.893342
 20
80.801056
 30
0.0
  0
SPLINE
  5
1c9
100
AcDbEntity
  8
Calque_1
 62
7
100
AcDbSpline
 70
8
 71
3
 72
8
 73
4
 74
0
 40
0
 40
0
 40
0
 40
0
 40
1
 40
1
 40
1
 40
1
 10
31.893342
 20
80.801056
 30
0.0
 10
31.851437
 20
80.482761
 30
0.0
 10
32.005395
 20
80.170564
 30
0.0
 10
32.283426
 20
80.010043
 30
0.0
  0
SPLINE
  5
1ca
100
AcDbEntity
  8
Calque_1
 62
7
100
AcDbSpline
 70
8
 71
3
 72
8
 73
4
 74
0
 40
0
 40
0
 40
0
 40
0
 40
1
 40
1
 40
1
 40
1
 10
32.283426
 20
80.010043
 30
0.0
 10
32.561457
 20
79.849522
 30
0.0
 10
32.908806
 20
79.872288
 30
0.0
 10
33.163506
 20
80.067726
 30
0.0
  0
SPLINE
  5
1cb
100
AcDbEntity
  8
Calque_1
 62
7
100
AcDbSpline
 70
8
 71
3
 72
8
 73
4
 74
0
 40
0
 40
0
 40
0
 40
0
 40
1
 40
1
 40
1
 40
1
 10
33.163506
 20
80.067726
 30
0.0
 10
33.418206
 20
80.263164
 30
0.0
 10
33.530098
 20
80.592786
 30
0.0
 10
33.447006
 20
80.902889
 30
0.0
  0
SPLINE
  5
1cc
100
AcDbEntity
  8
Calque_1
 62
7
100
AcDbSpline
 70
8
 71
3
 72
8
 73
4
 74
0
 40
0
 40
0
 40
0
 40
0
 40
1
 40
1
 40
1
 40
1
 10
33.447006
 20
80.902889
 30
0.0
 10
33.392520
 20
81.106231
 30
0.0
 10
33.259489
 20
81.279601
 30
0.0
 10
33.077177
 20
81.384859
 30
0.0
  0
SPLINE
  5
1cd
100
AcDbEntity
  8
Calque_1
 62
7
100
AcDbSpline
 70
8
 71
3
 72
8
 73
4
 74
0
 40
0
 40
0
 40
0
 40
0
 40
1
 40
1
 40
1
 40
1
 10
33.077177
 20
81.384859
 30
0.0
 10
32.894865
 20
81.490117
 30
0.0
 10
32.678206
 20
81.518641
 30
0.0
 10
32.474864
 20
81.464155
 30
0.0
  0
LINE
  5
1ce
100
AcDbEntity
  8
Calque_1
 62
7
100
AcDbLine
 10
32.474864
 20
81.464155
 30
0.0
 11
32.474864
 21
81.464155
 31
0.0
  0
SPLINE
  5
1cf
100
AcDbEntity
  8
Calque_1
 62
7
100
AcDbSpline
 70
8
 71
3
 72
8
 73
4
 74
0
 40
0
 40
0
 40
0
 40
0
 40
1
 40
1
 40
1
 40
1
 10
34.545417
 20
73.736741
 30
0.0
 10
34.235315
 20
73.653649
 30
0.0
 10
34.005800
 20
73.391938
 30
0.0
 10
33.963895
 20
73.073642
 30
0.0
  0
SPLINE
  5
1d0
100
AcDbEntity
  8
Calque_1
 62
7
100
AcDbSpline
 70
8
 71
3
 72
8
 73
4
 74
0
 40
0
 40
0
 40
0
 40
0
 40
1
 40
1
 40
1
 40
1
 10
33.963895
 20
73.073642
 30
0.0
 10
33.921991
 20
72.755347
 30
0.0
 10
34.075949
 20
72.443150
 30
0.0
 10
34.353980
 20
72.282629
 30
0.0
  0
SPLINE
  5
1d1
100
AcDbEntity
  8
Calque_1
 62
7
100
AcDbSpline
 70
8
 71
3
 72
8
 73
4
 74
0
 40
0
 40
0
 40
0
 40
0
 40
1
 40
1
 40
1
 40
1
 10
34.353980
 20
72.282629
 30
0.0
 10
34.632010
 20
72.122108
 30
0.0
 10
34.979360
 20
72.144874
 30
0.0
 10
35.234060
 20
72.340312
 30
0.0
  0
SPLINE
  5
1d2
100
AcDbEntity
  8
Calque_1
 62
7
100
AcDbSpline
 70
8
 71
3
 72
8
 73
4
 74
0
 40
0
 40
0
 40
0
 40
0
 40
1
 40
1
 40
1
 40
1
 10
35.234060
 20
72.340312
 30
0.0
 10
35.488760
 20
72.535750
 30
0.0
 10
35.600651
 20
72.865372
 30
0.0
 10
35.517559
 20
73.175475
 30
0.0
  0
SPLINE
  5
1d3
100
AcDbEntity
  8
Calque_1
 62
7
100
AcDbSpline
 70
8
 71
3
 72
8
 73
4
 74
0
 40
0
 40
0
 40
0
 40
0
 40
1
 40
1
 40
1
 40
1
 10
35.517559
 20
73.175475
 30
0.0
 10
35.463074
 20
73.378817
 30
0.0
 10
35.330042
 20
73.552187
 30
0.0
 10
35.147730
 20
73.657445
 30
0.0
  0
SPLINE
  5
1d4
100
AcDbEntity
  8
Calque_1
 62
7
100
AcDbSpline
 70
8
 71
3
 72
8
 73
4
 74
0
 40
0
 40
0
 40
0
 40
0
 40
1
 40
1
 40
1
 40
1
 10
35.147730
 20
73.657445
 30
0.0
 10
34.965419
 20
73.762703
 30
0.0
 10
34.748760
 20
73.791227
 30
0.0
 10
34.545417
 20
73.736741
 30
0.0
  0
LINE
  5
1d5
100
AcDbEntity
  8
Calque_1
 62
7
100
AcDbLine
 10
34.545417
 20
73.736741
 30
0.0
 11
34.545417
 21
73.736741
 31
0.0
  0
SPLINE
  5
1d6
100
AcDbEntity
  8
Calque_1
 62
7
100
AcDbSpline
 70
8
 71
3
 72
8
 73
4
 74
0
 40
0
 40
0
 40
0
 40
0
 40
1
 40
1
 40
1
 40
1
 10
36.615859
 20
66.009745
 30
0.0
 10
36.305756
 20
65.926653
 30
0.0
 10
36.076241
 20
65.664942
 30
0.0
 10
36.034337
 20
65.346646
 30
0.0
  0
SPLINE
  5
1d7
100
AcDbEntity
  8
Calque_1
 62
7
100
AcDbSpline
 70
8
 71
3
 72
8
 73
4
 74
0
 40
0
 40
0
 40
0
 40
0
 40
1
 40
1
 40
1
 40
1
 10
36.034337
 20
65.346646
 30
0.0
 10
35.992432
 20
65.028351
 30
0.0
 10
36.146391
 20
64.716154
 30
0.0
 10
36.424421
 20
64.555633
 30
0.0
  0
SPLINE
  5
1d8
100
AcDbEntity
  8
Calque_1
 62
7
100
AcDbSpline
 70
8
 71
3
 72
8
 73
4
 74
0
 40
0
 40
0
 40
0
 40
0
 40
1
 40
1
 40
1
 40
1
 10
36.424421
 20
64.555633
 30
0.0
 10
36.702452
 20
64.395112
 30
0.0
 10
37.049802
 20
64.417878
 30
0.0
 10
37.304501
 20
64.613316
 30
0.0
  0
SPLINE
  5
1d9
100
AcDbEntity
  8
Calque_1
 62
7
100
AcDbSpline
 70
8
 71
3
 72
8
 73
4
 74
0
 40
0
 40
0
 40
0
 40
0
 40
1
 40
1
 40
1
 40
1
 10
37.304501
 20
64.613316
 30
0.0
 10
37.559201
 20
64.808754
 30
0.0
 10
37.671093
 20
65.138376
 30
0.0
 10
37.588001
 20
65.448479
 30
0.0
  0
SPLINE
  5
1da
100
AcDbEntity
  8
Calque_1
 62
7
100
AcDbSpline
 70
8
 71
3
 72
8
 73
4
 74
0
 40
0
 40
0
 40
0
 40
0
 40
1
 40
1
 40
1
 40
1
 10
37.588001
 20
65.448479
 30
0.0
 10
37.533516
 20
65.651821
 30
0.0
 10
37.400484
 20
65.825191
 30
0.0
 10
37.218172
 20
65.930449
 30
0.0
  0
SPLINE
  5
1db
100
AcDbEntity
  8
Calque_1
 62
7
100
AcDbSpline
 70
8
 71
3
 72
8
 73
4
 74
0
 40
0
 40
0
 40
0
 40
0
 40
1
 40
1
 40
1
 40
1
 10
37.218172
 20
65.930449
 30
0.0
 10
37.035860
 20
66.035707
 30
0.0
 10
36.819202
 20
66.064231
 30
0.0
 10
36.615859
 20
66.009745
 30
0.0
  0
LINE
  5
1dc
100
AcDbEntity
  8
Calque_1
 62
7
100
AcDbLine
 10
36.615859
 20
66.009745
 30
0.0
 11
36.615859
 21
66.009745
 31
0.0
  0
SPLINE
  5
1dd
100
AcDbEntity
  8
Calque_1
 62
7
100
AcDbSpline
 70
8
 71
3
 72
8
 73
4
 74
0
 40
0
 40
0
 40
0
 40
0
 40
1
 40
1
 40
1
 40
1
 10
38.686412
 20
58.282332
 30
0.0
 10
38.376309
 20
58.199241
 30
0.0
 10
38.146794
 20
57.937529
 30
0.0
 10
38.104890
 20
57.619234
 30
0.0
  0
SPLINE
  5
1de
100
AcDbEntity
  8
Calque_1
 62
7
100
AcDbSpline
 70
8
 71
3
 72
8
 73
4
 74
0
 40
0
 40
0
 40
0
 40
0
 40
1
 40
1
 40
1
 40
1
 10
38.104890
 20
57.619234
 30
0.0
 10
38.062986
 20
57.300938
 30
0.0
 10
38.216944
 20
56.988741
 30
0.0
 10
38.494975
 20
56.828220
 30
0.0
  0
SPLINE
  5
1df
100
AcDbEntity
  8
Calque_1
 62
7
100
AcDbSpline
 70
8
 71
3
 72
8
 73
4
 74
0
 40
0
 40
0
 40
0
 40
0
 40
1
 40
1
 40
1
 40
1
 10
38.494975
 20
56.828220
 30
0.0
 10
38.773005
 20
56.667699
 30
0.0
 10
39.120355
 20
56.690465
 30
0.0
 10
39.375055
 20
56.885904
 30
0.0
  0
SPLINE
  5
1e0
100
AcDbEntity
  8
Calque_1
 62
7
100
AcDbSpline
 70
8
 71
3
 72
8
 73
4
 74
0
 40
0
 40
0
 40
0
 40
0
 40
1
 40
1
 40
1
 40
1
 10
39.375055
 20
56.885904
 30
0.0
 10
39.629755
 20
57.081342
 30
0.0
 10
39.741646
 20
57.410963
 30
0.0
 10
39.658554
 20
57.721066
 30
0.0
  0
SPLINE
  5
1e1
100
AcDbEntity
  8
Calque_1
 62
7
100
AcDbSpline
 70
8
 71
3
 72
8
 73
4
 74
0
 40
0
 40
0
 40
0
 40
0
 40
1
 40
1
 40
1
 40
1
 10
39.658554
 20
57.721066
 30
0.0
 10
39.604069
 20
57.924409
 30
0.0
 10
39.471037
 20
58.097779
 30
0.0
 10
39.288725
 20
58.203036
 30
0.0
  0
SPLINE
  5
1e2
100
AcDbEntity
  8
Calque_1
 62
7
100
AcDbSpline
 70
8
 71
3
 72
8
 73
4
 74
0
 40
0
 40
0
 40
0
 40
0
 40
1
 40
1
 40
1
 40
1
 10
39.288725
 20
58.203036
 30
0.0
 10
39.106413
 20
58.308294
 30
0.0
 10
38.889755
 20
58.336818
 30
0.0
 10
38.686412
 20
58.282332
 30
0.0
  0
LINE
  5
1e3
100
AcDbEntity
  8
Calque_1
 62
7
100
AcDbLine
 10
38.686412
 20
58.282332
 30
0.0
 11
38.686412
 21
58.282332
 31
0.0
  0
SPLINE
  5
1e4
100
AcDbEntity
  8
Calque_1
 62
7
100
AcDbSpline
 70
8
 71
3
 72
8
 73
4
 74
0
 40
0
 40
0
 40
0
 40
0
 40
1
 40
1
 40
1
 40
1
 10
40.757076
 20
50.554506
 30
0.0
 10
40.446974
 20
50.471414
 30
0.0
 10
40.217459
 20
50.209703
 30
0.0
 10
40.175554
 20
49.891407
 30
0.0
  0
SPLINE
  5
1e5
100
AcDbEntity
  8
Calque_1
 62
7
100
AcDbSpline
 70
8
 71
3
 72
8
 73
4
 74
0
 40
0
 40
0
 40
0
 40
0
 40
1
 40
1
 40
1
 40
1
 10
40.175554
 20
49.891407
 30
0.0
 10
40.133650
 20
49.573111
 30
0.0
 10
40.287608
 20
49.260915
 30
0.0
 10
40.565639
 20
49.100393
 30
0.0
  0
SPLINE
  5
1e6
100
AcDbEntity
  8
Calque_1
 62
7
100
AcDbSpline
 70
8
 71
3
 72
8
 73
4
 74
0
 40
0
 40
0
 40
0
 40
0
 40
1
 40
1
 40
1
 40
1
 10
40.565639
 20
49.100393
 30
0.0
 10
40.843669
 20
48.939872
 30
0.0
 10
41.191019
 20
48.962639
 30
0.0
 10
41.445719
 20
49.158077
 30
0.0
  0
SPLINE
  5
1e7
100
AcDbEntity
  8
Calque_1
 62
7
100
AcDbSpline
 70
8
 71
3
 72
8
 73
4
 74
0
 40
0
 40
0
 40
0
 40
0
 40
1
 40
1
 40
1
 40
1
 10
41.445719
 20
49.158077
 30
0.0
 10
41.700419
 20
49.353515
 30
0.0
 10
41.812310
 20
49.683136
 30
0.0
 10
41.729218
 20
49.993239
 30
0.0
  0
SPLINE
  5
1e8
100
AcDbEntity
  8
Calque_1
 62
7
100
AcDbSpline
 70
8
 71
3
 72
8
 73
4
 74
0
 40
0
 40
0
 40
0
 40
0
 40
1
 40
1
 40
1
 40
1
 10
41.729218
 20
49.993239
 30
0.0
 10
41.674733
 20
50.196582
 30
0.0
 10
41.541701
 20
50.369952
 30
0.0
 10
41.359390
 20
50.475210
 30
0.0
  0
SPLINE
  5
1e9
100
AcDbEntity
  8
Calque_1
 62
7
100
AcDbSpline
 70
8
 71
3
 72
8
 73
4
 74
0
 40
0
 40
0
 40
0
 40
0
 40
1
 40
1
 40
1
 40
1
 10
41.359390
 20
50.475210
 30
0.0
 10
41.177078
 20
50.580468
 30
0.0
 10
40.960419
 20
50.608991
 30
0.0
 10
40.757076
 20
50.554506
 30
0.0
  0
LINE
  5
1ea
100
AcDbEntity
  8
Calque_1
 62
7
100
AcDbLine
 10
40.757076
 20
50.554506
 30
0.0
 11
40.757076
 21
50.554506
 31
0.0
  0
SPLINE
  5
1eb
100
AcDbEntity
  8
Calque_1
 62
7
100
AcDbSpline
 70
8
 71
3
 72
8
 73
4
 74
0
 40
0
 40
0
 40
0
 40
0
 40
1
 40
1
 40
1
 40
1
 10
42.827518
 20
42.827510
 30
0.0
 10
42.517415
 20
42.744418
 30
0.0
 10
42.287900
 20
42.482707
 30
0.0
 10
42.245996
 20
42.164411
 30
0.0
  0
SPLINE
  5
1ec
100
AcDbEntity
  8
Calque_1
 62
7
100
AcDbSpline
 70
8
 71
3
 72
8
 73
4
 74
0
 40
0
 40
0
 40
0
 40
0
 40
1
 40
1
 40
1
 40
1
 10
42.245996
 20
42.164411
 30
0.0
 10
42.204091
 20
41.846115
 30
0.0
 10
42.358050
 20
41.533919
 30
0.0
 10
42.636080
 20
41.373397
 30
0.0
  0
SPLINE
  5
1ed
100
AcDbEntity
  8
Calque_1
 62
7
100
AcDbSpline
 70
8
 71
3
 72
8
 73
4
 74
0
 40
0
 40
0
 40
0
 40
0
 40
1
 40
1
 40
1
 40
1
 10
42.636080
 20
41.373397
 30
0.0
 10
42.914111
 20
41.212876
 30
0.0
 10
43.261461
 20
41.235643
 30
0.0
 10
43.516160
 20
41.431081
 30
0.0
  0
SPLINE
  5
1ee
100
AcDbEntity
  8
Calque_1
 62
7
100
AcDbSpline
 70
8
 71
3
 72
8
 73
4
 74
0
 40
0
 40
0
 40
0
 40
0
 40
1
 40
1
 40
1
 40
1
 10
43.516160
 20
41.431081
 30
0.0
 10
43.770860
 20
41.626519
 30
0.0
 10
43.882752
 20
41.956140
 30
0.0
 10
43.799660
 20
42.266243
 30
0.0
  0
SPLINE
  5
1ef
100
AcDbEntity
  8
Calque_1
 62
7
100
AcDbSpline
 70
8
 71
3
 72
8
 73
4
 74
0
 40
0
 40
0
 40
0
 40
0
 40
1
 40
1
 40
1
 40
1
 10
43.799660
 20
42.266243
 30
0.0
 10
43.745175
 20
42.469586
 30
0.0
 10
43.612143
 20
42.642956
 30
0.0
 10
43.429831
 20
42.748214
 30
0.0
  0
SPLINE
  5
1f0
100
AcDbEntity
  8
Calque_1
 62
7
100
AcDbSpline
 70
8
 71
3
 72
8
 73
4
 74
0
 40
0
 40
0
 40
0
 40
0
 40
1
 40
1
 40
1
 40
1
 10
43.429831
 20
42.748214
 30
0.0
 10
43.247519
 20
42.853472
 30
0.0
 10
43.030861
 20
42.881995
 30
0.0
 10
42.827518
 20
42.827510
 30
0.0
  0
LINE
  5
1f1
100
AcDbEntity
  8
Calque_1
 62
7
100
AcDbLine
 10
42.827518
 20
42.827510
 30
0.0
 11
42.827518
 21
42.827510
 31
0.0
  0
SPLINE
  5
1f2
100
AcDbEntity
  8
Calque_1
 62
7
100
AcDbSpline
 70
8
 71
3
 72
8
 73
4
 74
0
 40
0
 40
0
 40
0
 40
0
 40
1
 40
1
 40
1
 40
1
 10
44.898073
 20
35.100092
 30
0.0
 10
44.587970
 20
35.017000
 30
0.0
 10
44.358455
 20
34.755289
 30
0.0
 10
44.316550
 20
34.436993
 30
0.0
  0
SPLINE
  5
1f3
100
AcDbEntity
  8
Calque_1
 62
7
100
AcDbSpline
 70
8
 71
3
 72
8
 73
4
 74
0
 40
0
 40
0
 40
0
 40
0
 40
1
 40
1
 40
1
 40
1
 10
44.316550
 20
34.436993
 30
0.0
 10
44.274646
 20
34.118698
 30
0.0
 10
44.428604
 20
33.806501
 30
0.0
 10
44.706635
 20
33.645980
 30
0.0
  0
SPLINE
  5
1f4
100
AcDbEntity
  8
Calque_1
 62
7
100
AcDbSpline
 70
8
 71
3
 72
8
 73
4
 74
0
 40
0
 40
0
 40
0
 40
0
 40
1
 40
1
 40
1
 40
1
 10
44.706635
 20
33.645980
 30
0.0
 10
44.984666
 20
33.485459
 30
0.0
 10
45.332015
 20
33.508225
 30
0.0
 10
45.586715
 20
33.703663
 30
0.0
  0
SPLINE
  5
1f5
100
AcDbEntity
  8
Calque_1
 62
7
100
AcDbSpline
 70
8
 71
3
 72
8
 73
4
 74
0
 40
0
 40
0
 40
0
 40
0
 40
1
 40
1
 40
1
 40
1
 10
45.586715
 20
33.703663
 30
0.0
 10
45.841415
 20
33.899101
 30
0.0
 10
45.953306
 20
34.228723
 30
0.0
 10
45.870215
 20
34.538826
 30
0.0
  0
SPLINE
  5
1f6
100
AcDbEntity
  8
Calque_1
 62
7
100
AcDbSpline
 70
8
 71
3
 72
8
 73
4
 74
0
 40
0
 40
0
 40
0
 40
0
 40
1
 40
1
 40
1
 40
1
 10
45.870215
 20
34.538826
 30
0.0
 10
45.815729
 20
34.742168
 30
0.0
 10
45.682698
 20
34.915538
 30
0.0
 10
45.500386
 20
35.020796
 30
0.0
  0
SPLINE
  5
1f7
100
AcDbEntity
  8
Calque_1
 62
7
100
AcDbSpline
 70
8
 71
3
 72
8
 73
4
 74
0
 40
0
 40
0
 40
0
 40
0
 40
1
 40
1
 40
1
 40
1
 10
45.500386
 20
35.020796
 30
0.0
 10
45.318074
 20
35.126054
 30
0.0
 10
45.101415
 20
35.154578
 30
0.0
 10
44.898073
 20
35.100092
 30
0.0
  0
LINE
  5
1f8
100
AcDbEntity
  8
Calque_1
 62
7
100
AcDbLine
 10
44.898073
 20
35.100092
 30
0.0
 11
44.898073
 21
35.100092
 31
0.0
  0
SPLINE
  5
1f9
100
AcDbEntity
  8
Calque_1
 62
7
100
AcDbSpline
 70
8
 71
3
 72
8
 73
4
 74
0
 40
0
 40
0
 40
0
 40
0
 40
1
 40
1
 40
1
 40
1
 10
46.968779
 20
27.372107
 30
0.0
 10
46.658676
 20
27.289015
 30
0.0
 10
46.429161
 20
27.027304
 30
0.0
 10
46.387257
 20
26.709008
 30
0.0
  0
SPLINE
  5
1fa
100
AcDbEntity
  8
Calque_1
 62
7
100
AcDbSpline
 70
8
 71
3
 72
8
 73
4
 74
0
 40
0
 40
0
 40
0
 40
0
 40
1
 40
1
 40
1
 40
1
 10
46.387257
 20
26.709008
 30
0.0
 10
46.345353
 20
26.390713
 30
0.0
 10
46.499311
 20
26.078516
 30
0.0
 10
46.777342
 20
25.917995
 30
0.0
  0
SPLINE
  5
1fb
100
AcDbEntity
  8
Calque_1
 62
7
100
AcDbSpline
 70
8
 71
3
 72
8
 73
4
 74
0
 40
0
 40
0
 40
0
 40
0
 40
1
 40
1
 40
1
 40
1
 10
46.777342
 20
25.917995
 30
0.0
 10
47.055372
 20
25.757474
 30
0.0
 10
47.402722
 20
25.780240
 30
0.0
 10
47.657422
 20
25.975678
 30
0.0
  0
SPLINE
  5
1fc
100
AcDbEntity
  8
Calque_1
 62
7
100
AcDbSpline
 70
8
 71
3
 72
8
 73
4
 74
0
 40
0
 40
0
 40
0
 40
0
 40
1
 40
1
 40
1
 40
1
 10
47.657422
 20
25.975678
 30
0.0
 10
47.912122
 20
26.171116
 30
0.0
 10
48.024013
 20
26.500738
 30
0.0
 10
47.940921
 20
26.810841
 30
0.0
  0
SPLINE
  5
1fd
100
AcDbEntity
  8
Calque_1
 62
7
100
AcDbSpline
 70
8
 71
3
 72
8
 73
4
 74
0
 40
0
 40
0
 40
0
 40
0
 40
1
 40
1
 40
1
 40
1
 10
47.940921
 20
26.810841
 30
0.0
 10
47.886436
 20
27.014183
 30
0.0
 10
47.753404
 20
27.187553
 30
0.0
 10
47.571092
 20
27.292811
 30
0.0
  0
SPLINE
  5
1fe
100
AcDbEntity
  8
Calque_1
 62
7
100
AcDbSpline
 70
8
 71
3
 72
8
 73
4
 74
0
 40
0
 40
0
 40
0
 40
0
 40
1
 40
1
 40
1
 40
1
 10
47.571092
 20
27.292811
 30
0.0
 10
47.388780
 20
27.398069
 30
0.0
 10
47.172122
 20
27.426593
 30
0.0
 10
46.968779
 20
27.372107
 30
0.0
  0
LINE
  5
1ff
100
AcDbEntity
  8
Calque_1
 62
7
100
AcDbLine
 10
46.968779
 20
27.372107
 30
0.0
 11
46.968779
 21
27.372107
 31
0.0
  0
SPLINE
  5
200
100
AcDbEntity
  8
Calque_1
 62
7
100
AcDbSpline
 70
8
 71
3
 72
8
 73
4
 74
0
 40
0
 40
0
 40
0
 40
0
 40
1
 40
1
 40
1
 40
1
 10
49.039221
 20
19.645111
 30
0.0
 10
48.729118
 20
19.562019
 30
0.0
 10
48.499603
 20
19.300308
 30
0.0
 10
48.457699
 20
18.982012
 30
0.0
  0
SPLINE
  5
201
100
AcDbEntity
  8
Calque_1
 62
7
100
AcDbSpline
 70
8
 71
3
 72
8
 73
4
 74
0
 40
0
 40
0
 40
0
 40
0
 40
1
 40
1
 40
1
 40
1
 10
48.457699
 20
18.982012
 30
0.0
 10
48.415794
 20
18.663717
 30
0.0
 10
48.569753
 20
18.351520
 30
0.0
 10
48.847783
 20
18.190999
 30
0.0
  0
SPLINE
  5
202
100
AcDbEntity
  8
Calque_1
 62
7
100
AcDbSpline
 70
8
 71
3
 72
8
 73
4
 74
0
 40
0
 40
0
 40
0
 40
0
 40
1
 40
1
 40
1
 40
1
 10
48.847783
 20
18.190999
 30
0.0
 10
49.125814
 20
18.030478
 30
0.0
 10
49.473163
 20
18.053244
 30
0.0
 10
49.727863
 20
18.248682
 30
0.0
  0
SPLINE
  5
203
100
AcDbEntity
  8
Calque_1
 62
7
100
AcDbSpline
 70
8
 71
3
 72
8
 73
4
 74
0
 40
0
 40
0
 40
0
 40
0
 40
1
 40
1
 40
1
 40
1
 10
49.727863
 20
18.248682
 30
0.0
 10
49.982563
 20
18.444120
 30
0.0
 10
50.094455
 20
18.773742
 30
0.0
 10
50.011363
 20
19.083845
 30
0.0
  0
SPLINE
  5
204
100
AcDbEntity
  8
Calque_1
 62
7
100
AcDbSpline
 70
8
 71
3
 72
8
 73
4
 74
0
 40
0
 40
0
 40
0
 40
0
 40
1
 40
1
 40
1
 40
1
 10
50.011363
 20
19.083845
 30
0.0
 10
49.956877
 20
19.287187
 30
0.0
 10
49.823846
 20
19.460557
 30
0.0
 10
49.641534
 20
19.565815
 30
0.0
  0
SPLINE
  5
205
100
AcDbEntity
  8
Calque_1
 62
7
100
AcDbSpline
 70
8
 71
3
 72
8
 73
4
 74
0
 40
0
 40
0
 40
0
 40
0
 40
1
 40
1
 40
1
 40
1
 10
49.641534
 20
19.565815
 30
0.0
 10
49.459222
 20
19.671073
 30
0.0
 10
49.242563
 20
19.699597
 30
0.0
 10
49.039221
 20
19.645111
 30
0.0
  0
LINE
  5
206
100
AcDbEntity
  8
Calque_1
 62
7
100
AcDbLine
 10
49.039221
 20
19.645111
 30
0.0
 11
49.039221
 21
19.645111
 31
0.0
  0
SPLINE
  5
207
100
AcDbEntity
  8
Calque_1
 62
7
100
AcDbSpline
 70
8
 71
3
 72
8
 73
4
 74
0
 40
0
 40
0
 40
0
 40
0
 40
1
 40
1
 40
1
 40
1
 10
51.109775
 20
11.917693
 30
0.0
 10
50.799673
 20
11.834602
 30
0.0
 10
50.570158
 20
11.572890
 30
0.0
 10
50.528253
 20
11.254594
 30
0.0
  0
SPLINE
  5
208
100
AcDbEntity
  8
Calque_1
 62
7
100
AcDbSpline
 70
8
 71
3
 72
8
 73
4
 74
0
 40
0
 40
0
 40
0
 40
0
 40
1
 40
1
 40
1
 40
1
 10
50.528253
 20
11.254594
 30
0.0
 10
50.486349
 20
10.936299
 30
0.0
 10
50.640307
 20
10.624102
 30
0.0
 10
50.918338
 20
10.463581
 30
0.0
  0
SPLINE
  5
209
100
AcDbEntity
  8
Calque_1
 62
7
100
AcDbSpline
 70
8
 71
3
 72
8
 73
4
 74
0
 40
0
 40
0
 40
0
 40
0
 40
1
 40
1
 40
1
 40
1
 10
50.918338
 20
10.463581
 30
0.0
 10
51.196368
 20
10.303060
 30
0.0
 10
51.543718
 20
10.325826
 30
0.0
 10
51.798418
 20
10.521264
 30
0.0
  0
SPLINE
  5
20a
100
AcDbEntity
  8
Calque_1
 62
7
100
AcDbSpline
 70
8
 71
3
 72
8
 73
4
 74
0
 40
0
 40
0
 40
0
 40
0
 40
1
 40
1
 40
1
 40
1
 10
51.798418
 20
10.521264
 30
0.0
 10
52.053118
 20
10.716702
 30
0.0
 10
52.165009
 20
11.046324
 30
0.0
 10
52.081917
 20
11.356427
 30
0.0
  0
SPLINE
  5
20b
100
AcDbEntity
  8
Calque_1
 62
7
100
AcDbSpline
 70
8
 71
3
 72
8
 73
4
 74
0
 40
0
 40
0
 40
0
 40
0
 40
1
 40
1
 40
1
 40
1
 10
52.081917
 20
11.356427
 30
0.0
 10
52.027432
 20
11.559769
 30
0.0
 10
51.894401
 20
11.733139
 30
0.0
 10
51.712089
 20
11.838397
 30
0.0
  0
SPLINE
  5
20c
100
AcDbEntity
  8
Calque_1
 62
7
100
AcDbSpline
 70
8
 71
3
 72
8
 73
4
 74
0
 40
0
 40
0
 40
0
 40
0
 40
1
 40
1
 40
1
 40
1
 10
51.712089
 20
11.838397
 30
0.0
 10
51.529777
 20
11.943655
 30
0.0
 10
51.313118
 20
11.972179
 30
0.0
 10
51.109775
 20
11.917693
 30
0.0
  0
LINE
  5
20d
100
AcDbEntity
  8
Calque_1
 62
7
100
AcDbLine
 10
51.109775
 20
11.917693
 30
0.0
 11
51.109775
 21
11.917693
 31
0.0
  0
ENDSEC
  0
SECTION
  2
OBJECTS
  0
DICTIONARY
  5
C
330
0
100
AcDbDictionary
  3
ACAD_GROUP
350
D
  3
ACAD_MLINESTYLE
350
17
  0
DICTIONARY
  5
D
330
C
100
AcDbDictionary
  0
DICTIONARY
  5
1A
330
C
100
AcDbDictionary
  0
DICTIONARY
  5
17
330
C
100
AcDbDictionary
  3
STANDARD
350
18
  0
DICTIONARY
  5
19
330
C
100
AcDbDictionary
  0
ENDSEC
  0
EOF
